<svg width="245" height="242" viewBox="0 0 245 242" fill="none" xmlns="http://www.w3.org/2000/svg">
<g clip-path="url(#clip0_29_17212)">
<rect width="245" height="244" rx="7.13607" fill="#EAF6FC"/>
<path d="M16.335 18.9509V31H14.2661V18.9509H16.335ZM23.5843 18.9509L18.6852 25.8196H15.7475L15.4661 24.0155H17.535L21.0438 18.9509H23.5843ZM21.4658 31L17.5681 25.5051L18.9087 23.9079L23.9567 31H21.4658ZM24.6436 29.5352V33.9792H22.6492V29.5352H24.6436ZM28.5579 30.0235L30.9909 22.0459H33.1259L29.5344 32.3655C29.4516 32.5861 29.3441 32.8261 29.2116 33.0854C29.0792 33.3447 28.9055 33.5902 28.6903 33.8219C28.4806 34.0592 28.2186 34.2495 27.9041 34.3929C27.5897 34.5419 27.209 34.6164 26.7621 34.6164C26.5856 34.6164 26.4145 34.5998 26.249 34.5667C26.089 34.5391 25.9373 34.5088 25.7939 34.4757L25.7856 32.953C25.8408 32.9585 25.907 32.964 25.9842 32.9696C26.067 32.9751 26.1332 32.9778 26.1828 32.9778C26.5138 32.9778 26.7897 32.9365 27.0104 32.8537C27.2311 32.7765 27.4104 32.6496 27.5483 32.473C27.6917 32.2965 27.8131 32.0593 27.9124 31.7613L28.5579 30.0235ZM27.1842 22.0459L29.311 28.7491L29.6668 30.851L28.2848 31.2069L25.0325 22.0459H27.1842ZM36.2706 23.7672V34.4426H34.2762V22.0459H36.1134L36.2706 23.7672ZM42.1048 26.4402V26.614C42.1048 27.265 42.0276 27.8691 41.8731 28.4263C41.7242 28.978 41.5007 29.4608 41.2028 29.8745C40.9104 30.2828 40.549 30.6 40.1187 30.8262C39.6884 31.0524 39.1919 31.1655 38.6291 31.1655C38.0719 31.1655 37.5837 31.0634 37.1644 30.8593C36.7506 30.6497 36.4003 30.3545 36.1134 29.9738C35.8265 29.5932 35.5948 29.1463 35.4183 28.6332C35.2472 28.1146 35.1259 27.5464 35.0541 26.9285V26.2582C35.1259 25.6016 35.2472 25.0058 35.4183 24.4707C35.5948 23.9355 35.8265 23.4748 36.1134 23.0886C36.4003 22.7025 36.7506 22.4045 37.1644 22.1949C37.5782 21.9853 38.0609 21.8804 38.6126 21.8804C39.1753 21.8804 39.6746 21.9908 40.1104 22.2114C40.5463 22.4266 40.9132 22.7356 41.2111 23.1383C41.509 23.5355 41.7324 24.0155 41.8814 24.5782C42.0304 25.1354 42.1048 25.7561 42.1048 26.4402ZM40.1104 26.614V26.4402C40.1104 26.0264 40.0718 25.643 39.9946 25.2899C39.9174 24.9313 39.796 24.6169 39.6305 24.3465C39.465 24.0762 39.2526 23.8665 38.9933 23.7176C38.7395 23.5631 38.4333 23.4859 38.0747 23.4859C37.7216 23.4859 37.4182 23.5466 37.1644 23.6679C36.9106 23.7838 36.6982 23.9465 36.5272 24.1562C36.3561 24.3658 36.2237 24.6113 36.1299 24.8927C36.0362 25.1686 35.97 25.4692 35.9313 25.7947V27.4002C35.9975 27.7974 36.1106 28.1615 36.2706 28.4925C36.4306 28.8236 36.6568 29.0884 36.9492 29.287C37.2471 29.4801 37.6278 29.5766 38.0912 29.5766C38.4498 29.5766 38.756 29.4994 39.0098 29.3449C39.2636 29.1904 39.4705 28.978 39.6305 28.7077C39.796 28.4318 39.9174 28.1146 39.9946 27.756C40.0718 27.3974 40.1104 27.0167 40.1104 26.614ZM45.8619 28.087L49.379 22.0459H51.3734V31H49.379V24.9506L45.8619 31H43.8675V22.0459H45.8619V28.087ZM59.4999 22.0459V23.6348H55.1304V22.0459H59.4999ZM61.0639 22.0459V31H59.0696V22.0459H61.0639ZM54.6422 22.0459H56.6117L56.3717 26.4733C56.3386 27.1298 56.2724 27.7091 56.1731 28.2112C56.0793 28.7077 55.9525 29.1353 55.7925 29.4939C55.6325 29.847 55.4366 30.1338 55.2049 30.3545C54.9732 30.5752 54.7029 30.7379 54.3939 30.8428C54.085 30.9476 53.7374 31 53.3512 31H52.7305L52.7223 29.3615L53.0367 29.3366C53.2409 29.3201 53.4174 29.2677 53.5664 29.1794C53.7153 29.0856 53.8422 28.9532 53.947 28.7822C54.0574 28.6111 54.1456 28.3905 54.2119 28.1201C54.2836 27.8498 54.3387 27.5298 54.3774 27.1602C54.4215 26.7905 54.4546 26.3602 54.4767 25.8692L54.6422 22.0459ZM65.2431 28.087L68.7601 22.0459H70.7545V31H68.7601V24.9506L65.2431 31H63.2487V22.0459H65.2431V28.087ZM72.931 22.0459H74.9254V29.4111H77.7638V22.0459H79.7748V29.4111H82.605V22.0459H84.5994V31H72.931V22.0459ZM96.9795 22.0459V23.6348H92.5604V22.0459H96.9795ZM93.0321 22.0459V31H91.0377V22.0459H93.0321ZM98.5436 22.0459V31H96.5409V22.0459H98.5436ZM103.252 30.0235L105.685 22.0459H107.82L104.229 32.3655C104.146 32.5861 104.038 32.8261 103.906 33.0854C103.774 33.3447 103.6 33.5902 103.385 33.8219C103.175 34.0592 102.913 34.2495 102.599 34.3929C102.284 34.5419 101.903 34.6164 101.457 34.6164C101.28 34.6164 101.109 34.5998 100.943 34.5667C100.783 34.5391 100.632 34.5088 100.488 34.4757L100.48 32.953C100.535 32.9585 100.601 32.964 100.679 32.9696C100.761 32.9751 100.828 32.9778 100.877 32.9778C101.208 32.9778 101.484 32.9365 101.705 32.8537C101.925 32.7765 102.105 32.6496 102.243 32.473C102.386 32.2965 102.508 32.0593 102.607 31.7613L103.252 30.0235ZM101.879 22.0459L104.005 28.7491L104.361 30.851L102.979 31.2069L99.7269 22.0459H101.879ZM110.121 22.0459H112.115L112.016 25.1989C111.988 26.1147 111.884 26.9009 111.702 27.5574C111.519 28.2139 111.282 28.7684 110.99 29.2208C110.697 29.6676 110.366 30.0345 109.997 30.3214C109.633 30.6083 109.249 30.8345 108.847 31H108.259V29.4277L108.54 29.4111C108.778 29.1573 108.982 28.9035 109.153 28.6498C109.329 28.3905 109.478 28.1063 109.6 27.7974C109.721 27.4829 109.815 27.116 109.881 26.6968C109.953 26.2775 110 25.7782 110.022 25.1989L110.121 22.0459ZM110.651 22.0459H116.328V31H114.341V23.7341H110.651V22.0459ZM107.804 29.4111H117.552V33.6647H115.558V31H109.823V33.6647H107.796L107.804 29.4111ZM120.929 23.7672V34.4426H118.934V22.0459H120.771L120.929 23.7672ZM126.763 26.4402V26.614C126.763 27.265 126.686 27.8691 126.531 28.4263C126.382 28.978 126.159 29.4608 125.861 29.8745C125.568 30.2828 125.207 30.6 124.777 30.8262C124.346 31.0524 123.85 31.1655 123.287 31.1655C122.73 31.1655 122.242 31.0634 121.822 30.8593C121.409 30.6497 121.058 30.3545 120.771 29.9738C120.485 29.5932 120.253 29.1463 120.076 28.6332C119.905 28.1146 119.784 27.5464 119.712 26.9285V26.2582C119.784 25.6016 119.905 25.0058 120.076 24.4707C120.253 23.9355 120.485 23.4748 120.771 23.0886C121.058 22.7025 121.409 22.4045 121.822 22.1949C122.236 21.9853 122.719 21.8804 123.271 21.8804C123.833 21.8804 124.333 21.9908 124.769 22.2114C125.204 22.4266 125.571 22.7356 125.869 23.1383C126.167 23.5355 126.391 24.0155 126.539 24.5782C126.688 25.1354 126.763 25.7561 126.763 26.4402ZM124.769 26.614V26.4402C124.769 26.0264 124.73 25.643 124.653 25.2899C124.575 24.9313 124.454 24.6169 124.289 24.3465C124.123 24.0762 123.911 23.8665 123.651 23.7176C123.398 23.5631 123.091 23.4859 122.733 23.4859C122.38 23.4859 122.076 23.5466 121.822 23.6679C121.569 23.7838 121.356 23.9465 121.185 24.1562C121.014 24.3658 120.882 24.6113 120.788 24.8927C120.694 25.1686 120.628 25.4692 120.589 25.7947V27.4002C120.656 27.7974 120.769 28.1615 120.929 28.4925C121.089 28.8236 121.315 29.0884 121.607 29.287C121.905 29.4801 122.286 29.5766 122.749 29.5766C123.108 29.5766 123.414 29.4994 123.668 29.3449C123.922 29.1904 124.129 28.978 124.289 28.7077C124.454 28.4318 124.575 28.1146 124.653 27.756C124.73 27.3974 124.769 27.0167 124.769 26.614ZM133.507 29.2042V24.9341C133.507 24.6141 133.449 24.3382 133.334 24.1065C133.218 23.8748 133.041 23.6955 132.804 23.5686C132.572 23.4417 132.28 23.3783 131.927 23.3783C131.601 23.3783 131.32 23.4335 131.083 23.5438C130.845 23.6541 130.661 23.8031 130.528 23.9907C130.396 24.1783 130.33 24.3907 130.33 24.6279H128.344C128.344 24.2748 128.429 23.9327 128.6 23.6017C128.771 23.2707 129.019 22.9756 129.345 22.7163C129.67 22.457 130.059 22.2528 130.512 22.1039C130.964 21.9549 131.472 21.8804 132.034 21.8804C132.707 21.8804 133.303 21.9935 133.822 22.2197C134.346 22.4459 134.757 22.788 135.055 23.2459C135.358 23.6983 135.51 24.2665 135.51 24.9506V28.9311C135.51 29.3394 135.538 29.7063 135.593 30.0318C135.654 30.3518 135.739 30.6304 135.849 30.8676V31H133.805C133.712 30.7848 133.637 30.5117 133.582 30.1807C133.532 29.8442 133.507 29.5187 133.507 29.2042ZM133.797 25.5547L133.814 26.7878H132.382C132.012 26.7878 131.687 26.8236 131.405 26.8954C131.124 26.9616 130.89 27.0609 130.702 27.1933C130.514 27.3257 130.374 27.4857 130.28 27.6733C130.186 27.8608 130.139 28.0732 130.139 28.3105C130.139 28.5477 130.194 28.7656 130.305 28.9642C130.415 29.1573 130.575 29.309 130.785 29.4194C131 29.5297 131.259 29.5849 131.563 29.5849C131.971 29.5849 132.327 29.5021 132.63 29.3366C132.939 29.1656 133.182 28.9587 133.358 28.716C133.535 28.4677 133.629 28.2332 133.64 28.0126L134.285 28.898C134.219 29.1242 134.106 29.367 133.946 29.6263C133.786 29.8856 133.576 30.1338 133.317 30.3711C133.063 30.6028 132.757 30.7931 132.399 30.9421C132.045 31.091 131.637 31.1655 131.174 31.1655C130.589 31.1655 130.068 31.0497 129.61 30.8179C129.152 30.5807 128.793 30.2635 128.534 29.8663C128.275 29.4635 128.145 29.0084 128.145 28.5008C128.145 28.0263 128.233 27.6071 128.41 27.2429C128.592 26.8733 128.857 26.5643 129.204 26.3161C129.557 26.0678 129.988 25.8802 130.495 25.7534C131.003 25.6209 131.582 25.5547 132.233 25.5547H133.797ZM141.617 22.0459V31H139.615V22.0459H141.617ZM144.555 22.0459V23.6183H136.727V22.0459H144.555ZM18.1804 42.0459V51H16.1778V42.0459H18.1804ZM21.1182 42.0459V43.6183H13.2896V42.0459H21.1182ZM27.3662 49.2042V44.9341C27.3662 44.6141 27.3083 44.3382 27.1924 44.1065C27.0766 43.8748 26.9 43.6955 26.6628 43.5686C26.4311 43.4417 26.1387 43.3783 25.7856 43.3783C25.4601 43.3783 25.1787 43.4335 24.9415 43.5438C24.7043 43.6541 24.5195 43.8031 24.387 43.9907C24.2546 44.1783 24.1884 44.3907 24.1884 44.6279H22.2023C22.2023 44.2748 22.2878 43.9327 22.4589 43.6017C22.6299 43.2707 22.8782 42.9756 23.2037 42.7163C23.5292 42.457 23.9181 42.2528 24.3705 42.1039C24.8229 41.9549 25.3305 41.8804 25.8932 41.8804C26.5663 41.8804 27.1621 41.9935 27.6807 42.2197C28.2048 42.4459 28.6158 42.788 28.9137 43.2459C29.2172 43.6983 29.3689 44.2665 29.3689 44.9506V48.9311C29.3689 49.3394 29.3965 49.7063 29.4516 50.0318C29.5123 50.3518 29.5978 50.6304 29.7082 50.8676V51H27.6641C27.5703 50.7848 27.4959 50.5117 27.4407 50.1807C27.391 49.8442 27.3662 49.5187 27.3662 49.2042ZM27.6559 45.5547L27.6724 46.7878H26.2408C25.8711 46.7878 25.5456 46.8236 25.2642 46.8954C24.9829 46.9616 24.7484 47.0609 24.5608 47.1933C24.3733 47.3257 24.2326 47.4857 24.1388 47.6733C24.045 47.8608 23.9981 48.0732 23.9981 48.3105C23.9981 48.5477 24.0533 48.7656 24.1636 48.9642C24.274 49.1573 24.4339 49.309 24.6436 49.4194C24.8588 49.5297 25.118 49.5849 25.4215 49.5849C25.8297 49.5849 26.1856 49.5021 26.489 49.3366C26.798 49.1656 27.0407 48.9587 27.2173 48.716C27.3938 48.4677 27.4876 48.2332 27.4986 48.0126L28.1441 48.898C28.0779 49.1242 27.9648 49.367 27.8048 49.6263C27.6448 49.8856 27.4352 50.1338 27.1759 50.3711C26.9221 50.6028 26.6159 50.7931 26.2573 50.9421C25.9042 51.091 25.496 51.1655 25.0325 51.1655C24.4477 51.1655 23.9264 51.0497 23.4685 50.8179C23.0106 50.5807 22.652 50.2635 22.3927 49.8663C22.1334 49.4635 22.0037 49.0084 22.0037 48.5008C22.0037 48.0263 22.092 47.6071 22.2685 47.2429C22.4506 46.8733 22.7154 46.5643 23.063 46.3161C23.4161 46.0678 23.8464 45.8802 24.3539 45.7534C24.8615 45.6209 25.4408 45.5547 26.0918 45.5547H27.6559ZM31.5205 42.0459H33.5149V49.4111H36.3534V42.0459H38.3643V49.4111H41.1945V42.0459H43.1889V51H31.5205V42.0459ZM47.4922 42.0459V51H45.4978V42.0459H47.4922ZM53.3346 42.0459L49.3045 47.4333H47.0287L46.7639 45.6292H48.4273L50.8437 42.0459H53.3346ZM51.001 51L48.3032 47.094L49.8755 45.9602L53.6243 51H51.001ZM56.769 48.087L60.286 42.0459H62.2804V51H60.286V44.9506L56.769 51H54.7746V42.0459H56.769V48.087ZM70.4069 42.0459V43.6348H66.0375V42.0459H70.4069ZM71.971 42.0459V51H69.9766V42.0459H71.971ZM65.5492 42.0459H67.5188L67.2788 46.4733C67.2457 47.1298 67.1795 47.7091 67.0802 48.2112C66.9864 48.7077 66.8595 49.1353 66.6995 49.4939C66.5395 49.847 66.3437 50.1338 66.112 50.3545C65.8803 50.5752 65.6099 50.7379 65.301 50.8428C64.992 50.9476 64.6445 51 64.2583 51H63.6376L63.6293 49.3615L63.9438 49.3366C64.1479 49.3201 64.3245 49.2677 64.4734 49.1794C64.6224 49.0856 64.7493 48.9532 64.8541 48.7822C64.9644 48.6111 65.0527 48.3905 65.1189 48.1201C65.1906 47.8498 65.2458 47.5298 65.2844 47.1602C65.3286 46.7905 65.3617 46.3602 65.3837 45.8692L65.5492 42.0459ZM73.7089 46.6223V46.4319C73.7089 45.7865 73.8026 45.1879 73.9902 44.6362C74.1778 44.0789 74.4481 43.5962 74.8012 43.188C75.1598 42.7742 75.5957 42.4542 76.1087 42.228C76.6273 41.9963 77.2121 41.8804 77.8631 41.8804C78.5197 41.8804 79.1045 41.9963 79.6175 42.228C80.1361 42.4542 80.5747 42.7742 80.9333 43.188C81.292 43.5962 81.565 44.0789 81.7526 44.6362C81.9402 45.1879 82.034 45.7865 82.034 46.4319V46.6223C82.034 47.2678 81.9402 47.8664 81.7526 48.4181C81.565 48.9698 81.292 49.4525 80.9333 49.8663C80.5747 50.2745 80.1389 50.5945 79.6258 50.8262C79.1127 51.0524 78.5307 51.1655 77.8797 51.1655C77.2232 51.1655 76.6356 51.0524 76.117 50.8262C75.6039 50.5945 75.1681 50.2745 74.8095 49.8663C74.4509 49.4525 74.1778 48.9698 73.9902 48.4181C73.8026 47.8664 73.7089 47.2678 73.7089 46.6223ZM75.7032 46.4319V46.6223C75.7032 47.025 75.7446 47.4057 75.8274 47.7643C75.9101 48.1229 76.0398 48.4374 76.2163 48.7077C76.3929 48.978 76.6191 49.1904 76.8949 49.3449C77.1708 49.4994 77.499 49.5766 77.8797 49.5766C78.2493 49.5766 78.5693 49.4994 78.8397 49.3449C79.1155 49.1904 79.3417 48.978 79.5182 48.7077C79.6948 48.4374 79.8244 48.1229 79.9072 47.7643C79.9955 47.4057 80.0396 47.025 80.0396 46.6223V46.4319C80.0396 46.0347 79.9955 45.6596 79.9072 45.3065C79.8244 44.9479 79.692 44.6306 79.51 44.3548C79.3334 44.0789 79.1072 43.8638 78.8314 43.7093C78.561 43.5493 78.2383 43.4693 77.8631 43.4693C77.488 43.4693 77.1625 43.5493 76.8866 43.7093C76.6163 43.8638 76.3929 44.0789 76.2163 44.3548C76.0398 44.6306 75.9101 44.9479 75.8274 45.3065C75.7446 45.6596 75.7032 46.0347 75.7032 46.4319ZM87.6613 42.0459V51H85.6586V42.0459H87.6613ZM90.5991 42.0459V43.6183H82.7705V42.0459H90.5991ZM97.385 42.0459V43.6348H93.0155V42.0459H97.385ZM98.9491 42.0459V51H96.9547V42.0459H98.9491ZM92.5273 42.0459H94.4968L94.2569 46.4733C94.2238 47.1298 94.1576 47.7091 94.0582 48.2112C93.9645 48.7077 93.8376 49.1353 93.6776 49.4939C93.5176 49.847 93.3217 50.1338 93.09 50.3545C92.8583 50.5752 92.588 50.7379 92.279 50.8428C91.9701 50.9476 91.6225 51 91.2363 51H90.6157L90.6074 49.3615L90.9218 49.3366C91.126 49.3201 91.3025 49.2677 91.4515 49.1794C91.6004 49.0856 91.7273 48.9532 91.8321 48.7822C91.9425 48.6111 92.0308 48.3905 92.097 48.1201C92.1687 47.8498 92.2239 47.5298 92.2625 47.1602C92.3066 46.7905 92.3397 46.3602 92.3618 45.8692L92.5273 42.0459ZM106.116 49.2042V44.9341C106.116 44.6141 106.058 44.3382 105.942 44.1065C105.826 43.8748 105.649 43.6955 105.412 43.5686C105.18 43.4417 104.888 43.3783 104.535 43.3783C104.209 43.3783 103.928 43.4335 103.691 43.5438C103.454 43.6541 103.269 43.8031 103.136 43.9907C103.004 44.1783 102.938 44.3907 102.938 44.6279H100.952C100.952 44.2748 101.037 43.9327 101.208 43.6017C101.379 43.2707 101.628 42.9756 101.953 42.7163C102.279 42.457 102.667 42.2528 103.12 42.1039C103.572 41.9549 104.08 41.8804 104.643 41.8804C105.316 41.8804 105.911 41.9935 106.43 42.2197C106.954 42.4459 107.365 42.788 107.663 43.2459C107.967 43.6983 108.118 44.2665 108.118 44.9506V48.9311C108.118 49.3394 108.146 49.7063 108.201 50.0318C108.262 50.3518 108.347 50.6304 108.458 50.8676V51H106.414C106.32 50.7848 106.245 50.5117 106.19 50.1807C106.14 49.8442 106.116 49.5187 106.116 49.2042ZM106.405 45.5547L106.422 46.7878H104.99C104.621 46.7878 104.295 46.8236 104.014 46.8954C103.732 46.9616 103.498 47.0609 103.31 47.1933C103.123 47.3257 102.982 47.4857 102.888 47.6733C102.794 47.8608 102.747 48.0732 102.747 48.3105C102.747 48.5477 102.803 48.7656 102.913 48.9642C103.023 49.1573 103.183 49.309 103.393 49.4194C103.608 49.5297 103.867 49.5849 104.171 49.5849C104.579 49.5849 104.935 49.5021 105.238 49.3366C105.547 49.1656 105.79 48.9587 105.967 48.716C106.143 48.4677 106.237 48.2332 106.248 48.0126L106.894 48.898C106.827 49.1242 106.714 49.367 106.554 49.6263C106.394 49.8856 106.185 50.1338 105.925 50.3711C105.671 50.6028 105.365 50.7931 105.007 50.9421C104.654 51.091 104.245 51.1655 103.782 51.1655C103.197 51.1655 102.676 51.0497 102.218 50.8179C101.76 50.5807 101.401 50.2635 101.142 49.8663C100.883 49.4635 100.753 49.0084 100.753 48.5008C100.753 48.0263 100.841 47.6071 101.018 47.2429C101.2 46.8733 101.465 46.5643 101.812 46.3161C102.165 46.0678 102.596 45.8802 103.103 45.7534C103.611 45.6209 104.19 45.5547 104.841 45.5547H106.405ZM112.206 43.7672V54.4426H110.212V42.0459H112.049L112.206 43.7672ZM118.041 46.4402V46.614C118.041 47.265 117.963 47.8691 117.809 48.4263C117.66 48.978 117.436 49.4608 117.139 49.8745C116.846 50.2828 116.485 50.6 116.054 50.8262C115.624 51.0524 115.128 51.1655 114.565 51.1655C114.008 51.1655 113.519 51.0634 113.1 50.8593C112.686 50.6497 112.336 50.3545 112.049 49.9738C111.762 49.5932 111.531 49.1463 111.354 48.6332C111.183 48.1146 111.062 47.5464 110.99 46.9285V46.2582C111.062 45.6016 111.183 45.0058 111.354 44.4707C111.531 43.9355 111.762 43.4748 112.049 43.0886C112.336 42.7025 112.686 42.4045 113.1 42.1949C113.514 41.9853 113.997 41.8804 114.548 41.8804C115.111 41.8804 115.61 41.9908 116.046 42.2114C116.482 42.4266 116.849 42.7356 117.147 43.1383C117.445 43.5355 117.668 44.0155 117.817 44.5782C117.966 45.1354 118.041 45.7561 118.041 46.4402ZM116.046 46.614V46.4402C116.046 46.0264 116.008 45.643 115.93 45.2899C115.853 44.9313 115.732 44.6169 115.566 44.3465C115.401 44.0762 115.188 43.8665 114.929 43.7176C114.675 43.5631 114.369 43.4859 114.01 43.4859C113.657 43.4859 113.354 43.5466 113.1 43.6679C112.846 43.7838 112.634 43.9465 112.463 44.1562C112.292 44.3658 112.159 44.6113 112.066 44.8927C111.972 45.1686 111.906 45.4692 111.867 45.7947V47.4002C111.933 47.7974 112.046 48.1615 112.206 48.4925C112.366 48.8236 112.593 49.0884 112.885 49.287C113.183 49.4801 113.564 49.5766 114.027 49.5766C114.386 49.5766 114.692 49.4994 114.946 49.3449C115.199 49.1904 115.406 48.978 115.566 48.7077C115.732 48.4318 115.853 48.1146 115.93 47.756C116.008 47.3974 116.046 47.0167 116.046 46.614ZM121.798 48.087L125.315 42.0459H127.309V51H125.315V44.9506L121.798 51H119.803V42.0459H121.798V48.087Z" fill="#638BBA"/>
<path d="M22.0619 135.951V137.606H16.2856V135.951H22.0619ZM23.6508 135.951V148H21.5737V135.951H23.6508ZM15.8719 135.951H17.9325L17.6428 141.934C17.6042 142.811 17.5297 143.584 17.4194 144.251C17.309 144.919 17.1601 145.49 16.9725 145.964C16.7849 146.439 16.5477 146.828 16.2608 147.131C15.9739 147.429 15.6291 147.65 15.2264 147.793C14.8292 147.931 14.363 148 13.8278 148H13.2982V146.353L13.6209 146.328C13.9133 146.306 14.1644 146.237 14.374 146.121C14.5892 146 14.7712 145.824 14.9202 145.592C15.0692 145.355 15.1933 145.048 15.2926 144.673C15.3919 144.298 15.4691 143.84 15.5243 143.3C15.585 142.759 15.6291 142.127 15.6567 141.404L15.8719 135.951ZM25.5625 143.622V143.432C25.5625 142.786 25.6562 142.188 25.8438 141.636C26.0314 141.079 26.3017 140.596 26.6548 140.188C27.0134 139.774 27.4493 139.454 27.9623 139.228C28.4809 138.996 29.0657 138.88 29.7167 138.88C30.3733 138.88 30.9581 138.996 31.4711 139.228C31.9897 139.454 32.4283 139.774 32.7869 140.188C33.1455 140.596 33.4186 141.079 33.6062 141.636C33.7938 142.188 33.8876 142.786 33.8876 143.432V143.622C33.8876 144.268 33.7938 144.866 33.6062 145.418C33.4186 145.97 33.1455 146.452 32.7869 146.866C32.4283 147.275 31.9925 147.595 31.4794 147.826C30.9663 148.052 30.3843 148.166 29.7333 148.166C29.0768 148.166 28.4892 148.052 27.9706 147.826C27.4575 147.595 27.0217 147.275 26.6631 146.866C26.3045 146.452 26.0314 145.97 25.8438 145.418C25.6562 144.866 25.5625 144.268 25.5625 143.622ZM27.5568 143.432V143.622C27.5568 144.025 27.5982 144.406 27.681 144.764C27.7637 145.123 27.8934 145.437 28.0699 145.708C28.2465 145.978 28.4727 146.19 28.7485 146.345C29.0244 146.499 29.3526 146.577 29.7333 146.577C30.1029 146.577 30.4229 146.499 30.6932 146.345C30.9691 146.19 31.1953 145.978 31.3718 145.708C31.5484 145.437 31.678 145.123 31.7608 144.764C31.8491 144.406 31.8932 144.025 31.8932 143.622V143.432C31.8932 143.035 31.8491 142.66 31.7608 142.306C31.678 141.948 31.5456 141.631 31.3636 141.355C31.187 141.079 30.9608 140.864 30.685 140.709C30.4146 140.549 30.0919 140.469 29.7167 140.469C29.3416 140.469 29.0161 140.549 28.7402 140.709C28.4699 140.864 28.2465 141.079 28.0699 141.355C27.8934 141.631 27.7637 141.948 27.681 142.306C27.5982 142.66 27.5568 143.035 27.5568 143.432ZM37.6198 145.087L41.1369 139.046H43.1313V148H41.1369V141.951L37.6198 148H35.6254V139.046H37.6198V145.087ZM40.6073 135.603H42.0886C42.0886 136.061 41.9782 136.467 41.7575 136.82C41.5424 137.167 41.2334 137.44 40.8307 137.639C40.4335 137.838 39.959 137.937 39.4073 137.937C38.5743 137.937 37.915 137.722 37.4295 137.292C36.9495 136.856 36.7095 136.293 36.7095 135.603H38.1908C38.1908 135.912 38.2819 136.185 38.4639 136.423C38.6515 136.654 38.966 136.77 39.4073 136.77C39.8432 136.77 40.1521 136.654 40.3342 136.423C40.5162 136.185 40.6073 135.912 40.6073 135.603ZM47.3021 145.087L50.8192 139.046H52.8136V148H50.8192V141.951L47.3021 148H45.3077V139.046H47.3021V145.087ZM56.4465 139.046L58.1513 142.017L59.8891 139.046H62.0821L59.3678 143.44L62.1897 148H59.9967L58.1761 144.905L56.3555 148H54.1542L56.9679 143.44L54.2618 139.046H56.4465ZM62.6779 146.519V150.963H60.6836V146.519H62.6779ZM68.9921 146.204V141.934C68.9921 141.614 68.9342 141.338 68.8183 141.107C68.7025 140.875 68.5259 140.696 68.2887 140.569C68.057 140.442 67.7646 140.378 67.4115 140.378C67.086 140.378 66.8046 140.433 66.5674 140.544C66.3302 140.654 66.1454 140.803 66.013 140.991C65.8805 141.178 65.8143 141.391 65.8143 141.628H63.8282C63.8282 141.275 63.9137 140.933 64.0848 140.602C64.2558 140.271 64.5041 139.976 64.8296 139.716C65.1551 139.457 65.544 139.253 65.9964 139.104C66.4488 138.955 66.9564 138.88 67.5191 138.88C68.1922 138.88 68.788 138.994 69.3066 139.22C69.8307 139.446 70.2417 139.788 70.5396 140.246C70.8431 140.698 70.9948 141.267 70.9948 141.951V145.931C70.9948 146.339 71.0224 146.706 71.0775 147.032C71.1382 147.352 71.2237 147.63 71.3341 147.868V148H69.29C69.1963 147.785 69.1218 147.512 69.0666 147.181C69.017 146.844 68.9921 146.519 68.9921 146.204ZM69.2818 142.555L69.2983 143.788H67.8667C67.497 143.788 67.1715 143.824 66.8902 143.895C66.6088 143.962 66.3743 144.061 66.1867 144.193C65.9992 144.326 65.8585 144.486 65.7647 144.673C65.6709 144.861 65.624 145.073 65.624 145.31C65.624 145.548 65.6792 145.766 65.7895 145.964C65.8999 146.157 66.0599 146.309 66.2695 146.419C66.4847 146.53 66.744 146.585 67.0474 146.585C67.4556 146.585 67.8115 146.502 68.1149 146.337C68.4239 146.166 68.6666 145.959 68.8432 145.716C69.0197 145.468 69.1135 145.233 69.1245 145.013L69.77 145.898C69.7038 146.124 69.5907 146.367 69.4307 146.626C69.2707 146.886 69.0611 147.134 68.8018 147.371C68.548 147.603 68.2418 147.793 67.8832 147.942C67.5301 148.091 67.1219 148.166 66.6584 148.166C66.0736 148.166 65.5523 148.05 65.0944 147.818C64.6365 147.581 64.2779 147.263 64.0186 146.866C63.7593 146.464 63.6296 146.008 63.6296 145.501C63.6296 145.026 63.7179 144.607 63.8944 144.243C64.0765 143.873 64.3413 143.564 64.6889 143.316C65.042 143.068 65.4723 142.88 65.9799 142.753C66.4874 142.621 67.0667 142.555 67.7177 142.555H69.2818ZM81.455 139.046V148H79.4523V139.046H81.455ZM84.3928 139.046V140.618H76.5642V139.046H84.3928ZM90.6408 146.204V141.934C90.6408 141.614 90.5828 141.338 90.467 141.107C90.3511 140.875 90.1746 140.696 89.9373 140.569C89.7056 140.442 89.4132 140.378 89.0601 140.378C88.7346 140.378 88.4533 140.433 88.216 140.544C87.9788 140.654 87.794 140.803 87.6616 140.991C87.5292 141.178 87.463 141.391 87.463 141.628H85.4769C85.4769 141.275 85.5624 140.933 85.7334 140.602C85.9044 140.271 86.1527 139.976 86.4782 139.716C86.8037 139.457 87.1926 139.253 87.645 139.104C88.0974 138.955 88.605 138.88 89.1677 138.88C89.8408 138.88 90.4366 138.994 90.9552 139.22C91.4793 139.446 91.8904 139.788 92.1883 140.246C92.4917 140.698 92.6434 141.267 92.6434 141.951V145.931C92.6434 146.339 92.671 146.706 92.7262 147.032C92.7869 147.352 92.8724 147.63 92.9827 147.868V148H90.9387C90.8449 147.785 90.7704 147.512 90.7152 147.181C90.6656 146.844 90.6408 146.519 90.6408 146.204ZM90.9304 142.555L90.947 143.788H89.5153C89.1457 143.788 88.8202 143.824 88.5388 143.895C88.2574 143.962 88.023 144.061 87.8354 144.193C87.6478 144.326 87.5071 144.486 87.4133 144.673C87.3195 144.861 87.2726 145.073 87.2726 145.31C87.2726 145.548 87.3278 145.766 87.4382 145.964C87.5485 146.157 87.7085 146.309 87.9181 146.419C88.1333 146.53 88.3926 146.585 88.696 146.585C89.1043 146.585 89.4601 146.502 89.7636 146.337C90.0725 146.166 90.3153 145.959 90.4918 145.716C90.6683 145.468 90.7621 145.233 90.7732 145.013L91.4187 145.898C91.3525 146.124 91.2394 146.367 91.0794 146.626C90.9194 146.886 90.7097 147.134 90.4504 147.371C90.1966 147.603 89.8905 147.793 89.5318 147.942C89.1788 148.091 88.7705 148.166 88.3071 148.166C87.7223 148.166 87.2009 148.05 86.743 147.818C86.2851 147.581 85.9265 147.263 85.6672 146.866C85.4079 146.464 85.2783 146.008 85.2783 145.501C85.2783 145.026 85.3665 144.607 85.5431 144.243C85.7251 143.873 85.9899 143.564 86.3375 143.316C86.6906 143.068 87.1209 142.88 87.6285 142.753C88.1361 142.621 88.7153 142.555 89.3663 142.555H90.9304ZM94.795 139.046H96.7894V146.411H99.6279V139.046H101.639V146.411H104.469V139.046H106.463V148H94.795V139.046ZM110.767 139.046V148H108.772V139.046H110.767ZM116.609 139.046L112.579 144.433H110.303L110.038 142.629H111.702L114.118 139.046H116.609ZM114.276 148L111.578 144.094L113.15 142.96L116.899 148H114.276ZM120.044 145.087L123.561 139.046H125.555V148H123.561V141.951L120.044 148H118.049V139.046H120.044V145.087ZM133.681 139.046V140.635H129.312V139.046H133.681ZM135.246 139.046V148H133.251V139.046H135.246ZM128.824 139.046H130.793L130.553 143.473C130.52 144.13 130.454 144.709 130.355 145.211C130.261 145.708 130.134 146.135 129.974 146.494C129.814 146.847 129.618 147.134 129.387 147.355C129.155 147.575 128.884 147.738 128.576 147.843C128.267 147.948 127.919 148 127.533 148H126.912L126.904 146.361L127.218 146.337C127.422 146.32 127.599 146.268 127.748 146.179C127.897 146.086 128.024 145.953 128.129 145.782C128.239 145.611 128.327 145.39 128.393 145.12C128.465 144.85 128.52 144.53 128.559 144.16C128.603 143.791 128.636 143.36 128.658 142.869L128.824 139.046ZM136.983 143.622V143.432C136.983 142.786 137.077 142.188 137.265 141.636C137.452 141.079 137.723 140.596 138.076 140.188C138.434 139.774 138.87 139.454 139.383 139.228C139.902 138.996 140.487 138.88 141.138 138.88C141.794 138.88 142.379 138.996 142.892 139.228C143.411 139.454 143.849 139.774 144.208 140.188C144.566 140.596 144.84 141.079 145.027 141.636C145.215 142.188 145.309 142.786 145.309 143.432V143.622C145.309 144.268 145.215 144.866 145.027 145.418C144.84 145.97 144.566 146.452 144.208 146.866C143.849 147.275 143.413 147.595 142.9 147.826C142.387 148.052 141.805 148.166 141.154 148.166C140.498 148.166 139.91 148.052 139.392 147.826C138.878 147.595 138.443 147.275 138.084 146.866C137.725 146.452 137.452 145.97 137.265 145.418C137.077 144.866 136.983 144.268 136.983 143.622ZM138.978 143.432V143.622C138.978 144.025 139.019 144.406 139.102 144.764C139.185 145.123 139.314 145.437 139.491 145.708C139.667 145.978 139.894 146.19 140.169 146.345C140.445 146.499 140.774 146.577 141.154 146.577C141.524 146.577 141.844 146.499 142.114 146.345C142.39 146.19 142.616 145.978 142.793 145.708C142.969 145.437 143.099 145.123 143.182 144.764C143.27 144.406 143.314 144.025 143.314 143.622V143.432C143.314 143.035 143.27 142.66 143.182 142.306C143.099 141.948 142.967 141.631 142.785 141.355C142.608 141.079 142.382 140.864 142.106 140.709C141.836 140.549 141.513 140.469 141.138 140.469C140.763 140.469 140.437 140.549 140.161 140.709C139.891 140.864 139.667 141.079 139.491 141.355C139.314 141.631 139.185 141.948 139.102 142.306C139.019 142.66 138.978 143.035 138.978 143.432ZM150.936 139.046V148H148.933V139.046H150.936ZM153.874 139.046V140.618H146.045V139.046H153.874ZM160.66 139.046V140.635H156.29V139.046H160.66ZM162.224 139.046V148H160.229V139.046H162.224ZM155.802 139.046H157.771L157.531 143.473C157.498 144.13 157.432 144.709 157.333 145.211C157.239 145.708 157.112 146.135 156.952 146.494C156.792 146.847 156.596 147.134 156.365 147.355C156.133 147.575 155.863 147.738 155.554 147.843C155.245 147.948 154.897 148 154.511 148H153.89L153.882 146.361L154.196 146.337C154.401 146.32 154.577 146.268 154.726 146.179C154.875 146.086 155.002 145.953 155.107 145.782C155.217 145.611 155.305 145.39 155.371 145.12C155.443 144.85 155.498 144.53 155.537 144.16C155.581 143.791 155.614 143.36 155.636 142.869L155.802 139.046ZM169.39 146.204V141.934C169.39 141.614 169.332 141.338 169.216 141.107C169.101 140.875 168.924 140.696 168.687 140.569C168.455 140.442 168.163 140.378 167.81 140.378C167.484 140.378 167.203 140.433 166.965 140.544C166.728 140.654 166.543 140.803 166.411 140.991C166.279 141.178 166.212 141.391 166.212 141.628H164.226C164.226 141.275 164.312 140.933 164.483 140.602C164.654 140.271 164.902 139.976 165.228 139.716C165.553 139.457 165.942 139.253 166.394 139.104C166.847 138.955 167.354 138.88 167.917 138.88C168.59 138.88 169.186 138.994 169.705 139.22C170.229 139.446 170.64 139.788 170.938 140.246C171.241 140.698 171.393 141.267 171.393 141.951V145.931C171.393 146.339 171.42 146.706 171.476 147.032C171.536 147.352 171.622 147.63 171.732 147.868V148H169.688C169.594 147.785 169.52 147.512 169.465 147.181C169.415 146.844 169.39 146.519 169.39 146.204ZM169.68 142.555L169.696 143.788H168.265C167.895 143.788 167.57 143.824 167.288 143.895C167.007 143.962 166.772 144.061 166.585 144.193C166.397 144.326 166.256 144.486 166.163 144.673C166.069 144.861 166.022 145.073 166.022 145.31C166.022 145.548 166.077 145.766 166.188 145.964C166.298 146.157 166.458 146.309 166.668 146.419C166.883 146.53 167.142 146.585 167.445 146.585C167.854 146.585 168.21 146.502 168.513 146.337C168.822 146.166 169.065 145.959 169.241 145.716C169.418 145.468 169.512 145.233 169.523 145.013L170.168 145.898C170.102 146.124 169.989 146.367 169.829 146.626C169.669 146.886 169.459 147.134 169.2 147.371C168.946 147.603 168.64 147.793 168.281 147.942C167.928 148.091 167.52 148.166 167.056 148.166C166.472 148.166 165.95 148.05 165.492 147.818C165.034 147.581 164.676 147.263 164.417 146.866C164.157 146.464 164.028 146.008 164.028 145.501C164.028 145.026 164.116 144.607 164.292 144.243C164.475 143.873 164.739 143.564 165.087 143.316C165.44 143.068 165.87 142.88 166.378 142.753C166.885 142.621 167.465 142.555 168.116 142.555H169.68ZM175.481 140.767V151.443H173.487V139.046H175.324L175.481 140.767ZM181.315 143.44V143.614C181.315 144.265 181.238 144.869 181.083 145.426C180.934 145.978 180.711 146.461 180.413 146.875C180.121 147.283 179.759 147.6 179.329 147.826C178.899 148.052 178.402 148.166 177.839 148.166C177.282 148.166 176.794 148.063 176.375 147.859C175.961 147.65 175.611 147.355 175.324 146.974C175.037 146.593 174.805 146.146 174.629 145.633C174.457 145.115 174.336 144.546 174.264 143.928V143.258C174.336 142.602 174.457 142.006 174.629 141.471C174.805 140.936 175.037 140.475 175.324 140.089C175.611 139.702 175.961 139.405 176.375 139.195C176.788 138.985 177.271 138.88 177.823 138.88C178.386 138.88 178.885 138.991 179.321 139.211C179.757 139.427 180.123 139.736 180.421 140.138C180.719 140.536 180.943 141.016 181.092 141.578C181.241 142.135 181.315 142.756 181.315 143.44ZM179.321 143.614V143.44C179.321 143.026 179.282 142.643 179.205 142.29C179.128 141.931 179.006 141.617 178.841 141.347C178.675 141.076 178.463 140.867 178.204 140.718C177.95 140.563 177.644 140.486 177.285 140.486C176.932 140.486 176.628 140.547 176.375 140.668C176.121 140.784 175.908 140.947 175.737 141.156C175.566 141.366 175.434 141.611 175.34 141.893C175.246 142.169 175.18 142.469 175.142 142.795V144.4C175.208 144.797 175.321 145.162 175.481 145.493C175.641 145.824 175.867 146.088 176.159 146.287C176.457 146.48 176.838 146.577 177.301 146.577C177.66 146.577 177.966 146.499 178.22 146.345C178.474 146.19 178.681 145.978 178.841 145.708C179.006 145.432 179.128 145.115 179.205 144.756C179.282 144.397 179.321 144.017 179.321 143.614ZM185.072 145.087L188.589 139.046H190.584V148H188.589V141.951L185.072 148H183.078V139.046H185.072V145.087Z" fill="#638BBA"/>
<path d="M30.3554 89.155V93H14.4373V89.7404L21.8742 81.8605C22.5704 81.0588 23.1242 80.352 23.5356 79.7402C23.9576 79.1283 24.2635 78.5745 24.4534 78.0787C24.6432 77.5724 24.7382 77.1082 24.7382 76.6863C24.7382 76.0006 24.6274 75.4204 24.4059 74.9457C24.1949 74.471 23.8837 74.1071 23.4723 73.8539C23.0609 73.6008 22.5599 73.4742 21.9691 73.4742C21.3362 73.4742 20.7929 73.6377 20.3393 73.9647C19.8857 74.2917 19.5376 74.7453 19.295 75.3255C19.0524 75.8951 18.9311 76.5439 18.9311 77.2717H13.9626C13.9626 75.8688 14.3002 74.5924 14.9753 73.4425C15.6504 72.2822 16.5945 71.3592 17.8076 70.6735C19.0207 69.9773 20.4395 69.6291 22.0641 69.6291C23.7308 69.6291 25.1285 69.8929 26.2572 70.4203C27.3859 70.9477 28.2404 71.702 28.8206 72.683C29.4007 73.6641 29.6908 74.8455 29.6908 76.2274C29.6908 77.008 29.5643 77.7623 29.3111 78.4901C29.0685 79.218 28.7151 79.9406 28.2509 80.6579C27.7868 81.3752 27.2277 82.1084 26.5737 82.8573C25.9196 83.5958 25.1812 84.3764 24.3584 85.1992L20.8773 89.155H30.3554ZM44.5963 69.9456V93H39.6436V75.5787L34.2954 77.2085V73.3792L44.1058 69.9456H44.5963ZM71.3691 69.9456V93H66.4165V75.5787L61.0682 77.2085V73.3792L70.8786 69.9456H71.3691ZM94.8824 84.2023V88.0315H78.2997L78.0307 85.0251L87.4613 69.9614H91.3696L87.129 76.9869L82.8409 84.2023H94.8824ZM92.414 69.9614V93H87.4771V69.9614H92.414ZM113.079 86.6707C113.079 88.1265 112.736 89.3501 112.051 90.3417C111.365 91.3333 110.426 92.077 109.234 92.5728C108.053 93.0686 106.702 93.3165 105.183 93.3165C103.675 93.3165 102.319 93.0686 101.117 92.5728C99.9247 92.077 98.9806 91.3333 98.2844 90.3417C97.5881 89.3501 97.24 88.1265 97.24 86.6707C97.24 85.6791 97.4352 84.7878 97.8255 83.9966C98.2263 83.2054 98.7802 82.5303 99.4869 81.9712C100.204 81.4122 101.043 80.9849 102.003 80.6896C102.973 80.3942 104.023 80.2465 105.152 80.2465C106.671 80.2465 108.026 80.5102 109.218 81.0377C110.421 81.5546 111.365 82.293 112.051 83.2529C112.736 84.2129 113.079 85.3521 113.079 86.6707ZM108.111 86.3068C108.111 85.6317 107.984 85.062 107.731 84.5979C107.488 84.1232 107.145 83.7593 106.702 83.5061C106.259 83.2424 105.742 83.1105 105.152 83.1105C104.561 83.1105 104.044 83.2424 103.601 83.5061C103.158 83.7593 102.81 84.1232 102.557 84.5979C102.314 85.062 102.193 85.6317 102.193 86.3068C102.193 86.9608 102.319 87.5305 102.572 88.0157C102.826 88.4904 103.174 88.8543 103.617 89.1075C104.06 89.3501 104.582 89.4714 105.183 89.4714C105.785 89.4714 106.301 89.3501 106.734 89.1075C107.166 88.8543 107.504 88.4904 107.747 88.0157C107.989 87.5305 108.111 86.9608 108.111 86.3068ZM112.589 76.085C112.589 77.277 112.272 78.3266 111.639 79.2338C111.017 80.1305 110.146 80.832 109.028 81.3383C107.91 81.8341 106.628 82.082 105.183 82.082C103.738 82.082 102.451 81.8341 101.322 81.3383C100.204 80.832 99.3234 80.1305 98.6799 79.2338C98.047 78.3266 97.7305 77.277 97.7305 76.085C97.7305 74.6926 98.047 73.5164 98.6799 72.5564C99.3234 71.5965 100.204 70.8686 101.322 70.3728C102.441 69.877 103.717 69.6291 105.152 69.6291C106.607 69.6291 107.894 69.877 109.012 70.3728C110.131 70.8686 111.006 71.5965 111.639 72.5564C112.272 73.5164 112.589 74.6926 112.589 76.085ZM107.652 76.3382C107.652 75.758 107.551 75.2569 107.351 74.835C107.161 74.4025 106.882 74.0702 106.512 73.8381C106.143 73.5955 105.69 73.4742 105.152 73.4742C104.635 73.4742 104.192 73.5902 103.822 73.8223C103.453 74.0438 103.168 74.3708 102.968 74.8033C102.778 75.2253 102.683 75.7369 102.683 76.3382C102.683 76.9289 102.778 77.4458 102.968 77.8889C103.168 78.3214 103.453 78.6642 103.822 78.9174C104.202 79.16 104.656 79.2813 105.183 79.2813C105.721 79.2813 106.17 79.16 106.528 78.9174C106.897 78.6642 107.177 78.3214 107.367 77.8889C107.557 77.4458 107.652 76.9289 107.652 76.3382Z" fill="#003C82"/>
<path d="M30.3554 186.887V190.732H14.4373V187.473L21.8742 179.593C22.5704 178.791 23.1242 178.084 23.5356 177.473C23.9576 176.861 24.2635 176.307 24.4534 175.811C24.6432 175.305 24.7382 174.841 24.7382 174.419C24.7382 173.733 24.6274 173.153 24.4059 172.678C24.1949 172.203 23.8837 171.84 23.4723 171.586C23.0609 171.333 22.5599 171.207 21.9691 171.207C21.3362 171.207 20.7929 171.37 20.3393 171.697C19.8857 172.024 19.5376 172.478 19.295 173.058C19.0524 173.628 18.9311 174.276 18.9311 175.004H13.9626C13.9626 173.601 14.3002 172.325 14.9753 171.175C15.6504 170.015 16.5945 169.092 17.8076 168.406C19.0207 167.71 20.4395 167.362 22.0641 167.362C23.7308 167.362 25.1285 167.625 26.2572 168.153C27.3859 168.68 28.2404 169.434 28.8206 170.415C29.4007 171.396 29.6908 172.578 29.6908 173.96C29.6908 174.74 29.5643 175.495 29.3111 176.223C29.0685 176.95 28.7151 177.673 28.2509 178.39C27.7868 179.108 27.2277 179.841 26.5737 180.59C25.9196 181.328 25.1812 182.109 24.3584 182.932L20.8773 186.887H30.3554ZM48.8844 177.156V181.254C48.8844 182.942 48.6945 184.403 48.3147 185.637C47.9455 186.872 47.4075 187.89 46.7008 188.691C46.0045 189.493 45.1712 190.089 44.2007 190.479C43.2408 190.859 42.1753 191.049 41.0044 191.049C40.0656 191.049 39.19 190.928 38.3778 190.685C37.5655 190.442 36.8324 190.068 36.1783 189.562C35.5349 189.045 34.9811 188.401 34.5169 187.631C34.0528 186.861 33.6941 185.943 33.4409 184.878C33.1983 183.812 33.077 182.605 33.077 181.254V177.156C33.077 175.447 33.2616 173.981 33.6308 172.757C34.0106 171.534 34.5538 170.521 35.2606 169.719C35.9674 168.918 36.8007 168.327 37.7607 167.947C38.7312 167.567 39.8019 167.377 40.9728 167.377C41.9116 167.377 42.7819 167.499 43.5836 167.741C44.3959 167.984 45.129 168.358 45.783 168.865C46.437 169.371 46.9909 170.009 47.4445 170.779C47.9086 171.549 48.262 172.467 48.5046 173.533C48.7578 174.587 48.8844 175.795 48.8844 177.156ZM43.9475 181.871V176.507C43.9475 175.716 43.9001 175.031 43.8051 174.45C43.7207 173.86 43.5941 173.359 43.4254 172.947C43.2671 172.536 43.0667 172.203 42.8241 171.95C42.5815 171.697 42.3019 171.513 41.9855 171.396C41.6795 171.27 41.342 171.207 40.9728 171.207C40.5086 171.207 40.0919 171.302 39.7227 171.491C39.3535 171.681 39.0423 171.982 38.7892 172.393C38.536 172.794 38.3408 173.337 38.2037 174.023C38.0771 174.698 38.0138 175.526 38.0138 176.507V181.871C38.0138 182.663 38.056 183.354 38.1404 183.944C38.2354 184.535 38.3619 185.041 38.5202 185.463C38.689 185.875 38.8947 186.212 39.1373 186.476C39.3799 186.729 39.6594 186.914 39.9759 187.03C40.2924 187.146 40.6352 187.204 41.0044 187.204C41.4686 187.204 41.88 187.114 42.2386 186.935C42.5973 186.745 42.9032 186.444 43.1564 186.033C43.4201 185.611 43.6152 185.057 43.7418 184.371C43.879 183.686 43.9475 182.852 43.9475 181.871ZM63.7265 167.409H64.486V171.333H64.2012C63.0936 171.333 62.0809 171.491 61.1632 171.808C60.256 172.124 59.4701 172.594 58.8055 173.216C58.1409 173.828 57.6293 174.587 57.2707 175.495C56.9225 176.391 56.7485 177.425 56.7485 178.596V182.52C56.7485 183.311 56.8171 184.002 56.9542 184.593C57.1019 185.173 57.3129 185.658 57.5871 186.049C57.8719 186.429 58.2148 186.719 58.6156 186.919C59.0165 187.109 59.4701 187.204 59.9764 187.204C60.43 187.204 60.8467 187.104 61.2265 186.903C61.6062 186.703 61.9332 186.418 62.2075 186.049C62.4818 185.68 62.6927 185.252 62.8404 184.767C62.9881 184.271 63.0619 183.733 63.0619 183.153C63.0619 182.541 62.9828 181.987 62.8246 181.492C62.6769 180.985 62.4607 180.553 62.1758 180.194C61.9016 179.836 61.564 179.561 61.1632 179.371C60.7623 179.171 60.3193 179.071 59.834 179.071C59.1378 179.071 58.5365 179.229 58.0302 179.545C57.5238 179.862 57.1335 180.268 56.8593 180.764C56.585 181.26 56.4426 181.766 56.432 182.283L55.1187 181.191C55.1187 180.474 55.2611 179.767 55.5459 179.071C55.8413 178.364 56.258 177.726 56.796 177.156C57.3339 176.576 57.9932 176.117 58.7739 175.78C59.565 175.431 60.4669 175.257 61.4796 175.257C62.5451 175.257 63.4839 175.463 64.2962 175.874C65.1084 176.275 65.7888 176.834 66.3373 177.552C66.8964 178.269 67.3131 179.108 67.5874 180.068C67.8722 181.017 68.0146 182.035 68.0146 183.121C68.0146 184.24 67.8194 185.284 67.4291 186.254C67.0494 187.214 66.5114 188.053 65.8152 188.77C65.119 189.488 64.2856 190.047 63.3151 190.448C62.3552 190.848 61.2845 191.049 60.103 191.049C58.8793 191.049 57.7612 190.833 56.7485 190.4C55.7464 189.968 54.8708 189.351 54.1218 188.549C53.3834 187.737 52.8085 186.766 52.3971 185.637C51.9963 184.509 51.7958 183.243 51.7958 181.84V179.988C51.7958 178.069 52.0912 176.339 52.6819 174.798C53.2832 173.258 54.1166 171.94 55.182 170.843C56.258 169.735 57.5238 168.886 58.9796 168.295C60.4353 167.704 62.0176 167.409 63.7265 167.409ZM86.8125 181.935V185.764H70.2298L69.9609 182.758L79.3915 167.694H83.2998L79.0592 174.719L74.7711 181.935H86.8125ZM84.3441 167.694V190.732H79.4073V167.694H84.3441Z" fill="#003C82"/>
</g>
<defs>
<clipPath id="clip0_29_17212">
<rect width="245" height="242" fill="white"/>
</clipPath>
</defs>
</svg>
