<svg width="330" height="239" viewBox="0 0 330 239" fill="none" xmlns="http://www.w3.org/2000/svg">
<g clip-path="url(#clip0_116_2758)">
<rect width="330" height="239" rx="7.20131" fill="#D8F1FD"/>
<path d="M112.362 138.848L48 215.362V223.463H282.943V102.166L236.809 164.277L112.362 138.848Z" fill="#D6E9FF"/>
<path d="M19.291 18.6933V30.8525H17.2116V18.6933H19.291ZM23.1075 18.6933V20.3635H13.4285V18.6933H23.1075ZM27.6923 31.0196C27.0242 31.0196 26.4201 30.911 25.8801 30.6939C25.3456 30.4712 24.8891 30.1622 24.5105 29.7669C24.1375 29.3716 23.8507 28.9067 23.6503 28.3723C23.4499 27.8378 23.3497 27.2616 23.3497 26.6436V26.3095C23.3497 25.6025 23.4527 24.9622 23.6587 24.3888C23.8647 23.8153 24.1514 23.3254 24.5188 22.919C24.8863 22.507 25.3205 22.1924 25.8216 21.9753C26.3227 21.7582 26.8655 21.6496 27.4501 21.6496C28.0959 21.6496 28.661 21.7582 29.1454 21.9753C29.6297 22.1924 30.0306 22.4986 30.3479 22.8939C30.6708 23.2836 30.9102 23.7485 31.0661 24.2886C31.2276 24.8286 31.3083 25.4243 31.3083 26.0757V26.9359H24.3268V25.4911H29.3207V25.3324C29.3096 24.9706 29.2372 24.6309 29.1036 24.3136C28.9756 23.9963 28.7779 23.7402 28.5107 23.5453C28.2434 23.3504 27.8871 23.253 27.4417 23.253C27.1077 23.253 26.8098 23.3254 26.5482 23.4701C26.2921 23.6093 26.0777 23.8125 25.9051 24.0798C25.7325 24.347 25.5989 24.6699 25.5043 25.0485C25.4152 25.4215 25.3706 25.8419 25.3706 26.3095V26.6436C25.3706 27.0389 25.4235 27.4063 25.5293 27.7459C25.6407 28.08 25.8021 28.3723 26.0137 28.6228C26.2252 28.8733 26.4813 29.071 26.782 29.2157C27.0826 29.3549 27.425 29.4245 27.8092 29.4245C28.2935 29.4245 28.725 29.3271 29.1036 29.1322C29.4822 28.9373 29.8107 28.6618 30.089 28.3054L31.1496 29.3326C30.9548 29.6166 30.7015 29.8894 30.3897 30.151C30.0779 30.4071 29.6965 30.6159 29.2456 30.7774C28.8002 30.9388 28.2824 31.0196 27.6923 31.0196ZM39.0498 25.5913V27.178H34.3732V25.5913H39.0498ZM34.9577 21.8166V30.8525H32.9451V21.8166H34.9577ZM40.5029 21.8166V30.8525H38.4903V21.8166H40.5029ZM44.286 21.8166H46.2986L46.1984 24.9984C46.1705 25.9226 46.0647 26.7159 45.881 27.3785C45.6973 28.041 45.4579 28.6005 45.1628 29.057C44.8677 29.508 44.5337 29.8782 44.1607 30.1677C43.7932 30.4573 43.4063 30.6855 42.9999 30.8525H42.4069V29.2658L42.6909 29.2491C42.9303 28.993 43.1363 28.7369 43.3089 28.4808C43.487 28.2192 43.6373 27.9324 43.7598 27.6207C43.8823 27.3033 43.977 26.9331 44.0438 26.51C44.1161 26.0868 44.1635 25.583 44.1857 24.9984L44.286 21.8166ZM44.8204 21.8166H50.5493V30.8525H48.545V23.5202H44.8204V21.8166ZM41.9476 29.2491H51.7853V33.5416H49.7726V30.8525H43.9853V33.5416H41.9393L41.9476 29.2491ZM57.2051 31.0196C56.5371 31.0196 55.933 30.911 55.393 30.6939C54.8585 30.4712 54.402 30.1622 54.0234 29.7669C53.6504 29.3716 53.3636 28.9067 53.1632 28.3723C52.9628 27.8378 52.8626 27.2616 52.8626 26.6436V26.3095C52.8626 25.6025 52.9656 24.9622 53.1716 24.3888C53.3775 23.8153 53.6643 23.3254 54.0317 22.919C54.3992 22.507 54.8334 22.1924 55.3345 21.9753C55.8356 21.7582 56.3784 21.6496 56.963 21.6496C57.6088 21.6496 58.1739 21.7582 58.6582 21.9753C59.1426 22.1924 59.5435 22.4986 59.8608 22.8939C60.1837 23.2836 60.4231 23.7485 60.579 24.2886C60.7405 24.8286 60.8212 25.4243 60.8212 26.0757V26.9359H53.8396V25.4911H58.8336V25.3324C58.8225 24.9706 58.7501 24.6309 58.6165 24.3136C58.4884 23.9963 58.2908 23.7402 58.0236 23.5453C57.7563 23.3504 57.4 23.253 56.9546 23.253C56.6206 23.253 56.3227 23.3254 56.061 23.4701C55.8049 23.6093 55.5906 23.8125 55.418 24.0798C55.2454 24.347 55.1118 24.6699 55.0172 25.0485C54.9281 25.4215 54.8835 25.8419 54.8835 26.3095V26.6436C54.8835 27.0389 54.9364 27.4063 55.0422 27.7459C55.1536 28.08 55.315 28.3723 55.5266 28.6228C55.7381 28.8733 55.9942 29.071 56.2949 29.2157C56.5955 29.3549 56.9379 29.4245 57.3221 29.4245C57.8064 29.4245 58.2379 29.3271 58.6165 29.1322C58.9951 28.9373 59.3235 28.6618 59.6019 28.3054L60.6625 29.3326C60.4677 29.6166 60.2143 29.8894 59.9026 30.151C59.5908 30.4071 59.2094 30.6159 58.7585 30.7774C58.3131 30.9388 57.7953 31.0196 57.2051 31.0196ZM64.4122 23.5537V34.3266H62.3996V21.8166H64.2535L64.4122 23.5537ZM70.2997 26.2511V26.4264C70.2997 27.0834 70.2218 27.693 70.0659 28.2553C69.9156 28.8121 69.6901 29.2992 69.3894 29.7168C69.0944 30.1288 68.7297 30.4489 68.2954 30.6772C67.8612 30.9054 67.3601 31.0196 66.7922 31.0196C66.2299 31.0196 65.7372 30.9166 65.3141 30.7106C64.8965 30.499 64.543 30.2012 64.2535 29.817C63.964 29.4328 63.7302 28.9819 63.552 28.4641C63.3794 27.9408 63.2569 27.3673 63.1846 26.7438V26.0673C63.2569 25.4048 63.3794 24.8035 63.552 24.2635C63.7302 23.7235 63.964 23.2586 64.2535 22.8689C64.543 22.4791 64.8965 22.1785 65.3141 21.9669C65.7317 21.7554 66.2188 21.6496 66.7755 21.6496C67.3434 21.6496 67.8473 21.7609 68.2871 21.9836C68.7269 22.2008 69.0972 22.5125 69.3978 22.919C69.6984 23.3198 69.9239 23.8042 70.0742 24.3721C70.2246 24.9344 70.2997 25.5607 70.2997 26.2511ZM68.2871 26.4264V26.2511C68.2871 25.8335 68.2481 25.4466 68.1702 25.0903C68.0922 24.7284 67.9698 24.411 67.8027 24.1382C67.6357 23.8654 67.4214 23.6539 67.1597 23.5035C66.9036 23.3477 66.5946 23.2697 66.2327 23.2697C65.8764 23.2697 65.5702 23.331 65.3141 23.4534C65.058 23.5704 64.8436 23.7346 64.6711 23.9462C64.4985 24.1577 64.3648 24.4055 64.2702 24.6894C64.1756 24.9678 64.1087 25.2712 64.0698 25.5997V27.2198C64.1366 27.6207 64.2507 27.9881 64.4122 28.3221C64.5736 28.6562 64.8019 28.9234 65.097 29.1239C65.3976 29.3187 65.7818 29.4161 66.2494 29.4161C66.6113 29.4161 66.9203 29.3382 67.1764 29.1823C67.4325 29.0264 67.6413 28.8121 67.8027 28.5393C67.9698 28.2609 68.0922 27.9408 68.1702 27.5789C68.2481 27.217 68.2871 26.8329 68.2871 26.4264ZM77.9661 21.8166V23.42H73.5567V21.8166H77.9661ZM79.5444 21.8166V30.8525H77.5318V21.8166H79.5444ZM73.0639 21.8166H75.0515L74.8093 26.2845C74.7759 26.947 74.7091 27.5316 74.6089 28.0382C74.5143 28.5393 74.3862 28.9708 74.2247 29.3326C74.0633 29.6889 73.8656 29.9785 73.6318 30.2012C73.398 30.4238 73.1252 30.5881 72.8134 30.6939C72.5016 30.7996 72.1509 30.8525 71.7612 30.8525H71.1348L71.1265 29.199L71.4438 29.174C71.6498 29.1573 71.828 29.1044 71.9783 29.0153C72.1286 28.9206 72.2567 28.787 72.3624 28.6144C72.4738 28.4418 72.5629 28.2192 72.6297 27.9463C72.7021 27.6735 72.7577 27.3506 72.7967 26.9776C72.8412 26.6046 72.8746 26.1703 72.8969 25.6748L73.0639 21.8166ZM86.7765 29.0403V24.7312C86.7765 24.4083 86.718 24.1299 86.6011 23.896C86.4842 23.6622 86.306 23.4813 86.0666 23.3532C85.8328 23.2252 85.5377 23.1612 85.1814 23.1612C84.8529 23.1612 84.569 23.2168 84.3296 23.3282C84.0902 23.4395 83.9037 23.5898 83.7701 23.7791C83.6365 23.9684 83.5697 24.1828 83.5697 24.4222H81.5654C81.5654 24.0659 81.6517 23.7207 81.8243 23.3866C81.9969 23.0526 82.2474 22.7547 82.5759 22.4931C82.9043 22.2314 83.2969 22.0254 83.7534 21.8751C84.2099 21.7248 84.7221 21.6496 85.29 21.6496C85.9692 21.6496 86.5705 21.7637 87.0938 21.992C87.6227 22.2203 88.0375 22.5654 88.3381 23.0275C88.6444 23.4841 88.7975 24.0575 88.7975 24.7479V28.7648C88.7975 29.1767 88.8253 29.547 88.881 29.8755C88.9422 30.1984 89.0285 30.4795 89.1399 30.7189V30.8525H87.0771C86.9825 30.6354 86.9073 30.3598 86.8516 30.0258C86.8015 29.6862 86.7765 29.3577 86.7765 29.0403ZM87.0688 25.3575L87.0855 26.6018H85.6407C85.2677 26.6018 84.9392 26.638 84.6553 26.7104C84.3714 26.7772 84.1347 26.8774 83.9455 27.011C83.7562 27.1446 83.6142 27.3061 83.5195 27.4954C83.4249 27.6847 83.3776 27.899 83.3776 28.1384C83.3776 28.3778 83.4333 28.5977 83.5446 28.7982C83.6559 28.993 83.8174 29.1461 84.029 29.2575C84.2461 29.3688 84.5078 29.4245 84.814 29.4245C85.226 29.4245 85.5851 29.341 85.8913 29.174C86.203 29.0014 86.448 28.7926 86.6262 28.5476C86.8043 28.2971 86.899 28.0605 86.9101 27.8378L87.5615 28.7314C87.4947 28.9596 87.3806 29.2046 87.2191 29.4663C87.0576 29.7279 86.8461 29.9785 86.5844 30.2179C86.3283 30.4517 86.0193 30.6438 85.6574 30.7941C85.3011 30.9444 84.8891 31.0196 84.4215 31.0196C83.8313 31.0196 83.3052 30.9026 82.8431 30.6688C82.381 30.4294 82.0191 30.1093 81.7575 29.7084C81.4958 29.302 81.365 28.8427 81.365 28.3305C81.365 27.8517 81.454 27.4286 81.6322 27.0611C81.8159 26.6881 82.0832 26.3763 82.4339 26.1258C82.7902 25.8753 83.2245 25.686 83.7367 25.5579C84.2489 25.4243 84.8335 25.3575 85.4904 25.3575H87.0688ZM92.9229 23.5537V34.3266H90.9103V21.8166H92.7643L92.9229 23.5537ZM98.8105 26.2511V26.4264C98.8105 27.0834 98.7325 27.693 98.5766 28.2553C98.4263 28.8121 98.2008 29.2992 97.9002 29.7168C97.6051 30.1288 97.2405 30.4489 96.8062 30.6772C96.3719 30.9054 95.8709 31.0196 95.303 31.0196C94.7407 31.0196 94.248 30.9166 93.8248 30.7106C93.4073 30.499 93.0538 30.2012 92.7643 29.817C92.4747 29.4328 92.2409 28.9819 92.0628 28.4641C91.8902 27.9408 91.7677 27.3673 91.6953 26.7438V26.0673C91.7677 25.4048 91.8902 24.8035 92.0628 24.2635C92.2409 23.7235 92.4747 23.2586 92.7643 22.8689C93.0538 22.4791 93.4073 22.1785 93.8248 21.9669C94.2424 21.7554 94.7295 21.6496 95.2863 21.6496C95.8542 21.6496 96.358 21.7609 96.7978 21.9836C97.2377 22.2008 97.6079 22.5125 97.9085 22.919C98.2092 23.3198 98.4347 23.8042 98.585 24.3721C98.7353 24.9344 98.8105 25.5607 98.8105 26.2511ZM96.7978 26.4264V26.2511C96.7978 25.8335 96.7589 25.4466 96.6809 25.0903C96.603 24.7284 96.4805 24.411 96.3135 24.1382C96.1465 23.8654 95.9321 23.6539 95.6704 23.5035C95.4143 23.3477 95.1054 23.2697 94.7435 23.2697C94.3872 23.2697 94.0809 23.331 93.8248 23.4534C93.5687 23.5704 93.3544 23.7346 93.1818 23.9462C93.0092 24.1577 92.8756 24.4055 92.781 24.6894C92.6863 24.9678 92.6195 25.2712 92.5805 25.5997V27.2198C92.6473 27.6207 92.7615 27.9881 92.9229 28.3221C93.0844 28.6562 93.3126 28.9234 93.6077 29.1239C93.9084 29.3187 94.2925 29.4161 94.7602 29.4161C95.1221 29.4161 95.431 29.3382 95.6871 29.1823C95.9432 29.0264 96.152 28.8121 96.3135 28.5393C96.4805 28.2609 96.603 27.9408 96.6809 27.5789C96.7589 27.217 96.7978 26.8329 96.7978 26.4264ZM102.009 21.8166H104.022L103.921 24.9984C103.894 25.9226 103.788 26.7159 103.604 27.3785C103.42 28.041 103.181 28.6005 102.886 29.057C102.591 29.508 102.257 29.8782 101.884 30.1677C101.516 30.4573 101.129 30.6855 100.723 30.8525H100.13V29.2658L100.414 29.2491C100.653 28.993 100.859 28.7369 101.032 28.4808C101.21 28.2192 101.36 27.9324 101.483 27.6207C101.605 27.3033 101.7 26.9331 101.767 26.51C101.839 26.0868 101.886 25.583 101.909 24.9984L102.009 21.8166ZM102.543 21.8166H108.272V30.8525H106.268V23.5202H102.543V21.8166ZM99.6706 29.2491H109.508V33.5416H107.496V30.8525H101.708V33.5416H99.6623L99.6706 29.2491ZM116.039 29.0403V24.7312C116.039 24.4083 115.98 24.1299 115.863 23.896C115.747 23.6622 115.568 23.4813 115.329 23.3532C115.095 23.2252 114.8 23.1612 114.444 23.1612C114.115 23.1612 113.831 23.2168 113.592 23.3282C113.353 23.4395 113.166 23.5898 113.032 23.7791C112.899 23.9684 112.832 24.1828 112.832 24.4222H110.828C110.828 24.0659 110.914 23.7207 111.087 23.3866C111.259 23.0526 111.51 22.7547 111.838 22.4931C112.167 22.2314 112.559 22.0254 113.016 21.8751C113.472 21.7248 113.984 21.6496 114.552 21.6496C115.232 21.6496 115.833 21.7637 116.356 21.992C116.885 22.2203 117.3 22.5654 117.6 23.0275C117.907 23.4841 118.06 24.0575 118.06 24.7479V28.7648C118.06 29.1767 118.088 29.547 118.143 29.8755C118.205 30.1984 118.291 30.4795 118.402 30.7189V30.8525H116.339C116.245 30.6354 116.17 30.3598 116.114 30.0258C116.064 29.6862 116.039 29.3577 116.039 29.0403ZM116.331 25.3575L116.348 26.6018H114.903C114.53 26.6018 114.202 26.638 113.918 26.7104C113.634 26.7772 113.397 26.8774 113.208 27.011C113.019 27.1446 112.877 27.3061 112.782 27.4954C112.687 27.6847 112.64 27.899 112.64 28.1384C112.64 28.3778 112.696 28.5977 112.807 28.7982C112.918 28.993 113.08 29.1461 113.291 29.2575C113.508 29.3688 113.77 29.4245 114.076 29.4245C114.488 29.4245 114.847 29.341 115.154 29.174C115.465 29.0014 115.71 28.7926 115.889 28.5476C116.067 28.2971 116.161 28.0605 116.172 27.8378L116.824 28.7314C116.757 28.9596 116.643 29.2046 116.481 29.4663C116.32 29.7279 116.108 29.9785 115.847 30.2179C115.591 30.4517 115.282 30.6438 114.92 30.7941C114.563 30.9444 114.151 31.0196 113.684 31.0196C113.094 31.0196 112.568 30.9026 112.105 30.6688C111.643 30.4294 111.281 30.1093 111.02 29.7084C110.758 29.302 110.627 28.8427 110.627 28.3305C110.627 27.8517 110.716 27.4286 110.895 27.0611C111.078 26.6881 111.346 26.3763 111.696 26.1258C112.053 25.8753 112.487 25.686 112.999 25.5579C113.511 25.4243 114.096 25.3575 114.753 25.3575H116.331ZM128.616 21.8166V30.8525H126.595V21.8166H128.616ZM131.58 21.8166V23.4033H123.68V21.8166H131.58ZM136.29 31.0196C135.622 31.0196 135.018 30.911 134.478 30.6939C133.944 30.4712 133.487 30.1622 133.109 29.7669C132.736 29.3716 132.449 28.9067 132.248 28.3723C132.048 27.8378 131.948 27.2616 131.948 26.6436V26.3095C131.948 25.6025 132.051 24.9622 132.257 24.3888C132.463 23.8153 132.749 23.3254 133.117 22.919C133.484 22.507 133.919 22.1924 134.42 21.9753C134.921 21.7582 135.464 21.6496 136.048 21.6496C136.694 21.6496 137.259 21.7582 137.743 21.9753C138.228 22.1924 138.629 22.4986 138.946 22.8939C139.269 23.2836 139.508 23.7485 139.664 24.2886C139.826 24.8286 139.906 25.4243 139.906 26.0757V26.9359H132.925V25.4911H137.919V25.3324C137.908 24.9706 137.835 24.6309 137.702 24.3136C137.574 23.9963 137.376 23.7402 137.109 23.5453C136.841 23.3504 136.485 23.253 136.04 23.253C135.706 23.253 135.408 23.3254 135.146 23.4701C134.89 23.6093 134.676 23.8125 134.503 24.0798C134.331 24.347 134.197 24.6699 134.102 25.0485C134.013 25.4215 133.969 25.8419 133.969 26.3095V26.6436C133.969 27.0389 134.022 27.4063 134.127 27.7459C134.239 28.08 134.4 28.3723 134.612 28.6228C134.823 28.8733 135.079 29.071 135.38 29.2157C135.681 29.3549 136.023 29.4245 136.407 29.4245C136.892 29.4245 137.323 29.3271 137.702 29.1322C138.08 28.9373 138.409 28.6618 138.687 28.3054L139.748 29.3326C139.553 29.6166 139.3 29.8894 138.988 30.151C138.676 30.4071 138.295 30.6159 137.844 30.7774C137.398 30.9388 136.88 31.0196 136.29 31.0196ZM144.474 27.2031L140.867 21.8166H143.339L145.443 25.3742H147.205L146.946 27.2031H144.474ZM145.493 26.9108L143.18 30.8525H140.708L143.982 25.7667L145.493 26.9108ZM148.416 21.8166V30.8525H146.412V21.8166H148.416ZM153.986 21.8166L150.379 27.2031H147.898L147.631 25.3742H149.402L151.506 21.8166H153.986ZM151.665 30.8525L149.343 26.9108L150.905 25.7667L154.162 30.8525H151.665ZM160.534 29.0403V24.7312C160.534 24.4083 160.475 24.1299 160.358 23.896C160.241 23.6622 160.063 23.4813 159.824 23.3532C159.59 23.2252 159.295 23.1612 158.939 23.1612C158.61 23.1612 158.326 23.2168 158.087 23.3282C157.847 23.4395 157.661 23.5898 157.527 23.7791C157.394 23.9684 157.327 24.1828 157.327 24.4222H155.323C155.323 24.0659 155.409 23.7207 155.581 23.3866C155.754 23.0526 156.005 22.7547 156.333 22.4931C156.662 22.2314 157.054 22.0254 157.511 21.8751C157.967 21.7248 158.479 21.6496 159.047 21.6496C159.726 21.6496 160.328 21.7637 160.851 21.992C161.38 22.2203 161.795 22.5654 162.095 23.0275C162.402 23.4841 162.555 24.0575 162.555 24.7479V28.7648C162.555 29.1767 162.582 29.547 162.638 29.8755C162.699 30.1984 162.786 30.4795 162.897 30.7189V30.8525H160.834C160.74 30.6354 160.664 30.3598 160.609 30.0258C160.559 29.6862 160.534 29.3577 160.534 29.0403ZM160.826 25.3575L160.843 26.6018H159.398C159.025 26.6018 158.696 26.638 158.412 26.7104C158.129 26.7772 157.892 26.8774 157.703 27.011C157.513 27.1446 157.371 27.3061 157.277 27.4954C157.182 27.6847 157.135 27.899 157.135 28.1384C157.135 28.3778 157.19 28.5977 157.302 28.7982C157.413 28.993 157.575 29.1461 157.786 29.2575C158.003 29.3688 158.265 29.4245 158.571 29.4245C158.983 29.4245 159.342 29.341 159.648 29.174C159.96 29.0014 160.205 28.7926 160.383 28.5476C160.561 28.2971 160.656 28.0605 160.667 27.8378L161.319 28.7314C161.252 28.9596 161.138 29.2046 160.976 29.4663C160.815 29.7279 160.603 29.9785 160.342 30.2179C160.085 30.4517 159.776 30.6438 159.415 30.7941C159.058 30.9444 158.646 31.0196 158.179 31.0196C157.588 31.0196 157.062 30.9026 156.6 30.6688C156.138 30.4294 155.776 30.1093 155.515 29.7084C155.253 29.302 155.122 28.8427 155.122 28.3305C155.122 27.8517 155.211 27.4286 155.389 27.0611C155.573 26.6881 155.84 26.3763 156.191 26.1258C156.547 25.8753 156.982 25.686 157.494 25.5579C158.006 25.4243 158.591 25.3575 159.248 25.3575H160.826ZM170.33 17.8582H171.958C171.958 18.3537 171.888 18.7629 171.749 19.0858C171.616 19.4031 171.415 19.6648 171.148 19.8708C170.886 20.0712 170.561 20.2327 170.171 20.3552C169.787 20.4777 169.341 20.589 168.835 20.6892C168.367 20.7894 167.944 20.9481 167.565 21.1652C167.192 21.3768 166.878 21.6746 166.622 22.0588C166.371 22.4374 166.19 22.9245 166.079 23.5202C165.967 24.116 165.934 24.8425 165.979 25.6999V26.2678L164.384 26.4097V25.8419C164.384 24.7785 164.481 23.8515 164.676 23.0609C164.871 22.2704 165.146 21.6051 165.503 21.065C165.864 20.5194 166.293 20.0852 166.789 19.7622C167.29 19.4393 167.846 19.2166 168.459 19.0942C168.876 19.0051 169.224 18.916 169.503 18.8269C169.781 18.7323 169.987 18.6126 170.121 18.4678C170.26 18.3175 170.33 18.1143 170.33 17.8582ZM168.918 22.326C169.519 22.326 170.054 22.4318 170.522 22.6434C170.989 22.8494 171.385 23.1389 171.707 23.5119C172.03 23.8849 172.275 24.3247 172.442 24.8314C172.615 25.338 172.701 25.8892 172.701 26.4849V26.6686C172.701 27.2922 172.609 27.8684 172.426 28.3973C172.242 28.9262 171.972 29.3883 171.616 29.7836C171.259 30.1733 170.822 30.4795 170.304 30.7022C169.792 30.9193 169.205 31.0279 168.542 31.0279C167.885 31.0279 167.298 30.9138 166.78 30.6855C166.263 30.4573 165.825 30.1399 165.469 29.7335C165.113 29.3215 164.843 28.8399 164.659 28.2887C164.475 27.7376 164.384 27.1363 164.384 26.4849V26.3012C164.378 26.1843 164.409 26.0701 164.475 25.9588C164.548 25.8474 164.634 25.7277 164.734 25.5997C164.834 25.4716 164.924 25.3241 165.002 25.1571C165.28 24.5948 165.608 24.102 165.987 23.6789C166.366 23.2558 166.797 22.9245 167.281 22.6851C167.771 22.4457 168.317 22.326 168.918 22.326ZM168.526 23.9211C168.025 23.9211 167.615 24.0408 167.298 24.2802C166.986 24.514 166.755 24.8258 166.605 25.2155C166.46 25.6052 166.388 26.0284 166.388 26.4849V26.6686C166.388 27.0416 166.43 27.3952 166.513 27.7292C166.597 28.0633 166.722 28.3583 166.889 28.6144C167.061 28.865 167.284 29.0626 167.557 29.2074C167.835 29.3521 168.164 29.4245 168.542 29.4245C168.927 29.4245 169.252 29.3521 169.519 29.2074C169.792 29.0626 170.012 28.865 170.179 28.6144C170.352 28.3583 170.477 28.0633 170.555 27.7292C170.639 27.3952 170.68 27.0416 170.68 26.6686V26.4849C170.68 26.1397 170.639 25.814 170.555 25.5078C170.477 25.2016 170.352 24.9316 170.179 24.6978C170.007 24.4584 169.784 24.2691 169.511 24.1299C169.238 23.9907 168.91 23.9211 168.526 23.9211ZM180.71 21.8166V30.8525H178.697V21.8166H180.71ZM186.606 21.8166L182.539 27.2532H180.242L179.975 25.4327H181.654L184.092 21.8166H186.606ZM184.251 30.8525L181.528 26.9108L183.115 25.7667L186.898 30.8525H184.251ZM187.666 29.3577V33.8422H185.654V29.3577H187.666ZM188.811 26.4348V26.2427C188.811 25.5913 188.905 24.9873 189.095 24.4305C189.284 23.8682 189.557 23.3811 189.913 22.9691C190.275 22.5515 190.715 22.2286 191.232 22.0003C191.756 21.7665 192.346 21.6496 193.003 21.6496C193.665 21.6496 194.256 21.7665 194.773 22.0003C195.297 22.2286 195.739 22.5515 196.101 22.9691C196.463 23.3811 196.739 23.8682 196.928 24.4305C197.117 24.9873 197.212 25.5913 197.212 26.2427V26.4348C197.212 27.0862 197.117 27.6902 196.928 28.247C196.739 28.8037 196.463 29.2909 196.101 29.7084C195.739 30.1204 195.299 30.4433 194.782 30.6772C194.264 30.9054 193.676 31.0196 193.02 31.0196C192.357 31.0196 191.764 30.9054 191.241 30.6772C190.723 30.4433 190.283 30.1204 189.921 29.7084C189.559 29.2909 189.284 28.8037 189.095 28.247C188.905 27.6902 188.811 27.0862 188.811 26.4348ZM190.823 26.2427V26.4348C190.823 26.8412 190.865 27.2254 190.948 27.5872C191.032 27.9491 191.163 28.2665 191.341 28.5393C191.519 28.8121 191.747 29.0264 192.026 29.1823C192.304 29.3382 192.635 29.4161 193.02 29.4161C193.393 29.4161 193.715 29.3382 193.988 29.1823C194.267 29.0264 194.495 28.8121 194.673 28.5393C194.851 28.2665 194.982 27.9491 195.066 27.5872C195.155 27.2254 195.199 26.8412 195.199 26.4348V26.2427C195.199 25.8419 195.155 25.4633 195.066 25.107C194.982 24.7451 194.848 24.425 194.665 24.1466C194.487 23.8682 194.258 23.6511 193.98 23.4952C193.707 23.3337 193.381 23.253 193.003 23.253C192.624 23.253 192.296 23.3337 192.017 23.4952C191.745 23.6511 191.519 23.8682 191.341 24.1466C191.163 24.425 191.032 24.7451 190.948 25.107C190.865 25.4633 190.823 25.8419 190.823 26.2427ZM204.836 21.8166V23.42H200.427V21.8166H204.836ZM206.415 21.8166V30.8525H204.402V21.8166H206.415ZM199.934 21.8166H201.922L201.68 26.2845C201.646 26.947 201.579 27.5316 201.479 28.0382C201.385 28.5393 201.257 28.9708 201.095 29.3326C200.934 29.6889 200.736 29.9785 200.502 30.2012C200.268 30.4238 199.996 30.5881 199.684 30.6939C199.372 30.7996 199.021 30.8525 198.631 30.8525H198.005L197.997 29.199L198.314 29.174C198.52 29.1573 198.698 29.1044 198.849 29.0153C198.999 28.9206 199.127 28.787 199.233 28.6144C199.344 28.4418 199.433 28.2192 199.5 27.9463C199.572 27.6735 199.628 27.3506 199.667 26.9776C199.712 26.6046 199.745 26.1703 199.767 25.6748L199.934 21.8166ZM210.632 27.9129L214.181 21.8166H216.194V30.8525H214.181V24.7479L210.632 30.8525H208.619V21.8166H210.632V27.9129ZM224.495 25.5913V27.178H219.818V25.5913H224.495ZM220.403 21.8166V30.8525H218.39V21.8166H220.403ZM225.948 21.8166V30.8525H223.935V21.8166H225.948ZM234.107 21.8166V23.42H230.165V30.8525H228.153V21.8166H234.107ZM240.37 29.0403V24.7312C240.37 24.4083 240.312 24.1299 240.195 23.896C240.078 23.6622 239.9 23.4813 239.661 23.3532C239.427 23.2252 239.132 23.1612 238.775 23.1612C238.447 23.1612 238.163 23.2168 237.924 23.3282C237.684 23.4395 237.498 23.5898 237.364 23.7791C237.23 23.9684 237.164 24.1828 237.164 24.4222H235.159C235.159 24.0659 235.246 23.7207 235.418 23.3866C235.591 23.0526 235.841 22.7547 236.17 22.4931C236.498 22.2314 236.891 22.0254 237.347 21.8751C237.804 21.7248 238.316 21.6496 238.884 21.6496C239.563 21.6496 240.164 21.7637 240.688 21.992C241.217 22.2203 241.631 22.5654 241.932 23.0275C242.238 23.4841 242.391 24.0575 242.391 24.7479V28.7648C242.391 29.1767 242.419 29.547 242.475 29.8755C242.536 30.1984 242.622 30.4795 242.734 30.7189V30.8525H240.671C240.576 30.6354 240.501 30.3598 240.446 30.0258C240.395 29.6862 240.37 29.3577 240.37 29.0403ZM240.663 25.3575L240.679 26.6018H239.235C238.862 26.6018 238.533 26.638 238.249 26.7104C237.965 26.7772 237.729 26.8774 237.539 27.011C237.35 27.1446 237.208 27.3061 237.113 27.4954C237.019 27.6847 236.972 27.899 236.972 28.1384C236.972 28.3778 237.027 28.5977 237.139 28.7982C237.25 28.993 237.411 29.1461 237.623 29.2575C237.84 29.3688 238.102 29.4245 238.408 29.4245C238.82 29.4245 239.179 29.341 239.485 29.174C239.797 29.0014 240.042 28.7926 240.22 28.5476C240.398 28.2971 240.493 28.0605 240.504 27.8378L241.155 28.7314C241.089 28.9596 240.974 29.2046 240.813 29.4663C240.652 29.7279 240.44 29.9785 240.178 30.2179C239.922 30.4517 239.613 30.6438 239.251 30.7941C238.895 30.9444 238.483 31.0196 238.015 31.0196C237.425 31.0196 236.899 30.9026 236.437 30.6688C235.975 30.4294 235.613 30.1093 235.351 29.7084C235.09 29.302 234.959 28.8427 234.959 28.3305C234.959 27.8517 235.048 27.4286 235.226 27.0611C235.41 26.6881 235.677 26.3763 236.028 26.1258C236.384 25.8753 236.818 25.686 237.331 25.5579C237.843 25.4243 238.427 25.3575 239.084 25.3575H240.663ZM250.667 25.5913V27.178H245.991V25.5913H250.667ZM246.575 21.8166V30.8525H244.563V21.8166H246.575ZM252.12 21.8166V30.8525H250.108V21.8166H252.12ZM263.896 28.414L266.585 21.8166H268.33L264.58 30.8525H263.211L259.469 21.8166H261.215L263.896 28.414ZM260.697 21.8166V30.8525H258.684V21.8166H260.697ZM267.094 30.8525V21.8166H269.115V30.8525H267.094ZM276.464 29.0403V24.7312C276.464 24.4083 276.406 24.1299 276.289 23.896C276.172 23.6622 275.994 23.4813 275.754 23.3532C275.52 23.2252 275.225 23.1612 274.869 23.1612C274.54 23.1612 274.257 23.2168 274.017 23.3282C273.778 23.4395 273.591 23.5898 273.458 23.7791C273.324 23.9684 273.257 24.1828 273.257 24.4222H271.253C271.253 24.0659 271.339 23.7207 271.512 23.3866C271.684 23.0526 271.935 22.7547 272.263 22.4931C272.592 22.2314 272.984 22.0254 273.441 21.8751C273.897 21.7248 274.41 21.6496 274.978 21.6496C275.657 21.6496 276.258 21.7637 276.781 21.992C277.31 22.2203 277.725 22.5654 278.026 23.0275C278.332 23.4841 278.485 24.0575 278.485 24.7479V28.7648C278.485 29.1767 278.513 29.547 278.569 29.8755C278.63 30.1984 278.716 30.4795 278.827 30.7189V30.8525H276.765C276.67 30.6354 276.595 30.3598 276.539 30.0258C276.489 29.6862 276.464 29.3577 276.464 29.0403ZM276.756 25.3575L276.773 26.6018H275.328C274.955 26.6018 274.627 26.638 274.343 26.7104C274.059 26.7772 273.822 26.8774 273.633 27.011C273.444 27.1446 273.302 27.3061 273.207 27.4954C273.112 27.6847 273.065 27.899 273.065 28.1384C273.065 28.3778 273.121 28.5977 273.232 28.7982C273.343 28.993 273.505 29.1461 273.716 29.2575C273.934 29.3688 274.195 29.4245 274.502 29.4245C274.913 29.4245 275.273 29.341 275.579 29.174C275.891 29.0014 276.136 28.7926 276.314 28.5476C276.492 28.2971 276.587 28.0605 276.598 27.8378L277.249 28.7314C277.182 28.9596 277.068 29.2046 276.907 29.4663C276.745 29.7279 276.534 29.9785 276.272 30.2179C276.016 30.4517 275.707 30.6438 275.345 30.7941C274.989 30.9444 274.577 31.0196 274.109 31.0196C273.519 31.0196 272.993 30.9026 272.531 30.6688C272.069 30.4294 271.707 30.1093 271.445 29.7084C271.183 29.302 271.052 28.8427 271.052 28.3305C271.052 27.8517 271.142 27.4286 271.32 27.0611C271.503 26.6881 271.771 26.3763 272.121 26.1258C272.478 25.8753 272.912 25.686 273.424 25.5579C273.936 25.4243 274.521 25.3575 275.178 25.3575H276.756ZM286.26 17.8582H287.888C287.888 18.3537 287.819 18.7629 287.68 19.0858C287.546 19.4031 287.346 19.6648 287.078 19.8708C286.817 20.0712 286.491 20.2327 286.101 20.3552C285.717 20.4777 285.272 20.589 284.765 20.6892C284.297 20.7894 283.874 20.9481 283.496 21.1652C283.123 21.3768 282.808 21.6746 282.552 22.0588C282.301 22.4374 282.121 22.9245 282.009 23.5202C281.898 24.116 281.864 24.8425 281.909 25.6999V26.2678L280.314 26.4097V25.8419C280.314 24.7785 280.411 23.8515 280.606 23.0609C280.801 22.2704 281.077 21.6051 281.433 21.065C281.795 20.5194 282.224 20.0852 282.719 19.7622C283.22 19.4393 283.777 19.2166 284.389 19.0942C284.807 19.0051 285.155 18.916 285.433 18.8269C285.711 18.7323 285.917 18.6126 286.051 18.4678C286.19 18.3175 286.26 18.1143 286.26 17.8582ZM284.849 22.326C285.45 22.326 285.984 22.4318 286.452 22.6434C286.92 22.8494 287.315 23.1389 287.638 23.5119C287.961 23.8849 288.206 24.3247 288.373 24.8314C288.545 25.338 288.632 25.8892 288.632 26.4849V26.6686C288.632 27.2922 288.54 27.8684 288.356 28.3973C288.172 28.9262 287.902 29.3883 287.546 29.7836C287.19 30.1733 286.753 30.4795 286.235 30.7022C285.723 30.9193 285.135 31.0279 284.473 31.0279C283.816 31.0279 283.228 30.9138 282.711 30.6855C282.193 30.4573 281.756 30.1399 281.4 29.7335C281.043 29.3215 280.773 28.8399 280.589 28.2887C280.406 27.7376 280.314 27.1363 280.314 26.4849V26.3012C280.308 26.1843 280.339 26.0701 280.406 25.9588C280.478 25.8474 280.564 25.7277 280.665 25.5997C280.765 25.4716 280.854 25.3241 280.932 25.1571C281.21 24.5948 281.539 24.102 281.917 23.6789C282.296 23.2558 282.727 22.9245 283.212 22.6851C283.702 22.4457 284.247 22.326 284.849 22.326ZM284.456 23.9211C283.955 23.9211 283.546 24.0408 283.228 24.2802C282.917 24.514 282.686 24.8258 282.535 25.2155C282.391 25.6052 282.318 26.0284 282.318 26.4849V26.6686C282.318 27.0416 282.36 27.3952 282.443 27.7292C282.527 28.0633 282.652 28.3583 282.819 28.6144C282.992 28.865 283.215 29.0626 283.487 29.2074C283.766 29.3521 284.094 29.4245 284.473 29.4245C284.857 29.4245 285.183 29.3521 285.45 29.2074C285.723 29.0626 285.943 28.865 286.11 28.6144C286.282 28.3583 286.407 28.0633 286.485 27.7292C286.569 27.3952 286.611 27.0416 286.611 26.6686V26.4849C286.611 26.1397 286.569 25.814 286.485 25.5078C286.407 25.2016 286.282 24.9316 286.11 24.6978C285.937 24.4584 285.714 24.2691 285.441 24.1299C285.169 23.9907 284.84 23.9211 284.456 23.9211ZM296.281 21.8166V23.42H291.872V21.8166H296.281ZM297.86 21.8166V30.8525H295.847V21.8166H297.86ZM291.379 21.8166H293.367L293.124 26.2845C293.091 26.947 293.024 27.5316 292.924 28.0382C292.829 28.5393 292.701 28.9708 292.54 29.3326C292.378 29.6889 292.181 29.9785 291.947 30.2012C291.713 30.4238 291.44 30.5881 291.129 30.6939C290.817 30.7996 290.466 30.8525 290.076 30.8525H289.45L289.442 29.199L289.759 29.174C289.965 29.1573 290.143 29.1044 290.293 29.0153C290.444 28.9206 290.572 28.787 290.678 28.6144C290.789 28.4418 290.878 28.2192 290.945 27.9463C291.017 27.6735 291.073 27.3506 291.112 26.9776C291.156 26.6046 291.19 26.1703 291.212 25.6748L291.379 21.8166ZM305.092 29.0403V24.7312C305.092 24.4083 305.033 24.1299 304.916 23.896C304.799 23.6622 304.621 23.4813 304.382 23.3532C304.148 23.2252 303.853 23.1612 303.497 23.1612C303.168 23.1612 302.884 23.2168 302.645 23.3282C302.405 23.4395 302.219 23.5898 302.085 23.7791C301.952 23.9684 301.885 24.1828 301.885 24.4222H299.881C299.881 24.0659 299.967 23.7207 300.139 23.3866C300.312 23.0526 300.563 22.7547 300.891 22.4931C301.22 22.2314 301.612 22.0254 302.069 21.8751C302.525 21.7248 303.037 21.6496 303.605 21.6496C304.284 21.6496 304.886 21.7637 305.409 21.992C305.938 22.2203 306.353 22.5654 306.653 23.0275C306.96 23.4841 307.113 24.0575 307.113 24.7479V28.7648C307.113 29.1767 307.14 29.547 307.196 29.8755C307.257 30.1984 307.344 30.4795 307.455 30.7189V30.8525H305.392C305.298 30.6354 305.223 30.3598 305.167 30.0258C305.117 29.6862 305.092 29.3577 305.092 29.0403ZM305.384 25.3575L305.401 26.6018H303.956C303.583 26.6018 303.254 26.638 302.97 26.7104C302.687 26.7772 302.45 26.8774 302.261 27.011C302.071 27.1446 301.929 27.3061 301.835 27.4954C301.74 27.6847 301.693 27.899 301.693 28.1384C301.693 28.3778 301.748 28.5977 301.86 28.7982C301.971 28.993 302.133 29.1461 302.344 29.2575C302.561 29.3688 302.823 29.4245 303.129 29.4245C303.541 29.4245 303.9 29.341 304.206 29.174C304.518 29.0014 304.763 28.7926 304.941 28.5476C305.12 28.2971 305.214 28.0605 305.225 27.8378L305.877 28.7314C305.81 28.9596 305.696 29.2046 305.534 29.4663C305.373 29.7279 305.161 29.9785 304.9 30.2179C304.643 30.4517 304.335 30.6438 303.973 30.7941C303.616 30.9444 303.204 31.0196 302.737 31.0196C302.147 31.0196 301.62 30.9026 301.158 30.6688C300.696 30.4294 300.334 30.1093 300.073 29.7084C299.811 29.302 299.68 28.8427 299.68 28.3305C299.68 27.8517 299.769 27.4286 299.947 27.0611C300.131 26.6881 300.398 26.3763 300.749 26.1258C301.105 25.8753 301.54 25.686 302.052 25.5579C302.564 25.4243 303.149 25.3575 303.806 25.3575H305.384ZM315.23 21.8166V23.42H311.288V30.8525H309.276V21.8166H315.23ZM313.51 25.5663V26.9609H307.906V25.5663H313.51Z" fill="#638BBA"/>
<path d="M102.369 108.07V118.316H100.168V110.574L97.7908 111.298V109.596L102.151 108.07H102.369ZM107.756 116.565L107.742 118C107.742 118.544 107.608 119.085 107.341 119.624C107.074 120.168 106.739 120.614 106.335 120.961L105.21 120.405C105.318 120.189 105.428 119.971 105.541 119.751C105.658 119.535 105.754 119.296 105.829 119.034C105.909 118.771 105.949 118.464 105.949 118.112V116.565H107.756ZM116.3 112.282V114.104C116.3 114.854 116.216 115.503 116.047 116.052C115.883 116.6 115.644 117.053 115.33 117.409C115.021 117.766 114.65 118.03 114.219 118.204C113.792 118.373 113.319 118.457 112.798 118.457C112.381 118.457 111.992 118.403 111.631 118.295C111.27 118.187 110.944 118.021 110.653 117.796C110.367 117.566 110.121 117.28 109.915 116.938C109.709 116.596 109.549 116.188 109.437 115.714C109.329 115.241 109.275 114.704 109.275 114.104V112.282C109.275 111.523 109.357 110.871 109.521 110.327C109.69 109.784 109.931 109.334 110.245 108.977C110.56 108.621 110.93 108.358 111.357 108.19C111.788 108.021 112.264 107.936 112.784 107.936C113.201 107.936 113.588 107.99 113.945 108.098C114.306 108.206 114.631 108.372 114.922 108.597C115.213 108.822 115.459 109.106 115.66 109.448C115.867 109.791 116.024 110.199 116.132 110.672C116.244 111.141 116.3 111.678 116.3 112.282ZM114.106 114.378V111.994C114.106 111.643 114.085 111.338 114.043 111.08C114.006 110.817 113.949 110.595 113.874 110.412C113.804 110.229 113.715 110.081 113.607 109.969C113.499 109.856 113.375 109.774 113.234 109.723C113.098 109.666 112.948 109.638 112.784 109.638C112.578 109.638 112.393 109.68 112.229 109.765C112.065 109.849 111.926 109.983 111.814 110.166C111.701 110.344 111.614 110.585 111.553 110.89C111.497 111.19 111.469 111.558 111.469 111.994V114.378C111.469 114.73 111.488 115.037 111.525 115.299C111.568 115.562 111.624 115.787 111.694 115.975C111.769 116.157 111.861 116.307 111.968 116.425C112.076 116.537 112.2 116.619 112.341 116.671C112.482 116.722 112.634 116.748 112.798 116.748C113.005 116.748 113.187 116.708 113.347 116.629C113.506 116.544 113.642 116.411 113.755 116.228C113.872 116.04 113.959 115.794 114.015 115.489C114.076 115.185 114.106 114.814 114.106 114.378ZM124.655 108.077V109.259L120.759 118.316H118.438L122.334 109.786H117.341V108.077H124.655Z" fill="#1A60B1"/>
<path d="M228.497 129.385V131.206C228.497 131.957 228.412 132.606 228.243 133.154C228.079 133.703 227.84 134.155 227.526 134.512C227.217 134.868 226.846 135.133 226.415 135.306C225.988 135.475 225.515 135.56 224.994 135.56C224.577 135.56 224.188 135.506 223.827 135.398C223.466 135.29 223.14 135.124 222.849 134.899C222.563 134.669 222.317 134.383 222.111 134.041C221.905 133.698 221.745 133.29 221.633 132.817C221.525 132.343 221.471 131.807 221.471 131.206V129.385C221.471 128.626 221.553 127.974 221.717 127.43C221.886 126.886 222.127 126.436 222.442 126.08C222.756 125.723 223.126 125.461 223.553 125.292C223.984 125.123 224.46 125.039 224.98 125.039C225.398 125.039 225.784 125.093 226.141 125.201C226.502 125.309 226.827 125.475 227.118 125.7C227.409 125.925 227.655 126.209 227.857 126.551C228.063 126.893 228.22 127.301 228.328 127.775C228.44 128.243 228.497 128.78 228.497 129.385ZM226.302 131.481V129.097C226.302 128.745 226.281 128.44 226.239 128.182C226.202 127.92 226.145 127.697 226.07 127.514C226 127.332 225.911 127.184 225.803 127.071C225.695 126.959 225.571 126.877 225.43 126.825C225.294 126.769 225.144 126.741 224.98 126.741C224.774 126.741 224.589 126.783 224.425 126.867C224.261 126.952 224.122 127.085 224.01 127.268C223.897 127.446 223.811 127.688 223.75 127.993C223.693 128.293 223.665 128.661 223.665 129.097V131.481C223.665 131.832 223.684 132.139 223.721 132.402C223.764 132.665 223.82 132.89 223.89 133.077C223.965 133.26 224.057 133.41 224.164 133.527C224.272 133.64 224.397 133.722 224.537 133.773C224.678 133.825 224.83 133.851 224.994 133.851C225.201 133.851 225.383 133.811 225.543 133.731C225.702 133.647 225.838 133.513 225.951 133.33C226.068 133.143 226.155 132.897 226.211 132.592C226.272 132.287 226.302 131.917 226.302 131.481ZM231.978 133.668L231.964 135.102C231.964 135.646 231.83 136.188 231.563 136.727C231.295 137.271 230.96 137.716 230.557 138.063L229.432 137.508C229.54 137.292 229.65 137.074 229.762 136.854C229.88 136.638 229.976 136.399 230.051 136.136C230.13 135.874 230.17 135.567 230.17 135.215V133.668H231.978ZM235.487 130.806L233.743 130.391L234.341 125.18H240.206V126.917H236.141L235.895 129.076C236.021 129.001 236.221 128.919 236.492 128.829C236.764 128.736 237.069 128.689 237.407 128.689C237.908 128.689 238.354 128.766 238.743 128.921C239.132 129.076 239.46 129.301 239.727 129.596C239.999 129.887 240.203 130.245 240.339 130.672C240.48 131.099 240.55 131.584 240.55 132.128C240.55 132.578 240.48 133.009 240.339 133.422C240.199 133.83 239.983 134.195 239.692 134.519C239.406 134.838 239.043 135.091 238.602 135.278C238.162 135.466 237.643 135.56 237.048 135.56C236.598 135.56 236.162 135.492 235.74 135.356C235.318 135.22 234.938 135.023 234.601 134.765C234.268 134.502 234.003 134.184 233.806 133.808C233.614 133.433 233.515 133.011 233.511 132.543H235.705C235.728 132.815 235.796 133.049 235.909 133.246C236.021 133.438 236.174 133.588 236.366 133.696C236.558 133.799 236.781 133.851 237.034 133.851C237.278 133.851 237.484 133.804 237.653 133.71C237.822 133.612 237.955 133.478 238.054 133.309C238.157 133.14 238.232 132.943 238.279 132.718C238.326 132.493 238.349 132.252 238.349 131.994C238.349 131.727 238.319 131.488 238.258 131.277C238.197 131.061 238.103 130.878 237.976 130.728C237.85 130.574 237.688 130.456 237.491 130.377C237.299 130.292 237.067 130.25 236.795 130.25C236.439 130.25 236.16 130.309 235.958 130.426C235.756 130.543 235.599 130.67 235.487 130.806ZM248.842 132.606C248.842 133.253 248.689 133.797 248.385 134.237C248.08 134.678 247.662 135.009 247.133 135.229C246.608 135.449 246.008 135.56 245.332 135.56C244.662 135.56 244.059 135.449 243.525 135.229C242.995 135.009 242.576 134.678 242.266 134.237C241.957 133.797 241.802 133.253 241.802 132.606C241.802 132.165 241.889 131.769 242.062 131.417C242.24 131.066 242.487 130.766 242.801 130.517C243.119 130.269 243.492 130.079 243.919 129.948C244.35 129.816 244.817 129.751 245.318 129.751C245.993 129.751 246.596 129.868 247.126 130.102C247.66 130.332 248.08 130.66 248.385 131.087C248.689 131.514 248.842 132.02 248.842 132.606ZM246.633 132.444C246.633 132.144 246.577 131.891 246.465 131.685C246.357 131.474 246.204 131.312 246.008 131.199C245.811 131.082 245.581 131.024 245.318 131.024C245.056 131.024 244.826 131.082 244.629 131.199C244.432 131.312 244.278 131.474 244.165 131.685C244.057 131.891 244.003 132.144 244.003 132.444C244.003 132.735 244.059 132.988 244.172 133.204C244.285 133.415 244.439 133.576 244.636 133.689C244.833 133.797 245.065 133.851 245.332 133.851C245.6 133.851 245.829 133.797 246.022 133.689C246.214 133.576 246.364 133.415 246.472 133.204C246.579 132.988 246.633 132.735 246.633 132.444ZM248.624 127.901C248.624 128.431 248.483 128.897 248.202 129.301C247.925 129.699 247.538 130.011 247.041 130.236C246.544 130.456 245.975 130.567 245.332 130.567C244.69 130.567 244.118 130.456 243.616 130.236C243.119 130.011 242.728 129.699 242.442 129.301C242.161 128.897 242.02 128.431 242.02 127.901C242.02 127.282 242.161 126.76 242.442 126.333C242.728 125.906 243.119 125.583 243.616 125.362C244.113 125.142 244.681 125.032 245.318 125.032C245.965 125.032 246.537 125.142 247.034 125.362C247.531 125.583 247.92 125.906 248.202 126.333C248.483 126.76 248.624 127.282 248.624 127.901ZM246.429 128.014C246.429 127.756 246.385 127.533 246.296 127.346C246.211 127.153 246.087 127.006 245.923 126.903C245.759 126.795 245.557 126.741 245.318 126.741C245.089 126.741 244.892 126.792 244.728 126.896C244.563 126.994 244.437 127.139 244.348 127.332C244.263 127.519 244.221 127.746 244.221 128.014C244.221 128.276 244.263 128.506 244.348 128.703C244.437 128.895 244.563 129.047 244.728 129.16C244.896 129.268 245.098 129.322 245.332 129.322C245.571 129.322 245.771 129.268 245.93 129.16C246.094 129.047 246.218 128.895 246.303 128.703C246.387 128.506 246.429 128.276 246.429 128.014Z" fill="#1A60B1"/>
<path d="M26.0119 51.7015V74.7559H21.0593V57.3345L15.711 58.9643V55.1351L25.5214 51.7015H26.0119ZM33.6703 72.414C33.6703 71.6967 33.9235 71.0954 34.4299 70.6102C34.9468 70.1249 35.6166 69.8823 36.4394 69.8823C37.2728 69.8823 37.9373 70.1249 38.4331 70.6102C38.9395 71.0954 39.1926 71.6967 39.1926 72.414C39.1926 73.1208 38.9395 73.7168 38.4331 74.202C37.9373 74.6873 37.2728 74.9299 36.4394 74.9299C35.6166 74.9299 34.9468 74.6873 34.4299 74.202C33.9235 73.7168 33.6703 73.1208 33.6703 72.414ZM54.7627 51.4325H55.5222V55.3566H55.2374C54.1297 55.3566 53.117 55.5149 52.1993 55.8313C51.2921 56.1478 50.5062 56.6172 49.8416 57.2396C49.1771 57.8514 48.6655 58.6109 48.3068 59.5181C47.9587 60.4148 47.7846 61.4486 47.7846 62.6195V66.5436C47.7846 67.3348 47.8532 68.0257 47.9903 68.6165C48.138 69.1966 48.349 69.6819 48.6233 70.0722C48.9081 70.452 49.2509 70.742 49.6518 70.9425C50.0526 71.1323 50.5062 71.2273 51.0126 71.2273C51.4662 71.2273 51.8828 71.1271 52.2626 70.9266C52.6424 70.7262 52.9694 70.4414 53.2436 70.0722C53.5179 69.703 53.7289 69.2758 53.8766 68.7905C54.0242 68.2947 54.0981 67.7567 54.0981 67.1766C54.0981 66.5647 54.019 66.0109 53.8607 65.5151C53.7131 65.0088 53.4968 64.5763 53.212 64.2176C52.9377 63.859 52.6002 63.5847 52.1993 63.3948C51.7984 63.1944 51.3554 63.0942 50.8702 63.0942C50.1739 63.0942 49.5727 63.2524 49.0663 63.5689C48.56 63.8853 48.1697 64.2915 47.8954 64.7873C47.6211 65.283 47.4787 65.7894 47.4682 66.3063L46.1548 65.2145C46.1548 64.4972 46.2973 63.7904 46.5821 63.0942C46.8774 62.3874 47.2941 61.7492 47.8321 61.1796C48.3701 60.5994 49.0294 60.1405 49.81 59.8029C50.6012 59.4548 51.5031 59.2808 52.5158 59.2808C53.5812 59.2808 54.52 59.4865 55.3323 59.8979C56.1446 60.2987 56.8249 60.8578 57.3735 61.5751C57.9326 62.2925 58.3492 63.1311 58.6235 64.091C58.9083 65.0404 59.0507 66.0584 59.0507 67.1449C59.0507 68.2631 58.8556 69.3074 58.4653 70.2779C58.0855 71.2378 57.5475 72.0765 56.8513 72.7938C56.1551 73.5111 55.3217 74.0702 54.3513 74.471C53.3913 74.8719 52.3206 75.0723 51.1391 75.0723C49.9155 75.0723 48.7973 74.8561 47.7846 74.4236C46.7825 73.9911 45.9069 73.374 45.158 72.5723C44.4196 71.76 43.8447 70.7895 43.4333 69.6608C43.0324 68.5321 42.832 67.2662 42.832 65.8632V64.0119C42.832 62.092 43.1273 60.362 43.7181 58.8219C44.3194 57.2818 45.1527 55.9632 46.2181 54.8661C47.2941 53.7585 48.56 52.9093 50.0157 52.3186C51.4714 51.7278 53.0538 51.4325 54.7627 51.4325ZM65.9971 64.3758L62.073 63.4423L63.4179 51.7173H76.6145V55.6256H67.4687L66.9149 60.4833C67.1997 60.3146 67.648 60.13 68.2598 59.9295C68.8717 59.7186 69.5573 59.6131 70.3169 59.6131C71.4456 59.6131 72.4477 59.7871 73.3233 60.1352C74.1988 60.4833 74.9372 60.9897 75.5385 61.6543C76.1503 62.3083 76.6092 63.1153 76.9151 64.0752C77.2316 65.0351 77.3898 66.1269 77.3898 67.3506C77.3898 68.3633 77.2316 69.3338 76.9151 70.2621C76.5987 71.1798 76.1134 72.0026 75.4594 72.7305C74.8159 73.4478 73.9984 74.0174 73.0068 74.4394C72.0152 74.8613 70.8496 75.0723 69.5099 75.0723C68.4972 75.0723 67.5161 74.9194 66.5668 74.6135C65.6174 74.3075 64.7629 73.8645 64.0034 73.2843C63.2544 72.6936 62.6584 71.9763 62.2154 71.1323C61.7829 70.2884 61.5614 69.3391 61.5508 68.2842H66.4876C66.5404 68.896 66.6933 69.4234 66.9465 69.8665C67.1997 70.299 67.5425 70.6366 67.975 70.8792C68.4075 71.1113 68.9086 71.2273 69.4782 71.2273C70.0268 71.2273 70.4909 71.1218 70.8707 70.9108C71.2504 70.6893 71.5511 70.3887 71.7726 70.0089C72.0047 69.6291 72.1734 69.1861 72.2789 68.6798C72.3844 68.1734 72.4372 67.6301 72.4372 67.05C72.4372 66.4487 72.3686 65.9107 72.2315 65.436C72.0943 64.9508 71.8833 64.5394 71.5985 64.2018C71.3137 63.8537 70.9498 63.59 70.5067 63.4106C70.0742 63.2208 69.5521 63.1258 68.9402 63.1258C68.1385 63.1258 67.5109 63.2577 67.0573 63.5214C66.6037 63.7851 66.2503 64.0699 65.9971 64.3758ZM97.6435 57.6352V74.7559H92.675V57.6352H97.6435ZM103.102 57.6352V61.4486H87.311V57.6352H103.102ZM110.223 60.9264V81.3383H105.286V57.6352H109.891L110.223 60.9264ZM120.904 66.0056V66.3379C120.904 67.5827 120.761 68.7378 120.476 69.8032C120.192 70.8581 119.764 71.7811 119.195 72.5723C118.636 73.3634 117.945 73.9805 117.122 74.4236C116.299 74.8561 115.344 75.0723 114.258 75.0723C113.224 75.0723 112.327 74.8561 111.568 74.4236C110.819 73.9805 110.186 73.3687 109.669 72.5881C109.163 71.7969 108.751 70.895 108.435 69.8823C108.129 68.8591 107.892 67.7673 107.723 66.6069V65.9582C107.892 64.724 108.134 63.5794 108.451 62.5245C108.767 61.4697 109.179 60.5572 109.685 59.7871C110.191 59.0065 110.819 58.4 111.568 57.9675C112.317 57.535 113.208 57.3187 114.242 57.3187C115.318 57.3187 116.273 57.5244 117.106 57.9358C117.939 58.3472 118.636 58.9379 119.195 59.708C119.764 60.4675 120.192 61.38 120.476 62.4454C120.761 63.5108 120.904 64.6976 120.904 66.0056ZM115.951 66.3379V66.0056C115.951 65.3094 115.898 64.6712 115.793 64.091C115.687 63.5003 115.518 62.9887 115.286 62.5562C115.054 62.1131 114.748 61.7703 114.369 61.5277C113.989 61.2851 113.525 61.1637 112.976 61.1637C112.385 61.1637 111.884 61.2587 111.473 61.4486C111.062 61.6384 110.729 61.918 110.476 62.2872C110.223 62.6458 110.038 63.0889 109.922 63.6163C109.817 64.1438 109.759 64.7451 109.748 65.4202V67.1607C109.759 67.9519 109.87 68.6587 110.081 69.281C110.302 69.8929 110.645 70.3728 111.109 70.7209C111.584 71.0585 112.217 71.2273 113.008 71.2273C113.567 71.2273 114.031 71.106 114.4 70.8634C114.78 70.6102 115.081 70.2568 115.302 69.8032C115.534 69.3496 115.698 68.8274 115.793 68.2367C115.898 67.646 115.951 67.013 115.951 66.3379ZM134.875 57.6352V61.4802H126.426V57.6352H134.875ZM138.372 57.6352V74.7559H133.436V57.6352H138.372ZM125.176 57.6352H130.018L129.543 66.3537C129.48 67.588 129.343 68.6692 129.132 69.5975C128.931 70.5258 128.657 71.317 128.309 71.971C127.971 72.625 127.565 73.1577 127.09 73.5691C126.616 73.9805 126.072 74.2812 125.461 74.471C124.859 74.6609 124.2 74.7559 123.483 74.7559H121.98L121.9 70.9108L122.486 70.8475C122.802 70.8159 123.077 70.7209 123.309 70.5627C123.551 70.4045 123.757 70.1777 123.926 69.8823C124.105 69.587 124.258 69.2072 124.385 68.743C124.511 68.2789 124.611 67.7356 124.685 67.1133C124.77 66.4803 124.828 65.7525 124.859 64.9297L125.176 57.6352ZM153.373 64.4391V68.2525H144.749V64.4391H153.373ZM146.474 57.6352V74.7559H141.537V57.6352H146.474ZM156.632 57.6352V74.7559H151.664V57.6352H156.632Z" fill="#003C82"/>
<path d="M49.3496 214.685L111.686 140.872L237.259 164.501L282.717 103.74" stroke="#31CC82" stroke-width="2.25041" stroke-linecap="square"/>
<path d="M106.532 212.271V213.733H99.5978V212.482L102.924 208.888C103.271 208.494 103.545 208.152 103.747 207.861C103.949 207.571 104.092 207.308 104.176 207.074C104.265 206.834 104.31 206.607 104.31 206.391C104.31 206.077 104.253 205.803 104.141 205.569C104.028 205.33 103.864 205.144 103.649 205.013C103.438 204.882 103.177 204.816 102.868 204.816C102.526 204.816 102.233 204.896 101.989 205.055C101.75 205.21 101.567 205.426 101.44 205.702C101.318 205.979 101.257 206.295 101.257 206.652H99.3938C99.3938 206.047 99.5345 205.496 99.8158 204.999C100.097 204.497 100.5 204.096 101.025 203.796C101.55 203.496 102.174 203.346 102.896 203.346C103.599 203.346 104.195 203.464 104.682 203.698C105.17 203.928 105.54 204.256 105.793 204.683C106.047 205.109 106.173 205.618 106.173 206.209C106.173 206.537 106.119 206.86 106.011 207.179C105.904 207.498 105.751 207.814 105.554 208.128C105.362 208.438 105.132 208.752 104.865 209.071C104.598 209.39 104.3 209.715 103.972 210.048L101.975 212.271H106.532ZM114.605 207.735V209.458C114.605 210.245 114.526 210.918 114.366 211.476C114.207 212.034 113.977 212.491 113.677 212.847C113.377 213.199 113.018 213.459 112.601 213.628C112.184 213.792 111.72 213.874 111.208 213.874C110.801 213.874 110.421 213.822 110.069 213.719C109.718 213.612 109.401 213.447 109.12 213.227C108.843 213.002 108.604 212.716 108.403 212.369C108.206 212.022 108.053 211.607 107.945 211.124C107.842 210.641 107.791 210.086 107.791 209.458V207.735C107.791 206.947 107.87 206.277 108.03 205.723C108.194 205.17 108.426 204.718 108.726 204.366C109.026 204.014 109.385 203.759 109.802 203.6C110.219 203.435 110.683 203.353 111.194 203.353C111.607 203.353 111.987 203.405 112.334 203.508C112.685 203.611 112.999 203.773 113.276 203.993C113.557 204.209 113.796 204.49 113.993 204.837C114.19 205.179 114.34 205.592 114.443 206.075C114.551 206.553 114.605 207.106 114.605 207.735ZM112.749 209.711V207.474C112.749 207.081 112.725 206.738 112.678 206.448C112.636 206.152 112.573 205.902 112.488 205.695C112.404 205.489 112.299 205.322 112.172 205.196C112.045 205.065 111.9 204.969 111.736 204.908C111.572 204.847 111.391 204.816 111.194 204.816C110.951 204.816 110.733 204.865 110.54 204.964C110.348 205.058 110.186 205.208 110.055 205.414C109.924 205.62 109.823 205.894 109.753 206.237C109.687 206.574 109.654 206.987 109.654 207.474V209.711C109.654 210.105 109.675 210.449 109.718 210.745C109.764 211.04 109.83 211.293 109.915 211.504C110.004 211.715 110.109 211.889 110.231 212.024C110.358 212.156 110.503 212.254 110.667 212.32C110.831 212.381 111.012 212.411 111.208 212.411C111.457 212.411 111.675 212.362 111.863 212.264C112.055 212.165 112.216 212.01 112.348 211.799C112.479 211.584 112.577 211.305 112.643 210.963C112.713 210.616 112.749 210.198 112.749 209.711ZM122.988 212.271V213.733H116.054V212.482L119.38 208.888C119.727 208.494 120.002 208.152 120.203 207.861C120.405 207.571 120.548 207.308 120.632 207.074C120.721 206.834 120.766 206.607 120.766 206.391C120.766 206.077 120.709 205.803 120.597 205.569C120.484 205.33 120.32 205.144 120.105 205.013C119.894 204.882 119.633 204.816 119.324 204.816C118.982 204.816 118.689 204.896 118.445 205.055C118.206 205.21 118.023 205.426 117.896 205.702C117.775 205.979 117.714 206.295 117.714 206.652H115.85C115.85 206.047 115.991 205.496 116.272 204.999C116.553 204.497 116.956 204.096 117.482 203.796C118.007 203.496 118.63 203.346 119.352 203.346C120.055 203.346 120.651 203.464 121.138 203.698C121.626 203.928 121.996 204.256 122.25 204.683C122.503 205.109 122.629 205.618 122.629 206.209C122.629 206.537 122.575 206.86 122.468 207.179C122.36 207.498 122.207 207.814 122.01 208.128C121.818 208.438 121.589 208.752 121.321 209.071C121.054 209.39 120.756 209.715 120.428 210.048L118.431 212.271H122.988ZM131.216 212.271V213.733H124.282V212.482L127.608 208.888C127.955 208.494 128.23 208.152 128.431 207.861C128.633 207.571 128.776 207.308 128.86 207.074C128.949 206.834 128.994 206.607 128.994 206.391C128.994 206.077 128.938 205.803 128.825 205.569C128.712 205.33 128.548 205.144 128.333 205.013C128.122 204.882 127.862 204.816 127.552 204.816C127.21 204.816 126.917 204.896 126.673 205.055C126.434 205.21 126.251 205.426 126.124 205.702C126.003 205.979 125.942 206.295 125.942 206.652H124.078C124.078 206.047 124.219 205.496 124.5 204.999C124.781 204.497 125.184 204.096 125.71 203.796C126.235 203.496 126.858 203.346 127.58 203.346C128.283 203.346 128.879 203.464 129.366 203.698C129.854 203.928 130.224 204.256 130.478 204.683C130.731 205.109 130.857 205.618 130.857 206.209C130.857 206.537 130.803 206.86 130.696 207.179C130.588 207.498 130.435 207.814 130.239 208.128C130.046 208.438 129.817 208.752 129.549 209.071C129.282 209.39 128.984 209.715 128.656 210.048L126.659 212.271H131.216Z" fill="#507EB2"/>
<path d="M229.854 212.271V213.733H222.92V212.482L226.246 208.888C226.593 208.494 226.868 208.152 227.069 207.861C227.271 207.571 227.414 207.308 227.498 207.074C227.587 206.834 227.632 206.607 227.632 206.391C227.632 206.077 227.576 205.803 227.463 205.569C227.351 205.33 227.186 205.144 226.971 205.013C226.76 204.882 226.5 204.816 226.19 204.816C225.848 204.816 225.555 204.896 225.311 205.055C225.072 205.21 224.889 205.426 224.763 205.702C224.641 205.979 224.58 206.295 224.58 206.652H222.716C222.716 206.047 222.857 205.496 223.138 204.999C223.419 204.497 223.823 204.096 224.348 203.796C224.873 203.496 225.496 203.346 226.218 203.346C226.922 203.346 227.517 203.464 228.005 203.698C228.492 203.928 228.863 204.256 229.116 204.683C229.369 205.109 229.495 205.618 229.495 206.209C229.495 206.537 229.442 206.86 229.334 207.179C229.226 207.498 229.074 207.814 228.877 208.128C228.684 208.438 228.455 208.752 228.187 209.071C227.92 209.39 227.622 209.715 227.294 210.048L225.297 212.271H229.854ZM237.927 207.735V209.458C237.927 210.245 237.848 210.918 237.688 211.476C237.529 212.034 237.299 212.491 236.999 212.847C236.699 213.199 236.34 213.459 235.923 213.628C235.506 213.792 235.042 213.874 234.531 213.874C234.123 213.874 233.743 213.822 233.391 213.719C233.04 213.612 232.723 213.447 232.442 213.227C232.165 213.002 231.926 212.716 231.725 212.369C231.528 212.022 231.376 211.607 231.268 211.124C231.165 210.641 231.113 210.086 231.113 209.458V207.735C231.113 206.947 231.193 206.277 231.352 205.723C231.516 205.17 231.748 204.718 232.048 204.366C232.348 204.014 232.707 203.759 233.124 203.6C233.542 203.435 234.006 203.353 234.517 203.353C234.929 203.353 235.309 203.405 235.656 203.508C236.008 203.611 236.322 203.773 236.598 203.993C236.88 204.209 237.119 204.49 237.316 204.837C237.513 205.179 237.663 205.592 237.766 206.075C237.874 206.553 237.927 207.106 237.927 207.735ZM236.071 209.711V207.474C236.071 207.081 236.047 206.738 236.001 206.448C235.958 206.152 235.895 205.902 235.811 205.695C235.726 205.489 235.621 205.322 235.494 205.196C235.368 205.065 235.222 204.969 235.058 204.908C234.894 204.847 234.714 204.816 234.517 204.816C234.273 204.816 234.055 204.865 233.863 204.964C233.67 205.058 233.509 205.208 233.377 205.414C233.246 205.62 233.145 205.894 233.075 206.237C233.009 206.574 232.977 206.987 232.977 207.474V209.711C232.977 210.105 232.998 210.449 233.04 210.745C233.087 211.04 233.152 211.293 233.237 211.504C233.326 211.715 233.431 211.889 233.553 212.024C233.68 212.156 233.825 212.254 233.989 212.32C234.153 212.381 234.334 212.411 234.531 212.411C234.779 212.411 234.997 212.362 235.185 212.264C235.377 212.165 235.539 212.01 235.67 211.799C235.801 211.584 235.9 211.305 235.965 210.963C236.036 210.616 236.071 210.198 236.071 209.711ZM246.31 212.271V213.733H239.376V212.482L242.703 208.888C243.049 208.494 243.324 208.152 243.525 207.861C243.727 207.571 243.87 207.308 243.954 207.074C244.043 206.834 244.088 206.607 244.088 206.391C244.088 206.077 244.032 205.803 243.919 205.569C243.807 205.33 243.643 205.144 243.427 205.013C243.216 204.882 242.956 204.816 242.646 204.816C242.304 204.816 242.011 204.896 241.767 205.055C241.528 205.21 241.345 205.426 241.219 205.702C241.097 205.979 241.036 206.295 241.036 206.652H239.172C239.172 206.047 239.313 205.496 239.594 204.999C239.875 204.497 240.279 204.096 240.804 203.796C241.329 203.496 241.952 203.346 242.674 203.346C243.378 203.346 243.973 203.464 244.461 203.698C244.948 203.928 245.319 204.256 245.572 204.683C245.825 205.109 245.952 205.618 245.952 206.209C245.952 206.537 245.898 206.86 245.79 207.179C245.682 207.498 245.53 207.814 245.333 208.128C245.141 208.438 244.911 208.752 244.644 209.071C244.376 209.39 244.079 209.715 243.75 210.048L241.753 212.271H246.31ZM249.637 207.791H250.684C251.055 207.791 251.36 207.728 251.599 207.601C251.843 207.47 252.023 207.292 252.14 207.067C252.262 206.837 252.323 206.572 252.323 206.272C252.323 205.977 252.269 205.721 252.161 205.505C252.053 205.285 251.889 205.116 251.669 204.999C251.453 204.877 251.177 204.816 250.839 204.816C250.567 204.816 250.316 204.87 250.087 204.978C249.862 205.086 249.681 205.24 249.545 205.442C249.414 205.639 249.348 205.876 249.348 206.152H247.485C247.485 205.599 247.63 205.114 247.921 204.697C248.216 204.275 248.615 203.944 249.116 203.705C249.618 203.466 250.178 203.346 250.797 203.346C251.472 203.346 252.063 203.459 252.569 203.684C253.08 203.904 253.476 204.23 253.758 204.661C254.044 205.093 254.187 205.627 254.187 206.265C254.187 206.57 254.114 206.874 253.969 207.179C253.828 207.479 253.619 207.751 253.343 207.995C253.071 208.234 252.736 208.429 252.337 208.579C251.943 208.724 251.491 208.797 250.98 208.797H249.637V207.791ZM249.637 209.226V208.234H250.98C251.557 208.234 252.056 208.302 252.478 208.438C252.904 208.569 253.256 208.757 253.533 209.001C253.809 209.24 254.013 209.519 254.144 209.837C254.28 210.156 254.348 210.498 254.348 210.864C254.348 211.342 254.259 211.769 254.081 212.144C253.903 212.514 253.652 212.829 253.329 213.086C253.01 213.344 252.635 213.541 252.204 213.677C251.772 213.808 251.306 213.874 250.804 213.874C250.368 213.874 249.944 213.815 249.531 213.698C249.123 213.576 248.755 213.396 248.427 213.157C248.099 212.913 247.839 212.608 247.646 212.243C247.454 211.872 247.358 211.443 247.358 210.956H249.222C249.222 211.237 249.29 211.488 249.426 211.708C249.566 211.928 249.759 212.102 250.002 212.228C250.251 212.35 250.53 212.411 250.839 212.411C251.181 212.411 251.474 212.35 251.718 212.228C251.967 212.102 252.157 211.924 252.288 211.694C252.419 211.46 252.485 211.181 252.485 210.857C252.485 210.473 252.412 210.161 252.267 209.922C252.121 209.683 251.913 209.507 251.641 209.394C251.374 209.282 251.055 209.226 250.684 209.226H249.637Z" fill="#507EB2"/>
</g>
<defs>
<clipPath id="clip0_116_2758">
<rect width="330" height="239" fill="white"/>
</clipPath>
</defs>
</svg>
