<svg width="277" height="239" viewBox="0 0 277 239" fill="none" xmlns="http://www.w3.org/2000/svg">
<rect x="1" width="276" height="239" rx="6.98361" fill="#EAF6FC"/>
<path d="M32.7428 161.291V163H25.6681V161.551L28.9734 158.049C29.2828 157.693 29.5289 157.379 29.7118 157.107C29.8993 156.835 30.0353 156.589 30.1197 156.368C30.2041 156.143 30.2463 155.937 30.2463 155.749C30.2463 155.445 30.197 155.187 30.0986 154.976C30.0048 154.765 29.8665 154.603 29.6837 154.491C29.5008 154.378 29.2781 154.322 29.0156 154.322C28.7343 154.322 28.4928 154.395 28.2912 154.54C28.0896 154.685 27.9349 154.887 27.8271 155.145C27.7192 155.398 27.6653 155.686 27.6653 156.01H25.4571C25.4571 155.386 25.6071 154.819 25.9072 154.308C26.2073 153.792 26.6269 153.382 27.166 153.077C27.7052 152.768 28.3358 152.613 29.0578 152.613C29.7985 152.613 30.4197 152.73 30.9214 152.965C31.423 153.199 31.8028 153.534 32.0607 153.97C32.3185 154.406 32.4474 154.931 32.4474 155.546C32.4474 155.892 32.3912 156.228 32.2787 156.551C32.1708 156.875 32.0138 157.196 31.8075 157.515C31.6012 157.833 31.3527 158.159 31.062 158.492C30.7714 158.82 30.4432 159.167 30.0775 159.533L28.5303 161.291H32.7428ZM36.0973 156.945H37.2155C37.5343 156.945 37.7969 156.889 38.0031 156.776C38.2141 156.664 38.3688 156.504 38.4673 156.298C38.5704 156.092 38.622 155.85 38.622 155.574C38.622 155.335 38.5751 155.121 38.4814 154.934C38.3876 154.746 38.2446 154.598 38.0524 154.491C37.8648 154.378 37.621 154.322 37.321 154.322C37.1053 154.322 36.899 154.366 36.7021 154.455C36.5099 154.54 36.3528 154.664 36.2309 154.828C36.1091 154.988 36.0481 155.18 36.0481 155.405H33.8469C33.8469 154.833 34.0016 154.338 34.3111 153.921C34.6252 153.504 35.0401 153.183 35.5558 152.958C36.0762 152.728 36.6435 152.613 37.2577 152.613C37.9656 152.613 38.5868 152.725 39.1213 152.951C39.6605 153.171 40.0777 153.499 40.3731 153.935C40.6732 154.366 40.8232 154.901 40.8232 155.538C40.8232 155.871 40.7435 156.193 40.5841 156.502C40.4294 156.807 40.2067 157.079 39.916 157.318C39.63 157.552 39.2878 157.74 38.8892 157.88C38.4954 158.016 38.0571 158.084 37.5742 158.084H36.0973V156.945ZM36.0973 158.598V157.479H37.5742C38.1086 157.479 38.5868 157.54 39.0088 157.662C39.4307 157.784 39.7894 157.96 40.0848 158.19C40.3801 158.419 40.6052 158.698 40.7599 159.027C40.9146 159.355 40.992 159.72 40.992 160.124C40.992 160.602 40.8982 161.029 40.7107 161.404C40.5231 161.779 40.2606 162.095 39.923 162.353C39.5855 162.611 39.1893 162.808 38.7345 162.944C38.2798 163.075 37.7875 163.141 37.2577 163.141C36.8311 163.141 36.4068 163.082 35.9848 162.965C35.5629 162.848 35.1808 162.669 34.8385 162.43C34.4963 162.187 34.222 161.879 34.0157 161.509C33.8094 161.134 33.7063 160.689 33.7063 160.173H35.9075C35.9075 160.412 35.9684 160.628 36.0903 160.82C36.2169 161.007 36.388 161.157 36.6037 161.27C36.824 161.378 37.0631 161.432 37.321 161.432C37.6304 161.432 37.893 161.375 38.1086 161.263C38.329 161.146 38.4954 160.986 38.6079 160.785C38.7252 160.583 38.7838 160.351 38.7838 160.089C38.7838 159.732 38.7205 159.446 38.5939 159.231C38.472 159.01 38.2938 158.851 38.0594 158.752C37.825 158.649 37.5437 158.598 37.2155 158.598H36.0973ZM49.2974 160.187C49.2974 160.834 49.145 161.378 48.8403 161.819C48.5355 162.259 48.1183 162.59 47.5885 162.81C47.0634 163.03 46.4633 163.141 45.7882 163.141C45.1177 163.141 44.5153 163.03 43.9808 162.81C43.451 162.59 43.0314 162.259 42.722 161.819C42.4125 161.378 42.2578 160.834 42.2578 160.187C42.2578 159.746 42.3446 159.35 42.518 158.998C42.6962 158.647 42.9423 158.347 43.2564 158.098C43.5753 157.85 43.948 157.66 44.3746 157.529C44.8059 157.397 45.2724 157.332 45.7741 157.332C46.4492 157.332 47.0517 157.449 47.5814 157.683C48.1159 157.913 48.5355 158.241 48.8403 158.668C49.145 159.095 49.2974 159.601 49.2974 160.187ZM47.0892 160.025C47.0892 159.725 47.0329 159.472 46.9204 159.266C46.8126 159.055 46.6602 158.893 46.4633 158.78C46.2664 158.663 46.0366 158.605 45.7741 158.605C45.5115 158.605 45.2818 158.663 45.0849 158.78C44.888 158.893 44.7333 159.055 44.6208 159.266C44.5129 159.472 44.459 159.725 44.459 160.025C44.459 160.316 44.5153 160.569 44.6278 160.785C44.7403 160.996 44.895 161.157 45.0919 161.27C45.2888 161.378 45.5209 161.432 45.7882 161.432C46.0554 161.432 46.2851 161.378 46.4773 161.27C46.6696 161.157 46.8196 160.996 46.9274 160.785C47.0353 160.569 47.0892 160.316 47.0892 160.025ZM49.0794 155.482C49.0794 156.012 48.9387 156.479 48.6574 156.882C48.3808 157.28 47.994 157.592 47.4971 157.817C47.0001 158.037 46.4305 158.148 45.7882 158.148C45.1458 158.148 44.5739 158.037 44.0722 157.817C43.5753 157.592 43.1838 157.28 42.8978 156.882C42.6165 156.479 42.4758 156.012 42.4758 155.482C42.4758 154.863 42.6165 154.341 42.8978 153.914C43.1838 153.487 43.5753 153.164 44.0722 152.943C44.5692 152.723 45.1365 152.613 45.7741 152.613C46.4211 152.613 46.9931 152.723 47.49 152.943C47.987 153.164 48.3761 153.487 48.6574 153.914C48.9387 154.341 49.0794 154.863 49.0794 155.482ZM46.8852 155.595C46.8852 155.337 46.8407 155.114 46.7516 154.927C46.6672 154.734 46.543 154.587 46.3789 154.484C46.2148 154.376 46.0132 154.322 45.7741 154.322C45.5444 154.322 45.3474 154.373 45.1834 154.477C45.0193 154.575 44.8927 154.72 44.8036 154.913C44.7192 155.1 44.677 155.328 44.677 155.595C44.677 155.857 44.7192 156.087 44.8036 156.284C44.8927 156.476 45.0193 156.629 45.1834 156.741C45.3521 156.849 45.5537 156.903 45.7882 156.903C46.0273 156.903 46.2265 156.849 46.3859 156.741C46.55 156.629 46.6743 156.476 46.7586 156.284C46.843 156.087 46.8852 155.857 46.8852 155.595ZM50.7883 161.959C50.7883 161.64 50.9008 161.373 51.1258 161.157C51.3556 160.942 51.6533 160.834 52.019 160.834C52.3894 160.834 52.6847 160.942 52.9051 161.157C53.1301 161.373 53.2426 161.64 53.2426 161.959C53.2426 162.273 53.1301 162.538 52.9051 162.754C52.6847 162.97 52.3894 163.077 52.019 163.077C51.6533 163.077 51.3556 162.97 51.1258 162.754C50.9008 162.538 50.7883 162.273 50.7883 161.959ZM56.344 161.347H56.4846C57.0003 161.347 57.4528 161.289 57.8419 161.172C58.231 161.05 58.5569 160.869 58.8194 160.63C59.0867 160.386 59.2883 160.084 59.4242 159.723C59.5602 159.357 59.6282 158.926 59.6282 158.429V156.403C59.6282 156.052 59.5954 155.747 59.5297 155.489C59.4688 155.227 59.3773 155.009 59.2554 154.835C59.1335 154.662 58.9906 154.533 58.8265 154.448C58.6624 154.364 58.4819 154.322 58.285 154.322C58.0787 154.322 57.8958 154.376 57.7364 154.484C57.5817 154.591 57.4481 154.737 57.3356 154.92C57.223 155.102 57.1387 155.309 57.0824 155.538C57.0261 155.768 56.998 156.003 56.998 156.242C56.998 156.5 57.0261 156.741 57.0824 156.966C57.1433 157.191 57.2301 157.388 57.3426 157.557C57.4551 157.726 57.5981 157.859 57.7716 157.958C57.9451 158.051 58.1467 158.098 58.3764 158.098C58.6061 158.098 58.8054 158.056 58.9741 157.972C59.1476 157.887 59.293 157.775 59.4102 157.634C59.5321 157.494 59.6235 157.341 59.6844 157.177C59.7454 157.008 59.7759 156.842 59.7759 156.678L60.451 157.128C60.451 157.442 60.3807 157.751 60.24 158.056C60.104 158.361 59.9142 158.637 59.6704 158.886C59.4266 159.134 59.1429 159.334 58.8194 159.484C58.5006 159.629 58.1607 159.702 57.7997 159.702C57.3309 159.702 56.9089 159.617 56.5339 159.449C56.1635 159.28 55.8494 159.043 55.5915 158.738C55.3336 158.429 55.1367 158.063 55.0008 157.641C54.8648 157.219 54.7968 156.755 54.7968 156.249C54.7968 155.752 54.8812 155.285 55.05 154.849C55.2188 154.409 55.4579 154.022 55.7673 153.689C56.0767 153.356 56.4448 153.094 56.8714 152.901C57.3027 152.709 57.7786 152.613 58.299 152.613C58.8101 152.613 59.2789 152.711 59.7055 152.908C60.1322 153.101 60.5049 153.377 60.8237 153.738C61.1425 154.099 61.3886 154.538 61.5621 155.053C61.7403 155.569 61.8294 156.15 61.8294 156.797V157.557C61.8294 158.251 61.7496 158.888 61.5902 159.47C61.4308 160.051 61.1964 160.567 60.887 161.017C60.5822 161.467 60.2119 161.849 59.7759 162.163C59.3445 162.477 58.8546 162.716 58.3061 162.88C57.7622 163.04 57.1668 163.12 56.5198 163.12H56.344V161.347ZM71.5342 160.525L73.3979 155.391H75.1419L72.2727 163H70.8029L67.9476 155.391H69.6917L71.5342 160.525ZM69.1854 155.391V163H66.9842V155.391H69.1854ZM73.9605 163V155.391H76.1546V163H73.9605ZM82.9832 155.391V157.1H79.2278V155.391H82.9832ZM84.5374 155.391V163H82.3432V155.391H84.5374ZM78.6723 155.391H80.8242L80.6132 159.266C80.5851 159.814 80.5242 160.295 80.4304 160.707C80.3413 161.12 80.2194 161.472 80.0647 161.762C79.9147 162.053 79.7342 162.29 79.5232 162.473C79.3122 162.655 79.0708 162.789 78.7988 162.873C78.5316 162.958 78.2386 163 77.9198 163H77.2517L77.2165 161.291L77.4767 161.263C77.6174 161.249 77.7393 161.207 77.8424 161.136C77.9502 161.066 78.0417 160.965 78.1167 160.834C78.1964 160.703 78.2644 160.534 78.3206 160.328C78.3769 160.121 78.4214 159.88 78.4542 159.603C78.4918 159.322 78.5175 158.998 78.5316 158.633L78.6723 155.391ZM88.1732 156.854V165.926H85.9791V155.391H88.0255L88.1732 156.854ZM92.9202 159.111V159.259C92.9202 159.812 92.8569 160.325 92.7303 160.799C92.6037 161.268 92.4138 161.678 92.1606 162.03C91.9122 162.381 91.6051 162.655 91.2394 162.852C90.8737 163.045 90.4494 163.141 89.9665 163.141C89.507 163.141 89.1085 163.045 88.771 162.852C88.4381 162.655 88.1568 162.383 87.9271 162.037C87.702 161.685 87.5192 161.284 87.3785 160.834C87.2426 160.379 87.1371 159.894 87.0621 159.378V159.09C87.1371 158.541 87.2449 158.033 87.3856 157.564C87.5262 157.095 87.7091 156.689 87.9341 156.347C88.1591 156 88.4381 155.731 88.771 155.538C89.1038 155.346 89.5 155.25 89.9595 155.25C90.4377 155.25 90.862 155.342 91.2324 155.524C91.6027 155.707 91.9122 155.97 92.1606 156.312C92.4138 156.65 92.6037 157.055 92.7303 157.529C92.8569 158.002 92.9202 158.53 92.9202 159.111ZM90.719 159.259V159.111C90.719 158.802 90.6955 158.518 90.6487 158.26C90.6018 157.998 90.5268 157.77 90.4236 157.578C90.3205 157.381 90.1845 157.229 90.0157 157.121C89.8469 157.013 89.6407 156.959 89.3969 156.959C89.1343 156.959 88.9116 157.001 88.7288 157.086C88.5459 157.17 88.3982 157.294 88.2857 157.458C88.1732 157.618 88.0912 157.815 88.0396 158.049C87.9927 158.284 87.9669 158.551 87.9622 158.851V159.624C87.9669 159.976 88.0161 160.29 88.1099 160.567C88.2084 160.839 88.3607 161.052 88.567 161.207C88.778 161.357 89.0593 161.432 89.4109 161.432C89.6594 161.432 89.8657 161.378 90.0298 161.27C90.1986 161.157 90.3322 161 90.4306 160.799C90.5338 160.597 90.6065 160.365 90.6487 160.103C90.6955 159.84 90.719 159.559 90.719 159.259ZM95.3393 155.391H97.5335L97.4913 157.859C97.4726 158.698 97.3741 159.42 97.1959 160.025C97.0225 160.625 96.7857 161.127 96.4857 161.53C96.1903 161.933 95.8504 162.252 95.4659 162.487C95.0862 162.721 94.6853 162.892 94.2634 163H93.9469L93.9117 161.319L94.1016 161.291C94.3642 161.029 94.5728 160.775 94.7275 160.532C94.8822 160.283 94.9971 160.03 95.0721 159.772C95.1518 159.51 95.2057 159.224 95.2339 158.914C95.262 158.605 95.2807 158.253 95.2901 157.859L95.3393 155.391ZM95.9441 155.391H101.099V163H98.9048V157.121H95.9441V155.391ZM93.4406 161.291H102.21V165.3H100.009V163H95.691V165.3H93.4406V161.291Z" fill="#1A60B1"/>
<path d="M171.898 179.09V180.792H164.527L164.408 179.456L168.599 172.761H170.336L168.452 175.883L166.546 179.09H171.898ZM170.8 172.761V183H168.606V172.761H170.8ZM178.262 172.634H178.6V174.378H178.473C177.981 174.378 177.531 174.448 177.123 174.589C176.719 174.73 176.37 174.938 176.075 175.215C175.779 175.487 175.552 175.824 175.393 176.228C175.238 176.626 175.161 177.086 175.161 177.606V179.35C175.161 179.702 175.191 180.009 175.252 180.271C175.318 180.529 175.411 180.745 175.533 180.918C175.66 181.087 175.812 181.216 175.99 181.305C176.169 181.39 176.37 181.432 176.595 181.432C176.797 181.432 176.982 181.387 177.151 181.298C177.32 181.209 177.465 181.082 177.587 180.918C177.709 180.754 177.803 180.564 177.868 180.349C177.934 180.128 177.967 179.889 177.967 179.631C177.967 179.359 177.931 179.113 177.861 178.893C177.795 178.668 177.699 178.476 177.573 178.316C177.451 178.157 177.301 178.035 177.123 177.951C176.945 177.862 176.748 177.817 176.532 177.817C176.223 177.817 175.955 177.887 175.73 178.028C175.505 178.169 175.332 178.349 175.21 178.57C175.088 178.79 175.025 179.015 175.02 179.245L174.436 178.759C174.436 178.441 174.5 178.126 174.626 177.817C174.757 177.503 174.943 177.219 175.182 176.966C175.421 176.708 175.714 176.504 176.061 176.354C176.412 176.2 176.813 176.122 177.263 176.122C177.737 176.122 178.154 176.214 178.515 176.396C178.876 176.575 179.179 176.823 179.422 177.142C179.671 177.461 179.856 177.833 179.978 178.26C180.104 178.682 180.168 179.134 180.168 179.617C180.168 180.114 180.081 180.578 179.908 181.01C179.739 181.436 179.5 181.809 179.19 182.128C178.881 182.447 178.51 182.695 178.079 182.873C177.652 183.052 177.177 183.141 176.652 183.141C176.108 183.141 175.611 183.045 175.161 182.852C174.715 182.66 174.326 182.386 173.993 182.03C173.665 181.669 173.41 181.237 173.227 180.736C173.049 180.234 172.959 179.671 172.959 179.048V178.225C172.959 177.372 173.091 176.603 173.353 175.918C173.62 175.234 173.991 174.648 174.464 174.16C174.943 173.668 175.505 173.29 176.152 173.028C176.799 172.765 177.502 172.634 178.262 172.634ZM188.29 176.966V178.788C188.29 179.538 188.206 180.187 188.037 180.736C187.873 181.284 187.634 181.736 187.32 182.093C187.01 182.449 186.64 182.714 186.209 182.887C185.782 183.056 185.309 183.141 184.788 183.141C184.371 183.141 183.982 183.087 183.621 182.979C183.26 182.871 182.934 182.705 182.643 182.48C182.357 182.25 182.111 181.964 181.905 181.622C181.699 181.279 181.539 180.871 181.427 180.398C181.319 179.924 181.265 179.388 181.265 178.788V176.966C181.265 176.207 181.347 175.555 181.511 175.011C181.68 174.467 181.921 174.017 182.235 173.661C182.549 173.304 182.92 173.042 183.346 172.873C183.778 172.704 184.254 172.62 184.774 172.62C185.191 172.62 185.578 172.674 185.934 172.782C186.295 172.89 186.621 173.056 186.912 173.281C187.203 173.506 187.449 173.79 187.65 174.132C187.857 174.474 188.014 174.882 188.122 175.356C188.234 175.824 188.29 176.361 188.29 176.966ZM186.096 179.062V176.678C186.096 176.326 186.075 176.021 186.033 175.764C185.995 175.501 185.939 175.278 185.864 175.095C185.794 174.913 185.705 174.765 185.597 174.652C185.489 174.54 185.365 174.458 185.224 174.406C185.088 174.35 184.938 174.322 184.774 174.322C184.568 174.322 184.383 174.364 184.219 174.448C184.054 174.533 183.916 174.666 183.804 174.849C183.691 175.027 183.604 175.269 183.543 175.574C183.487 175.874 183.459 176.242 183.459 176.678V179.062C183.459 179.413 183.478 179.72 183.515 179.983C183.557 180.246 183.614 180.471 183.684 180.658C183.759 180.841 183.85 180.991 183.958 181.108C184.066 181.221 184.19 181.303 184.331 181.354C184.472 181.406 184.624 181.432 184.788 181.432C184.994 181.432 185.177 181.392 185.337 181.312C185.496 181.228 185.632 181.094 185.745 180.911C185.862 180.724 185.949 180.478 186.005 180.173C186.066 179.868 186.096 179.498 186.096 179.062ZM189.788 181.959C189.788 181.64 189.901 181.373 190.126 181.157C190.356 180.942 190.653 180.834 191.019 180.834C191.389 180.834 191.685 180.942 191.905 181.157C192.13 181.373 192.243 181.64 192.243 181.959C192.243 182.273 192.13 182.538 191.905 182.754C191.685 182.97 191.389 183.077 191.019 183.077C190.653 183.077 190.356 182.97 190.126 182.754C189.901 182.538 189.788 182.273 189.788 181.959ZM201.111 179.09V180.792H193.741L193.621 179.456L197.812 172.761H199.549L197.665 175.883L195.759 179.09H201.111ZM200.014 172.761V183H197.819V172.761H200.014ZM210.534 180.525L212.398 175.391H214.142L211.273 183H209.803L206.948 175.391H208.692L210.534 180.525ZM208.185 175.391V183H205.984V175.391H208.185ZM212.96 183V175.391H215.155V183H212.96ZM221.983 175.391V177.1H218.228V175.391H221.983ZM223.537 175.391V183H221.343V175.391H223.537ZM217.672 175.391H219.824L219.613 179.266C219.585 179.814 219.524 180.295 219.43 180.707C219.341 181.12 219.219 181.472 219.065 181.762C218.915 182.053 218.734 182.29 218.523 182.473C218.312 182.655 218.071 182.789 217.799 182.873C217.532 182.958 217.239 183 216.92 183H216.252L216.217 181.291L216.477 181.263C216.617 181.249 216.739 181.207 216.842 181.136C216.95 181.066 217.042 180.965 217.117 180.834C217.196 180.703 217.264 180.534 217.321 180.328C217.377 180.121 217.421 179.88 217.454 179.603C217.492 179.322 217.518 178.998 217.532 178.633L217.672 175.391ZM227.173 176.854V185.926H224.979V175.391H227.026L227.173 176.854ZM231.92 179.111V179.259C231.92 179.812 231.857 180.325 231.73 180.799C231.604 181.268 231.414 181.678 231.161 182.03C230.912 182.381 230.605 182.655 230.239 182.852C229.874 183.045 229.449 183.141 228.966 183.141C228.507 183.141 228.109 183.045 227.771 182.852C227.438 182.655 227.157 182.383 226.927 182.037C226.702 181.685 226.519 181.284 226.379 180.834C226.243 180.379 226.137 179.894 226.062 179.378V179.09C226.137 178.541 226.245 178.033 226.386 177.564C226.526 177.095 226.709 176.689 226.934 176.347C227.159 176 227.438 175.731 227.771 175.538C228.104 175.346 228.5 175.25 228.959 175.25C229.438 175.25 229.862 175.342 230.232 175.524C230.603 175.707 230.912 175.97 231.161 176.312C231.414 176.65 231.604 177.055 231.73 177.529C231.857 178.002 231.92 178.53 231.92 179.111ZM229.719 179.259V179.111C229.719 178.802 229.696 178.518 229.649 178.26C229.602 177.998 229.527 177.77 229.424 177.578C229.32 177.381 229.185 177.229 229.016 177.121C228.847 177.013 228.641 176.959 228.397 176.959C228.134 176.959 227.912 177.001 227.729 177.086C227.546 177.17 227.398 177.294 227.286 177.458C227.173 177.618 227.091 177.815 227.04 178.049C226.993 178.284 226.967 178.551 226.962 178.851V179.624C226.967 179.976 227.016 180.29 227.11 180.567C227.208 180.839 227.361 181.052 227.567 181.207C227.778 181.357 228.059 181.432 228.411 181.432C228.659 181.432 228.866 181.378 229.03 181.27C229.199 181.157 229.332 181 229.431 180.799C229.534 180.597 229.606 180.365 229.649 180.103C229.696 179.84 229.719 179.559 229.719 179.259ZM234.339 175.391H236.533L236.491 177.859C236.473 178.698 236.374 179.42 236.196 180.025C236.022 180.625 235.786 181.127 235.486 181.53C235.19 181.933 234.85 182.252 234.466 182.487C234.086 182.721 233.685 182.892 233.263 183H232.947L232.912 181.319L233.102 181.291C233.364 181.029 233.573 180.775 233.728 180.532C233.882 180.283 233.997 180.03 234.072 179.772C234.152 179.51 234.206 179.224 234.234 178.914C234.262 178.605 234.281 178.253 234.29 177.859L234.339 175.391ZM234.944 175.391H240.099V183H237.905V177.121H234.944V175.391ZM232.441 181.291H241.21V185.3H239.009V183H234.691V185.3H232.441V181.291Z" fill="#1A60B1"/>
<path d="M68.2828 224.537V226H61.3488V224.748L64.6752 221.155C65.0221 220.761 65.2964 220.419 65.498 220.128C65.6996 219.837 65.8426 219.575 65.9269 219.34C66.016 219.101 66.0606 218.874 66.0606 218.658C66.0606 218.344 66.0043 218.07 65.8918 217.835C65.7793 217.596 65.6152 217.411 65.3995 217.28C65.1885 217.148 64.9283 217.083 64.6189 217.083C64.2766 217.083 63.9836 217.162 63.7398 217.322C63.5007 217.477 63.3179 217.692 63.1913 217.969C63.0694 218.245 63.0084 218.562 63.0084 218.918H61.1448C61.1448 218.313 61.2855 217.763 61.5668 217.266C61.8481 216.764 62.2513 216.363 62.7764 216.063C63.3015 215.763 63.925 215.613 64.647 215.613C65.3503 215.613 65.9457 215.73 66.4333 215.965C66.9209 216.194 67.2913 216.522 67.5444 216.949C67.7976 217.376 67.9242 217.884 67.9242 218.475C67.9242 218.803 67.8703 219.127 67.7624 219.446C67.6546 219.764 67.5022 220.081 67.3053 220.395C67.1131 220.705 66.8834 221.019 66.6161 221.337C66.3489 221.656 66.0512 221.982 65.723 222.315L63.7258 224.537H68.2828ZM76.3562 220.001V221.724C76.3562 222.512 76.2765 223.185 76.1171 223.743C75.9577 224.3 75.7279 224.758 75.4279 225.114C75.1278 225.466 74.7692 225.726 74.3519 225.895C73.9346 226.059 73.4705 226.141 72.9595 226.141C72.5516 226.141 72.1718 226.089 71.8202 225.986C71.4686 225.878 71.1521 225.714 70.8708 225.494C70.5942 225.269 70.3551 224.983 70.1535 224.636C69.9566 224.289 69.8042 223.874 69.6964 223.391C69.5932 222.908 69.5417 222.352 69.5417 221.724V220.001C69.5417 219.214 69.6214 218.543 69.7808 217.99C69.9449 217.437 70.1769 216.984 70.477 216.633C70.777 216.281 71.1357 216.026 71.553 215.866C71.9702 215.702 72.4344 215.62 72.9454 215.62C73.358 215.62 73.7377 215.672 74.0847 215.775C74.4363 215.878 74.7504 216.04 75.027 216.26C75.3083 216.476 75.5474 216.757 75.7444 217.104C75.9413 217.446 76.0913 217.859 76.1944 218.342C76.3023 218.82 76.3562 219.373 76.3562 220.001ZM74.4996 221.977V219.741C74.4996 219.347 74.4762 219.005 74.4293 218.714C74.3871 218.419 74.3238 218.168 74.2394 217.962C74.155 217.756 74.0495 217.589 73.9229 217.463C73.7963 217.331 73.651 217.235 73.4869 217.174C73.3228 217.113 73.1423 217.083 72.9454 217.083C72.7016 217.083 72.4836 217.132 72.2914 217.23C72.0992 217.324 71.9374 217.474 71.8061 217.681C71.6749 217.887 71.5741 218.161 71.5037 218.503C71.4381 218.841 71.4053 219.253 71.4053 219.741V221.977C71.4053 222.371 71.4264 222.716 71.4686 223.011C71.5155 223.307 71.5811 223.56 71.6655 223.771C71.7546 223.982 71.8601 224.155 71.982 224.291C72.1085 224.422 72.2539 224.521 72.418 224.586C72.5821 224.647 72.7626 224.678 72.9595 224.678C73.208 224.678 73.426 224.629 73.6135 224.53C73.8057 224.432 73.9675 224.277 74.0987 224.066C74.23 223.85 74.3285 223.571 74.3941 223.229C74.4644 222.882 74.4996 222.465 74.4996 221.977ZM84.739 224.537V226H77.8049V224.748L81.1313 221.155C81.4782 220.761 81.7525 220.419 81.9541 220.128C82.1557 219.837 82.2987 219.575 82.3831 219.34C82.4721 219.101 82.5167 218.874 82.5167 218.658C82.5167 218.344 82.4604 218.07 82.3479 217.835C82.2354 217.596 82.0713 217.411 81.8556 217.28C81.6446 217.148 81.3844 217.083 81.075 217.083C80.7328 217.083 80.4397 217.162 80.1959 217.322C79.9568 217.477 79.774 217.692 79.6474 217.969C79.5255 218.245 79.4646 218.562 79.4646 218.918H77.6009C77.6009 218.313 77.7416 217.763 78.0229 217.266C78.3042 216.764 78.7074 216.363 79.2325 216.063C79.7576 215.763 80.3811 215.613 81.1031 215.613C81.8064 215.613 82.4018 215.73 82.8894 215.965C83.377 216.194 83.7474 216.522 84.0005 216.949C84.2537 217.376 84.3803 217.884 84.3803 218.475C84.3803 218.803 84.3264 219.127 84.2186 219.446C84.1107 219.764 83.9583 220.081 83.7614 220.395C83.5692 220.705 83.3395 221.019 83.0722 221.337C82.805 221.656 82.5073 221.982 82.1791 222.315L80.1819 224.537H84.739ZM92.967 224.537V226H86.0329V224.748L89.3593 221.155C89.7063 220.761 89.9805 220.419 90.1821 220.128C90.3837 219.837 90.5267 219.575 90.6111 219.34C90.7002 219.101 90.7447 218.874 90.7447 218.658C90.7447 218.344 90.6885 218.07 90.576 217.835C90.4634 217.596 90.2993 217.411 90.0837 217.28C89.8727 217.148 89.6125 217.083 89.3031 217.083C88.9608 217.083 88.6678 217.162 88.424 217.322C88.1849 217.477 88.0021 217.692 87.8755 217.969C87.7536 218.245 87.6926 218.562 87.6926 218.918H85.829C85.829 218.313 85.9697 217.763 86.251 217.266C86.5323 216.764 86.9355 216.363 87.4605 216.063C87.9856 215.763 88.6092 215.613 89.3312 215.613C90.0345 215.613 90.6299 215.73 91.1175 215.965C91.6051 216.194 91.9754 216.522 92.2286 216.949C92.4818 217.376 92.6084 217.884 92.6084 218.475C92.6084 218.803 92.5544 219.127 92.4466 219.446C92.3388 219.764 92.1864 220.081 91.9895 220.395C91.7973 220.705 91.5675 221.019 91.3003 221.337C91.0331 221.656 90.7354 221.982 90.4072 222.315L88.4099 224.537H92.967Z" fill="#507EB2"/>
<path d="M197.006 224.537V226H190.072V224.748L193.399 221.155C193.746 220.761 194.02 220.419 194.222 220.128C194.423 219.837 194.566 219.575 194.651 219.34C194.74 219.101 194.784 218.874 194.784 218.658C194.784 218.344 194.728 218.07 194.615 217.835C194.503 217.596 194.339 217.411 194.123 217.28C193.912 217.148 193.652 217.083 193.343 217.083C193 217.083 192.707 217.162 192.463 217.322C192.224 217.477 192.042 217.692 191.915 217.969C191.793 218.245 191.732 218.562 191.732 218.918H189.868C189.868 218.313 190.009 217.763 190.29 217.266C190.572 216.764 190.975 216.363 191.5 216.063C192.025 215.763 192.649 215.613 193.371 215.613C194.074 215.613 194.669 215.73 195.157 215.965C195.645 216.194 196.015 216.522 196.268 216.949C196.521 217.376 196.648 217.884 196.648 218.475C196.648 218.803 196.594 219.127 196.486 219.446C196.378 219.764 196.226 220.081 196.029 220.395C195.837 220.705 195.607 221.019 195.34 221.337C195.073 221.656 194.775 221.982 194.447 222.315L192.449 224.537H197.006ZM205.08 220.001V221.724C205.08 222.512 205 223.185 204.841 223.743C204.681 224.3 204.452 224.758 204.152 225.114C203.851 225.466 203.493 225.726 203.076 225.895C202.658 226.059 202.194 226.141 201.683 226.141C201.275 226.141 200.895 226.089 200.544 225.986C200.192 225.878 199.876 225.714 199.594 225.494C199.318 225.269 199.079 224.983 198.877 224.636C198.68 224.289 198.528 223.874 198.42 223.391C198.317 222.908 198.265 222.352 198.265 221.724V220.001C198.265 219.214 198.345 218.543 198.504 217.99C198.668 217.437 198.901 216.984 199.201 216.633C199.501 216.281 199.859 216.026 200.277 215.866C200.694 215.702 201.158 215.62 201.669 215.62C202.082 215.62 202.461 215.672 202.808 215.775C203.16 215.878 203.474 216.04 203.751 216.26C204.032 216.476 204.271 216.757 204.468 217.104C204.665 217.446 204.815 217.859 204.918 218.342C205.026 218.82 205.08 219.373 205.08 220.001ZM203.223 221.977V219.741C203.223 219.347 203.2 219.005 203.153 218.714C203.111 218.419 203.047 218.168 202.963 217.962C202.879 217.756 202.773 217.589 202.647 217.463C202.52 217.331 202.375 217.235 202.211 217.174C202.046 217.113 201.866 217.083 201.669 217.083C201.425 217.083 201.207 217.132 201.015 217.23C200.823 217.324 200.661 217.474 200.53 217.681C200.398 217.887 200.298 218.161 200.227 218.503C200.162 218.841 200.129 219.253 200.129 219.741V221.977C200.129 222.371 200.15 222.716 200.192 223.011C200.239 223.307 200.305 223.56 200.389 223.771C200.478 223.982 200.584 224.155 200.706 224.291C200.832 224.422 200.978 224.521 201.142 224.586C201.306 224.647 201.486 224.678 201.683 224.678C201.932 224.678 202.15 224.629 202.337 224.53C202.529 224.432 202.691 224.277 202.822 224.066C202.954 223.85 203.052 223.571 203.118 223.229C203.188 222.882 203.223 222.465 203.223 221.977ZM213.463 224.537V226H206.529V224.748L209.855 221.155C210.202 220.761 210.476 220.419 210.678 220.128C210.879 219.837 211.022 219.575 211.107 219.34C211.196 219.101 211.24 218.874 211.24 218.658C211.24 218.344 211.184 218.07 211.072 217.835C210.959 217.596 210.795 217.411 210.579 217.28C210.368 217.148 210.108 217.083 209.799 217.083C209.456 217.083 209.163 217.162 208.92 217.322C208.68 217.477 208.498 217.692 208.371 217.969C208.249 218.245 208.188 218.562 208.188 218.918H206.325C206.325 218.313 206.465 217.763 206.747 217.266C207.028 216.764 207.431 216.363 207.956 216.063C208.481 215.763 209.105 215.613 209.827 215.613C210.53 215.613 211.125 215.73 211.613 215.965C212.101 216.194 212.471 216.522 212.724 216.949C212.977 217.376 213.104 217.884 213.104 218.475C213.104 218.803 213.05 219.127 212.942 219.446C212.834 219.764 212.682 220.081 212.485 220.395C212.293 220.705 212.063 221.019 211.796 221.337C211.529 221.656 211.231 221.982 210.903 222.315L208.906 224.537H213.463ZM216.789 220.058H217.837C218.207 220.058 218.512 219.994 218.751 219.868C218.995 219.736 219.175 219.558 219.293 219.333C219.414 219.103 219.475 218.839 219.475 218.538C219.475 218.243 219.421 217.988 219.314 217.772C219.206 217.552 219.042 217.383 218.821 217.266C218.606 217.144 218.329 217.083 217.992 217.083C217.72 217.083 217.469 217.137 217.239 217.245C217.014 217.352 216.834 217.507 216.698 217.709C216.566 217.906 216.501 218.142 216.501 218.419H214.637C214.637 217.866 214.782 217.38 215.073 216.963C215.368 216.541 215.767 216.211 216.269 215.972C216.77 215.733 217.33 215.613 217.949 215.613C218.624 215.613 219.215 215.725 219.722 215.951C220.233 216.171 220.629 216.497 220.91 216.928C221.196 217.359 221.339 217.894 221.339 218.531C221.339 218.836 221.266 219.141 221.121 219.446C220.98 219.746 220.772 220.018 220.495 220.261C220.223 220.501 219.888 220.695 219.489 220.845C219.096 220.99 218.643 221.063 218.132 221.063H216.789V220.058ZM216.789 221.492V220.501H218.132C218.709 220.501 219.208 220.569 219.63 220.705C220.057 220.836 220.408 221.023 220.685 221.267C220.962 221.506 221.166 221.785 221.297 222.104C221.433 222.423 221.501 222.765 221.501 223.131C221.501 223.609 221.412 224.036 221.234 224.411C221.055 224.781 220.805 225.095 220.481 225.353C220.162 225.611 219.787 225.808 219.356 225.944C218.925 226.075 218.458 226.141 217.956 226.141C217.52 226.141 217.096 226.082 216.683 225.965C216.276 225.843 215.908 225.662 215.579 225.423C215.251 225.18 214.991 224.875 214.799 224.509C214.607 224.139 214.51 223.71 214.51 223.222H216.374C216.374 223.503 216.442 223.754 216.578 223.975C216.719 224.195 216.911 224.368 217.155 224.495C217.403 224.617 217.682 224.678 217.992 224.678C218.334 224.678 218.627 224.617 218.871 224.495C219.119 224.368 219.309 224.19 219.44 223.961C219.572 223.726 219.637 223.447 219.637 223.124C219.637 222.739 219.564 222.427 219.419 222.188C219.274 221.949 219.065 221.773 218.793 221.661C218.526 221.548 218.207 221.492 217.837 221.492H216.789Z" fill="#507EB2"/>
<path d="M18.7529 224.418L78.5 186L188.5 150H260.5" stroke="#31CC82" stroke-width="2.25041" stroke-linecap="square"/>
<path d="M18.851 110.556L15.2512 121H13.0748L17.6097 108.951H19L18.851 110.556ZM21.8633 121L18.2552 110.556L18.098 108.951H19.4965L24.048 121H21.8633ZM21.6895 116.531V118.178H15.1354V116.531H21.6895ZM27.11 118.087L30.627 112.046H32.6214V121H30.627V114.951L27.11 121H25.1156V112.046H27.11V118.087ZM30.0974 108.603H31.5787C31.5787 109.061 31.4684 109.467 31.2477 109.82C31.0325 110.167 30.7236 110.44 30.3208 110.639C29.9236 110.838 29.4492 110.937 28.8975 110.937C28.0644 110.937 27.4051 110.722 26.9196 110.292C26.4397 109.856 26.1997 109.293 26.1997 108.603H27.681C27.681 108.912 27.772 109.185 27.9541 109.423C28.1416 109.654 28.4561 109.77 28.8975 109.77C29.3333 109.77 29.6423 109.654 29.8243 109.423C30.0064 109.185 30.0974 108.912 30.0974 108.603ZM40.7479 112.046V113.635H36.3785V112.046H40.7479ZM42.312 112.046V121H40.3176V112.046H42.312ZM35.8902 112.046H37.8598L37.6198 116.473C37.5867 117.13 37.5205 117.709 37.4212 118.211C37.3274 118.708 37.2005 119.135 37.0405 119.494C36.8805 119.847 36.6847 120.134 36.453 120.355C36.2213 120.575 35.9509 120.738 35.642 120.843C35.333 120.948 34.9855 121 34.5993 121H33.9786L33.9703 119.361L34.2848 119.337C34.4889 119.32 34.6655 119.268 34.8144 119.179C34.9634 119.086 35.0903 118.953 35.1951 118.782C35.3054 118.611 35.3937 118.39 35.4599 118.12C35.5316 117.85 35.5868 117.53 35.6254 117.16C35.6696 116.791 35.7027 116.36 35.7247 115.869L35.8902 112.046ZM49.4786 119.204V114.934C49.4786 114.614 49.4206 114.338 49.3048 114.107C49.1889 113.875 49.0124 113.696 48.7752 113.569C48.5434 113.442 48.251 113.378 47.898 113.378C47.5724 113.378 47.2911 113.433 47.0539 113.544C46.8166 113.654 46.6318 113.803 46.4994 113.991C46.367 114.178 46.3008 114.391 46.3008 114.628H44.3147C44.3147 114.275 44.4002 113.933 44.5712 113.602C44.7422 113.271 44.9905 112.976 45.316 112.716C45.6415 112.457 46.0305 112.253 46.4828 112.104C46.9352 111.955 47.4428 111.88 48.0055 111.88C48.6786 111.88 49.2744 111.994 49.793 112.22C50.3171 112.446 50.7282 112.788 51.0261 113.246C51.3295 113.698 51.4812 114.267 51.4812 114.951V118.931C51.4812 119.339 51.5088 119.706 51.564 120.032C51.6247 120.352 51.7102 120.63 51.8205 120.868V121H49.7765C49.6827 120.785 49.6082 120.512 49.553 120.181C49.5034 119.844 49.4786 119.519 49.4786 119.204ZM49.7682 115.555L49.7848 116.788H48.3531C47.9835 116.788 47.658 116.824 47.3766 116.895C47.0952 116.962 46.8608 117.061 46.6732 117.193C46.4856 117.326 46.3449 117.486 46.2511 117.673C46.1573 117.861 46.1104 118.073 46.1104 118.31C46.1104 118.548 46.1656 118.766 46.276 118.964C46.3863 119.157 46.5463 119.309 46.7559 119.419C46.9711 119.53 47.2304 119.585 47.5338 119.585C47.9421 119.585 48.2979 119.502 48.6014 119.337C48.9103 119.166 49.1531 118.959 49.3296 118.716C49.5062 118.468 49.5999 118.233 49.611 118.013L50.2565 118.898C50.1903 119.124 50.0772 119.367 49.9172 119.626C49.7572 119.886 49.5475 120.134 49.2882 120.371C49.0344 120.603 48.7283 120.793 48.3697 120.942C48.0166 121.091 47.6083 121.166 47.1449 121.166C46.5601 121.166 46.0387 121.05 45.5808 120.818C45.1229 120.581 44.7643 120.263 44.505 119.866C44.2457 119.464 44.1161 119.008 44.1161 118.501C44.1161 118.026 44.2043 117.607 44.3809 117.243C44.5629 116.873 44.8278 116.564 45.1753 116.316C45.5284 116.068 45.9587 115.88 46.4663 115.753C46.9739 115.621 47.5531 115.555 48.2041 115.555H49.7682ZM59.6822 115.786V117.359H55.048V115.786H59.6822ZM55.6272 112.046V121H53.6329V112.046H55.6272ZM61.1222 112.046V121H59.1278V112.046H61.1222ZM68.5701 118.584L71.2348 112.046H72.9644L69.2487 121H67.8915L64.1841 112.046H65.9137L68.5701 118.584ZM65.4006 112.046V121H63.4062V112.046H65.4006ZM71.7396 121V112.046H73.7422V121H71.7396ZM81.0247 119.204V114.934C81.0247 114.614 80.9667 114.338 80.8509 114.107C80.735 113.875 80.5585 113.696 80.3212 113.569C80.0895 113.442 79.7971 113.378 79.444 113.378C79.1185 113.378 78.8372 113.433 78.5999 113.544C78.3627 113.654 78.1779 113.803 78.0455 113.991C77.9131 114.178 77.8469 114.391 77.8469 114.628H75.8608C75.8608 114.275 75.9463 113.933 76.1173 113.602C76.2883 113.271 76.5366 112.976 76.8621 112.716C77.1876 112.457 77.5765 112.253 78.0289 112.104C78.4813 111.955 78.9889 111.88 79.5516 111.88C80.2247 111.88 80.8205 111.994 81.3391 112.22C81.8632 112.446 82.2743 112.788 82.5722 113.246C82.8756 113.698 83.0273 114.267 83.0273 114.951V118.931C83.0273 119.339 83.0549 119.706 83.1101 120.032C83.1708 120.352 83.2563 120.63 83.3666 120.868V121H81.3226C81.2288 120.785 81.1543 120.512 81.0991 120.181C81.0495 119.844 81.0247 119.519 81.0247 119.204ZM81.3143 115.555L81.3309 116.788H79.8992C79.5296 116.788 79.2041 116.824 78.9227 116.895C78.6413 116.962 78.4069 117.061 78.2193 117.193C78.0317 117.326 77.891 117.486 77.7972 117.673C77.7034 117.861 77.6565 118.073 77.6565 118.31C77.6565 118.548 77.7117 118.766 77.8221 118.964C77.9324 119.157 78.0924 119.309 78.302 119.419C78.5172 119.53 78.7765 119.585 79.0799 119.585C79.4882 119.585 79.844 119.502 80.1475 119.337C80.4564 119.166 80.6992 118.959 80.8757 118.716C81.0522 118.468 81.146 118.233 81.1571 118.013L81.8026 118.898C81.7364 119.124 81.6233 119.367 81.4633 119.626C81.3033 119.886 81.0936 120.134 80.8343 120.371C80.5805 120.603 80.2744 120.793 79.9157 120.942C79.5627 121.091 79.1544 121.166 78.691 121.166C78.1062 121.166 77.5848 121.05 77.1269 120.818C76.669 120.581 76.3104 120.263 76.0511 119.866C75.7918 119.464 75.6622 119.008 75.6622 118.501C75.6622 118.026 75.7504 117.607 75.927 117.243C76.109 116.873 76.3738 116.564 76.7214 116.316C77.0745 116.068 77.5048 115.88 78.0124 115.753C78.52 115.621 79.0992 115.555 79.7502 115.555H81.3143ZM94.6544 118.584L97.3191 112.046H99.0486L95.333 121H93.9758L90.2684 112.046H91.9979L94.6544 118.584ZM91.4849 112.046V121H89.4905V112.046H91.4849ZM97.8239 121V112.046H99.8265V121H97.8239ZM107.109 119.204V114.934C107.109 114.614 107.051 114.338 106.935 114.107C106.819 113.875 106.643 113.696 106.406 113.569C106.174 113.442 105.881 113.378 105.528 113.378C105.203 113.378 104.921 113.433 104.684 113.544C104.447 113.654 104.262 113.803 104.13 113.991C103.997 114.178 103.931 114.391 103.931 114.628H101.945C101.945 114.275 102.031 113.933 102.202 113.602C102.373 113.271 102.621 112.976 102.946 112.716C103.272 112.457 103.661 112.253 104.113 112.104C104.566 111.955 105.073 111.88 105.636 111.88C106.309 111.88 106.905 111.994 107.423 112.22C107.948 112.446 108.359 112.788 108.656 113.246C108.96 113.698 109.112 114.267 109.112 114.951V118.931C109.112 119.339 109.139 119.706 109.194 120.032C109.255 120.352 109.341 120.63 109.451 120.868V121H107.407C107.313 120.785 107.239 120.512 107.183 120.181C107.134 119.844 107.109 119.519 107.109 119.204ZM107.399 115.555L107.415 116.788H105.983C105.614 116.788 105.288 116.824 105.007 116.895C104.726 116.962 104.491 117.061 104.304 117.193C104.116 117.326 103.975 117.486 103.882 117.673C103.788 117.861 103.741 118.073 103.741 118.31C103.741 118.548 103.796 118.766 103.906 118.964C104.017 119.157 104.177 119.309 104.386 119.419C104.601 119.53 104.861 119.585 105.164 119.585C105.572 119.585 105.928 119.502 106.232 119.337C106.541 119.166 106.783 118.959 106.96 118.716C107.137 118.468 107.23 118.233 107.241 118.013L107.887 118.898C107.821 119.124 107.708 119.367 107.548 119.626C107.388 119.886 107.178 120.134 106.919 120.371C106.665 120.603 106.359 120.793 106 120.942C105.647 121.091 105.239 121.166 104.775 121.166C104.19 121.166 103.669 121.05 103.211 120.818C102.753 120.581 102.395 120.263 102.135 119.866C101.876 119.464 101.746 119.008 101.746 118.501C101.746 118.026 101.835 117.607 102.011 117.243C102.193 116.873 102.458 116.564 102.806 116.316C103.159 116.068 103.589 115.88 104.097 115.753C104.604 115.621 105.184 115.555 105.835 115.555H107.399ZM116.816 108.123H118.43C118.43 108.614 118.361 109.02 118.223 109.34C118.091 109.654 117.892 109.914 117.627 110.118C117.368 110.316 117.045 110.476 116.659 110.598C116.278 110.719 115.837 110.829 115.335 110.929C114.871 111.028 114.452 111.185 114.077 111.4C113.707 111.61 113.396 111.905 113.142 112.286C112.894 112.661 112.714 113.144 112.604 113.734C112.494 114.324 112.46 115.044 112.505 115.894V116.457L110.924 116.597V116.035C110.924 114.981 111.02 114.062 111.214 113.279C111.407 112.496 111.68 111.836 112.033 111.301C112.391 110.76 112.816 110.33 113.307 110.01C113.804 109.69 114.356 109.47 114.962 109.348C115.376 109.26 115.721 109.172 115.997 109.083C116.273 108.99 116.477 108.871 116.609 108.727C116.747 108.579 116.816 108.377 116.816 108.123ZM115.418 112.551C116.013 112.551 116.543 112.656 117.006 112.865C117.47 113.069 117.862 113.356 118.182 113.726C118.502 114.095 118.744 114.531 118.91 115.033C119.081 115.535 119.166 116.082 119.166 116.672V116.854C119.166 117.472 119.075 118.043 118.893 118.567C118.711 119.091 118.444 119.549 118.091 119.941C117.737 120.327 117.304 120.63 116.791 120.851C116.284 121.066 115.702 121.174 115.045 121.174C114.394 121.174 113.812 121.061 113.299 120.834C112.786 120.608 112.353 120.294 112 119.891C111.647 119.483 111.379 119.006 111.197 118.459C111.015 117.913 110.924 117.317 110.924 116.672V116.49C110.918 116.374 110.949 116.261 111.015 116.151C111.087 116.04 111.172 115.922 111.272 115.795C111.371 115.668 111.459 115.522 111.536 115.356C111.812 114.799 112.138 114.311 112.513 113.891C112.888 113.472 113.316 113.144 113.796 112.907C114.281 112.669 114.822 112.551 115.418 112.551ZM115.029 114.131C114.532 114.131 114.127 114.25 113.812 114.487C113.503 114.719 113.274 115.028 113.125 115.414C112.982 115.8 112.91 116.22 112.91 116.672V116.854C112.91 117.224 112.951 117.574 113.034 117.905C113.117 118.236 113.241 118.528 113.407 118.782C113.578 119.03 113.798 119.226 114.069 119.37C114.344 119.513 114.67 119.585 115.045 119.585C115.426 119.585 115.749 119.513 116.013 119.37C116.284 119.226 116.502 119.03 116.667 118.782C116.838 118.528 116.962 118.236 117.04 117.905C117.122 117.574 117.164 117.224 117.164 116.854V116.672C117.164 116.33 117.122 116.007 117.04 115.704C116.962 115.4 116.838 115.133 116.667 114.901C116.496 114.664 116.275 114.476 116.005 114.338C115.735 114.2 115.409 114.131 115.029 114.131ZM126.747 112.046V113.635H122.377V112.046H126.747ZM128.311 112.046V121H126.316V112.046H128.311ZM121.889 112.046H123.859L123.619 116.473C123.585 117.13 123.519 117.709 123.42 118.211C123.326 118.708 123.199 119.135 123.039 119.494C122.879 119.847 122.683 120.134 122.452 120.355C122.22 120.575 121.95 120.738 121.641 120.843C121.332 120.948 120.984 121 120.598 121H119.977L119.969 119.361L120.283 119.337C120.488 119.32 120.664 119.268 120.813 119.179C120.962 119.086 121.089 118.953 121.194 118.782C121.304 118.611 121.392 118.39 121.459 118.12C121.53 117.85 121.586 117.53 121.624 117.16C121.668 116.791 121.701 116.36 121.723 115.869L121.889 112.046ZM135.477 119.204V114.934C135.477 114.614 135.419 114.338 135.303 114.107C135.188 113.875 135.011 113.696 134.774 113.569C134.542 113.442 134.25 113.378 133.897 113.378C133.571 113.378 133.29 113.433 133.053 113.544C132.815 113.654 132.631 113.803 132.498 113.991C132.366 114.178 132.299 114.391 132.299 114.628H130.313C130.313 114.275 130.399 113.933 130.57 113.602C130.741 113.271 130.989 112.976 131.315 112.716C131.64 112.457 132.029 112.253 132.482 112.104C132.934 111.955 133.441 111.88 134.004 111.88C134.677 111.88 135.273 111.994 135.792 112.22C136.316 112.446 136.727 112.788 137.025 113.246C137.328 113.698 137.48 114.267 137.48 114.951V118.931C137.48 119.339 137.508 119.706 137.563 120.032C137.623 120.352 137.709 120.63 137.819 120.868V121H135.775C135.681 120.785 135.607 120.512 135.552 120.181C135.502 119.844 135.477 119.519 135.477 119.204ZM135.767 115.555L135.783 116.788H134.352C133.982 116.788 133.657 116.824 133.375 116.895C133.094 116.962 132.859 117.061 132.672 117.193C132.484 117.326 132.344 117.486 132.25 117.673C132.156 117.861 132.109 118.073 132.109 118.31C132.109 118.548 132.164 118.766 132.275 118.964C132.385 119.157 132.545 119.309 132.755 119.419C132.97 119.53 133.229 119.585 133.533 119.585C133.941 119.585 134.297 119.502 134.6 119.337C134.909 119.166 135.152 118.959 135.328 118.716C135.505 118.468 135.599 118.233 135.61 118.013L136.255 118.898C136.189 119.124 136.076 119.367 135.916 119.626C135.756 119.886 135.546 120.134 135.287 120.371C135.033 120.603 134.727 120.793 134.368 120.942C134.015 121.091 133.607 121.166 133.144 121.166C132.559 121.166 132.037 121.05 131.58 120.818C131.122 120.581 130.763 120.263 130.504 119.866C130.244 119.464 130.115 119.008 130.115 118.501C130.115 118.026 130.203 117.607 130.38 117.243C130.562 116.873 130.826 116.564 131.174 116.316C131.527 116.068 131.957 115.88 132.465 115.753C132.973 115.621 133.552 115.555 134.203 115.555H135.767ZM145.524 112.046V113.635H141.618V121H139.623V112.046H145.524ZM143.819 115.762V117.144H138.266V115.762H143.819ZM152.699 112.046V113.635H148.329V112.046H152.699ZM154.263 112.046V121H152.268V112.046H154.263ZM147.841 112.046H149.81L149.57 116.473C149.537 117.13 149.471 117.709 149.372 118.211C149.278 118.708 149.151 119.135 148.991 119.494C148.831 119.847 148.635 120.134 148.404 120.355C148.172 120.575 147.902 120.738 147.593 120.843C147.284 120.948 146.936 121 146.55 121H145.929L145.921 119.361L146.235 119.337C146.44 119.32 146.616 119.268 146.765 119.179C146.914 119.086 147.041 118.953 147.146 118.782C147.256 118.611 147.344 118.39 147.41 118.12C147.482 117.85 147.537 117.53 147.576 117.16C147.62 116.791 147.653 116.36 147.675 115.869L147.841 112.046ZM161.429 119.204V114.934C161.429 114.614 161.371 114.338 161.255 114.107C161.14 113.875 160.963 113.696 160.726 113.569C160.494 113.442 160.202 113.378 159.849 113.378C159.523 113.378 159.242 113.433 159.004 113.544C158.767 113.654 158.582 113.803 158.45 113.991C158.318 114.178 158.251 114.391 158.251 114.628H156.265C156.265 114.275 156.351 113.933 156.522 113.602C156.693 113.271 156.941 112.976 157.267 112.716C157.592 112.457 157.981 112.253 158.433 112.104C158.886 111.955 159.393 111.88 159.956 111.88C160.629 111.88 161.225 111.994 161.744 112.22C162.268 112.446 162.679 112.788 162.977 113.246C163.28 113.698 163.432 114.267 163.432 114.951V118.931C163.432 119.339 163.459 119.706 163.515 120.032C163.575 120.352 163.661 120.63 163.771 120.868V121H161.727C161.633 120.785 161.559 120.512 161.504 120.181C161.454 119.844 161.429 119.519 161.429 119.204ZM161.719 115.555L161.735 116.788H160.304C159.934 116.788 159.609 116.824 159.327 116.895C159.046 116.962 158.811 117.061 158.624 117.193C158.436 117.326 158.296 117.486 158.202 117.673C158.108 117.861 158.061 118.073 158.061 118.31C158.061 118.548 158.116 118.766 158.227 118.964C158.337 119.157 158.497 119.309 158.707 119.419C158.922 119.53 159.181 119.585 159.484 119.585C159.893 119.585 160.249 119.502 160.552 119.337C160.861 119.166 161.104 118.959 161.28 118.716C161.457 118.468 161.551 118.233 161.562 118.013L162.207 118.898C162.141 119.124 162.028 119.367 161.868 119.626C161.708 119.886 161.498 120.134 161.239 120.371C160.985 120.603 160.679 120.793 160.32 120.942C159.967 121.091 159.559 121.166 159.095 121.166C158.511 121.166 157.989 121.05 157.531 120.818C157.073 120.581 156.715 120.263 156.456 119.866C156.196 119.464 156.067 119.008 156.067 118.501C156.067 118.026 156.155 117.607 156.331 117.243C156.514 116.873 156.778 116.564 157.126 116.316C157.479 116.068 157.909 115.88 158.417 115.753C158.924 115.621 159.504 115.555 160.155 115.555H161.719ZM167.52 113.767V124.443H165.526V112.046H167.363L167.52 113.767ZM173.354 116.44V116.614C173.354 117.265 173.277 117.869 173.122 118.426C172.973 118.978 172.75 119.461 172.452 119.875C172.16 120.283 171.798 120.6 171.368 120.826C170.938 121.052 170.441 121.166 169.878 121.166C169.321 121.166 168.833 121.063 168.414 120.859C168 120.65 167.65 120.355 167.363 119.974C167.076 119.593 166.844 119.146 166.668 118.633C166.496 118.115 166.375 117.546 166.303 116.928V116.258C166.375 115.602 166.496 115.006 166.668 114.471C166.844 113.936 167.076 113.475 167.363 113.089C167.65 112.702 168 112.405 168.414 112.195C168.827 111.985 169.31 111.88 169.862 111.88C170.425 111.88 170.924 111.991 171.36 112.211C171.796 112.427 172.162 112.736 172.46 113.138C172.758 113.536 172.982 114.016 173.131 114.578C173.28 115.135 173.354 115.756 173.354 116.44ZM171.36 116.614V116.44C171.36 116.026 171.321 115.643 171.244 115.29C171.167 114.931 171.045 114.617 170.88 114.347C170.714 114.076 170.502 113.867 170.243 113.718C169.989 113.563 169.683 113.486 169.324 113.486C168.971 113.486 168.667 113.547 168.414 113.668C168.16 113.784 167.947 113.947 167.776 114.156C167.605 114.366 167.473 114.611 167.379 114.893C167.285 115.169 167.219 115.469 167.181 115.795V117.4C167.247 117.797 167.36 118.162 167.52 118.493C167.68 118.824 167.906 119.088 168.198 119.287C168.496 119.48 168.877 119.577 169.34 119.577C169.699 119.577 170.005 119.499 170.259 119.345C170.513 119.19 170.72 118.978 170.88 118.708C171.045 118.432 171.167 118.115 171.244 117.756C171.321 117.397 171.36 117.017 171.36 116.614ZM181.87 120.023L184.303 112.046H186.438L182.846 122.365C182.763 122.586 182.656 122.826 182.523 123.085C182.391 123.345 182.217 123.59 182.002 123.822C181.792 124.059 181.53 124.25 181.216 124.393C180.901 124.542 180.521 124.616 180.074 124.616C179.897 124.616 179.726 124.6 179.561 124.567C179.401 124.539 179.249 124.509 179.106 124.476L179.097 122.953C179.152 122.959 179.219 122.964 179.296 122.97C179.379 122.975 179.445 122.978 179.494 122.978C179.826 122.978 180.101 122.936 180.322 122.854C180.543 122.776 180.722 122.65 180.86 122.473C181.003 122.296 181.125 122.059 181.224 121.761L181.87 120.023ZM180.496 112.046L182.623 118.749L182.978 120.851L181.596 121.207L178.344 112.046H180.496ZM183.715 108.496H185.196C185.196 108.954 185.086 109.359 184.865 109.712C184.65 110.06 184.341 110.333 183.938 110.532C183.541 110.73 183.067 110.829 182.515 110.829C181.682 110.829 181.023 110.614 180.537 110.184C180.057 109.748 179.817 109.185 179.817 108.496H181.299C181.299 108.805 181.39 109.078 181.572 109.315C181.759 109.547 182.074 109.663 182.515 109.663C182.951 109.663 183.26 109.547 183.442 109.315C183.624 109.078 183.715 108.805 183.715 108.496ZM191.287 116.722H189.566V115.712H190.956C191.309 115.712 191.59 115.665 191.8 115.571C192.015 115.478 192.167 115.348 192.255 115.182C192.349 115.011 192.396 114.813 192.396 114.587C192.396 114.388 192.349 114.2 192.255 114.024C192.167 113.842 192.015 113.693 191.8 113.577C191.585 113.461 191.293 113.403 190.923 113.403C190.619 113.403 190.346 113.453 190.104 113.552C189.866 113.651 189.679 113.789 189.541 113.966C189.403 114.142 189.334 114.347 189.334 114.578H187.34C187.34 114.021 187.497 113.541 187.811 113.138C188.131 112.736 188.559 112.427 189.094 112.211C189.629 111.996 190.217 111.889 190.857 111.889C191.403 111.889 191.894 111.947 192.33 112.062C192.766 112.173 193.135 112.338 193.439 112.559C193.748 112.774 193.982 113.045 194.142 113.37C194.308 113.69 194.39 114.062 194.39 114.487C194.39 114.791 194.319 115.078 194.175 115.348C194.032 115.618 193.825 115.858 193.555 116.068C193.284 116.272 192.956 116.432 192.57 116.548C192.189 116.664 191.762 116.722 191.287 116.722ZM189.566 116.142H191.287C191.817 116.142 192.286 116.195 192.694 116.3C193.102 116.399 193.444 116.548 193.72 116.746C193.996 116.945 194.203 117.191 194.341 117.483C194.484 117.77 194.556 118.101 194.556 118.476C194.556 118.895 194.465 119.273 194.283 119.61C194.106 119.941 193.852 120.222 193.521 120.454C193.196 120.686 192.807 120.862 192.355 120.983C191.902 121.105 191.403 121.166 190.857 121.166C190.261 121.166 189.682 121.066 189.119 120.868C188.562 120.669 188.101 120.363 187.737 119.949C187.378 119.53 187.199 118.997 187.199 118.352H189.193C189.193 118.578 189.262 118.79 189.4 118.989C189.538 119.188 189.737 119.35 189.996 119.477C190.255 119.599 190.567 119.659 190.931 119.659C191.306 119.659 191.613 119.601 191.85 119.486C192.087 119.364 192.264 119.207 192.379 119.014C192.495 118.815 192.553 118.606 192.553 118.385C192.553 118.087 192.495 117.847 192.379 117.665C192.264 117.483 192.087 117.351 191.85 117.268C191.613 117.179 191.315 117.135 190.956 117.135H189.566V116.142ZM202.211 112.046V113.635H198.305V121H196.31V112.046H202.211ZM208.417 119.204V114.934C208.417 114.614 208.359 114.338 208.243 114.107C208.128 113.875 207.951 113.696 207.714 113.569C207.482 113.442 207.19 113.378 206.837 113.378C206.511 113.378 206.23 113.433 205.993 113.544C205.755 113.654 205.571 113.803 205.438 113.991C205.306 114.178 205.239 114.391 205.239 114.628H203.253C203.253 114.275 203.339 113.933 203.51 113.602C203.681 113.271 203.929 112.976 204.255 112.716C204.58 112.457 204.969 112.253 205.422 112.104C205.874 111.955 206.382 111.88 206.944 111.88C207.617 111.88 208.213 111.994 208.732 112.22C209.256 112.446 209.667 112.788 209.965 113.246C210.268 113.698 210.42 114.267 210.42 114.951V118.931C210.42 119.339 210.448 119.706 210.503 120.032C210.563 120.352 210.649 120.63 210.759 120.868V121H208.715C208.621 120.785 208.547 120.512 208.492 120.181C208.442 119.844 208.417 119.519 208.417 119.204ZM208.707 115.555L208.723 116.788H207.292C206.922 116.788 206.597 116.824 206.315 116.895C206.034 116.962 205.799 117.061 205.612 117.193C205.424 117.326 205.284 117.486 205.19 117.673C205.096 117.861 205.049 118.073 205.049 118.31C205.049 118.548 205.104 118.766 205.215 118.964C205.325 119.157 205.485 119.309 205.695 119.419C205.91 119.53 206.169 119.585 206.473 119.585C206.881 119.585 207.237 119.502 207.54 119.337C207.849 119.166 208.092 118.959 208.268 118.716C208.445 118.468 208.539 118.233 208.55 118.013L209.195 118.898C209.129 119.124 209.016 119.367 208.856 119.626C208.696 119.886 208.486 120.134 208.227 120.371C207.973 120.603 207.667 120.793 207.308 120.942C206.955 121.091 206.547 121.166 206.084 121.166C205.499 121.166 204.977 121.05 204.52 120.818C204.062 120.581 203.703 120.263 203.444 119.866C203.184 119.464 203.055 119.008 203.055 118.501C203.055 118.026 203.143 117.607 203.32 117.243C203.502 116.873 203.766 116.564 204.114 116.316C204.467 116.068 204.897 115.88 205.405 115.753C205.913 115.621 206.492 115.555 207.143 115.555H208.707ZM214.508 113.767V124.443H212.514V112.046H214.351L214.508 113.767ZM220.342 116.44V116.614C220.342 117.265 220.265 117.869 220.111 118.426C219.962 118.978 219.738 119.461 219.44 119.875C219.148 120.283 218.786 120.6 218.356 120.826C217.926 121.052 217.429 121.166 216.867 121.166C216.309 121.166 215.821 121.063 215.402 120.859C214.988 120.65 214.638 120.355 214.351 119.974C214.064 119.593 213.832 119.146 213.656 118.633C213.485 118.115 213.363 117.546 213.292 116.928V116.258C213.363 115.602 213.485 115.006 213.656 114.471C213.832 113.936 214.064 113.475 214.351 113.089C214.638 112.702 214.988 112.405 215.402 112.195C215.816 111.985 216.298 111.88 216.85 111.88C217.413 111.88 217.912 111.991 218.348 112.211C218.784 112.427 219.151 112.736 219.448 113.138C219.746 113.536 219.97 114.016 220.119 114.578C220.268 115.135 220.342 115.756 220.342 116.44ZM218.348 116.614V116.44C218.348 116.026 218.309 115.643 218.232 115.29C218.155 114.931 218.033 114.617 217.868 114.347C217.702 114.076 217.49 113.867 217.231 113.718C216.977 113.563 216.671 113.486 216.312 113.486C215.959 113.486 215.656 113.547 215.402 113.668C215.148 113.784 214.936 113.947 214.765 114.156C214.594 114.366 214.461 114.611 214.367 114.893C214.274 115.169 214.207 115.469 214.169 115.795V117.4C214.235 117.797 214.348 118.162 214.508 118.493C214.668 118.824 214.894 119.088 215.187 119.287C215.485 119.48 215.865 119.577 216.329 119.577C216.687 119.577 216.993 119.499 217.247 119.345C217.501 119.19 217.708 118.978 217.868 118.708C218.033 118.432 218.155 118.115 218.232 117.756C218.309 117.397 218.348 117.017 218.348 116.614ZM224.099 118.087L227.616 112.046H229.611V121H227.616V114.951L224.099 121H222.105V112.046H224.099V118.087ZM231.787 112.046H233.782V119.411H236.62V112.046H238.631V119.411H241.461V112.046H243.456V121H231.787V112.046ZM247.668 118.087L251.185 112.046H253.179V121H251.185V114.951L247.668 121H245.673V112.046H247.668V118.087Z" fill="#638BBA"/>
<path d="M18.0247 17.2083H19.8388L23.2483 26.3031L26.6497 17.2083H28.4638L23.961 29H22.5194L18.0247 17.2083ZM17.1986 17.2083H18.9236L19.2233 25.0802V29H17.1986V17.2083ZM27.5649 17.2083H29.298V29H27.2652V25.0802L27.5649 17.2083ZM35.3801 29.162C34.7322 29.162 34.1464 29.0567 33.6227 28.8461C33.1044 28.6302 32.6617 28.3305 32.2945 27.9472C31.9328 27.5638 31.6547 27.113 31.4604 26.5947C31.266 26.0764 31.1688 25.5176 31.1688 24.9183V24.5943C31.1688 23.9086 31.2687 23.2877 31.4684 22.7316C31.6682 22.1755 31.9463 21.7004 32.3026 21.3063C32.659 20.9067 33.0801 20.6017 33.566 20.3911C34.0519 20.1806 34.5783 20.0753 35.1452 20.0753C35.7715 20.0753 36.3195 20.1806 36.7893 20.3911C37.259 20.6017 37.6477 20.8986 37.9555 21.282C38.2686 21.6599 38.5008 22.1107 38.652 22.6344C38.8085 23.1582 38.8868 23.7359 38.8868 24.3676V25.2017H32.1163V23.8007H36.9593V23.6468C36.9485 23.2958 36.8784 22.9665 36.7488 22.6587C36.6246 22.351 36.4329 22.1026 36.1738 21.9137C35.9146 21.7247 35.5691 21.6302 35.1371 21.6302C34.8132 21.6302 34.5243 21.7004 34.2706 21.8408C34.0222 21.9758 33.8144 22.1728 33.647 22.432C33.4796 22.6911 33.35 23.0043 33.2583 23.3714C33.1719 23.7332 33.1287 24.1408 33.1287 24.5943V24.9183C33.1287 25.3016 33.18 25.658 33.2826 25.9873C33.3905 26.3112 33.5471 26.5947 33.7523 26.8377C33.9574 27.0806 34.2058 27.2723 34.4973 27.4127C34.7889 27.5476 35.1209 27.6151 35.4935 27.6151C35.9632 27.6151 36.3816 27.5206 36.7488 27.3317C37.1159 27.1427 37.4345 26.8755 37.7044 26.5299L38.733 27.526C38.544 27.8014 38.2983 28.066 37.996 28.3197C37.6936 28.5681 37.3238 28.7705 36.8865 28.9271C36.4545 29.0837 35.9524 29.162 35.3801 29.162ZM46.3943 23.8978V25.4366H41.859V23.8978H46.3943ZM42.4259 20.2372V29H40.4742V20.2372H42.4259ZM47.8035 20.2372V29H45.8517V20.2372H47.8035ZM51.9014 26.1493L55.3433 20.2372H57.2951V29H55.3433V23.0799L51.9014 29H49.9496V20.2372H51.9014V26.1493ZM65.3452 23.8978V25.4366H60.8099V23.8978H65.3452ZM61.3768 20.2372V29H59.425V20.2372H61.3768ZM66.7543 20.2372V29H64.8026V20.2372H66.7543ZM74.6667 20.2372V21.7922H70.8442V29H68.8924V20.2372H74.6667ZM82.4738 28.0444L84.8549 20.2372H86.9443L83.4295 30.3363C83.3485 30.5522 83.2432 30.7871 83.1136 31.0409C82.9841 31.2946 82.814 31.5349 82.6034 31.7616C82.3983 31.9938 82.1418 32.1801 81.834 32.3205C81.5263 32.4662 81.1538 32.5391 80.7164 32.5391C80.5437 32.5391 80.3763 32.5229 80.2143 32.4905C80.0577 32.4635 79.9093 32.4338 79.7689 32.4014L79.7608 30.9113C79.8148 30.9167 79.8796 30.9221 79.9552 30.9275C80.0361 30.9329 80.1009 30.9356 80.1495 30.9356C80.4735 30.9356 80.7434 30.8951 80.9594 30.8141C81.1754 30.7385 81.3508 30.6143 81.4858 30.4416C81.6262 30.2688 81.745 30.0366 81.8421 29.7451L82.4738 28.0444ZM81.1295 20.2372L83.2108 26.7972L83.5591 28.8542L82.2066 29.2025L79.0238 20.2372H81.1295ZM90.0785 26.1493L93.5204 20.2372H95.4722V29H93.5204V23.0799L90.0785 29H88.1267V20.2372H90.0785V26.1493ZM93.0021 16.8682H94.4518C94.4518 17.3163 94.3438 17.7132 94.1278 18.0587C93.9173 18.3988 93.6149 18.6661 93.2208 18.8605C92.832 19.0548 92.3677 19.152 91.8278 19.152C91.0125 19.152 90.3673 18.9415 89.8922 18.5203C89.4225 18.0938 89.1876 17.5431 89.1876 16.8682H90.6373C90.6373 17.1706 90.7264 17.4378 90.9046 17.67C91.0881 17.8967 91.3959 18.0101 91.8278 18.0101C92.2543 18.0101 92.5567 17.8967 92.7348 17.67C92.913 17.4378 93.0021 17.1706 93.0021 16.8682ZM99.5539 26.1493L102.996 20.2372H104.948V29H102.996V23.0799L99.5539 29H97.6022V20.2372H99.5539V26.1493ZM112.22 26.6352L114.828 20.2372H116.521L112.884 29H111.556L107.928 20.2372H109.621L112.22 26.6352ZM109.118 20.2372V29H107.167V20.2372H109.118ZM115.322 29V20.2372H117.282V29H115.322ZM127.664 20.2372V29H125.705V20.2372H127.664ZM130.539 20.2372V21.776H122.878V20.2372H130.539ZM133.86 26.1493L137.302 20.2372H139.254V29H137.302V23.0799L133.86 29H131.908V20.2372H133.86V26.1493ZM144.947 24.813H143.262V23.825H144.623C144.969 23.825 145.244 23.7791 145.449 23.6873C145.66 23.5955 145.808 23.4686 145.894 23.3066C145.986 23.1393 146.032 22.9449 146.032 22.7235C146.032 22.5292 145.986 22.3456 145.894 22.1728C145.808 21.9947 145.66 21.8489 145.449 21.7355C145.238 21.6221 144.952 21.5654 144.591 21.5654C144.294 21.5654 144.026 21.614 143.789 21.7112C143.557 21.8084 143.373 21.9434 143.238 22.1161C143.103 22.2889 143.036 22.4887 143.036 22.7154H141.084C141.084 22.1701 141.238 21.7004 141.546 21.3063C141.859 20.9121 142.277 20.6098 142.801 20.3992C143.325 20.1887 143.9 20.0834 144.526 20.0834C145.06 20.0834 145.541 20.1401 145.967 20.2534C146.394 20.3614 146.756 20.5234 147.053 20.7394C147.355 20.9499 147.584 21.2145 147.741 21.533C147.903 21.8462 147.984 22.2106 147.984 22.6264C147.984 22.9233 147.914 23.2041 147.773 23.4686C147.633 23.7332 147.431 23.968 147.166 24.1732C146.901 24.373 146.58 24.5295 146.202 24.6429C145.83 24.7563 145.411 24.813 144.947 24.813ZM143.262 24.2461H144.947C145.465 24.2461 145.924 24.2974 146.324 24.4C146.723 24.4971 147.058 24.6429 147.328 24.8373C147.598 25.0317 147.8 25.2719 147.935 25.5581C148.076 25.8388 148.146 26.1628 148.146 26.5299C148.146 26.9402 148.057 27.3101 147.879 27.6394C147.706 27.9634 147.458 28.2387 147.134 28.4655C146.815 28.6923 146.434 28.865 145.992 28.9838C145.549 29.1026 145.06 29.162 144.526 29.162C143.943 29.162 143.376 29.0648 142.825 28.8704C142.28 28.6761 141.829 28.3764 141.473 27.9715C141.122 27.5611 140.946 27.0401 140.946 26.4084H142.898C142.898 26.6298 142.965 26.8377 143.1 27.032C143.235 27.2264 143.43 27.3857 143.684 27.5098C143.937 27.6286 144.242 27.688 144.599 27.688C144.966 27.688 145.265 27.6313 145.498 27.5179C145.73 27.3992 145.903 27.2453 146.016 27.0563C146.129 26.862 146.186 26.6568 146.186 26.4408C146.186 26.1493 146.129 25.9144 146.016 25.7362C145.903 25.5581 145.73 25.4285 145.498 25.3475C145.265 25.2611 144.974 25.2179 144.623 25.2179H143.262V24.2461ZM151.823 26.1493L155.265 20.2372H157.216V29H155.265V23.0799L151.823 29H149.871V20.2372H151.823V26.1493ZM164.489 26.6352L167.097 20.2372H168.789L165.153 29H163.825L160.197 20.2372H161.889L164.489 26.6352ZM161.387 20.2372V29H159.435V20.2372H161.387ZM167.591 29V20.2372H169.551V29H167.591ZM173.754 26.1493L177.196 20.2372H179.148V29H177.196V23.0799L173.754 29H171.802V20.2372H173.754V26.1493ZM182.8 20.2372H184.752L184.655 23.3228C184.628 24.2191 184.525 24.9885 184.347 25.631C184.169 26.2734 183.937 26.8161 183.65 27.2588C183.364 27.6961 183.04 28.0552 182.679 28.3359C182.322 28.6167 181.947 28.838 181.553 29H180.978V27.4613L181.253 27.4451C181.485 27.1967 181.685 26.9483 181.853 26.7C182.025 26.4462 182.171 26.1682 182.29 25.8658C182.409 25.5581 182.5 25.199 182.565 24.7887C182.635 24.3784 182.681 23.8897 182.703 23.3228L182.8 20.2372ZM183.318 20.2372H188.874V29H186.93V21.8894H183.318V20.2372ZM180.532 27.4451H190.073V31.6078H188.121V29H182.509V31.6078H180.524L180.532 27.4451ZM196.406 27.2426V23.0637C196.406 22.7505 196.349 22.4806 196.236 22.2538C196.122 22.027 195.95 21.8516 195.717 21.7274C195.491 21.6032 195.205 21.5411 194.859 21.5411C194.54 21.5411 194.265 21.5951 194.033 21.7031C193.801 21.8111 193.62 21.9569 193.49 22.1404C193.361 22.324 193.296 22.5319 193.296 22.764H191.352C191.352 22.4185 191.436 22.0837 191.603 21.7598C191.771 21.4358 192.014 21.147 192.332 20.8932C192.651 20.6395 193.031 20.4397 193.474 20.2939C193.917 20.1482 194.414 20.0753 194.964 20.0753C195.623 20.0753 196.206 20.186 196.714 20.4073C197.227 20.6287 197.629 20.9634 197.92 21.4116C198.217 21.8543 198.366 22.4104 198.366 23.0799V26.9753C198.366 27.3749 198.393 27.7339 198.447 28.0525C198.506 28.3656 198.59 28.6383 198.698 28.8704V29H196.697C196.606 28.7894 196.533 28.5222 196.479 28.1982C196.43 27.8689 196.406 27.5503 196.406 27.2426ZM196.689 23.6711L196.706 24.8778H195.304C194.943 24.8778 194.624 24.9129 194.349 24.9831C194.073 25.0479 193.844 25.145 193.66 25.2746C193.477 25.4042 193.339 25.5608 193.247 25.7443C193.156 25.9279 193.11 26.1358 193.11 26.3679C193.11 26.6001 193.164 26.8134 193.272 27.0077C193.38 27.1967 193.536 27.3452 193.741 27.4532C193.952 27.5611 194.206 27.6151 194.503 27.6151C194.902 27.6151 195.25 27.5341 195.547 27.3722C195.85 27.2048 196.087 27.0023 196.26 26.7648C196.433 26.5218 196.525 26.2923 196.535 26.0764L197.167 26.9429C197.102 27.1643 196.992 27.4019 196.835 27.6556C196.679 27.9094 196.473 28.1523 196.22 28.3845C195.971 28.6113 195.672 28.7975 195.321 28.9433C194.975 29.0891 194.576 29.162 194.122 29.162C193.55 29.162 193.04 29.0486 192.591 28.8218C192.143 28.5897 191.792 28.2792 191.539 27.8905C191.285 27.4963 191.158 27.0509 191.158 26.5542C191.158 26.0899 191.244 25.6795 191.417 25.3232C191.595 24.9615 191.854 24.6591 192.195 24.4162C192.54 24.1732 192.961 23.9896 193.458 23.8654C193.955 23.7359 194.522 23.6711 195.159 23.6711H196.689ZM206.238 20.2372V21.7922H202.415V29H200.463V20.2372H206.238ZM209.388 26.1493L212.83 20.2372H214.782V29H212.83V23.0799L209.388 29H207.436V20.2372H209.388V26.1493ZM21.9444 46.2426V42.0637C21.9444 41.7505 21.8877 41.4806 21.7743 41.2538C21.661 41.027 21.4882 40.8516 21.256 40.7274C21.0293 40.6032 20.7431 40.5411 20.3976 40.5411C20.079 40.5411 19.8037 40.5951 19.5715 40.7031C19.3393 40.8111 19.1585 40.9569 19.0289 41.1404C18.8993 41.324 18.8345 41.5319 18.8345 41.764H16.8909C16.8909 41.4185 16.9745 41.0837 17.1419 40.7598C17.3093 40.4358 17.5522 40.147 17.8708 39.8932C18.1893 39.6395 18.57 39.4397 19.0127 39.2939C19.4554 39.1482 19.9521 39.0753 20.5029 39.0753C21.1615 39.0753 21.7447 39.186 22.2522 39.4073C22.7651 39.6287 23.1673 39.9634 23.4589 40.4116C23.7558 40.8543 23.9043 41.4104 23.9043 42.0799V45.9753C23.9043 46.3749 23.9313 46.7339 23.9853 47.0525C24.0447 47.3656 24.1284 47.6383 24.2363 47.8704V48H22.236C22.1442 47.7894 22.0713 47.5222 22.0173 47.1982C21.9687 46.8689 21.9444 46.5503 21.9444 46.2426ZM22.2279 42.6711L22.2441 43.8778H20.843C20.4813 43.8778 20.1627 43.9129 19.8874 43.9831C19.612 44.0479 19.3825 44.145 19.199 44.2746C19.0154 44.4042 18.8777 44.5608 18.7859 44.7443C18.6942 44.9279 18.6483 45.1358 18.6483 45.3679C18.6483 45.6001 18.7023 45.8134 18.8102 46.0077C18.9182 46.1967 19.0748 46.3452 19.28 46.4532C19.4905 46.5611 19.7443 46.6151 20.0412 46.6151C20.4408 46.6151 20.789 46.5341 21.086 46.3722C21.3883 46.2048 21.6259 46.0023 21.7986 45.7648C21.9714 45.5218 22.0632 45.2923 22.074 45.0764L22.7057 45.9429C22.6409 46.1643 22.5302 46.4019 22.3736 46.6556C22.2171 46.9094 22.0119 47.1523 21.7582 47.3845C21.5098 47.6113 21.2101 47.7975 20.8592 47.9433C20.5137 48.0891 20.1141 48.162 19.6606 48.162C19.0883 48.162 18.5781 48.0486 18.1299 47.8218C17.6818 47.5897 17.3309 47.2792 17.0771 46.8905C16.8234 46.4963 16.6965 46.0509 16.6965 45.5542C16.6965 45.0899 16.7829 44.6795 16.9556 44.3232C17.1338 43.9615 17.393 43.6591 17.7331 43.4162C18.0787 43.1732 18.4998 42.9896 18.9965 42.8654C19.4932 42.7359 20.0601 42.6711 20.6972 42.6711H22.2279ZM31.4442 35.3985H33.0234C33.0234 35.879 32.9559 36.2758 32.8209 36.589C32.6913 36.8967 32.497 37.1505 32.2378 37.3503C31.9841 37.5446 31.6682 37.7012 31.2903 37.82C30.9177 37.9388 30.4858 38.0467 29.9945 38.1439C29.541 38.2411 29.1306 38.395 28.7635 38.6055C28.4018 38.8107 28.0967 39.0996 27.8483 39.4721C27.6054 39.8392 27.4299 40.3117 27.3219 40.8894C27.214 41.4671 27.1816 42.1717 27.2247 43.0031V43.5538L25.6779 43.6915V43.1408C25.6779 42.1096 25.7724 41.2106 25.9614 40.4439C26.1503 39.6773 26.4176 39.0321 26.7631 38.5084C27.1141 37.9793 27.5298 37.5581 28.0103 37.245C28.4962 36.9318 29.0362 36.7159 29.6301 36.5971C30.035 36.5107 30.3724 36.4243 30.6424 36.3379C30.9123 36.2461 31.1121 36.1301 31.2417 35.9897C31.3767 35.8439 31.4442 35.6468 31.4442 35.3985ZM30.0755 39.7313C30.6586 39.7313 31.1769 39.8338 31.6304 40.039C32.0839 40.2388 32.4673 40.5195 32.7804 40.8813C33.0936 41.243 33.3311 41.6695 33.4931 42.1609C33.6605 42.6522 33.7442 43.1867 33.7442 43.7644V43.9426C33.7442 44.5473 33.6551 45.1061 33.4769 45.619C33.2987 46.1319 33.0369 46.58 32.6913 46.9634C32.3458 47.3413 31.922 47.6383 31.4199 47.8542C30.9231 48.0648 30.3535 48.1701 29.711 48.1701C29.0739 48.1701 28.5043 48.0594 28.0022 47.838C27.5001 47.6167 27.0763 47.3089 26.7307 46.9148C26.3852 46.5152 26.1233 46.0482 25.9452 45.5137C25.767 44.9792 25.6779 44.3961 25.6779 43.7644V43.5862C25.6725 43.4728 25.7022 43.3622 25.767 43.2542C25.8372 43.1462 25.9209 43.0301 26.018 42.9059C26.1152 42.7818 26.2016 42.6387 26.2772 42.4767C26.5472 41.9314 26.8657 41.4536 27.2328 41.0432C27.6 40.6329 28.0184 40.3117 28.4881 40.0795C28.9633 39.8473 29.4924 39.7313 30.0755 39.7313ZM29.6948 41.2781C29.2089 41.2781 28.8121 41.3942 28.5043 41.6264C28.202 41.8531 27.9779 42.1555 27.8321 42.5334C27.6918 42.9113 27.6216 43.3217 27.6216 43.7644V43.9426C27.6216 44.3043 27.6621 44.6472 27.7431 44.9711C27.8241 45.295 27.9455 45.5812 28.1075 45.8296C28.2749 46.0725 28.4908 46.2642 28.7554 46.4046C29.0254 46.5449 29.3439 46.6151 29.711 46.6151C30.0836 46.6151 30.3994 46.5449 30.6586 46.4046C30.9231 46.2642 31.1364 46.0725 31.2984 45.8296C31.4657 45.5812 31.5872 45.295 31.6628 44.9711C31.7438 44.6472 31.7843 44.3043 31.7843 43.9426V43.7644C31.7843 43.4297 31.7438 43.1138 31.6628 42.8169C31.5872 42.5199 31.4657 42.258 31.2984 42.0313C31.131 41.7991 30.915 41.6156 30.6505 41.4806C30.3859 41.3456 30.0674 41.2781 29.6948 41.2781ZM34.9023 43.7158V43.5295C34.9023 42.8978 34.9941 42.312 35.1776 41.7721C35.3612 41.2268 35.6258 40.7544 35.9713 40.3549C36.3222 39.9499 36.7488 39.6368 37.2509 39.4154C37.7584 39.1887 38.3307 39.0753 38.9678 39.0753C39.6103 39.0753 40.1826 39.1887 40.6847 39.4154C41.1922 39.6368 41.6215 39.9499 41.9724 40.3549C42.3234 40.7544 42.5906 41.2268 42.7742 41.7721C42.9578 42.312 43.0495 42.8978 43.0495 43.5295V43.7158C43.0495 44.3475 42.9578 44.9333 42.7742 45.4732C42.5906 46.0131 42.3234 46.4855 41.9724 46.8905C41.6215 47.29 41.1949 47.6032 40.6928 47.8299C40.1907 48.0513 39.6211 48.162 38.984 48.162C38.3415 48.162 37.7665 48.0513 37.259 47.8299C36.7569 47.6032 36.3303 47.29 35.9794 46.8905C35.6285 46.4855 35.3612 46.0131 35.1776 45.4732C34.9941 44.9333 34.9023 44.3475 34.9023 43.7158ZM36.8541 43.5295V43.7158C36.8541 44.1099 36.8946 44.4825 36.9755 44.8334C37.0565 45.1844 37.1834 45.4921 37.3562 45.7567C37.529 46.0212 37.7503 46.2291 38.0203 46.3803C38.2902 46.5314 38.6115 46.607 38.984 46.607C39.3458 46.607 39.6589 46.5314 39.9235 46.3803C40.1934 46.2291 40.4148 46.0212 40.5875 45.7567C40.7603 45.4921 40.8872 45.1844 40.9682 44.8334C41.0546 44.4825 41.0978 44.1099 41.0978 43.7158V43.5295C41.0978 43.1408 41.0546 42.7737 40.9682 42.4281C40.8872 42.0772 40.7576 41.7667 40.5794 41.4968C40.4067 41.2268 40.1853 41.0163 39.9154 40.8651C39.6508 40.7085 39.335 40.6302 38.9678 40.6302C38.6007 40.6302 38.2821 40.7085 38.0122 40.8651C37.7476 41.0163 37.529 41.2268 37.3562 41.4968C37.1834 41.7667 37.0565 42.0772 36.9755 42.4281C36.8946 42.7737 36.8541 43.1408 36.8541 43.5295ZM50.6704 42.8978V44.4366H46.1351V42.8978H50.6704ZM46.702 39.2372V48H44.7503V39.2372H46.702ZM52.0796 39.2372V48H50.1278V39.2372H52.0796ZM58.024 48.162C57.3761 48.162 56.7903 48.0567 56.2666 47.8461C55.7482 47.6302 55.3055 47.3305 54.9384 46.9472C54.5766 46.5638 54.2986 46.113 54.1042 45.5947C53.9098 45.0764 53.8127 44.5176 53.8127 43.9183V43.5943C53.8127 42.9086 53.9125 42.2877 54.1123 41.7316C54.3121 41.1755 54.5901 40.7004 54.9465 40.3063C55.3028 39.9067 55.724 39.6017 56.2099 39.3911C56.6958 39.1806 57.2222 39.0753 57.7891 39.0753C58.4154 39.0753 58.9634 39.1806 59.4331 39.3911C59.9029 39.6017 60.2916 39.8986 60.5993 40.282C60.9125 40.6599 61.1447 41.1107 61.2958 41.6344C61.4524 42.1582 61.5307 42.7359 61.5307 43.3676V44.2017H54.7602V42.8007H59.6032V42.6468C59.5924 42.2958 59.5222 41.9665 59.3926 41.6587C59.2685 41.351 59.0768 41.1026 58.8176 40.9137C58.5585 40.7247 58.2129 40.6302 57.781 40.6302C57.4571 40.6302 57.1682 40.7004 56.9145 40.8408C56.6661 40.9758 56.4582 41.1728 56.2909 41.432C56.1235 41.6911 55.9939 42.0043 55.9021 42.3714C55.8157 42.7332 55.7725 43.1408 55.7725 43.5943V43.9183C55.7725 44.3016 55.8238 44.658 55.9264 44.9873C56.0344 45.3112 56.191 45.5947 56.3961 45.8377C56.6013 46.0806 56.8497 46.2723 57.1412 46.4127C57.4328 46.5476 57.7648 46.6151 58.1374 46.6151C58.6071 46.6151 59.0255 46.5206 59.3926 46.3317C59.7598 46.1427 60.0783 45.8755 60.3483 45.5299L61.3768 46.526C61.1878 46.8014 60.9422 47.066 60.6398 47.3197C60.3375 47.5681 59.9677 47.7705 59.5303 47.9271C59.0984 48.0837 58.5963 48.162 58.024 48.162ZM69.0382 42.8978V44.4366H64.5029V42.8978H69.0382ZM65.0698 39.2372V48H63.118V39.2372H65.0698ZM70.4473 39.2372V48H68.4955V39.2372H70.4473ZM76.5942 39.2372V48H74.6343V39.2372H76.5942ZM79.4692 39.2372V40.776H71.8079V39.2372H79.4692ZM86.1101 39.2372V40.7922H81.834V39.2372H86.1101ZM87.6408 39.2372V48H85.689V39.2372H87.6408ZM81.3562 39.2372H83.2837L83.0488 43.57C83.0165 44.2125 82.9517 44.7794 82.8545 45.2707C82.7627 45.7567 82.6385 46.1751 82.4819 46.526C82.3254 46.8716 82.1337 47.1523 81.9069 47.3683C81.6802 47.5843 81.4156 47.7435 81.1133 47.8461C80.8109 47.9487 80.4708 48 80.0928 48H79.4854L79.4773 46.3965L79.7851 46.3722C79.9849 46.356 80.1576 46.3047 80.3034 46.2183C80.4492 46.1265 80.5734 45.9969 80.6759 45.8296C80.7839 45.6622 80.8703 45.4462 80.9351 45.1817C81.0053 44.9171 81.0593 44.604 81.0971 44.2422C81.1403 43.8805 81.1727 43.4593 81.1943 42.9788L81.3562 39.2372ZM94.6542 46.2426V42.0637C94.6542 41.7505 94.5975 41.4806 94.4842 41.2538C94.3708 41.027 94.198 40.8516 93.9658 40.7274C93.7391 40.6032 93.4529 40.5411 93.1074 40.5411C92.7888 40.5411 92.5135 40.5951 92.2813 40.7031C92.0492 40.8111 91.8683 40.9569 91.7387 41.1404C91.6091 41.324 91.5443 41.5319 91.5443 41.764H89.6007C89.6007 41.4185 89.6843 41.0837 89.8517 40.7598C90.0191 40.4358 90.2621 40.147 90.5806 39.8932C90.8991 39.6395 91.2798 39.4397 91.7225 39.2939C92.1652 39.1482 92.662 39.0753 93.2127 39.0753C93.8714 39.0753 94.4545 39.186 94.962 39.4073C95.4749 39.6287 95.8771 39.9634 96.1687 40.4116C96.4656 40.8543 96.6141 41.4104 96.6141 42.0799V45.9753C96.6141 46.3749 96.6411 46.7339 96.6951 47.0525C96.7545 47.3656 96.8382 47.6383 96.9462 47.8704V48H94.9458C94.854 47.7894 94.7811 47.5222 94.7271 47.1982C94.6785 46.8689 94.6542 46.5503 94.6542 46.2426ZM94.9377 42.6711L94.9539 43.8778H93.5528C93.1911 43.8778 92.8725 43.9129 92.5972 43.9831C92.3218 44.0479 92.0924 44.145 91.9088 44.2746C91.7252 44.4042 91.5875 44.5608 91.4957 44.7443C91.404 44.9279 91.3581 45.1358 91.3581 45.3679C91.3581 45.6001 91.4121 45.8134 91.52 46.0077C91.628 46.1967 91.7846 46.3452 91.9898 46.4532C92.2003 46.5611 92.4541 46.6151 92.751 46.6151C93.1506 46.6151 93.4988 46.5341 93.7958 46.3722C94.0981 46.2048 94.3357 46.0023 94.5085 45.7648C94.6812 45.5218 94.773 45.2923 94.7838 45.0764L95.4155 45.9429C95.3507 46.1643 95.24 46.4019 95.0835 46.6556C94.9269 46.9094 94.7217 47.1523 94.468 47.3845C94.2196 47.6113 93.9199 47.7975 93.569 47.9433C93.2235 48.0891 92.8239 48.162 92.3704 48.162C91.7981 48.162 91.2879 48.0486 90.8398 47.8218C90.3916 47.5897 90.0407 47.2792 89.7869 46.8905C89.5332 46.4963 89.4063 46.0509 89.4063 45.5542C89.4063 45.0899 89.4927 44.6795 89.6655 44.3232C89.8436 43.9615 90.1028 43.6591 90.4429 43.4162C90.7885 43.1732 91.2096 42.9896 91.7063 42.8654C92.203 42.7359 92.7699 42.6711 93.407 42.6711H94.9377ZM100.615 40.9218V51.369H98.6631V39.2372H100.461L100.615 40.9218ZM106.324 43.5376V43.7077C106.324 44.3448 106.249 44.936 106.098 45.4813C105.952 46.0212 105.733 46.4936 105.442 46.8986C105.156 47.2981 104.802 47.6086 104.381 47.8299C103.96 48.0513 103.474 48.162 102.923 48.162C102.378 48.162 101.9 48.0621 101.49 47.8623C101.085 47.6572 100.742 47.3683 100.461 46.9958C100.18 46.6232 99.9535 46.1859 99.7807 45.6838C99.6133 45.1763 99.4945 44.6202 99.4243 44.0155V43.3595C99.4945 42.717 99.6133 42.1339 99.7807 41.6102C99.9535 41.0864 100.18 40.6356 100.461 40.2577C100.742 39.8797 101.085 39.5882 101.49 39.383C101.894 39.1779 102.367 39.0753 102.907 39.0753C103.457 39.0753 103.946 39.1833 104.373 39.3992C104.799 39.6098 105.158 39.9121 105.45 40.3063C105.741 40.695 105.96 41.1647 106.106 41.7154C106.252 42.2607 106.324 42.8681 106.324 43.5376ZM104.373 43.7077V43.5376C104.373 43.1327 104.335 42.7575 104.259 42.4119C104.184 42.061 104.065 41.7532 103.903 41.4887C103.741 41.2241 103.533 41.019 103.279 40.8732C103.031 40.722 102.731 40.6464 102.38 40.6464C102.035 40.6464 101.738 40.7058 101.49 40.8246C101.241 40.938 101.033 41.0972 100.866 41.3024C100.699 41.5076 100.569 41.7478 100.477 42.0232C100.385 42.2931 100.321 42.5874 100.283 42.9059V44.4771C100.348 44.8658 100.458 45.2222 100.615 45.5461C100.771 45.8701 100.993 46.1292 101.279 46.3236C101.57 46.5125 101.943 46.607 102.397 46.607C102.748 46.607 103.047 46.5314 103.296 46.3803C103.544 46.2291 103.746 46.0212 103.903 45.7567C104.065 45.4867 104.184 45.1763 104.259 44.8253C104.335 44.4744 104.373 44.1018 104.373 43.7077ZM115.695 46.607C116.013 46.607 116.299 46.5449 116.553 46.4208C116.812 46.2912 117.02 46.113 117.177 45.8862C117.339 45.6595 117.428 45.3976 117.444 45.1007H119.282C119.271 45.6676 119.104 46.1832 118.78 46.6475C118.456 47.1118 118.027 47.4817 117.492 47.757C116.958 48.027 116.367 48.162 115.719 48.162C115.049 48.162 114.466 48.0486 113.97 47.8218C113.473 47.5897 113.06 47.2711 112.73 46.8662C112.401 46.4613 112.153 45.9942 111.985 45.4651C111.823 44.936 111.742 44.3691 111.742 43.7644V43.4809C111.742 42.8762 111.823 42.3093 111.985 41.7802C112.153 41.2457 112.401 40.776 112.73 40.3711C113.06 39.9661 113.473 39.6503 113.97 39.4235C114.466 39.1914 115.047 39.0753 115.711 39.0753C116.413 39.0753 117.028 39.2156 117.557 39.4964C118.086 39.7718 118.502 40.1578 118.804 40.6545C119.112 41.1458 119.271 41.7181 119.282 42.3714H117.444C117.428 42.0475 117.347 41.7559 117.201 41.4968C117.061 41.2322 116.861 41.0217 116.602 40.8651C116.348 40.7085 116.043 40.6302 115.686 40.6302C115.292 40.6302 114.966 40.7112 114.707 40.8732C114.447 41.0297 114.245 41.2457 114.099 41.5211C113.953 41.791 113.848 42.0961 113.783 42.4362C113.724 42.771 113.694 43.1192 113.694 43.4809V43.7644C113.694 44.1261 113.724 44.4771 113.783 44.8172C113.843 45.1574 113.945 45.4624 114.091 45.7324C114.242 45.9969 114.447 46.2102 114.707 46.3722C114.966 46.5287 115.295 46.607 115.695 46.607ZM120.408 43.7158V43.5295C120.408 42.8978 120.5 42.312 120.683 41.7721C120.867 41.2268 121.131 40.7544 121.477 40.3549C121.828 39.9499 122.254 39.6368 122.757 39.4154C123.264 39.1887 123.836 39.0753 124.474 39.0753C125.116 39.0753 125.688 39.1887 126.19 39.4154C126.698 39.6368 127.127 39.9499 127.478 40.3549C127.829 40.7544 128.096 41.2268 128.28 41.7721C128.463 42.312 128.555 42.8978 128.555 43.5295V43.7158C128.555 44.3475 128.463 44.9333 128.28 45.4732C128.096 46.0131 127.829 46.4855 127.478 46.8905C127.127 47.29 126.701 47.6032 126.199 47.8299C125.696 48.0513 125.127 48.162 124.49 48.162C123.847 48.162 123.272 48.0513 122.765 47.8299C122.263 47.6032 121.836 47.29 121.485 46.8905C121.134 46.4855 120.867 46.0131 120.683 45.4732C120.5 44.9333 120.408 44.3475 120.408 43.7158ZM122.36 43.5295V43.7158C122.36 44.1099 122.4 44.4825 122.481 44.8334C122.562 45.1844 122.689 45.4921 122.862 45.7567C123.035 46.0212 123.256 46.2291 123.526 46.3803C123.796 46.5314 124.117 46.607 124.49 46.607C124.851 46.607 125.165 46.5314 125.429 46.3803C125.699 46.2291 125.92 46.0212 126.093 45.7567C126.266 45.4921 126.393 45.1844 126.474 44.8334C126.56 44.4825 126.603 44.1099 126.603 43.7158V43.5295C126.603 43.1408 126.56 42.7737 126.474 42.4281C126.393 42.0772 126.263 41.7667 126.085 41.4968C125.912 41.2268 125.691 41.0163 125.421 40.8651C125.157 40.7085 124.841 40.6302 124.474 40.6302C124.106 40.6302 123.788 40.7085 123.518 40.8651C123.253 41.0163 123.035 41.2268 122.862 41.4968C122.689 41.7667 122.562 42.0772 122.481 42.4281C122.4 42.7737 122.36 43.1408 122.36 43.5295ZM136.176 42.8978V44.4366H131.641V42.8978H136.176ZM132.208 39.2372V48H130.256V39.2372H132.208ZM137.585 39.2372V48H135.633V39.2372H137.585ZM141.683 45.1493L145.125 39.2372H147.077V48H145.125V42.0799L141.683 48H139.731V39.2372H141.683V45.1493Z" fill="#638BBA"/>
<path d="M25.41 62.9456V86H20.4573V68.5787L15.1091 70.2085V66.3792L24.9195 62.9456H25.41ZM33.0684 83.6582C33.0684 82.9409 33.3216 82.3396 33.8279 81.8543C34.3448 81.3691 35.0147 81.1265 35.8375 81.1265C36.6708 81.1265 37.3354 81.3691 37.8312 81.8543C38.3375 82.3396 38.5907 82.9409 38.5907 83.6582C38.5907 84.3649 38.3375 84.9609 37.8312 85.4462C37.3354 85.9314 36.6708 86.1741 35.8375 86.1741C35.0147 86.1741 34.3448 85.9314 33.8279 85.4462C33.3216 84.9609 33.0684 84.3649 33.0684 83.6582ZM47.0403 72.3762H49.5562C50.2735 72.3762 50.8642 72.2496 51.3284 71.9965C51.8031 71.7433 52.1512 71.3846 52.3727 70.9205C52.6048 70.4564 52.7208 69.9131 52.7208 69.2907C52.7208 68.7527 52.6153 68.2728 52.4044 67.8508C52.1934 67.4289 51.8716 67.0966 51.4391 66.8539C51.0172 66.6008 50.4687 66.4742 49.7935 66.4742C49.3083 66.4742 48.8441 66.5744 48.4011 66.7748C47.9686 66.9647 47.6152 67.2442 47.3409 67.6135C47.0667 67.9721 46.9295 68.4046 46.9295 68.911H41.9769C41.9769 67.624 42.325 66.5111 43.0212 65.5723C43.728 64.6334 44.6615 63.9108 45.8219 63.4045C46.9928 62.8876 48.2692 62.6291 49.6511 62.6291C51.244 62.6291 52.6417 62.8823 53.8443 63.3887C55.0574 63.8845 55.9962 64.6229 56.6608 65.6039C57.3359 66.5744 57.6735 67.777 57.6735 69.2116C57.6735 69.9606 57.4941 70.6832 57.1355 71.3794C56.7874 72.065 56.2863 72.6769 55.6323 73.2149C54.9888 73.7423 54.2187 74.1643 53.3221 74.4807C52.436 74.7866 51.4497 74.9396 50.3632 74.9396H47.0403V72.3762ZM47.0403 76.0947V73.5788H50.3632C51.5657 73.5788 52.6417 73.7159 53.5911 73.9902C54.5405 74.2645 55.3475 74.66 56.012 75.1769C56.6766 75.6938 57.183 76.3215 57.5311 77.0599C57.8792 77.7983 58.0532 78.6211 58.0532 79.5283C58.0532 80.6043 57.8423 81.5642 57.4203 82.4081C56.9984 83.252 56.4076 83.9641 55.6481 84.5443C54.8886 85.1245 53.9972 85.5675 52.974 85.8734C51.9508 86.1688 50.8431 86.3165 49.6511 86.3165C48.6912 86.3165 47.7365 86.1846 46.7871 85.9209C45.8377 85.6572 44.978 85.2563 44.2079 84.7183C43.4379 84.1698 42.8208 83.4788 42.3566 82.6455C41.8925 81.8016 41.6604 80.7994 41.6604 79.6391H46.6131C46.6131 80.1771 46.7502 80.6623 47.0245 81.0948C47.3093 81.5168 47.6943 81.8543 48.1796 82.1075C48.6754 82.3501 49.2133 82.4714 49.7935 82.4714C50.4898 82.4714 51.0805 82.3448 51.5657 82.0917C52.0615 81.828 52.436 81.4693 52.6892 81.0157C52.9529 80.5621 53.0848 80.0399 53.0848 79.4492C53.0848 78.6475 52.9423 78.004 52.6575 77.5188C52.3833 77.023 51.9824 76.6643 51.455 76.4428C50.9275 76.2107 50.2946 76.0947 49.5562 76.0947H47.0403ZM65.3952 75.62L61.471 74.6864L62.816 62.9614H76.0126V66.8698H66.8668L66.3129 71.7275C66.5978 71.5587 67.0461 71.3741 67.6579 71.1737C68.2697 70.9627 68.9554 70.8572 69.7149 70.8572C70.8436 70.8572 71.8458 71.0313 72.7213 71.3794C73.5969 71.7275 74.3353 72.2338 74.9366 72.8984C75.5484 73.5524 76.0073 74.3594 76.3132 75.3193C76.6297 76.2793 76.7879 77.3711 76.7879 78.5947C76.7879 79.6074 76.6297 80.5779 76.3132 81.5062C75.9967 82.424 75.5115 83.2468 74.8575 83.9746C74.214 84.6919 73.3965 85.2616 72.4049 85.6835C71.4133 86.1055 70.2476 86.3165 68.9079 86.3165C67.8953 86.3165 66.9142 86.1635 65.9648 85.8576C65.0154 85.5517 64.161 85.1086 63.4015 84.5284C62.6525 83.9377 62.0565 83.2204 61.6135 82.3765C61.181 81.5326 60.9594 80.5832 60.9489 79.5283H65.8857C65.9385 80.1401 66.0914 80.6676 66.3446 81.1106C66.5978 81.5431 66.9406 81.8807 67.3731 82.1233C67.8056 82.3554 68.3067 82.4714 68.8763 82.4714C69.4248 82.4714 69.889 82.3659 70.2687 82.155C70.6485 81.9334 70.9491 81.6328 71.1707 81.253C71.4027 80.8733 71.5715 80.4302 71.677 79.9239C71.7825 79.4176 71.8352 78.8743 71.8352 78.2941C71.8352 77.6928 71.7667 77.1548 71.6295 76.6801C71.4924 76.1949 71.2814 75.7835 70.9966 75.4459C70.7118 75.0978 70.3479 74.8341 69.9048 74.6548C69.4723 74.4649 68.9501 74.37 68.3383 74.37C67.5366 74.37 66.9089 74.5018 66.4553 74.7655C66.0017 75.0293 65.6484 75.3141 65.3952 75.62ZM98.4498 80.4302L102.643 68.8793H106.567L100.111 86H96.8042L90.38 68.8793H94.3042L98.4498 80.4302ZM93.1649 68.8793V86H88.2122V68.8793H93.1649ZM103.909 86V68.8793H108.846V86H103.909ZM124.21 68.8793V72.7243H115.76V68.8793H124.21ZM127.707 68.8793V86H122.77V68.8793H127.707ZM114.51 68.8793H119.352L118.878 77.5979C118.814 78.8321 118.677 79.9133 118.466 80.8416C118.266 81.7699 117.991 82.5611 117.643 83.2151C117.306 83.8691 116.9 84.4019 116.425 84.8133C115.95 85.2247 115.407 85.5253 114.795 85.7152C114.194 85.9051 113.535 86 112.817 86H111.314L111.235 82.155L111.82 82.0917C112.137 82.06 112.411 81.9651 112.643 81.8069C112.886 81.6486 113.092 81.4218 113.26 81.1265C113.44 80.8311 113.593 80.4513 113.719 79.9872C113.846 79.523 113.946 78.9798 114.02 78.3574C114.104 77.7245 114.162 76.9966 114.194 76.1738L114.51 68.8793ZM142.707 75.6833V79.4967H134.084V75.6833H142.707ZM135.808 68.8793V86H130.872V68.8793H135.808ZM145.967 68.8793V86H140.998V68.8793H145.967Z" fill="#003C82"/>
</svg>
