<svg width="295" height="239" viewBox="0 0 295 239" fill="none" xmlns="http://www.w3.org/2000/svg">
<g clip-path="url(#clip0_29_17096)">
<rect width="295" height="239" rx="7.20131" fill="#EAF6FC"/>
<path d="M18.0797 26.6185L21.1697 18.6933H23.4829L19.2573 28.6478C19.1236 28.954 18.9705 29.2519 18.7979 29.5414C18.6309 29.8254 18.4277 30.0787 18.1883 30.3014C17.9489 30.5241 17.6594 30.7022 17.3198 30.8358C16.9802 30.9639 16.5682 31.0279 16.0838 31.0279C15.9558 31.0279 15.7999 31.0223 15.6162 31.0112C15.438 31.0001 15.3072 30.9889 15.2237 30.9778L15.2404 29.3326C15.3072 29.3438 15.4185 29.3521 15.5744 29.3577C15.7359 29.3633 15.8528 29.366 15.9252 29.366C16.2481 29.366 16.5042 29.3131 16.6935 29.2074C16.8828 29.096 17.0331 28.9485 17.1444 28.7648C17.2613 28.5755 17.3643 28.3695 17.4534 28.1468L18.0797 26.6185ZM15.7581 18.6933L18.8146 25.4243L19.4159 27.6123L17.7875 27.6708L13.4699 18.6933H15.7581ZM19.775 15.5783H21.2699C21.2699 16.0404 21.1585 16.4496 20.9358 16.8059C20.7187 17.1567 20.4069 17.4323 20.0005 17.6327C19.5997 17.8331 19.1209 17.9333 18.5641 17.9333C17.7234 17.9333 17.0581 17.7162 16.5682 17.282C16.0838 16.8421 15.8416 16.2743 15.8416 15.5783H17.3365C17.3365 15.8901 17.4284 16.1657 17.6121 16.4051C17.8014 16.6389 18.1187 16.7558 18.5641 16.7558C19.0039 16.7558 19.3157 16.6389 19.4994 16.4051C19.6832 16.1657 19.775 15.8901 19.775 15.5783ZM29.0698 21.8166V30.8525H27.0489V21.8166H29.0698ZM32.0345 21.8166V23.4033H24.1343V21.8166H32.0345ZM35.5503 21.8166V30.8525H33.5377V21.8166H35.5503ZM41.4462 21.8166L37.3792 27.2532H35.0826L34.8154 25.4327H36.494L38.9325 21.8166H41.4462ZM39.0912 30.8525L36.3687 26.9108L37.9554 25.7667L41.7385 30.8525H39.0912ZM47.9267 29.0403V24.7312C47.9267 24.4083 47.8682 24.1299 47.7513 23.896C47.6344 23.6622 47.4562 23.4813 47.2168 23.3532C46.983 23.2252 46.6879 23.1612 46.3316 23.1612C46.0031 23.1612 45.7192 23.2168 45.4798 23.3282C45.2404 23.4395 45.0539 23.5898 44.9203 23.7791C44.7867 23.9684 44.7198 24.1828 44.7198 24.4222H42.7156C42.7156 24.0659 42.8019 23.7207 42.9745 23.3866C43.147 23.0526 43.3976 22.7547 43.7261 22.4931C44.0545 22.2314 44.447 22.0254 44.9036 21.8751C45.3601 21.7248 45.8723 21.6496 46.4402 21.6496C47.1194 21.6496 47.7207 21.7637 48.244 21.992C48.7729 22.2203 49.1877 22.5654 49.4883 23.0275C49.7945 23.4841 49.9476 24.0575 49.9476 24.7479V28.7648C49.9476 29.1767 49.9755 29.547 50.0312 29.8755C50.0924 30.1984 50.1787 30.4795 50.29 30.7189V30.8525H48.2273C48.1327 30.6354 48.0575 30.3598 48.0018 30.0258C47.9517 29.6862 47.9267 29.3577 47.9267 29.0403ZM48.219 25.3575L48.2357 26.6018H46.7909C46.4179 26.6018 46.0894 26.638 45.8055 26.7104C45.5216 26.7772 45.2849 26.8774 45.0956 27.011C44.9064 27.1446 44.7644 27.3061 44.6697 27.4954C44.5751 27.6847 44.5278 27.899 44.5278 28.1384C44.5278 28.3778 44.5834 28.5977 44.6948 28.7982C44.8061 28.993 44.9676 29.1461 45.1792 29.2575C45.3963 29.3688 45.658 29.4245 45.9642 29.4245C46.3762 29.4245 46.7352 29.341 47.0415 29.174C47.3532 29.0014 47.5982 28.7926 47.7764 28.5476C47.9545 28.2971 48.0492 28.0605 48.0603 27.8378L48.7117 28.7314C48.6449 28.9596 48.5307 29.2046 48.3693 29.4663C48.2078 29.7279 47.9963 29.9785 47.7346 30.2179C47.4785 30.4517 47.1695 30.6438 46.8076 30.7941C46.4513 30.9444 46.0393 31.0196 45.5717 31.0196C44.9815 31.0196 44.4554 30.9026 43.9933 30.6688C43.5312 30.4294 43.1693 30.1093 42.9076 29.7084C42.646 29.302 42.5151 28.8427 42.5151 28.3305C42.5151 27.8517 42.6042 27.4286 42.7824 27.0611C42.9661 26.6881 43.2333 26.3763 43.5841 26.1258C43.9404 25.8753 44.3747 25.686 44.8869 25.5579C45.3991 25.4243 45.9836 25.3575 46.6406 25.3575H48.219ZM55.7934 26.535H54.0564V25.5162H55.4594C55.8157 25.5162 56.0996 25.4688 56.3112 25.3742C56.5283 25.2796 56.6814 25.1487 56.7705 24.9817C56.8652 24.8091 56.9125 24.6087 56.9125 24.3804C56.9125 24.18 56.8652 23.9907 56.7705 23.8125C56.6814 23.6288 56.5283 23.4785 56.3112 23.3616C56.0941 23.2447 55.799 23.1862 55.426 23.1862C55.1198 23.1862 54.8442 23.2363 54.5992 23.3365C54.3598 23.4367 54.1705 23.5759 54.0314 23.7541C53.8922 23.9322 53.8226 24.1382 53.8226 24.3721H51.81C51.81 23.8098 51.9686 23.3254 52.286 22.919C52.6089 22.5125 53.0404 22.2008 53.5804 21.9836C54.1204 21.7665 54.7134 21.6579 55.3592 21.6579C55.9104 21.6579 56.4059 21.7164 56.8457 21.8333C57.2855 21.9447 57.6585 22.1117 57.9647 22.3344C58.2765 22.5515 58.5131 22.8243 58.6746 23.1528C58.8416 23.4757 58.9251 23.8515 58.9251 24.2802C58.9251 24.5864 58.8527 24.8759 58.708 25.1487C58.5632 25.4215 58.3545 25.6637 58.0816 25.8753C57.8088 26.0813 57.4776 26.2427 57.0879 26.3596C56.7037 26.4765 56.2722 26.535 55.7934 26.535ZM54.0564 25.9504H55.7934C56.3279 25.9504 56.8011 26.0033 57.2131 26.1091C57.6251 26.2093 57.9703 26.3596 58.2487 26.5601C58.527 26.7605 58.7358 27.0082 58.875 27.3033C59.0198 27.5928 59.0921 27.9269 59.0921 28.3054C59.0921 28.7286 59.0003 29.1099 58.8165 29.4495C58.6384 29.7836 58.3823 30.0675 58.0482 30.3014C57.7198 30.5352 57.3273 30.7134 56.8707 30.8358C56.4142 30.9583 55.9104 31.0196 55.3592 31.0196C54.7579 31.0196 54.1733 30.9193 53.6054 30.7189C53.0431 30.5185 52.5783 30.2095 52.2108 29.7919C51.8489 29.3688 51.668 28.8316 51.668 28.1802H53.6806C53.6806 28.4084 53.7502 28.6228 53.8894 28.8232C54.0286 29.0236 54.229 29.1879 54.4907 29.3159C54.7523 29.4384 55.0669 29.4997 55.4343 29.4997C55.8129 29.4997 56.1219 29.4412 56.3613 29.3243C56.6007 29.2018 56.7789 29.0431 56.8958 28.8483C57.0127 28.6478 57.0712 28.4363 57.0712 28.2136C57.0712 27.9129 57.0127 27.6708 56.8958 27.487C56.7789 27.3033 56.6007 27.1697 56.3613 27.0862C56.1219 26.9971 55.8213 26.9526 55.4594 26.9526H54.0564V25.9504ZM62.8835 27.9129L66.4328 21.8166H68.4454V30.8525H66.4328V24.7479L62.8835 30.8525H60.8709V21.8166H62.8835V27.9129ZM76.6462 21.8166V23.42H72.2368V21.8166H76.6462ZM78.2246 21.8166V30.8525H76.2119V21.8166H78.2246ZM71.7441 21.8166H73.7317L73.4895 26.2845C73.4561 26.947 73.3893 27.5316 73.2891 28.0382C73.1944 28.5393 73.0664 28.9708 72.9049 29.3326C72.7434 29.6889 72.5458 29.9785 72.312 30.2012C72.0781 30.4238 71.8053 30.5881 71.4936 30.6939C71.1818 30.7996 70.831 30.8525 70.4413 30.8525H69.815L69.8066 29.199L70.124 29.174C70.33 29.1573 70.5081 29.1044 70.6584 29.0153C70.8088 28.9206 70.9368 28.787 71.0426 28.6144C71.1539 28.4418 71.243 28.2192 71.3098 27.9463C71.3822 27.6735 71.4379 27.3506 71.4769 26.9776C71.5214 26.6046 71.5548 26.1703 71.5771 25.6748L71.7441 21.8166ZM86.3753 21.8166V23.42H82.4335V30.8525H80.4209V21.8166H86.3753ZM92.6386 29.0403V24.7312C92.6386 24.4083 92.5802 24.1299 92.4632 23.896C92.3463 23.6622 92.1682 23.4813 91.9288 23.3532C91.6949 23.2252 91.3999 23.1612 91.0436 23.1612C90.7151 23.1612 90.4311 23.2168 90.1917 23.3282C89.9523 23.4395 89.7658 23.5898 89.6322 23.7791C89.4986 23.9684 89.4318 24.1828 89.4318 24.4222H87.4275C87.4275 24.0659 87.5138 23.7207 87.6864 23.3866C87.859 23.0526 88.1095 22.7547 88.438 22.4931C88.7665 22.2314 89.159 22.0254 89.6155 21.8751C90.072 21.7248 90.5842 21.6496 91.1521 21.6496C91.8313 21.6496 92.4326 21.7637 92.956 21.992C93.4849 22.2203 93.8996 22.5654 94.2003 23.0275C94.5065 23.4841 94.6596 24.0575 94.6596 24.7479V28.7648C94.6596 29.1767 94.6874 29.547 94.7431 29.8755C94.8043 30.1984 94.8906 30.4795 95.002 30.7189V30.8525H92.9393C92.8446 30.6354 92.7695 30.3598 92.7138 30.0258C92.6637 29.6862 92.6386 29.3577 92.6386 29.0403ZM92.9309 25.3575L92.9476 26.6018H91.5029C91.1298 26.6018 90.8014 26.638 90.5174 26.7104C90.2335 26.7772 89.9969 26.8774 89.8076 27.011C89.6183 27.1446 89.4763 27.3061 89.3817 27.4954C89.287 27.6847 89.2397 27.899 89.2397 28.1384C89.2397 28.3778 89.2954 28.5977 89.4067 28.7982C89.5181 28.993 89.6795 29.1461 89.8911 29.2575C90.1082 29.3688 90.3699 29.4245 90.6761 29.4245C91.0881 29.4245 91.4472 29.341 91.7534 29.174C92.0652 29.0014 92.3101 28.7926 92.4883 28.5476C92.6665 28.2971 92.7611 28.0605 92.7722 27.8378L93.4236 28.7314C93.3568 28.9596 93.2427 29.2046 93.0812 29.4663C92.9198 29.7279 92.7082 29.9785 92.4465 30.2179C92.1904 30.4517 91.8814 30.6438 91.5196 30.7941C91.1633 30.9444 90.7513 31.0196 90.2836 31.0196C89.6935 31.0196 89.1673 30.9026 88.7052 30.6688C88.2431 30.4294 87.8813 30.1093 87.6196 29.7084C87.3579 29.302 87.2271 28.8427 87.2271 28.3305C87.2271 27.8517 87.3162 27.4286 87.4943 27.0611C87.678 26.6881 87.9453 26.3763 88.296 26.1258C88.6523 25.8753 89.0866 25.686 89.5988 25.5579C90.111 25.4243 90.6956 25.3575 91.3525 25.3575H92.9309ZM102.936 25.5913V27.178H98.2589V25.5913H102.936ZM98.8435 21.8166V30.8525H96.8309V21.8166H98.8435ZM104.389 21.8166V30.8525H102.376V21.8166H104.389ZM114.986 21.8166V30.8525H112.965V21.8166H114.986ZM117.951 21.8166V23.4033H110.051V21.8166H117.951ZM122.661 31.0196C121.993 31.0196 121.389 30.911 120.849 30.6939C120.314 30.4712 119.858 30.1622 119.479 29.7669C119.106 29.3716 118.819 28.9067 118.619 28.3723C118.419 27.8378 118.318 27.2616 118.318 26.6436V26.3095C118.318 25.6025 118.421 24.9622 118.627 24.3888C118.833 23.8153 119.12 23.3254 119.487 22.919C119.855 22.507 120.289 22.1924 120.79 21.9753C121.291 21.7582 121.834 21.6496 122.419 21.6496C123.065 21.6496 123.63 21.7582 124.114 21.9753C124.598 22.1924 124.999 22.4986 125.317 22.8939C125.639 23.2836 125.879 23.7485 126.035 24.2886C126.196 24.8286 126.277 25.4243 126.277 26.0757V26.9359H119.295V25.4911H124.289V25.3324C124.278 24.9706 124.206 24.6309 124.072 24.3136C123.944 23.9963 123.747 23.7402 123.479 23.5453C123.212 23.3504 122.856 23.253 122.41 23.253C122.076 23.253 121.778 23.3254 121.517 23.4701C121.261 23.6093 121.046 23.8125 120.874 24.0798C120.701 24.347 120.568 24.6699 120.473 25.0485C120.384 25.4215 120.339 25.8419 120.339 26.3095V26.6436C120.339 27.0389 120.392 27.4063 120.498 27.7459C120.609 28.08 120.771 28.3723 120.982 28.6228C121.194 28.8733 121.45 29.071 121.751 29.2157C122.051 29.3549 122.394 29.4245 122.778 29.4245C123.262 29.4245 123.694 29.3271 124.072 29.1322C124.451 28.9373 124.779 28.6618 125.058 28.3054L126.118 29.3326C125.923 29.6166 125.67 29.8894 125.358 30.151C125.047 30.4071 124.665 30.6159 124.214 30.7774C123.769 30.9388 123.251 31.0196 122.661 31.0196ZM134.018 25.5913V27.178H129.342V25.5913H134.018ZM129.926 21.8166V30.8525H127.914V21.8166H129.926ZM135.472 21.8166V30.8525H133.459V21.8166H135.472ZM139.255 21.8166H141.267L141.167 24.9984C141.139 25.9226 141.033 26.7159 140.85 27.3785C140.666 28.041 140.427 28.6005 140.131 29.057C139.836 29.508 139.502 29.8782 139.129 30.1677C138.762 30.4573 138.375 30.6855 137.969 30.8525H137.376V29.2658L137.66 29.2491C137.899 28.993 138.105 28.7369 138.278 28.4808C138.456 28.2192 138.606 27.9324 138.728 27.6207C138.851 27.3033 138.946 26.9331 139.012 26.51C139.085 26.0868 139.132 25.583 139.154 24.9984L139.255 21.8166ZM139.789 21.8166H145.518V30.8525H143.514V23.5202H139.789V21.8166ZM136.916 29.2491H146.754V33.5416H144.741V30.8525H138.954V33.5416H136.908L136.916 29.2491ZM152.174 31.0196C151.506 31.0196 150.902 30.911 150.362 30.6939C149.827 30.4712 149.371 30.1622 148.992 29.7669C148.619 29.3716 148.332 28.9067 148.132 28.3723C147.931 27.8378 147.831 27.2616 147.831 26.6436V26.3095C147.831 25.6025 147.934 24.9622 148.14 24.3888C148.346 23.8153 148.633 23.3254 149 22.919C149.368 22.507 149.802 22.1924 150.303 21.9753C150.804 21.7582 151.347 21.6496 151.932 21.6496C152.577 21.6496 153.143 21.7582 153.627 21.9753C154.111 22.1924 154.512 22.4986 154.829 22.8939C155.152 23.2836 155.392 23.7485 155.548 24.2886C155.709 24.8286 155.79 25.4243 155.79 26.0757V26.9359H148.808V25.4911H153.802V25.3324C153.791 24.9706 153.719 24.6309 153.585 24.3136C153.457 23.9963 153.259 23.7402 152.992 23.5453C152.725 23.3504 152.369 23.253 151.923 23.253C151.589 23.253 151.291 23.3254 151.03 23.4701C150.774 23.6093 150.559 23.8125 150.387 24.0798C150.214 24.347 150.08 24.6699 149.986 25.0485C149.897 25.4215 149.852 25.8419 149.852 26.3095V26.6436C149.852 27.0389 149.905 27.4063 150.011 27.7459C150.122 28.08 150.284 28.3723 150.495 28.6228C150.707 28.8733 150.963 29.071 151.264 29.2157C151.564 29.3549 151.907 29.4245 152.291 29.4245C152.775 29.4245 153.207 29.3271 153.585 29.1322C153.964 28.9373 154.292 28.6618 154.571 28.3054L155.631 29.3326C155.436 29.6166 155.183 29.8894 154.871 30.151C154.559 30.4071 154.178 30.6159 153.727 30.7774C153.282 30.9388 152.764 31.0196 152.174 31.0196ZM159.381 23.5537V34.3266H157.368V21.8166H159.222L159.381 23.5537ZM165.268 26.2511V26.4264C165.268 27.0834 165.19 27.693 165.035 28.2553C164.884 28.8121 164.659 29.2992 164.358 29.7168C164.063 30.1288 163.698 30.4489 163.264 30.6772C162.83 30.9054 162.329 31.0196 161.761 31.0196C161.199 31.0196 160.706 30.9166 160.283 30.7106C159.865 30.499 159.512 30.2012 159.222 29.817C158.933 29.4328 158.699 28.9819 158.521 28.4641C158.348 27.9408 158.226 27.3673 158.153 26.7438V26.0673C158.226 25.4048 158.348 24.8035 158.521 24.2635C158.699 23.7235 158.933 23.2586 159.222 22.8689C159.512 22.4791 159.865 22.1785 160.283 21.9669C160.7 21.7554 161.187 21.6496 161.744 21.6496C162.312 21.6496 162.816 21.7609 163.256 21.9836C163.696 22.2008 164.066 22.5125 164.366 22.919C164.667 23.3198 164.893 23.8042 165.043 24.3721C165.193 24.9344 165.268 25.5607 165.268 26.2511ZM163.256 26.4264V26.2511C163.256 25.8335 163.217 25.4466 163.139 25.0903C163.061 24.7284 162.938 24.411 162.771 24.1382C162.604 23.8654 162.39 23.6539 162.128 23.5035C161.872 23.3477 161.563 23.2697 161.201 23.2697C160.845 23.2697 160.539 23.331 160.283 23.4534C160.027 23.5704 159.812 23.7346 159.64 23.9462C159.467 24.1577 159.333 24.4055 159.239 24.6894C159.144 24.9678 159.077 25.2712 159.038 25.5997V27.2198C159.105 27.6207 159.219 27.9881 159.381 28.3221C159.542 28.6562 159.771 28.9234 160.066 29.1239C160.366 29.3187 160.75 29.4161 161.218 29.4161C161.58 29.4161 161.889 29.3382 162.145 29.1823C162.401 29.0264 162.61 28.8121 162.771 28.5393C162.938 28.2609 163.061 27.9408 163.139 27.5789C163.217 27.217 163.256 26.8329 163.256 26.4264ZM172.935 21.8166V23.42H168.525V21.8166H172.935ZM174.513 21.8166V30.8525H172.5V21.8166H174.513ZM168.033 21.8166H170.02L169.778 26.2845C169.745 26.947 169.678 27.5316 169.578 28.0382C169.483 28.5393 169.355 28.9708 169.193 29.3326C169.032 29.6889 168.834 29.9785 168.6 30.2012C168.367 30.4238 168.094 30.5881 167.782 30.6939C167.47 30.7996 167.12 30.8525 166.73 30.8525H166.103L166.095 29.199L166.412 29.174C166.618 29.1573 166.797 29.1044 166.947 29.0153C167.097 28.9206 167.225 28.787 167.331 28.6144C167.442 28.4418 167.532 28.2192 167.598 27.9463C167.671 27.6735 167.726 27.3506 167.765 26.9776C167.81 26.6046 167.843 26.1703 167.866 25.6748L168.033 21.8166ZM181.745 29.0403V24.7312C181.745 24.4083 181.687 24.1299 181.57 23.896C181.453 23.6622 181.275 23.4813 181.035 23.3532C180.801 23.2252 180.506 23.1612 180.15 23.1612C179.822 23.1612 179.538 23.2168 179.298 23.3282C179.059 23.4395 178.872 23.5898 178.739 23.7791C178.605 23.9684 178.538 24.1828 178.538 24.4222H176.534C176.534 24.0659 176.62 23.7207 176.793 23.3866C176.966 23.0526 177.216 22.7547 177.545 22.4931C177.873 22.2314 178.266 22.0254 178.722 21.8751C179.179 21.7248 179.691 21.6496 180.259 21.6496C180.938 21.6496 181.539 21.7637 182.062 21.992C182.591 22.2203 183.006 22.5654 183.307 23.0275C183.613 23.4841 183.766 24.0575 183.766 24.7479V28.7648C183.766 29.1767 183.794 29.547 183.85 29.8755C183.911 30.1984 183.997 30.4795 184.109 30.7189V30.8525H182.046C181.951 30.6354 181.876 30.3598 181.82 30.0258C181.77 29.6862 181.745 29.3577 181.745 29.0403ZM182.037 25.3575L182.054 26.6018H180.609C180.236 26.6018 179.908 26.638 179.624 26.7104C179.34 26.7772 179.103 26.8774 178.914 27.011C178.725 27.1446 178.583 27.3061 178.488 27.4954C178.394 27.6847 178.346 27.899 178.346 28.1384C178.346 28.3778 178.402 28.5977 178.513 28.7982C178.625 28.993 178.786 29.1461 178.998 29.2575C179.215 29.3688 179.476 29.4245 179.783 29.4245C180.195 29.4245 180.554 29.341 180.86 29.174C181.172 29.0014 181.417 28.7926 181.595 28.5476C181.773 28.2971 181.868 28.0605 181.879 27.8378L182.53 28.7314C182.463 28.9596 182.349 29.2046 182.188 29.4663C182.026 29.7279 181.815 29.9785 181.553 30.2179C181.297 30.4517 180.988 30.6438 180.626 30.7941C180.27 30.9444 179.858 31.0196 179.39 31.0196C178.8 31.0196 178.274 30.9026 177.812 30.6688C177.35 30.4294 176.988 30.1093 176.726 29.7084C176.464 29.302 176.334 28.8427 176.334 28.3305C176.334 27.8517 176.423 27.4286 176.601 27.0611C176.785 26.6881 177.052 26.3763 177.403 26.1258C177.759 25.8753 178.193 25.686 178.705 25.5579C179.218 25.4243 179.802 25.3575 180.459 25.3575H182.037ZM187.892 23.5537V34.3266H185.879V21.8166H187.733L187.892 23.5537ZM193.779 26.2511V26.4264C193.779 27.0834 193.701 27.693 193.545 28.2553C193.395 28.8121 193.169 29.2992 192.869 29.7168C192.574 30.1288 192.209 30.4489 191.775 30.6772C191.341 30.9054 190.84 31.0196 190.272 31.0196C189.709 31.0196 189.217 30.9166 188.794 30.7106C188.376 30.499 188.022 30.2012 187.733 29.817C187.443 29.4328 187.21 28.9819 187.031 28.4641C186.859 27.9408 186.736 27.3673 186.664 26.7438V26.0673C186.736 25.4048 186.859 24.8035 187.031 24.2635C187.21 23.7235 187.443 23.2586 187.733 22.8689C188.022 22.4791 188.376 22.1785 188.794 21.9669C189.211 21.7554 189.698 21.6496 190.255 21.6496C190.823 21.6496 191.327 21.7609 191.767 21.9836C192.206 22.2008 192.577 22.5125 192.877 22.919C193.178 23.3198 193.403 23.8042 193.554 24.3721C193.704 24.9344 193.779 25.5607 193.779 26.2511ZM191.767 26.4264V26.2511C191.767 25.8335 191.728 25.4466 191.65 25.0903C191.572 24.7284 191.449 24.411 191.282 24.1382C191.115 23.8654 190.901 23.6539 190.639 23.5035C190.383 23.3477 190.074 23.2697 189.712 23.2697C189.356 23.2697 189.05 23.331 188.794 23.4534C188.537 23.5704 188.323 23.7346 188.15 23.9462C187.978 24.1577 187.844 24.4055 187.75 24.6894C187.655 24.9678 187.588 25.2712 187.549 25.5997V27.2198C187.616 27.6207 187.73 27.9881 187.892 28.3221C188.053 28.6562 188.281 28.9234 188.576 29.1239C188.877 29.3187 189.261 29.4161 189.729 29.4161C190.091 29.4161 190.4 29.3382 190.656 29.1823C190.912 29.0264 191.121 28.8121 191.282 28.5393C191.449 28.2609 191.572 27.9408 191.65 27.5789C191.728 27.217 191.767 26.8329 191.767 26.4264ZM201.921 21.8166V30.8525H199.909V21.8166H201.921ZM207.817 21.8166L203.75 27.2532H201.454L201.187 25.4327H202.865L205.304 21.8166H207.817ZM205.462 30.8525L202.74 26.9108L204.327 25.7667L208.11 30.8525H205.462ZM208.878 29.3577V33.8422H206.865V29.3577H208.878ZM212.486 27.9129L216.035 21.8166H218.048V30.8525H216.035V24.7479L212.486 30.8525H210.473V21.8166H212.486V27.9129ZM222.256 27.9129L225.806 21.8166H227.818V30.8525H225.806V24.7479L222.256 30.8525H220.244V21.8166H222.256V27.9129ZM225.271 18.3425H226.766C226.766 18.8046 226.655 19.2139 226.432 19.5702C226.215 19.9209 225.903 20.1965 225.497 20.3969C225.096 20.5974 224.617 20.6976 224.06 20.6976C223.22 20.6976 222.554 20.4804 222.064 20.0462C221.58 19.6064 221.338 19.0385 221.338 18.3425H222.833C222.833 18.6543 222.925 18.9299 223.108 19.1693C223.298 19.4031 223.615 19.5201 224.06 19.5201C224.5 19.5201 224.812 19.4031 224.996 19.1693C225.179 18.9299 225.271 18.6543 225.271 18.3425ZM235.318 28.414L238.007 21.8166H239.752L236.002 30.8525H234.633L230.892 21.8166H232.637L235.318 28.414ZM232.119 21.8166V30.8525H230.107V21.8166H232.119ZM238.516 30.8525V21.8166H240.537V30.8525H238.516ZM247.886 29.0403V24.7312C247.886 24.4083 247.828 24.1299 247.711 23.896C247.594 23.6622 247.416 23.4813 247.176 23.3532C246.942 23.2252 246.647 23.1612 246.291 23.1612C245.963 23.1612 245.679 23.2168 245.439 23.3282C245.2 23.4395 245.013 23.5898 244.88 23.7791C244.746 23.9684 244.679 24.1828 244.679 24.4222H242.675C242.675 24.0659 242.761 23.7207 242.934 23.3866C243.106 23.0526 243.357 22.7547 243.685 22.4931C244.014 22.2314 244.406 22.0254 244.863 21.8751C245.319 21.7248 245.832 21.6496 246.4 21.6496C247.079 21.6496 247.68 21.7637 248.203 21.992C248.732 22.2203 249.147 22.5654 249.448 23.0275C249.754 23.4841 249.907 24.0575 249.907 24.7479V28.7648C249.907 29.1767 249.935 29.547 249.991 29.8755C250.052 30.1984 250.138 30.4795 250.249 30.7189V30.8525H248.187C248.092 30.6354 248.017 30.3598 247.961 30.0258C247.911 29.6862 247.886 29.3577 247.886 29.0403ZM248.178 25.3575L248.195 26.6018H246.75C246.377 26.6018 246.049 26.638 245.765 26.7104C245.481 26.7772 245.244 26.8774 245.055 27.011C244.866 27.1446 244.724 27.3061 244.629 27.4954C244.534 27.6847 244.487 27.899 244.487 28.1384C244.487 28.3778 244.543 28.5977 244.654 28.7982C244.766 28.993 244.927 29.1461 245.139 29.2575C245.356 29.3688 245.617 29.4245 245.924 29.4245C246.336 29.4245 246.695 29.341 247.001 29.174C247.313 29.0014 247.558 28.7926 247.736 28.5476C247.914 28.2971 248.009 28.0605 248.02 27.8378L248.671 28.7314C248.604 28.9596 248.49 29.2046 248.329 29.4663C248.167 29.7279 247.956 29.9785 247.694 30.2179C247.438 30.4517 247.129 30.6438 246.767 30.7941C246.411 30.9444 245.999 31.0196 245.531 31.0196C244.941 31.0196 244.415 30.9026 243.953 30.6688C243.491 30.4294 243.129 30.1093 242.867 29.7084C242.605 29.302 242.475 28.8427 242.475 28.3305C242.475 27.8517 242.564 27.4286 242.742 27.0611C242.926 26.6881 243.193 26.3763 243.543 26.1258C243.9 25.8753 244.334 25.686 244.846 25.5579C245.358 25.4243 245.943 25.3575 246.6 25.3575H248.178ZM256.07 21.8166V30.8525H254.049V21.8166H256.07ZM259.035 21.8166V23.4033H251.135V21.8166H259.035ZM262.459 27.9129L266.008 21.8166H268.021V30.8525H266.008V24.7479L262.459 30.8525H260.446V21.8166H262.459V27.9129Z" fill="#638BBA"/>
<path d="M51.7003 122.207V123.916H44.6256V122.467L47.9309 118.965C48.2403 118.609 48.4865 118.295 48.6693 118.023C48.8568 117.751 48.9928 117.505 49.0772 117.284C49.1616 117.059 49.2038 116.853 49.2038 116.665C49.2038 116.361 49.1546 116.103 49.0561 115.892C48.9623 115.681 48.824 115.519 48.6412 115.407C48.4583 115.294 48.2356 115.238 47.9731 115.238C47.6918 115.238 47.4503 115.311 47.2487 115.456C47.0471 115.601 46.8924 115.803 46.7846 116.061C46.6768 116.314 46.6228 116.602 46.6228 116.926H44.4146C44.4146 116.302 44.5647 115.735 44.8647 115.224C45.1648 114.708 45.5844 114.298 46.1235 113.993C46.6627 113.684 47.2933 113.529 48.0153 113.529C48.756 113.529 49.3773 113.646 49.8789 113.881C50.3806 114.115 50.7603 114.45 51.0182 114.886C51.276 115.322 51.405 115.847 51.405 116.462C51.405 116.808 51.3487 117.144 51.2362 117.467C51.1284 117.791 50.9713 118.112 50.765 118.431C50.5587 118.749 50.3102 119.075 50.0196 119.408C49.7289 119.736 49.4007 120.083 49.035 120.449L47.4878 122.207H51.7003ZM58.0296 113.67V123.916H55.8284V116.173L53.4514 116.898V115.196L57.8116 113.67H58.0296ZM63.4165 122.165L63.4025 123.6C63.4025 124.143 63.2688 124.685 63.0016 125.224C62.7344 125.768 62.3992 126.213 61.996 126.56L60.8708 126.005C60.9786 125.789 61.0888 125.571 61.2013 125.351C61.3185 125.135 61.4146 124.896 61.4896 124.633C61.5693 124.371 61.6092 124.064 61.6092 123.712V122.165H63.4165ZM71.9681 121.103C71.9681 121.75 71.8157 122.294 71.511 122.735C71.2062 123.175 70.789 123.506 70.2592 123.726C69.7341 123.946 69.134 124.057 68.4588 124.057C67.7884 124.057 67.186 123.946 66.6515 123.726C66.1217 123.506 65.7021 123.175 65.3927 122.735C65.0832 122.294 64.9285 121.75 64.9285 121.103C64.9285 120.662 65.0153 120.266 65.1887 119.915C65.3669 119.563 65.613 119.263 65.9271 119.014C66.2459 118.766 66.6187 118.576 67.0453 118.445C67.4766 118.313 67.9431 118.248 68.4448 118.248C69.1199 118.248 69.7224 118.365 70.2521 118.599C70.7866 118.829 71.2062 119.157 71.511 119.584C71.8157 120.011 71.9681 120.517 71.9681 121.103ZM69.7599 120.941C69.7599 120.641 69.7036 120.388 69.5911 120.182C69.4833 119.971 69.3309 119.809 69.134 119.696C68.9371 119.579 68.7073 119.521 68.4448 119.521C68.1822 119.521 67.9525 119.579 67.7556 119.696C67.5587 119.809 67.404 119.971 67.2914 120.182C67.1836 120.388 67.1297 120.641 67.1297 120.941C67.1297 121.232 67.186 121.485 67.2985 121.701C67.411 121.912 67.5657 122.073 67.7626 122.186C67.9595 122.294 68.1916 122.348 68.4588 122.348C68.7261 122.348 68.9558 122.294 69.148 122.186C69.3403 122.073 69.4903 121.912 69.5981 121.701C69.7059 121.485 69.7599 121.232 69.7599 120.941ZM71.7501 116.398C71.7501 116.928 71.6094 117.395 71.3281 117.798C71.0515 118.196 70.6647 118.508 70.1678 118.733C69.6708 118.953 69.1012 119.064 68.4588 119.064C67.8165 119.064 67.2446 118.953 66.7429 118.733C66.2459 118.508 65.8545 118.196 65.5685 117.798C65.2872 117.395 65.1465 116.928 65.1465 116.398C65.1465 115.779 65.2872 115.257 65.5685 114.83C65.8545 114.403 66.2459 114.08 66.7429 113.859C67.2399 113.639 67.8072 113.529 68.4448 113.529C69.0918 113.529 69.6638 113.639 70.1607 113.859C70.6577 114.08 71.0468 114.403 71.3281 114.83C71.6094 115.257 71.7501 115.779 71.7501 116.398ZM69.5559 116.511C69.5559 116.253 69.5114 116.03 69.4223 115.843C69.3379 115.65 69.2137 115.503 69.0496 115.4C68.8855 115.292 68.6839 115.238 68.4448 115.238C68.2151 115.238 68.0181 115.289 67.8541 115.393C67.69 115.491 67.5634 115.636 67.4743 115.829C67.3899 116.016 67.3477 116.244 67.3477 116.511C67.3477 116.773 67.3899 117.003 67.4743 117.2C67.5634 117.392 67.69 117.545 67.8541 117.657C68.0228 117.765 68.2244 117.819 68.4588 117.819C68.698 117.819 68.8972 117.765 69.0566 117.657C69.2207 117.545 69.3449 117.392 69.4293 117.2C69.5137 117.003 69.5559 116.773 69.5559 116.511ZM78.5576 113.55H78.8951V115.294H78.7685C78.2763 115.294 77.8262 115.364 77.4183 115.505C77.0151 115.646 76.6658 115.854 76.3704 116.131C76.0751 116.403 75.8477 116.74 75.6883 117.144C75.5336 117.542 75.4562 118.002 75.4562 118.522V120.266C75.4562 120.618 75.4867 120.925 75.5476 121.187C75.6133 121.445 75.707 121.661 75.8289 121.834C75.9555 122.003 76.1079 122.132 76.2861 122.221C76.4642 122.306 76.6658 122.348 76.8908 122.348C77.0924 122.348 77.2776 122.303 77.4464 122.214C77.6152 122.125 77.7605 121.998 77.8824 121.834C78.0043 121.67 78.0981 121.48 78.1637 121.265C78.2294 121.044 78.2622 120.805 78.2622 120.547C78.2622 120.276 78.227 120.029 78.1567 119.809C78.0911 119.584 77.995 119.392 77.8684 119.232C77.7465 119.073 77.5964 118.951 77.4183 118.867C77.2401 118.778 77.0432 118.733 76.8276 118.733C76.5181 118.733 76.2509 118.803 76.0258 118.944C75.8008 119.085 75.6273 119.265 75.5054 119.486C75.3835 119.706 75.3203 119.931 75.3156 120.161L74.7319 119.675C74.7319 119.357 74.7952 119.042 74.9217 118.733C75.053 118.419 75.2382 118.135 75.4773 117.882C75.7164 117.624 76.0094 117.42 76.3564 117.27C76.708 117.116 77.1089 117.038 77.5589 117.038C78.0325 117.038 78.4497 117.13 78.8107 117.312C79.1717 117.491 79.4741 117.739 79.7179 118.058C79.9664 118.377 80.1516 118.749 80.2735 119.176C80.4001 119.598 80.4634 120.05 80.4634 120.533C80.4634 121.03 80.3766 121.494 80.2032 121.926C80.0344 122.352 79.7953 122.725 79.4859 123.044C79.1764 123.363 78.806 123.611 78.3747 123.789C77.9481 123.968 77.4722 124.057 76.9471 124.057C76.4033 124.057 75.9063 123.961 75.4562 123.768C75.0108 123.576 74.6217 123.302 74.2888 122.946C73.9606 122.585 73.7051 122.153 73.5223 121.652C73.3441 121.15 73.255 120.587 73.255 119.964V119.141C73.255 118.288 73.3863 117.519 73.6489 116.834C73.9161 116.15 74.2865 115.564 74.76 115.076C75.2382 114.584 75.8008 114.206 76.4478 113.944C77.0948 113.681 77.798 113.55 78.5576 113.55ZM89.3033 116.307V123.916H87.0951V116.307H89.3033ZM91.7295 116.307V118.002H84.711V116.307H91.7295ZM94.8941 117.77V126.842H92.7V116.307H94.7464L94.8941 117.77ZM99.6411 120.027V120.175C99.6411 120.728 99.5778 121.241 99.4512 121.715C99.3246 122.184 99.1347 122.594 98.8816 122.946C98.6331 123.297 98.326 123.571 97.9603 123.768C97.5946 123.961 97.1703 124.057 96.6874 124.057C96.228 124.057 95.8294 123.961 95.4919 123.768C95.159 123.571 94.8777 123.299 94.648 122.953C94.4229 122.601 94.2401 122.2 94.0994 121.75C93.9635 121.295 93.858 120.81 93.783 120.294V120.006C93.858 119.457 93.9658 118.949 94.1065 118.48C94.2471 118.011 94.43 117.605 94.655 117.263C94.8801 116.916 95.159 116.647 95.4919 116.455C95.8248 116.262 96.2209 116.166 96.6804 116.166C97.1586 116.166 97.5829 116.258 97.9533 116.44C98.3237 116.623 98.6331 116.886 98.8816 117.228C99.1347 117.566 99.3246 117.971 99.4512 118.445C99.5778 118.918 99.6411 119.446 99.6411 120.027ZM97.4399 120.175V120.027C97.4399 119.718 97.4165 119.434 97.3696 119.176C97.3227 118.914 97.2477 118.686 97.1445 118.494C97.0414 118.297 96.9054 118.145 96.7366 118.037C96.5679 117.929 96.3616 117.875 96.1178 117.875C95.8552 117.875 95.6325 117.917 95.4497 118.002C95.2668 118.086 95.1192 118.21 95.0066 118.374C94.8941 118.534 94.8121 118.731 94.7605 118.965C94.7136 119.2 94.6878 119.467 94.6831 119.767V120.54C94.6878 120.892 94.7371 121.206 94.8308 121.483C94.9293 121.755 95.0817 121.968 95.2879 122.123C95.4989 122.273 95.7802 122.348 96.1318 122.348C96.3803 122.348 96.5866 122.294 96.7507 122.186C96.9195 122.073 97.0531 121.916 97.1516 121.715C97.2547 121.513 97.3274 121.281 97.3696 121.019C97.4165 120.756 97.4399 120.475 97.4399 120.175ZM105.851 116.307V118.016H102.095V116.307H105.851ZM107.405 116.307V123.916H105.211V116.307H107.405ZM101.54 116.307H103.692L103.481 120.182C103.453 120.73 103.392 121.211 103.298 121.623C103.209 122.036 103.087 122.388 102.932 122.678C102.782 122.969 102.602 123.206 102.391 123.389C102.18 123.571 101.938 123.705 101.666 123.789C101.399 123.874 101.106 123.916 100.787 123.916H100.119L100.084 122.207L100.344 122.179C100.485 122.165 100.607 122.123 100.71 122.052C100.818 121.982 100.909 121.881 100.984 121.75C101.064 121.619 101.132 121.45 101.188 121.244C101.244 121.037 101.289 120.796 101.322 120.519C101.359 120.238 101.385 119.915 101.399 119.549L101.54 116.307ZM114.072 119.331V121.026H110.239V119.331H114.072ZM111.006 116.307V123.916H108.811V116.307H111.006ZM115.521 116.307V123.916H113.312V116.307H115.521Z" fill="#1A60B1"/>
<path d="M173.94 138.875V149.121H171.738V141.378L169.361 142.103V140.401L173.722 138.875H173.94ZM179.277 143.066H180.395C180.714 143.066 180.977 143.01 181.183 142.897C181.394 142.785 181.549 142.625 181.647 142.419C181.75 142.213 181.802 141.971 181.802 141.695C181.802 141.456 181.755 141.242 181.661 141.055C181.568 140.867 181.425 140.72 181.232 140.612C181.045 140.499 180.801 140.443 180.501 140.443C180.285 140.443 180.079 140.487 179.882 140.577C179.69 140.661 179.533 140.785 179.411 140.949C179.289 141.109 179.228 141.301 179.228 141.526H177.027C177.027 140.954 177.182 140.459 177.491 140.042C177.805 139.625 178.22 139.304 178.736 139.079C179.256 138.849 179.823 138.734 180.438 138.734C181.146 138.734 181.767 138.847 182.301 139.072C182.84 139.292 183.258 139.62 183.553 140.056C183.853 140.487 184.003 141.022 184.003 141.66C184.003 141.992 183.923 142.314 183.764 142.623C183.609 142.928 183.387 143.2 183.096 143.439C182.81 143.673 182.468 143.861 182.069 144.001C181.675 144.137 181.237 144.205 180.754 144.205H179.277V143.066ZM179.277 144.719V143.601H180.754C181.289 143.601 181.767 143.662 182.189 143.783C182.611 143.905 182.969 144.081 183.265 144.311C183.56 144.541 183.785 144.82 183.94 145.148C184.095 145.476 184.172 145.842 184.172 146.245C184.172 146.723 184.078 147.15 183.891 147.525C183.703 147.9 183.441 148.216 183.103 148.474C182.765 148.732 182.369 148.929 181.914 149.065C181.46 149.196 180.967 149.262 180.438 149.262C180.011 149.262 179.587 149.203 179.165 149.086C178.743 148.969 178.361 148.791 178.018 148.551C177.676 148.308 177.402 148.001 177.196 147.63C176.989 147.255 176.886 146.81 176.886 146.294H179.087C179.087 146.533 179.148 146.749 179.27 146.941C179.397 147.129 179.568 147.279 179.784 147.391C180.004 147.499 180.243 147.553 180.501 147.553C180.81 147.553 181.073 147.497 181.289 147.384C181.509 147.267 181.675 147.107 181.788 146.906C181.905 146.704 181.964 146.472 181.964 146.21C181.964 145.853 181.9 145.567 181.774 145.352C181.652 145.131 181.474 144.972 181.239 144.873C181.005 144.77 180.724 144.719 180.395 144.719H179.277ZM187.639 147.37L187.625 148.805C187.625 149.348 187.491 149.89 187.224 150.429C186.957 150.973 186.622 151.418 186.218 151.765L185.093 151.21C185.201 150.994 185.311 150.776 185.424 150.556C185.541 150.34 185.637 150.101 185.712 149.838C185.792 149.576 185.832 149.269 185.832 148.917V147.37H187.639ZM190.649 147.468H190.79C191.305 147.468 191.758 147.41 192.147 147.293C192.536 147.171 192.862 146.99 193.124 146.751C193.392 146.507 193.593 146.205 193.729 145.844C193.865 145.478 193.933 145.047 193.933 144.55V142.525C193.933 142.173 193.9 141.868 193.835 141.61C193.774 141.348 193.682 141.13 193.56 140.956C193.438 140.783 193.295 140.654 193.131 140.57C192.967 140.485 192.787 140.443 192.59 140.443C192.384 140.443 192.201 140.497 192.041 140.605C191.887 140.713 191.753 140.858 191.64 141.041C191.528 141.224 191.444 141.43 191.387 141.66C191.331 141.889 191.303 142.124 191.303 142.363C191.303 142.621 191.331 142.862 191.387 143.087C191.448 143.312 191.535 143.509 191.647 143.678C191.76 143.847 191.903 143.98 192.076 144.079C192.25 144.173 192.452 144.219 192.681 144.219C192.911 144.219 193.11 144.177 193.279 144.093C193.452 144.008 193.598 143.896 193.715 143.755C193.837 143.615 193.928 143.462 193.989 143.298C194.05 143.129 194.081 142.963 194.081 142.799L194.756 143.249C194.756 143.563 194.686 143.872 194.545 144.177C194.409 144.482 194.219 144.759 193.975 145.007C193.731 145.256 193.448 145.455 193.124 145.605C192.806 145.75 192.466 145.823 192.105 145.823C191.636 145.823 191.214 145.738 190.839 145.57C190.468 145.401 190.154 145.164 189.896 144.859C189.639 144.55 189.442 144.184 189.306 143.762C189.17 143.34 189.102 142.876 189.102 142.37C189.102 141.873 189.186 141.406 189.355 140.97C189.524 140.53 189.763 140.143 190.072 139.81C190.382 139.477 190.75 139.215 191.176 139.022C191.608 138.83 192.083 138.734 192.604 138.734C193.115 138.734 193.584 138.833 194.01 139.029C194.437 139.222 194.81 139.498 195.129 139.859C195.447 140.22 195.694 140.659 195.867 141.174C196.045 141.69 196.134 142.271 196.134 142.918V143.678C196.134 144.372 196.055 145.009 195.895 145.591C195.736 146.172 195.501 146.688 195.192 147.138C194.887 147.588 194.517 147.97 194.081 148.284C193.649 148.598 193.159 148.837 192.611 149.002C192.067 149.161 191.472 149.241 190.825 149.241H190.649V147.468ZM198.961 147.468H199.102C199.618 147.468 200.07 147.41 200.459 147.293C200.848 147.171 201.174 146.99 201.437 146.751C201.704 146.507 201.906 146.205 202.042 145.844C202.178 145.478 202.245 145.047 202.245 144.55V142.525C202.245 142.173 202.213 141.868 202.147 141.61C202.086 141.348 201.995 141.13 201.873 140.956C201.751 140.783 201.608 140.654 201.444 140.57C201.28 140.485 201.099 140.443 200.902 140.443C200.696 140.443 200.513 140.497 200.354 140.605C200.199 140.713 200.065 140.858 199.953 141.041C199.84 141.224 199.756 141.43 199.7 141.66C199.643 141.889 199.615 142.124 199.615 142.363C199.615 142.621 199.643 142.862 199.7 143.087C199.761 143.312 199.847 143.509 199.96 143.678C200.072 143.847 200.215 143.98 200.389 144.079C200.562 144.173 200.764 144.219 200.994 144.219C201.223 144.219 201.423 144.177 201.591 144.093C201.765 144.008 201.91 143.896 202.027 143.755C202.149 143.615 202.241 143.462 202.302 143.298C202.363 143.129 202.393 142.963 202.393 142.799L203.068 143.249C203.068 143.563 202.998 143.872 202.857 144.177C202.721 144.482 202.531 144.759 202.288 145.007C202.044 145.256 201.76 145.455 201.437 145.605C201.118 145.75 200.778 145.823 200.417 145.823C199.948 145.823 199.526 145.738 199.151 145.57C198.781 145.401 198.467 145.164 198.209 144.859C197.951 144.55 197.754 144.184 197.618 143.762C197.482 143.34 197.414 142.876 197.414 142.37C197.414 141.873 197.499 141.406 197.667 140.97C197.836 140.53 198.075 140.143 198.385 139.81C198.694 139.477 199.062 139.215 199.489 139.022C199.92 138.83 200.396 138.734 200.916 138.734C201.427 138.734 201.896 138.833 202.323 139.029C202.749 139.222 203.122 139.498 203.441 139.859C203.76 140.22 204.006 140.659 204.179 141.174C204.358 141.69 204.447 142.271 204.447 142.918V143.678C204.447 144.372 204.367 145.009 204.208 145.591C204.048 146.172 203.814 146.688 203.504 147.138C203.2 147.588 202.829 147.97 202.393 148.284C201.962 148.598 201.472 148.837 200.923 149.002C200.38 149.161 199.784 149.241 199.137 149.241H198.961V147.468ZM213.526 141.512V149.121H211.317V141.512H213.526ZM215.952 141.512V143.207H208.933V141.512H215.952ZM219.117 142.975V152.047H216.922V141.512H218.969L219.117 142.975ZM223.863 145.232V145.38C223.863 145.933 223.8 146.446 223.674 146.92C223.547 147.389 223.357 147.799 223.104 148.151C222.855 148.502 222.548 148.776 222.183 148.973C221.817 149.166 221.393 149.262 220.91 149.262C220.45 149.262 220.052 149.166 219.714 148.973C219.381 148.776 219.1 148.505 218.87 148.158C218.645 147.806 218.463 147.405 218.322 146.955C218.186 146.5 218.08 146.015 218.005 145.499V145.211C218.08 144.662 218.188 144.154 218.329 143.685C218.47 143.216 218.652 142.811 218.877 142.468C219.102 142.121 219.381 141.852 219.714 141.66C220.047 141.467 220.443 141.371 220.903 141.371C221.381 141.371 221.805 141.463 222.176 141.646C222.546 141.828 222.855 142.091 223.104 142.433C223.357 142.771 223.547 143.176 223.674 143.65C223.8 144.123 223.863 144.651 223.863 145.232ZM221.662 145.38V145.232C221.662 144.923 221.639 144.639 221.592 144.381C221.545 144.119 221.47 143.891 221.367 143.699C221.264 143.502 221.128 143.35 220.959 143.242C220.79 143.134 220.584 143.08 220.34 143.08C220.078 143.08 219.855 143.122 219.672 143.207C219.489 143.291 219.342 143.415 219.229 143.579C219.117 143.739 219.034 143.936 218.983 144.17C218.936 144.405 218.91 144.672 218.906 144.972V145.745C218.91 146.097 218.959 146.411 219.053 146.688C219.152 146.96 219.304 147.173 219.51 147.328C219.721 147.478 220.003 147.553 220.354 147.553C220.603 147.553 220.809 147.499 220.973 147.391C221.142 147.279 221.276 147.122 221.374 146.92C221.477 146.718 221.55 146.486 221.592 146.224C221.639 145.961 221.662 145.68 221.662 145.38ZM230.073 141.512V143.221H226.318V141.512H230.073ZM231.627 141.512V149.121H229.433V141.512H231.627ZM225.762 141.512H227.914L227.703 145.387C227.675 145.935 227.614 146.416 227.52 146.828C227.431 147.241 227.309 147.593 227.155 147.883C227.005 148.174 226.824 148.411 226.613 148.594C226.402 148.776 226.161 148.91 225.889 148.995C225.622 149.079 225.329 149.121 225.01 149.121H224.342L224.307 147.412L224.567 147.384C224.707 147.37 224.829 147.328 224.932 147.257C225.04 147.187 225.132 147.086 225.207 146.955C225.286 146.824 225.354 146.655 225.411 146.449C225.467 146.242 225.511 146.001 225.544 145.724C225.582 145.443 225.608 145.12 225.622 144.754L225.762 141.512ZM238.294 144.536V146.231H234.462V144.536H238.294ZM235.228 141.512V149.121H233.034V141.512H235.228ZM239.743 141.512V149.121H237.535V141.512H239.743Z" fill="#1A60B1"/>
<path d="M19.3185 55.1321H21.8344C22.5517 55.1321 23.1424 55.0055 23.6066 54.7523C24.0813 54.4992 24.4294 54.1405 24.6509 53.6764C24.883 53.2122 24.999 52.669 24.999 52.0466C24.999 51.5086 24.8935 51.0286 24.6825 50.6067C24.4716 50.1847 24.1498 49.8524 23.7173 49.6098C23.2954 49.3566 22.7468 49.23 22.0717 49.23C21.5865 49.23 21.1223 49.3303 20.6793 49.5307C20.2468 49.7206 19.8934 50.0001 19.6191 50.3693C19.3448 50.728 19.2077 51.1605 19.2077 51.6668H14.2551C14.2551 50.3799 14.6032 49.267 15.2994 48.3281C16.0062 47.3893 16.9397 46.6667 18.1001 46.1603C19.271 45.6435 20.5474 45.385 21.9293 45.385C23.5222 45.385 24.9199 45.6382 26.1224 46.1445C27.3356 46.6403 28.2744 47.3787 28.939 48.3598C29.6141 49.3303 29.9517 50.5328 29.9517 51.9675C29.9517 52.7164 29.7723 53.439 29.4137 54.1352C29.0656 54.8209 28.5645 55.4327 27.9105 55.9707C27.267 56.4982 26.4969 56.9201 25.6003 57.2366C24.7142 57.5425 23.7279 57.6955 22.6413 57.6955H19.3185V55.1321ZM19.3185 58.8505V56.3347H22.6413C23.8439 56.3347 24.9199 56.4718 25.8693 56.7461C26.8187 57.0203 27.6256 57.4159 28.2902 57.9328C28.9548 58.4497 29.4611 59.0773 29.8092 59.8158C30.1574 60.5542 30.3314 61.377 30.3314 62.2842C30.3314 63.3602 30.1204 64.3201 29.6985 65.164C29.2765 66.0079 28.6858 66.7199 27.9263 67.3001C27.1668 67.8803 26.2754 68.3234 25.2522 68.6293C24.2289 68.9246 23.1213 69.0723 21.9293 69.0723C20.9694 69.0723 20.0147 68.9405 19.0653 68.6767C18.1159 68.413 17.2562 68.0122 16.4861 67.4742C15.7161 66.9256 15.099 66.2347 14.6348 65.4013C14.1707 64.5574 13.9386 63.5553 13.9386 62.3949H18.8912C18.8912 62.9329 19.0284 63.4182 19.3026 63.8507C19.5875 64.2726 19.9725 64.6102 20.4577 64.8634C20.9535 65.106 21.4915 65.2273 22.0717 65.2273C22.7679 65.2273 23.3587 65.1007 23.8439 64.8475C24.3397 64.5838 24.7142 64.2252 24.9674 63.7716C25.2311 63.318 25.3629 62.7958 25.3629 62.2051C25.3629 61.4034 25.2205 60.7599 24.9357 60.2746C24.6614 59.7788 24.2606 59.4202 23.7331 59.1987C23.2057 58.9666 22.5728 58.8505 21.8344 58.8505H19.3185ZM37.6734 58.3758L33.7492 57.4423L35.0942 45.7173H48.2907V49.6256H39.1449L38.5911 54.4833C38.8759 54.3146 39.3243 54.13 39.9361 53.9295C40.5479 53.7186 41.2336 53.6131 41.9931 53.6131C43.1218 53.6131 44.124 53.7871 44.9995 54.1352C45.8751 54.4833 46.6135 54.9897 47.2148 55.6543C47.8266 56.3083 48.2855 57.1153 48.5914 58.0752C48.9078 59.0351 49.0661 60.1269 49.0661 61.3506C49.0661 62.3633 48.9078 63.3338 48.5914 64.2621C48.2749 65.1798 47.7897 66.0026 47.1356 66.7305C46.4922 67.4478 45.6746 68.0174 44.683 68.4394C43.6915 68.8613 42.5258 69.0723 41.1861 69.0723C40.1734 69.0723 39.1924 68.9194 38.243 68.6135C37.2936 68.3075 36.4392 67.8645 35.6796 67.2843C34.9307 66.6936 34.3347 65.9763 33.8916 65.1323C33.4591 64.2884 33.2376 63.3391 33.2271 62.2842H38.1639C38.2166 62.896 38.3696 63.4234 38.6228 63.8665C38.8759 64.299 39.2188 64.6366 39.6513 64.8792C40.0838 65.1113 40.5848 65.2273 41.1545 65.2273C41.703 65.2273 42.1672 65.1218 42.5469 64.9108C42.9267 64.6893 43.2273 64.3887 43.4488 64.0089C43.6809 63.6291 43.8497 63.1861 43.9552 62.6798C44.0607 62.1734 44.1134 61.6301 44.1134 61.05C44.1134 60.4487 44.0448 59.9107 43.9077 59.436C43.7706 58.9508 43.5596 58.5394 43.2748 58.2018C42.99 57.8537 42.626 57.59 42.183 57.4106C41.7505 57.2208 41.2283 57.1258 40.6165 57.1258C39.8148 57.1258 39.1871 57.2577 38.7335 57.5214C38.2799 57.7851 37.9265 58.0699 37.6734 58.3758ZM52.3731 66.414C52.3731 65.6967 52.6263 65.0954 53.1326 64.6102C53.6495 64.1249 54.3194 63.8823 55.1422 63.8823C55.9755 63.8823 56.6401 64.1249 57.1359 64.6102C57.6422 65.0954 57.8954 65.6967 57.8954 66.414C57.8954 67.1208 57.6422 67.7168 57.1359 68.202C56.6401 68.6873 55.9755 68.9299 55.1422 68.9299C54.3194 68.9299 53.6495 68.6873 53.1326 68.202C52.6263 67.7168 52.3731 67.1208 52.3731 66.414ZM77.3421 62.4266C77.3421 63.8823 76.9993 65.106 76.3136 66.0976C75.6279 67.0892 74.6891 67.8328 73.4971 68.3286C72.3156 68.8244 70.9654 69.0723 69.4463 69.0723C67.9379 69.0723 66.5823 68.8244 65.3798 68.3286C64.1878 67.8328 63.2436 67.0892 62.5474 66.0976C61.8512 65.106 61.5031 63.8823 61.5031 62.4266C61.5031 61.435 61.6982 60.5436 62.0886 59.7525C62.4894 58.9613 63.0432 58.2862 63.75 57.7271C64.4673 57.168 65.3059 56.7408 66.2659 56.4454C67.2364 56.1501 68.286 56.0024 69.4147 56.0024C70.9337 56.0024 72.2892 56.2661 73.4812 56.7935C74.6838 57.3104 75.6279 58.0488 76.3136 59.0088C76.9993 59.9687 77.3421 61.108 77.3421 62.4266ZM72.3736 62.0627C72.3736 61.3875 72.247 60.8179 71.9939 60.3537C71.7512 59.8791 71.4084 59.5151 70.9654 59.2619C70.5223 58.9982 70.0054 58.8664 69.4147 58.8664C68.824 58.8664 68.3071 58.9982 67.864 59.2619C67.421 59.5151 67.0729 59.8791 66.8197 60.3537C66.5771 60.8179 66.4558 61.3875 66.4558 62.0627C66.4558 62.7167 66.5823 63.2863 66.8355 63.7716C67.0887 64.2463 67.4368 64.6102 67.8798 64.8634C68.3229 65.106 68.8451 65.2273 69.4463 65.2273C70.0476 65.2273 70.5645 65.106 70.997 64.8634C71.4295 64.6102 71.7671 64.2463 72.0097 63.7716C72.2523 63.2863 72.3736 62.7167 72.3736 62.0627ZM76.8516 51.8409C76.8516 53.0329 76.5351 54.0825 75.9022 54.9897C75.2798 55.8863 74.4095 56.5878 73.2914 57.0942C72.1732 57.59 70.8915 57.8379 69.4463 57.8379C68.0011 57.8379 66.7142 57.59 65.5855 57.0942C64.4673 56.5878 63.5865 55.8863 62.943 54.9897C62.3101 54.0825 61.9936 53.0329 61.9936 51.8409C61.9936 50.4484 62.3101 49.2722 62.943 48.3123C63.5865 47.3524 64.4673 46.6245 65.5855 46.1287C66.7036 45.6329 67.9801 45.385 69.4147 45.385C70.8704 45.385 72.1574 45.6329 73.2755 46.1287C74.3937 46.6245 75.2693 47.3524 75.9022 48.3123C76.5351 49.2722 76.8516 50.4484 76.8516 51.8409ZM71.9148 52.094C71.9148 51.5139 71.8145 51.0128 71.6141 50.5908C71.4242 50.1583 71.1447 49.8261 70.7755 49.594C70.4063 49.3514 69.9527 49.23 69.4147 49.23C68.8978 49.23 68.4547 49.3461 68.0855 49.5782C67.7163 49.7997 67.4315 50.1267 67.2311 50.5592C67.0412 50.9811 66.9463 51.4928 66.9463 52.094C66.9463 52.6848 67.0412 53.2017 67.2311 53.6447C67.4315 54.0772 67.7163 54.42 68.0855 54.6732C68.4653 54.9158 68.9189 55.0372 69.4463 55.0372C69.9843 55.0372 70.4326 54.9158 70.7913 54.6732C71.1605 54.42 71.4401 54.0772 71.6299 53.6447C71.8198 53.2017 71.9148 52.6848 71.9148 52.094ZM84.6999 58.3758L80.7757 57.4423L82.1207 45.7173H95.3172V49.6256H86.1714L85.6176 54.4833C85.9024 54.3146 86.3508 54.13 86.9626 53.9295C87.5744 53.7186 88.2601 53.6131 89.0196 53.6131C90.1483 53.6131 91.1505 53.7871 92.026 54.1352C92.9016 54.4833 93.64 54.9897 94.2413 55.6543C94.8531 56.3083 95.312 57.1153 95.6179 58.0752C95.9343 59.0351 96.0926 60.1269 96.0926 61.3506C96.0926 62.3633 95.9343 63.3338 95.6179 64.2621C95.3014 65.1798 94.8162 66.0026 94.1622 66.7305C93.5187 67.4478 92.7011 68.0174 91.7096 68.4394C90.718 68.8613 89.5523 69.0723 88.2126 69.0723C87.1999 69.0723 86.2189 68.9194 85.2695 68.6135C84.3201 68.3075 83.4657 67.8645 82.7062 67.2843C81.9572 66.6936 81.3612 65.9763 80.9181 65.1323C80.4856 64.2884 80.2641 63.3391 80.2536 62.2842H85.1904C85.2431 62.896 85.3961 63.4234 85.6493 63.8665C85.9024 64.299 86.2453 64.6366 86.6778 64.8792C87.1103 65.1113 87.6114 65.2273 88.181 65.2273C88.7295 65.2273 89.1937 65.1218 89.5734 64.9108C89.9532 64.6893 90.2538 64.3887 90.4753 64.0089C90.7074 63.6291 90.8762 63.1861 90.9817 62.6798C91.0872 62.1734 91.1399 61.6301 91.1399 61.05C91.1399 60.4487 91.0714 59.9107 90.9342 59.436C90.7971 58.9508 90.5861 58.5394 90.3013 58.2018C90.0165 57.8537 89.6525 57.59 89.2095 57.4106C88.777 57.2208 88.2548 57.1258 87.643 57.1258C86.8413 57.1258 86.2136 57.2577 85.76 57.5214C85.3064 57.7851 84.9531 58.0699 84.6999 58.3758ZM116.346 51.6352V68.7559H111.378V51.6352H116.346ZM121.805 51.6352V55.4486H106.014V51.6352H121.805ZM128.926 54.9264V75.3383H123.989V51.6352H128.593L128.926 54.9264ZM139.606 60.0056V60.3379C139.606 61.5827 139.464 62.7378 139.179 63.8032C138.894 64.8581 138.467 65.7811 137.897 66.5723C137.338 67.3634 136.647 67.9805 135.825 68.4236C135.002 68.8561 134.047 69.0723 132.961 69.0723C131.927 69.0723 131.03 68.8561 130.271 68.4236C129.522 67.9805 128.889 67.3687 128.372 66.5881C127.866 65.7969 127.454 64.895 127.138 63.8823C126.832 62.8591 126.594 61.7673 126.426 60.6069V59.9582C126.594 58.724 126.837 57.5794 127.154 56.5245C127.47 55.4697 127.881 54.5572 128.388 53.7871C128.894 53.0065 129.522 52.4 130.271 51.9675C131.02 51.535 131.911 51.3187 132.945 51.3187C134.021 51.3187 134.975 51.5244 135.809 51.9358C136.642 52.3472 137.338 52.9379 137.897 53.708C138.467 54.4675 138.894 55.38 139.179 56.4454C139.464 57.5108 139.606 58.6976 139.606 60.0056ZM134.654 60.3379V60.0056C134.654 59.3094 134.601 58.6712 134.495 58.091C134.39 57.5003 134.221 56.9887 133.989 56.5562C133.757 56.1131 133.451 55.7703 133.071 55.5277C132.692 55.2851 132.227 55.1637 131.679 55.1637C131.088 55.1637 130.587 55.2587 130.176 55.4486C129.764 55.6384 129.432 55.918 129.179 56.2872C128.926 56.6458 128.741 57.0889 128.625 57.6163C128.52 58.1438 128.462 58.7451 128.451 59.4202V61.1607C128.462 61.9519 128.572 62.6587 128.783 63.281C129.005 63.8929 129.348 64.3728 129.812 64.7209C130.286 65.0585 130.919 65.2273 131.711 65.2273C132.27 65.2273 132.734 65.106 133.103 64.8634C133.483 64.6102 133.783 64.2568 134.005 63.8032C134.237 63.3496 134.401 62.8274 134.495 62.2367C134.601 61.646 134.654 61.013 134.654 60.3379ZM153.578 51.6352V55.4802H145.129V51.6352H153.578ZM157.075 51.6352V68.7559H152.138V51.6352H157.075ZM143.879 51.6352H148.721L148.246 60.3537C148.183 61.588 148.045 62.6692 147.834 63.5975C147.634 64.5258 147.36 65.317 147.012 65.971C146.674 66.625 146.268 67.1577 145.793 67.5691C145.319 67.9805 144.775 68.2812 144.163 68.471C143.562 68.6609 142.903 68.7559 142.186 68.7559H140.682L140.603 64.9108L141.189 64.8475C141.505 64.8159 141.779 64.7209 142.011 64.5627C142.254 64.4045 142.46 64.1777 142.629 63.8823C142.808 63.587 142.961 63.2072 143.087 62.743C143.214 62.2789 143.314 61.7356 143.388 61.1133C143.472 60.4803 143.531 59.7525 143.562 58.9297L143.879 51.6352ZM172.076 58.4391V62.2525H163.452V58.4391H172.076ZM165.177 51.6352V68.7559H160.24V51.6352H165.177ZM175.335 51.6352V68.7559H170.367V51.6352H175.335Z" fill="#003C82"/>
<path d="M68.2828 214.271V215.733H61.3488V214.482L64.6752 210.888C65.0221 210.494 65.2964 210.152 65.498 209.861C65.6996 209.571 65.8426 209.308 65.9269 209.074C66.016 208.834 66.0606 208.607 66.0606 208.391C66.0606 208.077 66.0043 207.803 65.8918 207.569C65.7793 207.33 65.6152 207.144 65.3995 207.013C65.1885 206.882 64.9283 206.816 64.6189 206.816C64.2766 206.816 63.9836 206.896 63.7398 207.055C63.5007 207.21 63.3179 207.426 63.1913 207.702C63.0694 207.979 63.0084 208.295 63.0084 208.652H61.1448C61.1448 208.047 61.2855 207.496 61.5668 206.999C61.8481 206.497 62.2513 206.096 62.7764 205.796C63.3015 205.496 63.925 205.346 64.647 205.346C65.3503 205.346 65.9457 205.464 66.4333 205.698C66.9209 205.928 67.2913 206.256 67.5444 206.683C67.7976 207.109 67.9242 207.618 67.9242 208.209C67.9242 208.537 67.8703 208.86 67.7624 209.179C67.6546 209.498 67.5022 209.814 67.3053 210.128C67.1131 210.438 66.8834 210.752 66.6161 211.071C66.3489 211.39 66.0512 211.715 65.723 212.048L63.7258 214.271H68.2828ZM76.3562 209.735V211.458C76.3562 212.245 76.2765 212.918 76.1171 213.476C75.9577 214.034 75.7279 214.491 75.4279 214.847C75.1278 215.199 74.7692 215.459 74.3519 215.628C73.9346 215.792 73.4705 215.874 72.9595 215.874C72.5516 215.874 72.1718 215.822 71.8202 215.719C71.4686 215.612 71.1521 215.447 70.8708 215.227C70.5942 215.002 70.3551 214.716 70.1535 214.369C69.9566 214.022 69.8042 213.607 69.6964 213.124C69.5932 212.641 69.5417 212.086 69.5417 211.458V209.735C69.5417 208.947 69.6214 208.277 69.7808 207.723C69.9449 207.17 70.1769 206.718 70.477 206.366C70.777 206.014 71.1357 205.759 71.553 205.6C71.9702 205.435 72.4344 205.353 72.9454 205.353C73.358 205.353 73.7377 205.405 74.0847 205.508C74.4363 205.611 74.7504 205.773 75.027 205.993C75.3083 206.209 75.5474 206.49 75.7444 206.837C75.9413 207.179 76.0913 207.592 76.1944 208.075C76.3023 208.553 76.3562 209.106 76.3562 209.735ZM74.4996 211.711V209.474C74.4996 209.081 74.4762 208.738 74.4293 208.448C74.3871 208.152 74.3238 207.902 74.2394 207.695C74.155 207.489 74.0495 207.322 73.9229 207.196C73.7963 207.065 73.651 206.969 73.4869 206.908C73.3228 206.847 73.1423 206.816 72.9454 206.816C72.7016 206.816 72.4836 206.865 72.2914 206.964C72.0992 207.058 71.9374 207.208 71.8061 207.414C71.6749 207.62 71.5741 207.894 71.5037 208.237C71.4381 208.574 71.4053 208.987 71.4053 209.474V211.711C71.4053 212.105 71.4264 212.449 71.4686 212.745C71.5155 213.04 71.5811 213.293 71.6655 213.504C71.7546 213.715 71.8601 213.889 71.982 214.024C72.1085 214.156 72.2539 214.254 72.418 214.32C72.5821 214.381 72.7626 214.411 72.9595 214.411C73.208 214.411 73.426 214.362 73.6135 214.264C73.8057 214.165 73.9675 214.01 74.0987 213.799C74.23 213.584 74.3285 213.305 74.3941 212.963C74.4644 212.616 74.4996 212.198 74.4996 211.711ZM84.739 214.271V215.733H77.8049V214.482L81.1313 210.888C81.4782 210.494 81.7525 210.152 81.9541 209.861C82.1557 209.571 82.2987 209.308 82.3831 209.074C82.4721 208.834 82.5167 208.607 82.5167 208.391C82.5167 208.077 82.4604 207.803 82.3479 207.569C82.2354 207.33 82.0713 207.144 81.8556 207.013C81.6446 206.882 81.3844 206.816 81.075 206.816C80.7328 206.816 80.4397 206.896 80.1959 207.055C79.9568 207.21 79.774 207.426 79.6474 207.702C79.5255 207.979 79.4646 208.295 79.4646 208.652H77.6009C77.6009 208.047 77.7416 207.496 78.0229 206.999C78.3042 206.497 78.7074 206.096 79.2325 205.796C79.7576 205.496 80.3811 205.346 81.1031 205.346C81.8064 205.346 82.4018 205.464 82.8894 205.698C83.377 205.928 83.7474 206.256 84.0005 206.683C84.2537 207.109 84.3803 207.618 84.3803 208.209C84.3803 208.537 84.3264 208.86 84.2186 209.179C84.1107 209.498 83.9583 209.814 83.7614 210.128C83.5692 210.438 83.3395 210.752 83.0722 211.071C82.805 211.39 82.5073 211.715 82.1791 212.048L80.1819 214.271H84.739ZM92.967 214.271V215.733H86.0329V214.482L89.3593 210.888C89.7063 210.494 89.9805 210.152 90.1821 209.861C90.3837 209.571 90.5267 209.308 90.6111 209.074C90.7002 208.834 90.7447 208.607 90.7447 208.391C90.7447 208.077 90.6885 207.803 90.576 207.569C90.4634 207.33 90.2993 207.144 90.0837 207.013C89.8727 206.882 89.6125 206.816 89.3031 206.816C88.9608 206.816 88.6678 206.896 88.424 207.055C88.1849 207.21 88.0021 207.426 87.8755 207.702C87.7536 207.979 87.6926 208.295 87.6926 208.652H85.829C85.829 208.047 85.9697 207.496 86.251 206.999C86.5323 206.497 86.9355 206.096 87.4605 205.796C87.9856 205.496 88.6092 205.346 89.3312 205.346C90.0345 205.346 90.6299 205.464 91.1175 205.698C91.6051 205.928 91.9754 206.256 92.2286 206.683C92.4818 207.109 92.6084 207.618 92.6084 208.209C92.6084 208.537 92.5544 208.86 92.4466 209.179C92.3388 209.498 92.1864 209.814 91.9895 210.128C91.7973 210.438 91.5675 210.752 91.3003 211.071C91.0331 211.39 90.7354 211.715 90.4072 212.048L88.4099 214.271H92.967Z" fill="#507EB2"/>
<path d="M197.006 214.271V215.733H190.072V214.482L193.399 210.888C193.746 210.494 194.02 210.152 194.222 209.861C194.423 209.571 194.566 209.308 194.651 209.074C194.74 208.834 194.784 208.607 194.784 208.391C194.784 208.077 194.728 207.803 194.615 207.569C194.503 207.33 194.339 207.144 194.123 207.013C193.912 206.882 193.652 206.816 193.343 206.816C193 206.816 192.707 206.896 192.463 207.055C192.224 207.21 192.042 207.426 191.915 207.702C191.793 207.979 191.732 208.295 191.732 208.652H189.868C189.868 208.047 190.009 207.496 190.29 206.999C190.572 206.497 190.975 206.096 191.5 205.796C192.025 205.496 192.649 205.346 193.371 205.346C194.074 205.346 194.669 205.464 195.157 205.698C195.645 205.928 196.015 206.256 196.268 206.683C196.521 207.109 196.648 207.618 196.648 208.209C196.648 208.537 196.594 208.86 196.486 209.179C196.378 209.498 196.226 209.814 196.029 210.128C195.837 210.438 195.607 210.752 195.34 211.071C195.073 211.39 194.775 211.715 194.447 212.048L192.449 214.271H197.006ZM205.08 209.735V211.458C205.08 212.245 205 212.918 204.841 213.476C204.681 214.034 204.452 214.491 204.152 214.847C203.851 215.199 203.493 215.459 203.076 215.628C202.658 215.792 202.194 215.874 201.683 215.874C201.275 215.874 200.895 215.822 200.544 215.719C200.192 215.612 199.876 215.447 199.594 215.227C199.318 215.002 199.079 214.716 198.877 214.369C198.68 214.022 198.528 213.607 198.42 213.124C198.317 212.641 198.265 212.086 198.265 211.458V209.735C198.265 208.947 198.345 208.277 198.504 207.723C198.668 207.17 198.901 206.718 199.201 206.366C199.501 206.014 199.859 205.759 200.277 205.6C200.694 205.435 201.158 205.353 201.669 205.353C202.082 205.353 202.461 205.405 202.808 205.508C203.16 205.611 203.474 205.773 203.751 205.993C204.032 206.209 204.271 206.49 204.468 206.837C204.665 207.179 204.815 207.592 204.918 208.075C205.026 208.553 205.08 209.106 205.08 209.735ZM203.223 211.711V209.474C203.223 209.081 203.2 208.738 203.153 208.448C203.111 208.152 203.047 207.902 202.963 207.695C202.879 207.489 202.773 207.322 202.647 207.196C202.52 207.065 202.375 206.969 202.211 206.908C202.046 206.847 201.866 206.816 201.669 206.816C201.425 206.816 201.207 206.865 201.015 206.964C200.823 207.058 200.661 207.208 200.53 207.414C200.398 207.62 200.298 207.894 200.227 208.237C200.162 208.574 200.129 208.987 200.129 209.474V211.711C200.129 212.105 200.15 212.449 200.192 212.745C200.239 213.04 200.305 213.293 200.389 213.504C200.478 213.715 200.584 213.889 200.706 214.024C200.832 214.156 200.978 214.254 201.142 214.32C201.306 214.381 201.486 214.411 201.683 214.411C201.932 214.411 202.15 214.362 202.337 214.264C202.529 214.165 202.691 214.01 202.822 213.799C202.954 213.584 203.052 213.305 203.118 212.963C203.188 212.616 203.223 212.198 203.223 211.711ZM213.463 214.271V215.733H206.529V214.482L209.855 210.888C210.202 210.494 210.476 210.152 210.678 209.861C210.879 209.571 211.022 209.308 211.107 209.074C211.196 208.834 211.24 208.607 211.24 208.391C211.24 208.077 211.184 207.803 211.072 207.569C210.959 207.33 210.795 207.144 210.579 207.013C210.368 206.882 210.108 206.816 209.799 206.816C209.456 206.816 209.163 206.896 208.92 207.055C208.68 207.21 208.498 207.426 208.371 207.702C208.249 207.979 208.188 208.295 208.188 208.652H206.325C206.325 208.047 206.465 207.496 206.747 206.999C207.028 206.497 207.431 206.096 207.956 205.796C208.481 205.496 209.105 205.346 209.827 205.346C210.53 205.346 211.125 205.464 211.613 205.698C212.101 205.928 212.471 206.256 212.724 206.683C212.977 207.109 213.104 207.618 213.104 208.209C213.104 208.537 213.05 208.86 212.942 209.179C212.834 209.498 212.682 209.814 212.485 210.128C212.293 210.438 212.063 210.752 211.796 211.071C211.529 211.39 211.231 211.715 210.903 212.048L208.906 214.271H213.463ZM216.789 209.791H217.837C218.207 209.791 218.512 209.728 218.751 209.601C218.995 209.47 219.175 209.292 219.293 209.067C219.414 208.837 219.475 208.572 219.475 208.272C219.475 207.977 219.421 207.721 219.314 207.505C219.206 207.285 219.042 207.116 218.821 206.999C218.606 206.877 218.329 206.816 217.992 206.816C217.72 206.816 217.469 206.87 217.239 206.978C217.014 207.086 216.834 207.24 216.698 207.442C216.566 207.639 216.501 207.876 216.501 208.152H214.637C214.637 207.599 214.782 207.114 215.073 206.697C215.368 206.275 215.767 205.944 216.269 205.705C216.77 205.466 217.33 205.346 217.949 205.346C218.624 205.346 219.215 205.459 219.722 205.684C220.233 205.904 220.629 206.23 220.91 206.661C221.196 207.093 221.339 207.627 221.339 208.265C221.339 208.57 221.266 208.874 221.121 209.179C220.98 209.479 220.772 209.751 220.495 209.995C220.223 210.234 219.888 210.429 219.489 210.579C219.096 210.724 218.643 210.797 218.132 210.797H216.789V209.791ZM216.789 211.226V210.234H218.132C218.709 210.234 219.208 210.302 219.63 210.438C220.057 210.569 220.408 210.757 220.685 211.001C220.962 211.24 221.166 211.519 221.297 211.837C221.433 212.156 221.501 212.498 221.501 212.864C221.501 213.342 221.412 213.769 221.234 214.144C221.055 214.514 220.805 214.829 220.481 215.086C220.162 215.344 219.787 215.541 219.356 215.677C218.925 215.808 218.458 215.874 217.956 215.874C217.52 215.874 217.096 215.815 216.683 215.698C216.276 215.576 215.908 215.396 215.579 215.157C215.251 214.913 214.991 214.608 214.799 214.243C214.607 213.872 214.51 213.443 214.51 212.956H216.374C216.374 213.237 216.442 213.488 216.578 213.708C216.719 213.928 216.911 214.102 217.155 214.228C217.403 214.35 217.682 214.411 217.992 214.411C218.334 214.411 218.627 214.35 218.871 214.228C219.119 214.102 219.309 213.924 219.44 213.694C219.572 213.46 219.637 213.181 219.637 212.857C219.637 212.473 219.564 212.161 219.419 211.922C219.274 211.683 219.065 211.507 218.793 211.394C218.526 211.282 218.207 211.226 217.837 211.226H216.789Z" fill="#507EB2"/>
<path d="M18.7529 206.334L80.1891 143.998L204.862 171.453L253.021 156.825" stroke="#31CC82" stroke-width="2.25041" stroke-linecap="square"/>
</g>
<defs>
<clipPath id="clip0_29_17096">
<rect width="295" height="239" fill="white"/>
</clipPath>
</defs>
</svg>
