<svg width="245" height="242" viewBox="0 0 245 242" fill="none" xmlns="http://www.w3.org/2000/svg">
<g clip-path="url(#clip0_116_2826)">
<rect width="245" height="244" rx="7.13607" fill="#D8F1FD"/>
<path d="M16.335 18.9509V31H14.2661V18.9509H16.335ZM23.5843 18.9509L18.6852 25.8196H15.7475L15.4661 24.0155H17.535L21.0438 18.9509H23.5843ZM21.4658 31L17.5681 25.5051L18.9087 23.9079L23.9567 31H21.4658ZM24.6436 29.5352V33.9792H22.6492V29.5352H24.6436ZM28.5579 30.0235L30.9909 22.0459H33.1259L29.5344 32.3655C29.4516 32.5861 29.3441 32.8261 29.2116 33.0854C29.0792 33.3447 28.9055 33.5902 28.6903 33.8219C28.4806 34.0592 28.2186 34.2495 27.9041 34.3929C27.5897 34.5419 27.209 34.6164 26.7621 34.6164C26.5856 34.6164 26.4145 34.5998 26.249 34.5667C26.089 34.5391 25.9373 34.5088 25.7939 34.4757L25.7856 32.953C25.8408 32.9585 25.907 32.964 25.9842 32.9696C26.067 32.9751 26.1332 32.9778 26.1828 32.9778C26.5138 32.9778 26.7897 32.9365 27.0104 32.8537C27.2311 32.7765 27.4104 32.6496 27.5483 32.473C27.6917 32.2965 27.8131 32.0593 27.9124 31.7613L28.5579 30.0235ZM27.1842 22.0459L29.311 28.7491L29.6668 30.851L28.2848 31.2069L25.0325 22.0459H27.1842ZM36.2706 23.7672V34.4426H34.2762V22.0459H36.1134L36.2706 23.7672ZM42.1048 26.4402V26.614C42.1048 27.265 42.0276 27.8691 41.8731 28.4263C41.7242 28.978 41.5007 29.4608 41.2028 29.8745C40.9104 30.2828 40.549 30.6 40.1187 30.8262C39.6884 31.0524 39.1919 31.1655 38.6291 31.1655C38.0719 31.1655 37.5837 31.0634 37.1644 30.8593C36.7506 30.6497 36.4003 30.3545 36.1134 29.9738C35.8265 29.5932 35.5948 29.1463 35.4183 28.6332C35.2472 28.1146 35.1259 27.5464 35.0541 26.9285V26.2582C35.1259 25.6016 35.2472 25.0058 35.4183 24.4707C35.5948 23.9355 35.8265 23.4748 36.1134 23.0886C36.4003 22.7025 36.7506 22.4045 37.1644 22.1949C37.5782 21.9853 38.0609 21.8804 38.6126 21.8804C39.1753 21.8804 39.6746 21.9908 40.1104 22.2114C40.5463 22.4266 40.9132 22.7356 41.2111 23.1383C41.509 23.5355 41.7324 24.0155 41.8814 24.5782C42.0304 25.1354 42.1048 25.7561 42.1048 26.4402ZM40.1104 26.614V26.4402C40.1104 26.0264 40.0718 25.643 39.9946 25.2899C39.9174 24.9313 39.796 24.6169 39.6305 24.3465C39.465 24.0762 39.2526 23.8665 38.9933 23.7176C38.7395 23.5631 38.4333 23.4859 38.0747 23.4859C37.7216 23.4859 37.4182 23.5466 37.1644 23.6679C36.9106 23.7838 36.6982 23.9465 36.5272 24.1562C36.3561 24.3658 36.2237 24.6113 36.1299 24.8927C36.0362 25.1686 35.97 25.4692 35.9313 25.7947V27.4002C35.9975 27.7974 36.1106 28.1615 36.2706 28.4925C36.4306 28.8236 36.6568 29.0884 36.9492 29.287C37.2471 29.4801 37.6278 29.5766 38.0912 29.5766C38.4498 29.5766 38.756 29.4994 39.0098 29.3449C39.2636 29.1904 39.4705 28.978 39.6305 28.7077C39.796 28.4318 39.9174 28.1146 39.9946 27.756C40.0718 27.3974 40.1104 27.0167 40.1104 26.614ZM45.8619 28.087L49.379 22.0459H51.3734V31H49.379V24.9506L45.8619 31H43.8675V22.0459H45.8619V28.087ZM59.4999 22.0459V23.6348H55.1304V22.0459H59.4999ZM61.0639 22.0459V31H59.0696V22.0459H61.0639ZM54.6422 22.0459H56.6117L56.3717 26.4733C56.3386 27.1298 56.2724 27.7091 56.1731 28.2112C56.0793 28.7077 55.9525 29.1353 55.7925 29.4939C55.6325 29.847 55.4366 30.1338 55.2049 30.3545C54.9732 30.5752 54.7029 30.7379 54.3939 30.8428C54.085 30.9476 53.7374 31 53.3512 31H52.7305L52.7223 29.3615L53.0367 29.3366C53.2409 29.3201 53.4174 29.2677 53.5664 29.1794C53.7153 29.0856 53.8422 28.9532 53.947 28.7822C54.0574 28.6111 54.1456 28.3905 54.2119 28.1201C54.2836 27.8498 54.3387 27.5298 54.3774 27.1602C54.4215 26.7905 54.4546 26.3602 54.4767 25.8692L54.6422 22.0459ZM65.2431 28.087L68.7601 22.0459H70.7545V31H68.7601V24.9506L65.2431 31H63.2487V22.0459H65.2431V28.087ZM72.931 22.0459H74.9254V29.4111H77.7638V22.0459H79.7748V29.4111H82.605V22.0459H84.5994V31H72.931V22.0459ZM96.9795 22.0459V23.6348H92.5604V22.0459H96.9795ZM93.0321 22.0459V31H91.0377V22.0459H93.0321ZM98.5436 22.0459V31H96.5409V22.0459H98.5436ZM103.252 30.0235L105.685 22.0459H107.82L104.229 32.3655C104.146 32.5861 104.038 32.8261 103.906 33.0854C103.774 33.3447 103.6 33.5902 103.385 33.8219C103.175 34.0592 102.913 34.2495 102.599 34.3929C102.284 34.5419 101.903 34.6164 101.457 34.6164C101.28 34.6164 101.109 34.5998 100.943 34.5667C100.783 34.5391 100.632 34.5088 100.488 34.4757L100.48 32.953C100.535 32.9585 100.601 32.964 100.679 32.9696C100.761 32.9751 100.828 32.9778 100.877 32.9778C101.208 32.9778 101.484 32.9365 101.705 32.8537C101.925 32.7765 102.105 32.6496 102.243 32.473C102.386 32.2965 102.508 32.0593 102.607 31.7613L103.252 30.0235ZM101.879 22.0459L104.005 28.7491L104.361 30.851L102.979 31.2069L99.7269 22.0459H101.879ZM110.121 22.0459H112.115L112.016 25.1989C111.988 26.1147 111.884 26.9009 111.702 27.5574C111.519 28.2139 111.282 28.7684 110.99 29.2208C110.697 29.6676 110.366 30.0345 109.997 30.3214C109.633 30.6083 109.249 30.8345 108.847 31H108.259V29.4277L108.54 29.4111C108.778 29.1573 108.982 28.9035 109.153 28.6498C109.329 28.3905 109.478 28.1063 109.6 27.7974C109.721 27.4829 109.815 27.116 109.881 26.6968C109.953 26.2775 110 25.7782 110.022 25.1989L110.121 22.0459ZM110.651 22.0459H116.328V31H114.341V23.7341H110.651V22.0459ZM107.804 29.4111H117.552V33.6647H115.558V31H109.823V33.6647H107.796L107.804 29.4111ZM120.929 23.7672V34.4426H118.934V22.0459H120.771L120.929 23.7672ZM126.763 26.4402V26.614C126.763 27.265 126.686 27.8691 126.531 28.4263C126.382 28.978 126.159 29.4608 125.861 29.8745C125.568 30.2828 125.207 30.6 124.777 30.8262C124.346 31.0524 123.85 31.1655 123.287 31.1655C122.73 31.1655 122.242 31.0634 121.822 30.8593C121.409 30.6497 121.058 30.3545 120.771 29.9738C120.485 29.5932 120.253 29.1463 120.076 28.6332C119.905 28.1146 119.784 27.5464 119.712 26.9285V26.2582C119.784 25.6016 119.905 25.0058 120.076 24.4707C120.253 23.9355 120.485 23.4748 120.771 23.0886C121.058 22.7025 121.409 22.4045 121.822 22.1949C122.236 21.9853 122.719 21.8804 123.271 21.8804C123.833 21.8804 124.333 21.9908 124.769 22.2114C125.204 22.4266 125.571 22.7356 125.869 23.1383C126.167 23.5355 126.391 24.0155 126.539 24.5782C126.688 25.1354 126.763 25.7561 126.763 26.4402ZM124.769 26.614V26.4402C124.769 26.0264 124.73 25.643 124.653 25.2899C124.575 24.9313 124.454 24.6169 124.289 24.3465C124.123 24.0762 123.911 23.8665 123.651 23.7176C123.398 23.5631 123.091 23.4859 122.733 23.4859C122.38 23.4859 122.076 23.5466 121.822 23.6679C121.569 23.7838 121.356 23.9465 121.185 24.1562C121.014 24.3658 120.882 24.6113 120.788 24.8927C120.694 25.1686 120.628 25.4692 120.589 25.7947V27.4002C120.656 27.7974 120.769 28.1615 120.929 28.4925C121.089 28.8236 121.315 29.0884 121.607 29.287C121.905 29.4801 122.286 29.5766 122.749 29.5766C123.108 29.5766 123.414 29.4994 123.668 29.3449C123.922 29.1904 124.129 28.978 124.289 28.7077C124.454 28.4318 124.575 28.1146 124.653 27.756C124.73 27.3974 124.769 27.0167 124.769 26.614ZM133.507 29.2042V24.9341C133.507 24.6141 133.449 24.3382 133.334 24.1065C133.218 23.8748 133.041 23.6955 132.804 23.5686C132.572 23.4417 132.28 23.3783 131.927 23.3783C131.601 23.3783 131.32 23.4335 131.083 23.5438C130.845 23.6541 130.661 23.8031 130.528 23.9907C130.396 24.1783 130.33 24.3907 130.33 24.6279H128.344C128.344 24.2748 128.429 23.9327 128.6 23.6017C128.771 23.2707 129.019 22.9756 129.345 22.7163C129.67 22.457 130.059 22.2528 130.512 22.1039C130.964 21.9549 131.472 21.8804 132.034 21.8804C132.707 21.8804 133.303 21.9935 133.822 22.2197C134.346 22.4459 134.757 22.788 135.055 23.2459C135.358 23.6983 135.51 24.2665 135.51 24.9506V28.9311C135.51 29.3394 135.538 29.7063 135.593 30.0318C135.654 30.3518 135.739 30.6304 135.849 30.8676V31H133.805C133.712 30.7848 133.637 30.5117 133.582 30.1807C133.532 29.8442 133.507 29.5187 133.507 29.2042ZM133.797 25.5547L133.814 26.7878H132.382C132.012 26.7878 131.687 26.8236 131.405 26.8954C131.124 26.9616 130.89 27.0609 130.702 27.1933C130.514 27.3257 130.374 27.4857 130.28 27.6733C130.186 27.8608 130.139 28.0732 130.139 28.3105C130.139 28.5477 130.194 28.7656 130.305 28.9642C130.415 29.1573 130.575 29.309 130.785 29.4194C131 29.5297 131.259 29.5849 131.563 29.5849C131.971 29.5849 132.327 29.5021 132.63 29.3366C132.939 29.1656 133.182 28.9587 133.358 28.716C133.535 28.4677 133.629 28.2332 133.64 28.0126L134.285 28.898C134.219 29.1242 134.106 29.367 133.946 29.6263C133.786 29.8856 133.576 30.1338 133.317 30.3711C133.063 30.6028 132.757 30.7931 132.399 30.9421C132.045 31.091 131.637 31.1655 131.174 31.1655C130.589 31.1655 130.068 31.0497 129.61 30.8179C129.152 30.5807 128.793 30.2635 128.534 29.8663C128.275 29.4635 128.145 29.0084 128.145 28.5008C128.145 28.0263 128.233 27.6071 128.41 27.2429C128.592 26.8733 128.857 26.5643 129.204 26.3161C129.557 26.0678 129.988 25.8802 130.495 25.7534C131.003 25.6209 131.582 25.5547 132.233 25.5547H133.797ZM141.617 22.0459V31H139.615V22.0459H141.617ZM144.555 22.0459V23.6183H136.727V22.0459H144.555ZM18.1804 42.0459V51H16.1778V42.0459H18.1804ZM21.1182 42.0459V43.6183H13.2896V42.0459H21.1182ZM27.3662 49.2042V44.9341C27.3662 44.6141 27.3083 44.3382 27.1924 44.1065C27.0766 43.8748 26.9 43.6955 26.6628 43.5686C26.4311 43.4417 26.1387 43.3783 25.7856 43.3783C25.4601 43.3783 25.1787 43.4335 24.9415 43.5438C24.7043 43.6541 24.5195 43.8031 24.387 43.9907C24.2546 44.1783 24.1884 44.3907 24.1884 44.6279H22.2023C22.2023 44.2748 22.2878 43.9327 22.4589 43.6017C22.6299 43.2707 22.8782 42.9756 23.2037 42.7163C23.5292 42.457 23.9181 42.2528 24.3705 42.1039C24.8229 41.9549 25.3305 41.8804 25.8932 41.8804C26.5663 41.8804 27.1621 41.9935 27.6807 42.2197C28.2048 42.4459 28.6158 42.788 28.9137 43.2459C29.2172 43.6983 29.3689 44.2665 29.3689 44.9506V48.9311C29.3689 49.3394 29.3965 49.7063 29.4516 50.0318C29.5123 50.3518 29.5978 50.6304 29.7082 50.8676V51H27.6641C27.5703 50.7848 27.4959 50.5117 27.4407 50.1807C27.391 49.8442 27.3662 49.5187 27.3662 49.2042ZM27.6559 45.5547L27.6724 46.7878H26.2408C25.8711 46.7878 25.5456 46.8236 25.2642 46.8954C24.9829 46.9616 24.7484 47.0609 24.5608 47.1933C24.3733 47.3257 24.2326 47.4857 24.1388 47.6733C24.045 47.8608 23.9981 48.0732 23.9981 48.3105C23.9981 48.5477 24.0533 48.7656 24.1636 48.9642C24.274 49.1573 24.4339 49.309 24.6436 49.4194C24.8588 49.5297 25.118 49.5849 25.4215 49.5849C25.8297 49.5849 26.1856 49.5021 26.489 49.3366C26.798 49.1656 27.0407 48.9587 27.2173 48.716C27.3938 48.4677 27.4876 48.2332 27.4986 48.0126L28.1441 48.898C28.0779 49.1242 27.9648 49.367 27.8048 49.6263C27.6448 49.8856 27.4352 50.1338 27.1759 50.3711C26.9221 50.6028 26.6159 50.7931 26.2573 50.9421C25.9042 51.091 25.496 51.1655 25.0325 51.1655C24.4477 51.1655 23.9264 51.0497 23.4685 50.8179C23.0106 50.5807 22.652 50.2635 22.3927 49.8663C22.1334 49.4635 22.0037 49.0084 22.0037 48.5008C22.0037 48.0263 22.092 47.6071 22.2685 47.2429C22.4506 46.8733 22.7154 46.5643 23.063 46.3161C23.4161 46.0678 23.8464 45.8802 24.3539 45.7534C24.8615 45.6209 25.4408 45.5547 26.0918 45.5547H27.6559ZM31.5205 42.0459H33.5149V49.4111H36.3534V42.0459H38.3643V49.4111H41.1945V42.0459H43.1889V51H31.5205V42.0459ZM47.4922 42.0459V51H45.4978V42.0459H47.4922ZM53.3346 42.0459L49.3045 47.4333H47.0287L46.7639 45.6292H48.4273L50.8437 42.0459H53.3346ZM51.001 51L48.3032 47.094L49.8755 45.9602L53.6243 51H51.001ZM56.769 48.087L60.286 42.0459H62.2804V51H60.286V44.9506L56.769 51H54.7746V42.0459H56.769V48.087ZM70.4069 42.0459V43.6348H66.0375V42.0459H70.4069ZM71.971 42.0459V51H69.9766V42.0459H71.971ZM65.5492 42.0459H67.5188L67.2788 46.4733C67.2457 47.1298 67.1795 47.7091 67.0802 48.2112C66.9864 48.7077 66.8595 49.1353 66.6995 49.4939C66.5395 49.847 66.3437 50.1338 66.112 50.3545C65.8803 50.5752 65.6099 50.7379 65.301 50.8428C64.992 50.9476 64.6445 51 64.2583 51H63.6376L63.6293 49.3615L63.9438 49.3366C64.1479 49.3201 64.3245 49.2677 64.4734 49.1794C64.6224 49.0856 64.7493 48.9532 64.8541 48.7822C64.9644 48.6111 65.0527 48.3905 65.1189 48.1201C65.1906 47.8498 65.2458 47.5298 65.2844 47.1602C65.3286 46.7905 65.3617 46.3602 65.3837 45.8692L65.5492 42.0459ZM73.7089 46.6223V46.4319C73.7089 45.7865 73.8026 45.1879 73.9902 44.6362C74.1778 44.0789 74.4481 43.5962 74.8012 43.188C75.1598 42.7742 75.5957 42.4542 76.1087 42.228C76.6273 41.9963 77.2121 41.8804 77.8631 41.8804C78.5197 41.8804 79.1045 41.9963 79.6175 42.228C80.1361 42.4542 80.5747 42.7742 80.9333 43.188C81.292 43.5962 81.565 44.0789 81.7526 44.6362C81.9402 45.1879 82.034 45.7865 82.034 46.4319V46.6223C82.034 47.2678 81.9402 47.8664 81.7526 48.4181C81.565 48.9698 81.292 49.4525 80.9333 49.8663C80.5747 50.2745 80.1389 50.5945 79.6258 50.8262C79.1127 51.0524 78.5307 51.1655 77.8797 51.1655C77.2232 51.1655 76.6356 51.0524 76.117 50.8262C75.6039 50.5945 75.1681 50.2745 74.8095 49.8663C74.4509 49.4525 74.1778 48.9698 73.9902 48.4181C73.8026 47.8664 73.7089 47.2678 73.7089 46.6223ZM75.7032 46.4319V46.6223C75.7032 47.025 75.7446 47.4057 75.8274 47.7643C75.9101 48.1229 76.0398 48.4374 76.2163 48.7077C76.3929 48.978 76.6191 49.1904 76.8949 49.3449C77.1708 49.4994 77.499 49.5766 77.8797 49.5766C78.2493 49.5766 78.5693 49.4994 78.8397 49.3449C79.1155 49.1904 79.3417 48.978 79.5182 48.7077C79.6948 48.4374 79.8244 48.1229 79.9072 47.7643C79.9955 47.4057 80.0396 47.025 80.0396 46.6223V46.4319C80.0396 46.0347 79.9955 45.6596 79.9072 45.3065C79.8244 44.9479 79.692 44.6306 79.51 44.3548C79.3334 44.0789 79.1072 43.8638 78.8314 43.7093C78.561 43.5493 78.2383 43.4693 77.8631 43.4693C77.488 43.4693 77.1625 43.5493 76.8866 43.7093C76.6163 43.8638 76.3929 44.0789 76.2163 44.3548C76.0398 44.6306 75.9101 44.9479 75.8274 45.3065C75.7446 45.6596 75.7032 46.0347 75.7032 46.4319ZM87.6613 42.0459V51H85.6586V42.0459H87.6613ZM90.5991 42.0459V43.6183H82.7705V42.0459H90.5991ZM97.385 42.0459V43.6348H93.0155V42.0459H97.385ZM98.9491 42.0459V51H96.9547V42.0459H98.9491ZM92.5273 42.0459H94.4968L94.2569 46.4733C94.2238 47.1298 94.1576 47.7091 94.0582 48.2112C93.9645 48.7077 93.8376 49.1353 93.6776 49.4939C93.5176 49.847 93.3217 50.1338 93.09 50.3545C92.8583 50.5752 92.588 50.7379 92.279 50.8428C91.9701 50.9476 91.6225 51 91.2363 51H90.6157L90.6074 49.3615L90.9218 49.3366C91.126 49.3201 91.3025 49.2677 91.4515 49.1794C91.6004 49.0856 91.7273 48.9532 91.8321 48.7822C91.9425 48.6111 92.0308 48.3905 92.097 48.1201C92.1687 47.8498 92.2239 47.5298 92.2625 47.1602C92.3066 46.7905 92.3397 46.3602 92.3618 45.8692L92.5273 42.0459ZM106.116 49.2042V44.9341C106.116 44.6141 106.058 44.3382 105.942 44.1065C105.826 43.8748 105.649 43.6955 105.412 43.5686C105.18 43.4417 104.888 43.3783 104.535 43.3783C104.209 43.3783 103.928 43.4335 103.691 43.5438C103.454 43.6541 103.269 43.8031 103.136 43.9907C103.004 44.1783 102.938 44.3907 102.938 44.6279H100.952C100.952 44.2748 101.037 43.9327 101.208 43.6017C101.379 43.2707 101.628 42.9756 101.953 42.7163C102.279 42.457 102.667 42.2528 103.12 42.1039C103.572 41.9549 104.08 41.8804 104.643 41.8804C105.316 41.8804 105.911 41.9935 106.43 42.2197C106.954 42.4459 107.365 42.788 107.663 43.2459C107.967 43.6983 108.118 44.2665 108.118 44.9506V48.9311C108.118 49.3394 108.146 49.7063 108.201 50.0318C108.262 50.3518 108.347 50.6304 108.458 50.8676V51H106.414C106.32 50.7848 106.245 50.5117 106.19 50.1807C106.14 49.8442 106.116 49.5187 106.116 49.2042ZM106.405 45.5547L106.422 46.7878H104.99C104.621 46.7878 104.295 46.8236 104.014 46.8954C103.732 46.9616 103.498 47.0609 103.31 47.1933C103.123 47.3257 102.982 47.4857 102.888 47.6733C102.794 47.8608 102.747 48.0732 102.747 48.3105C102.747 48.5477 102.803 48.7656 102.913 48.9642C103.023 49.1573 103.183 49.309 103.393 49.4194C103.608 49.5297 103.867 49.5849 104.171 49.5849C104.579 49.5849 104.935 49.5021 105.238 49.3366C105.547 49.1656 105.79 48.9587 105.967 48.716C106.143 48.4677 106.237 48.2332 106.248 48.0126L106.894 48.898C106.827 49.1242 106.714 49.367 106.554 49.6263C106.394 49.8856 106.185 50.1338 105.925 50.3711C105.671 50.6028 105.365 50.7931 105.007 50.9421C104.654 51.091 104.245 51.1655 103.782 51.1655C103.197 51.1655 102.676 51.0497 102.218 50.8179C101.76 50.5807 101.401 50.2635 101.142 49.8663C100.883 49.4635 100.753 49.0084 100.753 48.5008C100.753 48.0263 100.841 47.6071 101.018 47.2429C101.2 46.8733 101.465 46.5643 101.812 46.3161C102.165 46.0678 102.596 45.8802 103.103 45.7534C103.611 45.6209 104.19 45.5547 104.841 45.5547H106.405ZM112.206 43.7672V54.4426H110.212V42.0459H112.049L112.206 43.7672ZM118.041 46.4402V46.614C118.041 47.265 117.963 47.8691 117.809 48.4263C117.66 48.978 117.436 49.4608 117.139 49.8745C116.846 50.2828 116.485 50.6 116.054 50.8262C115.624 51.0524 115.128 51.1655 114.565 51.1655C114.008 51.1655 113.519 51.0634 113.1 50.8593C112.686 50.6497 112.336 50.3545 112.049 49.9738C111.762 49.5932 111.531 49.1463 111.354 48.6332C111.183 48.1146 111.062 47.5464 110.99 46.9285V46.2582C111.062 45.6016 111.183 45.0058 111.354 44.4707C111.531 43.9355 111.762 43.4748 112.049 43.0886C112.336 42.7025 112.686 42.4045 113.1 42.1949C113.514 41.9853 113.997 41.8804 114.548 41.8804C115.111 41.8804 115.61 41.9908 116.046 42.2114C116.482 42.4266 116.849 42.7356 117.147 43.1383C117.445 43.5355 117.668 44.0155 117.817 44.5782C117.966 45.1354 118.041 45.7561 118.041 46.4402ZM116.046 46.614V46.4402C116.046 46.0264 116.008 45.643 115.93 45.2899C115.853 44.9313 115.732 44.6169 115.566 44.3465C115.401 44.0762 115.188 43.8665 114.929 43.7176C114.675 43.5631 114.369 43.4859 114.01 43.4859C113.657 43.4859 113.354 43.5466 113.1 43.6679C112.846 43.7838 112.634 43.9465 112.463 44.1562C112.292 44.3658 112.159 44.6113 112.066 44.8927C111.972 45.1686 111.906 45.4692 111.867 45.7947V47.4002C111.933 47.7974 112.046 48.1615 112.206 48.4925C112.366 48.8236 112.593 49.0884 112.885 49.287C113.183 49.4801 113.564 49.5766 114.027 49.5766C114.386 49.5766 114.692 49.4994 114.946 49.3449C115.199 49.1904 115.406 48.978 115.566 48.7077C115.732 48.4318 115.853 48.1146 115.93 47.756C116.008 47.3974 116.046 47.0167 116.046 46.614ZM121.798 48.087L125.315 42.0459H127.309V51H125.315V44.9506L121.798 51H119.803V42.0459H121.798V48.087Z" fill="#638BBA"/>
<path d="M22.0614 135.951V137.606H16.2852V135.951H22.0614ZM23.6503 135.951V148H21.5732V135.951H23.6503ZM15.8714 135.951H17.932L17.6423 141.934C17.6037 142.811 17.5292 143.584 17.4189 144.251C17.3086 144.919 17.1596 145.49 16.972 145.964C16.7844 146.439 16.5472 146.828 16.2603 147.131C15.9735 147.429 15.6286 147.65 15.2259 147.793C14.8287 147.931 14.3625 148 13.8273 148H13.2977V146.353L13.6205 146.328C13.9129 146.306 14.1639 146.237 14.3735 146.121C14.5887 146 14.7707 145.824 14.9197 145.592C15.0687 145.355 15.1928 145.048 15.2921 144.673C15.3914 144.298 15.4686 143.84 15.5238 143.3C15.5845 142.759 15.6286 142.127 15.6562 141.404L15.8714 135.951ZM25.562 143.622V143.432C25.562 142.786 25.6558 142.188 25.8433 141.636C26.0309 141.079 26.3012 140.596 26.6543 140.188C27.0129 139.774 27.4488 139.454 27.9618 139.228C28.4804 138.996 29.0652 138.88 29.7162 138.88C30.3728 138.88 30.9576 138.996 31.4706 139.228C31.9892 139.454 32.4278 139.774 32.7864 140.188C33.1451 140.596 33.4181 141.079 33.6057 141.636C33.7933 142.188 33.8871 142.786 33.8871 143.432V143.622C33.8871 144.268 33.7933 144.866 33.6057 145.418C33.4181 145.97 33.1451 146.452 32.7864 146.866C32.4278 147.275 31.992 147.595 31.4789 147.826C30.9658 148.052 30.3838 148.166 29.7328 148.166C29.0763 148.166 28.4887 148.052 27.9701 147.826C27.457 147.595 27.0212 147.275 26.6626 146.866C26.304 146.452 26.0309 145.97 25.8433 145.418C25.6558 144.866 25.562 144.268 25.562 143.622ZM27.5564 143.432V143.622C27.5564 144.025 27.5977 144.406 27.6805 144.764C27.7632 145.123 27.8929 145.437 28.0694 145.708C28.246 145.978 28.4722 146.19 28.748 146.345C29.0239 146.499 29.3521 146.577 29.7328 146.577C30.1024 146.577 30.4224 146.499 30.6928 146.345C30.9686 146.19 31.1948 145.978 31.3713 145.708C31.5479 145.437 31.6775 145.123 31.7603 144.764C31.8486 144.406 31.8927 144.025 31.8927 143.622V143.432C31.8927 143.035 31.8486 142.66 31.7603 142.306C31.6775 141.948 31.5451 141.631 31.3631 141.355C31.1865 141.079 30.9603 140.864 30.6845 140.709C30.4141 140.549 30.0914 140.469 29.7162 140.469C29.3411 140.469 29.0156 140.549 28.7397 140.709C28.4694 140.864 28.246 141.079 28.0694 141.355C27.8929 141.631 27.7632 141.948 27.6805 142.306C27.5977 142.66 27.5564 143.035 27.5564 143.432ZM37.6193 145.087L41.1364 139.046H43.1308V148H41.1364V141.951L37.6193 148H35.6249V139.046H37.6193V145.087ZM40.6068 135.603H42.0881C42.0881 136.061 41.9777 136.467 41.7571 136.82C41.5419 137.167 41.2329 137.44 40.8302 137.639C40.433 137.838 39.9585 137.937 39.4068 137.937C38.5738 137.937 37.9145 137.722 37.429 137.292C36.949 136.856 36.709 136.293 36.709 135.603H38.1903C38.1903 135.912 38.2814 136.185 38.4634 136.423C38.651 136.654 38.9655 136.77 39.4068 136.77C39.8427 136.77 40.1516 136.654 40.3337 136.423C40.5157 136.185 40.6068 135.912 40.6068 135.603ZM47.3016 145.087L50.8187 139.046H52.8131V148H50.8187V141.951L47.3016 148H45.3072V139.046H47.3016V145.087ZM56.446 139.046L58.1508 142.017L59.8886 139.046H62.0816L59.3673 143.44L62.1892 148H59.9962L58.1756 144.905L56.355 148H54.1537L56.9674 143.44L54.2613 139.046H56.446ZM62.6775 146.519V150.963H60.6831V146.519H62.6775ZM68.9916 146.204V141.934C68.9916 141.614 68.9337 141.338 68.8179 141.107C68.702 140.875 68.5255 140.696 68.2882 140.569C68.0565 140.442 67.7641 140.378 67.411 140.378C67.0855 140.378 66.8042 140.433 66.5669 140.544C66.3297 140.654 66.1449 140.803 66.0125 140.991C65.8801 141.178 65.8139 141.391 65.8139 141.628H63.8277C63.8277 141.275 63.9133 140.933 64.0843 140.602C64.2553 140.271 64.5036 139.976 64.8291 139.716C65.1546 139.457 65.5435 139.253 65.9959 139.104C66.4483 138.955 66.9559 138.88 67.5186 138.88C68.1917 138.88 68.7875 138.994 69.3061 139.22C69.8302 139.446 70.2412 139.788 70.5392 140.246C70.8426 140.698 70.9943 141.267 70.9943 141.951V145.931C70.9943 146.339 71.0219 146.706 71.0771 147.032C71.1377 147.352 71.2233 147.63 71.3336 147.868V148H69.2896C69.1958 147.785 69.1213 147.512 69.0661 147.181C69.0165 146.844 68.9916 146.519 68.9916 146.204ZM69.2813 142.555L69.2978 143.788H67.8662C67.4965 143.788 67.171 143.824 66.8897 143.895C66.6083 143.962 66.3738 144.061 66.1863 144.193C65.9987 144.326 65.858 144.486 65.7642 144.673C65.6704 144.861 65.6235 145.073 65.6235 145.31C65.6235 145.548 65.6787 145.766 65.789 145.964C65.8994 146.157 66.0594 146.309 66.269 146.419C66.4842 146.53 66.7435 146.585 67.0469 146.585C67.4552 146.585 67.811 146.502 68.1144 146.337C68.4234 146.166 68.6661 145.959 68.8427 145.716C69.0192 145.468 69.113 145.233 69.124 145.013L69.7695 145.898C69.7033 146.124 69.5902 146.367 69.4302 146.626C69.2702 146.886 69.0606 147.134 68.8013 147.371C68.5475 147.603 68.2413 147.793 67.8827 147.942C67.5296 148.091 67.1214 148.166 66.658 148.166C66.0732 148.166 65.5518 148.05 65.0939 147.818C64.636 147.581 64.2774 147.263 64.0181 146.866C63.7588 146.464 63.6291 146.008 63.6291 145.501C63.6291 145.026 63.7174 144.607 63.8939 144.243C64.076 143.873 64.3408 143.564 64.6884 143.316C65.0415 143.068 65.4718 142.88 65.9794 142.753C66.4869 142.621 67.0662 142.555 67.7172 142.555H69.2813ZM81.4545 139.046V148H79.4518V139.046H81.4545ZM84.3923 139.046V140.618H76.5637V139.046H84.3923ZM90.6403 146.204V141.934C90.6403 141.614 90.5823 141.338 90.4665 141.107C90.3506 140.875 90.1741 140.696 89.9369 140.569C89.7051 140.442 89.4127 140.378 89.0597 140.378C88.7342 140.378 88.4528 140.433 88.2156 140.544C87.9783 140.654 87.7935 140.803 87.6611 140.991C87.5287 141.178 87.4625 141.391 87.4625 141.628H85.4764C85.4764 141.275 85.5619 140.933 85.7329 140.602C85.9039 140.271 86.1522 139.976 86.4777 139.716C86.8032 139.457 87.1922 139.253 87.6446 139.104C88.0969 138.955 88.6045 138.88 89.1672 138.88C89.8403 138.88 90.4361 138.994 90.9547 139.22C91.4789 139.446 91.8899 139.788 92.1878 140.246C92.4912 140.698 92.6429 141.267 92.6429 141.951V145.931C92.6429 146.339 92.6705 146.706 92.7257 147.032C92.7864 147.352 92.8719 147.63 92.9822 147.868V148H90.9382C90.8444 147.785 90.7699 147.512 90.7148 147.181C90.6651 146.844 90.6403 146.519 90.6403 146.204ZM90.9299 142.555L90.9465 143.788H89.5148C89.1452 143.788 88.8197 143.824 88.5383 143.895C88.2569 143.962 88.0225 144.061 87.8349 144.193C87.6473 144.326 87.5066 144.486 87.4128 144.673C87.3191 144.861 87.2722 145.073 87.2722 145.31C87.2722 145.548 87.3273 145.766 87.4377 145.964C87.548 146.157 87.708 146.309 87.9176 146.419C88.1328 146.53 88.3921 146.585 88.6955 146.585C89.1038 146.585 89.4596 146.502 89.7631 146.337C90.072 146.166 90.3148 145.959 90.4913 145.716C90.6679 145.468 90.7616 145.233 90.7727 145.013L91.4182 145.898C91.352 146.124 91.2389 146.367 91.0789 146.626C90.9189 146.886 90.7092 147.134 90.4499 147.371C90.1962 147.603 89.89 147.793 89.5314 147.942C89.1783 148.091 88.77 148.166 88.3066 148.166C87.7218 148.166 87.2004 148.05 86.7425 147.818C86.2846 147.581 85.926 147.263 85.6667 146.866C85.4074 146.464 85.2778 146.008 85.2778 145.501C85.2778 145.026 85.366 144.607 85.5426 144.243C85.7246 143.873 85.9895 143.564 86.337 143.316C86.6901 143.068 87.1204 142.88 87.628 142.753C88.1356 142.621 88.7148 142.555 89.3659 142.555H90.9299ZM94.7946 139.046H96.7889V146.411H99.6274V139.046H101.638V146.411H104.469V139.046H106.463V148H94.7946V139.046ZM110.766 139.046V148H108.772V139.046H110.766ZM116.609 139.046L112.579 144.433H110.303L110.038 142.629H111.701L114.118 139.046H116.609ZM114.275 148L111.577 144.094L113.15 142.96L116.898 148H114.275ZM120.043 145.087L123.56 139.046H125.554V148H123.56V141.951L120.043 148H118.049V139.046H120.043V145.087ZM133.681 139.046V140.635H129.312V139.046H133.681ZM135.245 139.046V148H133.251V139.046H135.245ZM128.823 139.046H130.793L130.553 143.473C130.52 144.13 130.454 144.709 130.354 145.211C130.26 145.708 130.134 146.135 129.974 146.494C129.814 146.847 129.618 147.134 129.386 147.355C129.154 147.575 128.884 147.738 128.575 147.843C128.266 147.948 127.919 148 127.532 148H126.912L126.903 146.361L127.218 146.337C127.422 146.32 127.599 146.268 127.747 146.179C127.896 146.086 128.023 145.953 128.128 145.782C128.238 145.611 128.327 145.39 128.393 145.12C128.465 144.85 128.52 144.53 128.558 144.16C128.603 143.791 128.636 143.36 128.658 142.869L128.823 139.046ZM136.983 143.622V143.432C136.983 142.786 137.077 142.188 137.264 141.636C137.452 141.079 137.722 140.596 138.075 140.188C138.434 139.774 138.87 139.454 139.383 139.228C139.901 138.996 140.486 138.88 141.137 138.88C141.794 138.88 142.379 138.996 142.892 139.228C143.41 139.454 143.849 139.774 144.207 140.188C144.566 140.596 144.839 141.079 145.027 141.636C145.214 142.188 145.308 142.786 145.308 143.432V143.622C145.308 144.268 145.214 144.866 145.027 145.418C144.839 145.97 144.566 146.452 144.207 146.866C143.849 147.275 143.413 147.595 142.9 147.826C142.387 148.052 141.805 148.166 141.154 148.166C140.497 148.166 139.91 148.052 139.391 147.826C138.878 147.595 138.442 147.275 138.084 146.866C137.725 146.452 137.452 145.97 137.264 145.418C137.077 144.866 136.983 144.268 136.983 143.622ZM138.977 143.432V143.622C138.977 144.025 139.019 144.406 139.101 144.764C139.184 145.123 139.314 145.437 139.49 145.708C139.667 145.978 139.893 146.19 140.169 146.345C140.445 146.499 140.773 146.577 141.154 146.577C141.523 146.577 141.843 146.499 142.114 146.345C142.39 146.19 142.616 145.978 142.792 145.708C142.969 145.437 143.098 145.123 143.181 144.764C143.27 144.406 143.314 144.025 143.314 143.622V143.432C143.314 143.035 143.27 142.66 143.181 142.306C143.098 141.948 142.966 141.631 142.784 141.355C142.607 141.079 142.381 140.864 142.105 140.709C141.835 140.549 141.512 140.469 141.137 140.469C140.762 140.469 140.437 140.549 140.161 140.709C139.89 140.864 139.667 141.079 139.49 141.355C139.314 141.631 139.184 141.948 139.101 142.306C139.019 142.66 138.977 143.035 138.977 143.432ZM150.935 139.046V148H148.933V139.046H150.935ZM153.873 139.046V140.618H146.045V139.046H153.873ZM160.659 139.046V140.635H156.29V139.046H160.659ZM162.223 139.046V148H160.229V139.046H162.223ZM155.801 139.046H157.771L157.531 143.473C157.498 144.13 157.432 144.709 157.332 145.211C157.239 145.708 157.112 146.135 156.952 146.494C156.792 146.847 156.596 147.134 156.364 147.355C156.132 147.575 155.862 147.738 155.553 147.843C155.244 147.948 154.897 148 154.51 148H153.89L153.881 146.361L154.196 146.337C154.4 146.32 154.577 146.268 154.726 146.179C154.874 146.086 155.001 145.953 155.106 145.782C155.217 145.611 155.305 145.39 155.371 145.12C155.443 144.85 155.498 144.53 155.537 144.16C155.581 143.791 155.614 143.36 155.636 142.869L155.801 139.046ZM169.39 146.204V141.934C169.39 141.614 169.332 141.338 169.216 141.107C169.1 140.875 168.923 140.696 168.686 140.569C168.455 140.442 168.162 140.378 167.809 140.378C167.484 140.378 167.202 140.433 166.965 140.544C166.728 140.654 166.543 140.803 166.41 140.991C166.278 141.178 166.212 141.391 166.212 141.628H164.226C164.226 141.275 164.311 140.933 164.482 140.602C164.653 140.271 164.902 139.976 165.227 139.716C165.553 139.457 165.942 139.253 166.394 139.104C166.846 138.955 167.354 138.88 167.917 138.88C168.59 138.88 169.186 138.994 169.704 139.22C170.228 139.446 170.639 139.788 170.937 140.246C171.241 140.698 171.392 141.267 171.392 141.951V145.931C171.392 146.339 171.42 146.706 171.475 147.032C171.536 147.352 171.621 147.63 171.732 147.868V148H169.688C169.594 147.785 169.519 147.512 169.464 147.181C169.414 146.844 169.39 146.519 169.39 146.204ZM169.679 142.555L169.696 143.788H168.264C167.895 143.788 167.569 143.824 167.288 143.895C167.006 143.962 166.772 144.061 166.584 144.193C166.397 144.326 166.256 144.486 166.162 144.673C166.068 144.861 166.022 145.073 166.022 145.31C166.022 145.548 166.077 145.766 166.187 145.964C166.297 146.157 166.457 146.309 166.667 146.419C166.882 146.53 167.141 146.585 167.445 146.585C167.853 146.585 168.209 146.502 168.512 146.337C168.821 146.166 169.064 145.959 169.241 145.716C169.417 145.468 169.511 145.233 169.522 145.013L170.168 145.898C170.101 146.124 169.988 146.367 169.828 146.626C169.668 146.886 169.459 147.134 169.199 147.371C168.946 147.603 168.639 147.793 168.281 147.942C167.928 148.091 167.519 148.166 167.056 148.166C166.471 148.166 165.95 148.05 165.492 147.818C165.034 147.581 164.675 147.263 164.416 146.866C164.157 146.464 164.027 146.008 164.027 145.501C164.027 145.026 164.115 144.607 164.292 144.243C164.474 143.873 164.739 143.564 165.086 143.316C165.439 143.068 165.87 142.88 166.377 142.753C166.885 142.621 167.464 142.555 168.115 142.555H169.679ZM175.48 140.767V151.443H173.486V139.046H175.323L175.48 140.767ZM181.315 143.44V143.614C181.315 144.265 181.237 144.869 181.083 145.426C180.934 145.978 180.711 146.461 180.413 146.875C180.12 147.283 179.759 147.6 179.329 147.826C178.898 148.052 178.402 148.166 177.839 148.166C177.282 148.166 176.793 148.063 176.374 147.859C175.96 147.65 175.61 147.355 175.323 146.974C175.036 146.593 174.805 146.146 174.628 145.633C174.457 145.115 174.336 144.546 174.264 143.928V143.258C174.336 142.602 174.457 142.006 174.628 141.471C174.805 140.936 175.036 140.475 175.323 140.089C175.61 139.702 175.96 139.405 176.374 139.195C176.788 138.985 177.271 138.88 177.822 138.88C178.385 138.88 178.884 138.991 179.32 139.211C179.756 139.427 180.123 139.736 180.421 140.138C180.719 140.536 180.942 141.016 181.091 141.578C181.24 142.135 181.315 142.756 181.315 143.44ZM179.32 143.614V143.44C179.32 143.026 179.282 142.643 179.204 142.29C179.127 141.931 179.006 141.617 178.84 141.347C178.675 141.076 178.462 140.867 178.203 140.718C177.949 140.563 177.643 140.486 177.284 140.486C176.931 140.486 176.628 140.547 176.374 140.668C176.12 140.784 175.908 140.947 175.737 141.156C175.566 141.366 175.434 141.611 175.34 141.893C175.246 142.169 175.18 142.469 175.141 142.795V144.4C175.207 144.797 175.32 145.162 175.48 145.493C175.64 145.824 175.867 146.088 176.159 146.287C176.457 146.48 176.838 146.577 177.301 146.577C177.66 146.577 177.966 146.499 178.22 146.345C178.473 146.19 178.68 145.978 178.84 145.708C179.006 145.432 179.127 145.115 179.204 144.756C179.282 144.397 179.32 144.017 179.32 143.614ZM185.072 145.087L188.589 139.046H190.583V148H188.589V141.951L185.072 148H183.077V139.046H185.072V145.087Z" fill="#638BBA"/>
<path d="M30.3549 89.155V93H14.4368V89.7404L21.8737 81.8605C22.5699 81.0588 23.1237 80.352 23.5351 79.7402C23.9571 79.1283 24.263 78.5745 24.4529 78.0787C24.6428 77.5724 24.7377 77.1082 24.7377 76.6863C24.7377 76.0006 24.6269 75.4204 24.4054 74.9457C24.1944 74.471 23.8832 74.1071 23.4718 73.8539C23.0604 73.6008 22.5594 73.4742 21.9686 73.4742C21.3357 73.4742 20.7924 73.6377 20.3388 73.9647C19.8852 74.2917 19.5371 74.7453 19.2945 75.3255C19.0519 75.8951 18.9306 76.5439 18.9306 77.2717H13.9621C13.9621 75.8688 14.2997 74.5924 14.9748 73.4425C15.6499 72.2822 16.594 71.3592 17.8071 70.6735C19.0202 69.9773 20.4391 69.6291 22.0636 69.6291C23.7303 69.6291 25.128 69.8929 26.2567 70.4203C27.3854 70.9477 28.2399 71.702 28.8201 72.683C29.4003 73.6641 29.6904 74.8455 29.6904 76.2274C29.6904 77.008 29.5638 77.7623 29.3106 78.4901C29.068 79.218 28.7146 79.9406 28.2504 80.6579C27.7863 81.3752 27.2272 82.1084 26.5732 82.8573C25.9192 83.5958 25.1807 84.3764 24.3579 85.1992L20.8768 89.155H30.3549ZM44.5958 69.9456V93H39.6431V75.5787L34.2949 77.2085V73.3792L44.1053 69.9456H44.5958ZM71.3686 69.9456V93H66.416V75.5787L61.0677 77.2085V73.3792L70.8781 69.9456H71.3686ZM94.8819 84.2023V88.0315H78.2992L78.0302 85.0251L87.4608 69.9614H91.3691L87.1285 76.9869L82.8404 84.2023H94.8819ZM92.4135 69.9614V93H87.4766V69.9614H92.4135ZM113.079 86.6707C113.079 88.1265 112.736 89.3501 112.05 90.3417C111.364 91.3333 110.426 92.077 109.234 92.5728C108.052 93.0686 106.702 93.3165 105.183 93.3165C103.674 93.3165 102.319 93.0686 101.116 92.5728C99.9242 92.077 98.9801 91.3333 98.2839 90.3417C97.5876 89.3501 97.2395 88.1265 97.2395 86.6707C97.2395 85.6791 97.4347 84.7878 97.825 83.9966C98.2259 83.2054 98.7797 82.5303 99.4864 81.9712C100.204 81.4122 101.042 80.9849 102.002 80.6896C102.973 80.3942 104.022 80.2465 105.151 80.2465C106.67 80.2465 108.026 80.5102 109.218 81.0377C110.42 81.5546 111.364 82.293 112.05 83.2529C112.736 84.2129 113.079 85.3521 113.079 86.6707ZM108.11 86.3068C108.11 85.6317 107.983 85.062 107.73 84.5979C107.488 84.1232 107.145 83.7593 106.702 83.5061C106.259 83.2424 105.742 83.1105 105.151 83.1105C104.56 83.1105 104.044 83.2424 103.6 83.5061C103.157 83.7593 102.809 84.1232 102.556 84.5979C102.314 85.062 102.192 85.6317 102.192 86.3068C102.192 86.9608 102.319 87.5305 102.572 88.0157C102.825 88.4904 103.173 88.8543 103.616 89.1075C104.059 89.3501 104.581 89.4714 105.183 89.4714C105.784 89.4714 106.301 89.3501 106.733 89.1075C107.166 88.8543 107.504 88.4904 107.746 88.0157C107.989 87.5305 108.11 86.9608 108.11 86.3068ZM112.588 76.085C112.588 77.277 112.272 78.3266 111.639 79.2338C111.016 80.1305 110.146 80.832 109.028 81.3383C107.91 81.8341 106.628 82.082 105.183 82.082C103.738 82.082 102.451 81.8341 101.322 81.3383C100.204 80.832 99.3229 80.1305 98.6794 79.2338C98.0465 78.3266 97.7301 77.277 97.7301 76.085C97.7301 74.6926 98.0465 73.5164 98.6794 72.5564C99.3229 71.5965 100.204 70.8686 101.322 70.3728C102.44 69.877 103.716 69.6291 105.151 69.6291C106.607 69.6291 107.894 69.877 109.012 70.3728C110.13 70.8686 111.006 71.5965 111.639 72.5564C112.272 73.5164 112.588 74.6926 112.588 76.085ZM107.651 76.3382C107.651 75.758 107.551 75.2569 107.351 74.835C107.161 74.4025 106.881 74.0702 106.512 73.8381C106.143 73.5955 105.689 73.4742 105.151 73.4742C104.634 73.4742 104.191 73.5902 103.822 73.8223C103.453 74.0438 103.168 74.3708 102.968 74.8033C102.778 75.2253 102.683 75.7369 102.683 76.3382C102.683 76.9289 102.778 77.4458 102.968 77.8889C103.168 78.3214 103.453 78.6642 103.822 78.9174C104.202 79.16 104.655 79.2813 105.183 79.2813C105.721 79.2813 106.169 79.16 106.528 78.9174C106.897 78.6642 107.177 78.3214 107.366 77.8889C107.556 77.4458 107.651 76.9289 107.651 76.3382Z" fill="#003C82"/>
<path d="M30.3549 186.887V190.732H14.4368V187.473L21.8737 179.593C22.5699 178.791 23.1237 178.084 23.5351 177.473C23.9571 176.861 24.263 176.307 24.4529 175.811C24.6428 175.305 24.7377 174.841 24.7377 174.419C24.7377 173.733 24.6269 173.153 24.4054 172.678C24.1944 172.203 23.8832 171.84 23.4718 171.586C23.0604 171.333 22.5594 171.207 21.9686 171.207C21.3357 171.207 20.7924 171.37 20.3388 171.697C19.8852 172.024 19.5371 172.478 19.2945 173.058C19.0519 173.628 18.9306 174.276 18.9306 175.004H13.9621C13.9621 173.601 14.2997 172.325 14.9748 171.175C15.6499 170.015 16.594 169.092 17.8071 168.406C19.0202 167.71 20.4391 167.362 22.0636 167.362C23.7303 167.362 25.128 167.625 26.2567 168.153C27.3854 168.68 28.2399 169.434 28.8201 170.415C29.4003 171.396 29.6904 172.578 29.6904 173.96C29.6904 174.74 29.5638 175.495 29.3106 176.223C29.068 176.95 28.7146 177.673 28.2504 178.39C27.7863 179.108 27.2272 179.841 26.5732 180.59C25.9192 181.328 25.1807 182.109 24.3579 182.932L20.8768 186.887H30.3549ZM48.8839 177.156V181.254C48.8839 182.942 48.694 184.403 48.3142 185.637C47.945 186.872 47.407 187.89 46.7003 188.691C46.0041 189.493 45.1707 190.089 44.2002 190.479C43.2403 190.859 42.1748 191.049 41.0039 191.049C40.0651 191.049 39.1895 190.928 38.3773 190.685C37.565 190.442 36.8319 190.068 36.1779 189.562C35.5344 189.045 34.9806 188.401 34.5164 187.631C34.0523 186.861 33.6936 185.943 33.4404 184.878C33.1978 183.812 33.0765 182.605 33.0765 181.254V177.156C33.0765 175.447 33.2611 173.981 33.6303 172.757C34.0101 171.534 34.5533 170.521 35.2601 169.719C35.9669 168.918 36.8002 168.327 37.7602 167.947C38.7307 167.567 39.8014 167.377 40.9723 167.377C41.9111 167.377 42.7814 167.499 43.5831 167.741C44.3954 167.984 45.1285 168.358 45.7825 168.865C46.4366 169.371 46.9904 170.009 47.444 170.779C47.9081 171.549 48.2615 172.467 48.5041 173.533C48.7573 174.587 48.8839 175.795 48.8839 177.156ZM43.947 181.871V176.507C43.947 175.716 43.8996 175.031 43.8046 174.45C43.7202 173.86 43.5937 173.359 43.4249 172.947C43.2666 172.536 43.0662 172.203 42.8236 171.95C42.581 171.697 42.3014 171.513 41.985 171.396C41.6791 171.27 41.3415 171.207 40.9723 171.207C40.5081 171.207 40.0915 171.302 39.7223 171.491C39.353 171.681 39.0419 171.982 38.7887 172.393C38.5355 172.794 38.3404 173.337 38.2032 174.023C38.0766 174.698 38.0133 175.526 38.0133 176.507V181.871C38.0133 182.663 38.0555 183.354 38.1399 183.944C38.2349 184.535 38.3615 185.041 38.5197 185.463C38.6885 185.875 38.8942 186.212 39.1368 186.476C39.3794 186.729 39.659 186.914 39.9754 187.03C40.2919 187.146 40.6347 187.204 41.0039 187.204C41.4681 187.204 41.8795 187.114 42.2381 186.935C42.5968 186.745 42.9027 186.444 43.1559 186.033C43.4196 185.611 43.6148 185.057 43.7413 184.371C43.8785 183.686 43.947 182.852 43.947 181.871ZM63.726 167.409H64.4855V171.333H64.2007C63.0931 171.333 62.0804 171.491 61.1627 171.808C60.2555 172.124 59.4696 172.594 58.805 173.216C58.1404 173.828 57.6288 174.587 57.2702 175.495C56.9221 176.391 56.748 177.425 56.748 178.596V182.52C56.748 183.311 56.8166 184.002 56.9537 184.593C57.1014 185.173 57.3124 185.658 57.5866 186.049C57.8714 186.429 58.2143 186.719 58.6151 186.919C59.016 187.109 59.4696 187.204 59.9759 187.204C60.4295 187.204 60.8462 187.104 61.226 186.903C61.6057 186.703 61.9327 186.418 62.207 186.049C62.4813 185.68 62.6922 185.252 62.8399 184.767C62.9876 184.271 63.0615 183.733 63.0615 183.153C63.0615 182.541 62.9823 181.987 62.8241 181.492C62.6764 180.985 62.4602 180.553 62.1754 180.194C61.9011 179.836 61.5635 179.561 61.1627 179.371C60.7618 179.171 60.3188 179.071 59.8335 179.071C59.1373 179.071 58.536 179.229 58.0297 179.545C57.5233 179.862 57.133 180.268 56.8588 180.764C56.5845 181.26 56.4421 181.766 56.4315 182.283L55.1182 181.191C55.1182 180.474 55.2606 179.767 55.5454 179.071C55.8408 178.364 56.2575 177.726 56.7955 177.156C57.3335 176.576 57.9928 176.117 58.7734 175.78C59.5645 175.431 60.4665 175.257 61.4791 175.257C62.5446 175.257 63.4834 175.463 64.2957 175.874C65.1079 176.275 65.7883 176.834 66.3369 177.552C66.8959 178.269 67.3126 179.108 67.5869 180.068C67.8717 181.017 68.0141 182.035 68.0141 183.121C68.0141 184.24 67.819 185.284 67.4287 186.254C67.0489 187.214 66.5109 188.053 65.8147 188.77C65.1185 189.488 64.2851 190.047 63.3146 190.448C62.3547 190.848 61.284 191.049 60.1025 191.049C58.8789 191.049 57.7607 190.833 56.748 190.4C55.7459 189.968 54.8703 189.351 54.1214 188.549C53.3829 187.737 52.808 186.766 52.3966 185.637C51.9958 184.509 51.7953 183.243 51.7953 181.84V179.988C51.7953 178.069 52.0907 176.339 52.6814 174.798C53.2827 173.258 54.1161 171.94 55.1815 170.843C56.2575 169.735 57.5233 168.886 58.9791 168.295C60.4348 167.704 62.0171 167.409 63.726 167.409ZM86.8121 181.935V185.764H70.2294L69.9604 182.758L79.391 167.694H83.2993L79.0587 174.719L74.7706 181.935H86.8121ZM84.3436 167.694V190.732H79.4068V167.694H84.3436Z" fill="#003C82"/>
</g>
<defs>
<clipPath id="clip0_116_2826">
<rect width="245" height="242" fill="white"/>
</clipPath>
</defs>
</svg>
