<svg width="277" height="242" viewBox="0 0 277 242" fill="none" xmlns="http://www.w3.org/2000/svg">
<g clip-path="url(#clip0_116_2803)">
<rect width="277" height="244" rx="7.13607" fill="#D8F1FD"/>
<path d="M18.8515 20.2741L15.2517 30.7178H13.0753L17.6102 18.6687H19.0005L18.8515 20.2741ZM21.8638 30.7178L18.2557 20.2741L18.0985 18.6687H19.497L24.0485 30.7178H21.8638ZM21.69 26.249V27.8958H15.1358V26.249H21.69ZM27.1105 27.8048L30.6275 21.7637H32.6219V30.7178H30.6275V24.6684L27.1105 30.7178H25.1161V21.7637H27.1105V27.8048ZM30.0979 18.3211H31.5792C31.5792 18.779 31.4689 19.1845 31.2482 19.5376C31.033 19.8852 30.7241 20.1583 30.3213 20.3569C29.9241 20.5555 29.4497 20.6548 28.898 20.6548C28.0649 20.6548 27.4056 20.4396 26.9201 20.0093C26.4401 19.5735 26.2002 19.0107 26.2002 18.3211H27.6815C27.6815 18.6301 27.7725 18.9032 27.9546 19.1404C28.1421 19.3721 28.4566 19.488 28.898 19.488C29.3338 19.488 29.6427 19.3721 29.8248 19.1404C30.0069 18.9032 30.0979 18.6301 30.0979 18.3211ZM40.7484 21.7637V23.3526H36.379V21.7637H40.7484ZM42.3125 21.7637V30.7178H40.3181V21.7637H42.3125ZM35.8907 21.7637H37.8603L37.6203 26.1911C37.5872 26.8476 37.521 27.4269 37.4217 27.9289C37.3279 28.4255 37.201 28.853 37.041 29.2116C36.881 29.5647 36.6852 29.8516 36.4535 30.0723C36.2217 30.293 35.9514 30.4557 35.6425 30.5605C35.3335 30.6654 34.9859 30.7178 34.5998 30.7178H33.9791L33.9708 29.0792L34.2853 29.0544C34.4894 29.0379 34.666 28.9854 34.8149 28.8972C34.9639 28.8034 35.0908 28.671 35.1956 28.4999C35.3059 28.3289 35.3942 28.1082 35.4604 27.8379C35.5321 27.5676 35.5873 27.2476 35.6259 26.878C35.6701 26.5083 35.7032 26.078 35.7252 25.587L35.8907 21.7637ZM49.4791 28.922V24.6519C49.4791 24.3319 49.4211 24.056 49.3053 23.8243C49.1894 23.5926 49.0129 23.4133 48.7756 23.2864C48.5439 23.1595 48.2515 23.0961 47.8984 23.0961C47.5729 23.0961 47.2916 23.1512 47.0543 23.2616C46.8171 23.3719 46.6323 23.5209 46.4999 23.7084C46.3675 23.896 46.3013 24.1084 46.3013 24.3457H44.3152C44.3152 23.9926 44.4007 23.6505 44.5717 23.3195C44.7427 22.9885 44.991 22.6933 45.3165 22.434C45.642 22.1747 46.0309 21.9706 46.4833 21.8216C46.9357 21.6727 47.4433 21.5982 48.006 21.5982C48.6791 21.5982 49.2749 21.7113 49.7935 21.9375C50.3176 22.1637 50.7287 22.5057 51.0266 22.9637C51.33 23.416 51.4817 23.9843 51.4817 24.6684V28.6489C51.4817 29.0572 51.5093 29.424 51.5645 29.7495C51.6252 30.0695 51.7107 30.3481 51.821 30.5854V30.7178H49.777C49.6832 30.5026 49.6087 30.2295 49.5535 29.8985C49.5039 29.562 49.4791 29.2365 49.4791 28.922ZM49.7687 25.2725L49.7852 26.5056H48.3536C47.984 26.5056 47.6585 26.5414 47.3771 26.6131C47.0957 26.6793 46.8612 26.7786 46.6737 26.9111C46.4861 27.0435 46.3454 27.2035 46.2516 27.391C46.1578 27.5786 46.1109 27.791 46.1109 28.0282C46.1109 28.2655 46.1661 28.4834 46.2764 28.682C46.3868 28.8751 46.5468 29.0268 46.7564 29.1372C46.9716 29.2475 47.2309 29.3027 47.5343 29.3027C47.9426 29.3027 48.2984 29.2199 48.6019 29.0544C48.9108 28.8834 49.1536 28.6765 49.3301 28.4337C49.5066 28.1855 49.6004 27.951 49.6115 27.7303L50.2569 28.6158C50.1907 28.842 50.0776 29.0847 49.9177 29.344C49.7577 29.6033 49.548 29.8516 49.2887 30.0888C49.0349 30.3206 48.7287 30.5109 48.3701 30.6598C48.0171 30.8088 47.6088 30.8833 47.1454 30.8833C46.5606 30.8833 46.0392 30.7674 45.5813 30.5357C45.1234 30.2985 44.7648 29.9813 44.5055 29.584C44.2462 29.1813 44.1165 28.7261 44.1165 28.2186C44.1165 27.7441 44.2048 27.3248 44.3814 26.9607C44.5634 26.5911 44.8282 26.2821 45.1758 26.0339C45.5289 25.7856 45.9592 25.598 46.4668 25.4711C46.9743 25.3387 47.5536 25.2725 48.2046 25.2725H49.7687ZM59.6827 25.5042V27.0766H55.0484V25.5042H59.6827ZM55.6277 21.7637V30.7178H53.6333V21.7637H55.6277ZM61.1226 21.7637V30.7178H59.1283V21.7637H61.1226ZM68.5706 28.3013L71.2353 21.7637H72.9648L69.2492 30.7178H67.892L64.1846 21.7637H65.9141L68.5706 28.3013ZM65.4011 21.7637V30.7178H63.4067V21.7637H65.4011ZM71.7401 30.7178V21.7637H73.7427V30.7178H71.7401ZM81.0252 28.922V24.6519C81.0252 24.3319 80.9672 24.056 80.8514 23.8243C80.7355 23.5926 80.559 23.4133 80.3217 23.2864C80.09 23.1595 79.7976 23.0961 79.4445 23.0961C79.119 23.0961 78.8377 23.1512 78.6004 23.2616C78.3632 23.3719 78.1784 23.5209 78.046 23.7084C77.9136 23.896 77.8474 24.1084 77.8474 24.3457H75.8613C75.8613 23.9926 75.9468 23.6505 76.1178 23.3195C76.2888 22.9885 76.5371 22.6933 76.8626 22.434C77.1881 22.1747 77.577 21.9706 78.0294 21.8216C78.4818 21.6727 78.9894 21.5982 79.5521 21.5982C80.2252 21.5982 80.821 21.7113 81.3396 21.9375C81.8637 22.1637 82.2747 22.5057 82.5727 22.9637C82.8761 23.416 83.0278 23.9843 83.0278 24.6684V28.6489C83.0278 29.0572 83.0554 29.424 83.1106 29.7495C83.1713 30.0695 83.2568 30.3481 83.3671 30.5854V30.7178H81.3231C81.2293 30.5026 81.1548 30.2295 81.0996 29.8985C81.05 29.562 81.0252 29.2365 81.0252 28.922ZM81.3148 25.2725L81.3313 26.5056H79.8997C79.53 26.5056 79.2045 26.5414 78.9232 26.6131C78.6418 26.6793 78.4073 26.7786 78.2198 26.9111C78.0322 27.0435 77.8915 27.2035 77.7977 27.391C77.7039 27.5786 77.657 27.791 77.657 28.0282C77.657 28.2655 77.7122 28.4834 77.8225 28.682C77.9329 28.8751 78.0929 29.0268 78.3025 29.1372C78.5177 29.2475 78.777 29.3027 79.0804 29.3027C79.4887 29.3027 79.8445 29.2199 80.148 29.0544C80.4569 28.8834 80.6996 28.6765 80.8762 28.4337C81.0527 28.1855 81.1465 27.951 81.1576 27.7303L81.803 28.6158C81.7368 28.842 81.6237 29.0847 81.4638 29.344C81.3038 29.6033 81.0941 29.8516 80.8348 30.0888C80.581 30.3206 80.2748 30.5109 79.9162 30.6598C79.5632 30.8088 79.1549 30.8833 78.6915 30.8833C78.1067 30.8833 77.5853 30.7674 77.1274 30.5357C76.6695 30.2985 76.3109 29.9813 76.0516 29.584C75.7923 29.1813 75.6626 28.7261 75.6626 28.2186C75.6626 27.7441 75.7509 27.3248 75.9275 26.9607C76.1095 26.5911 76.3743 26.2821 76.7219 26.0339C77.075 25.7856 77.5053 25.598 78.0129 25.4711C78.5204 25.3387 79.0997 25.2725 79.7507 25.2725H81.3148ZM94.6549 28.3013L97.3196 21.7637H99.0491L95.3334 30.7178H93.9763L90.2689 21.7637H91.9984L94.6549 28.3013ZM91.4853 21.7637V30.7178H89.491V21.7637H91.4853ZM97.8244 30.7178V21.7637H99.827V30.7178H97.8244ZM107.109 28.922V24.6519C107.109 24.3319 107.052 24.056 106.936 23.8243C106.82 23.5926 106.643 23.4133 106.406 23.2864C106.174 23.1595 105.882 23.0961 105.529 23.0961C105.203 23.0961 104.922 23.1512 104.685 23.2616C104.447 23.3719 104.263 23.5209 104.13 23.7084C103.998 23.896 103.932 24.1084 103.932 24.3457H101.946C101.946 23.9926 102.031 23.6505 102.202 23.3195C102.373 22.9885 102.621 22.6933 102.947 22.434C103.272 22.1747 103.661 21.9706 104.114 21.8216C104.566 21.6727 105.074 21.5982 105.636 21.5982C106.309 21.5982 106.905 21.7113 107.424 21.9375C107.948 22.1637 108.359 22.5057 108.657 22.9637C108.96 23.416 109.112 23.9843 109.112 24.6684V28.6489C109.112 29.0572 109.14 29.424 109.195 29.7495C109.256 30.0695 109.341 30.3481 109.451 30.5854V30.7178H107.407C107.314 30.5026 107.239 30.2295 107.184 29.8985C107.134 29.562 107.109 29.2365 107.109 28.922ZM107.399 25.2725L107.416 26.5056H105.984C105.614 26.5056 105.289 26.5414 105.007 26.6131C104.726 26.6793 104.492 26.7786 104.304 26.9111C104.116 27.0435 103.976 27.2035 103.882 27.391C103.788 27.5786 103.741 27.791 103.741 28.0282C103.741 28.2655 103.796 28.4834 103.907 28.682C104.017 28.8751 104.177 29.0268 104.387 29.1372C104.602 29.2475 104.861 29.3027 105.165 29.3027C105.573 29.3027 105.929 29.2199 106.232 29.0544C106.541 28.8834 106.784 28.6765 106.96 28.4337C107.137 28.1855 107.231 27.951 107.242 27.7303L107.887 28.6158C107.821 28.842 107.708 29.0847 107.548 29.344C107.388 29.6033 107.178 29.8516 106.919 30.0888C106.665 30.3206 106.359 30.5109 106.001 30.6598C105.647 30.8088 105.239 30.8833 104.776 30.8833C104.191 30.8833 103.67 30.7674 103.212 30.5357C102.754 30.2985 102.395 29.9813 102.136 29.584C101.877 29.1813 101.747 28.7261 101.747 28.2186C101.747 27.7441 101.835 27.3248 102.012 26.9607C102.194 26.5911 102.459 26.2821 102.806 26.0339C103.159 25.7856 103.59 25.598 104.097 25.4711C104.605 25.3387 105.184 25.2725 105.835 25.2725H107.399ZM116.817 17.8411H118.43C118.43 18.3322 118.361 18.7376 118.223 19.0576C118.091 19.3721 117.892 19.6314 117.628 19.8355C117.368 20.0341 117.046 20.1941 116.659 20.3155C116.279 20.4369 115.837 20.5472 115.335 20.6465C114.872 20.7458 114.453 20.9031 114.077 21.1182C113.708 21.3279 113.396 21.623 113.142 22.0037C112.894 22.3789 112.715 22.8616 112.604 23.4519C112.494 24.0422 112.461 24.7622 112.505 25.6118V26.1745L110.924 26.3152V25.7525C110.924 24.6987 111.021 23.7802 111.214 22.9968C111.407 22.2133 111.68 21.5541 112.033 21.0189C112.392 20.4783 112.817 20.0479 113.308 19.7279C113.804 19.408 114.356 19.1873 114.963 19.0659C115.377 18.9776 115.721 18.8894 115.997 18.8011C116.273 18.7073 116.477 18.5887 116.61 18.4452C116.748 18.2963 116.817 18.0949 116.817 17.8411ZM115.418 22.2685C116.014 22.2685 116.543 22.3733 117.007 22.583C117.47 22.7871 117.862 23.074 118.182 23.4436C118.502 23.8133 118.745 24.2491 118.91 24.7512C119.081 25.2532 119.167 25.7994 119.167 26.3897V26.5718C119.167 27.1897 119.076 27.7607 118.894 28.2848C118.712 28.8089 118.444 29.2668 118.091 29.6585C117.738 30.0447 117.305 30.3481 116.792 30.5688C116.284 30.784 115.702 30.8916 115.046 30.8916C114.395 30.8916 113.813 30.7785 113.299 30.5523C112.786 30.3261 112.353 30.0116 112 29.6089C111.647 29.2006 111.38 28.7234 111.198 28.1772C111.015 27.631 110.924 27.0352 110.924 26.3897V26.2076C110.919 26.0918 110.949 25.9787 111.015 25.8683C111.087 25.758 111.173 25.6394 111.272 25.5125C111.371 25.3856 111.46 25.2394 111.537 25.0739C111.813 24.5167 112.138 24.0284 112.513 23.6091C112.888 23.1899 113.316 22.8616 113.796 22.6244C114.282 22.3871 114.822 22.2685 115.418 22.2685ZM115.029 23.8491C114.533 23.8491 114.127 23.9677 113.813 24.205C113.504 24.4367 113.275 24.7456 113.126 25.1318C112.982 25.518 112.911 25.9373 112.911 26.3897V26.5718C112.911 26.9414 112.952 27.2917 113.035 27.6227C113.117 27.9538 113.242 28.2462 113.407 28.4999C113.578 28.7482 113.799 28.9441 114.069 29.0875C114.345 29.2309 114.67 29.3027 115.046 29.3027C115.426 29.3027 115.749 29.2309 116.014 29.0875C116.284 28.9441 116.502 28.7482 116.668 28.4999C116.839 28.2462 116.963 27.9538 117.04 27.6227C117.123 27.2917 117.164 26.9414 117.164 26.5718V26.3897C117.164 26.0476 117.123 25.7249 117.04 25.4215C116.963 25.118 116.839 24.8505 116.668 24.6188C116.497 24.3815 116.276 24.1939 116.006 24.056C115.735 23.9181 115.41 23.8491 115.029 23.8491ZM126.747 21.7637V23.3526H122.378V21.7637H126.747ZM128.311 21.7637V30.7178H126.317V21.7637H128.311ZM121.889 21.7637H123.859L123.619 26.1911C123.586 26.8476 123.52 27.4269 123.42 27.9289C123.327 28.4255 123.2 28.853 123.04 29.2116C122.88 29.5647 122.684 29.8516 122.452 30.0723C122.22 30.293 121.95 30.4557 121.641 30.5605C121.332 30.6654 120.985 30.7178 120.598 30.7178H119.978L119.97 29.0792L120.284 29.0544C120.488 29.0379 120.665 28.9854 120.814 28.8972C120.963 28.8034 121.089 28.671 121.194 28.4999C121.305 28.3289 121.393 28.1082 121.459 27.8379C121.531 27.5676 121.586 27.2476 121.625 26.878C121.669 26.5083 121.702 26.078 121.724 25.587L121.889 21.7637ZM135.478 28.922V24.6519C135.478 24.3319 135.42 24.056 135.304 23.8243C135.188 23.5926 135.012 23.4133 134.774 23.2864C134.543 23.1595 134.25 23.0961 133.897 23.0961C133.572 23.0961 133.29 23.1512 133.053 23.2616C132.816 23.3719 132.631 23.5209 132.499 23.7084C132.366 23.896 132.3 24.1084 132.3 24.3457H130.314C130.314 23.9926 130.399 23.6505 130.57 23.3195C130.741 22.9885 130.99 22.6933 131.315 22.434C131.641 22.1747 132.03 21.9706 132.482 21.8216C132.934 21.6727 133.442 21.5982 134.005 21.5982C134.678 21.5982 135.274 21.7113 135.792 21.9375C136.316 22.1637 136.727 22.5057 137.025 22.9637C137.329 23.416 137.48 23.9843 137.48 24.6684V28.6489C137.48 29.0572 137.508 29.424 137.563 29.7495C137.624 30.0695 137.709 30.3481 137.82 30.5854V30.7178H135.776C135.682 30.5026 135.607 30.2295 135.552 29.8985C135.503 29.562 135.478 29.2365 135.478 28.922ZM135.767 25.2725L135.784 26.5056H134.352C133.983 26.5056 133.657 26.5414 133.376 26.6131C133.094 26.6793 132.86 26.7786 132.672 26.9111C132.485 27.0435 132.344 27.2035 132.25 27.391C132.157 27.5786 132.11 27.791 132.11 28.0282C132.11 28.2655 132.165 28.4834 132.275 28.682C132.385 28.8751 132.545 29.0268 132.755 29.1372C132.97 29.2475 133.23 29.3027 133.533 29.3027C133.941 29.3027 134.297 29.2199 134.601 29.0544C134.91 28.8834 135.152 28.6765 135.329 28.4337C135.505 28.1855 135.599 27.951 135.61 27.7303L136.256 28.6158C136.189 28.842 136.076 29.0847 135.916 29.344C135.756 29.6033 135.547 29.8516 135.287 30.0888C135.034 30.3206 134.727 30.5109 134.369 30.6598C134.016 30.8088 133.607 30.8833 133.144 30.8833C132.559 30.8833 132.038 30.7674 131.58 30.5357C131.122 30.2985 130.763 29.9813 130.504 29.584C130.245 29.1813 130.115 28.7261 130.115 28.2186C130.115 27.7441 130.204 27.3248 130.38 26.9607C130.562 26.5911 130.827 26.2821 131.175 26.0339C131.528 25.7856 131.958 25.598 132.465 25.4711C132.973 25.3387 133.552 25.2725 134.203 25.2725H135.767ZM145.524 21.7637V23.3526H141.618V30.7178H139.624V21.7637H145.524ZM143.819 25.4794V26.8614H138.267V25.4794H143.819ZM152.699 21.7637V23.3526H148.33V21.7637H152.699ZM154.263 21.7637V30.7178H152.269V21.7637H154.263ZM147.841 21.7637H149.811L149.571 26.1911C149.538 26.8476 149.472 27.4269 149.372 27.9289C149.278 28.4255 149.152 28.853 148.992 29.2116C148.832 29.5647 148.636 29.8516 148.404 30.0723C148.172 30.293 147.902 30.4557 147.593 30.5605C147.284 30.6654 146.937 30.7178 146.55 30.7178H145.93L145.921 29.0792L146.236 29.0544C146.44 29.0379 146.617 28.9854 146.765 28.8972C146.914 28.8034 147.041 28.671 147.146 28.4999C147.257 28.3289 147.345 28.1082 147.411 27.8379C147.483 27.5676 147.538 27.2476 147.576 26.878C147.621 26.5083 147.654 26.078 147.676 25.587L147.841 21.7637ZM161.43 28.922V24.6519C161.43 24.3319 161.372 24.056 161.256 23.8243C161.14 23.5926 160.963 23.4133 160.726 23.2864C160.495 23.1595 160.202 23.0961 159.849 23.0961C159.524 23.0961 159.242 23.1512 159.005 23.2616C158.768 23.3719 158.583 23.5209 158.45 23.7084C158.318 23.896 158.252 24.1084 158.252 24.3457H156.266C156.266 23.9926 156.351 23.6505 156.522 23.3195C156.693 22.9885 156.942 22.6933 157.267 22.434C157.593 22.1747 157.982 21.9706 158.434 21.8216C158.886 21.6727 159.394 21.5982 159.957 21.5982C160.63 21.5982 161.226 21.7113 161.744 21.9375C162.268 22.1637 162.679 22.5057 162.977 22.9637C163.281 23.416 163.432 23.9843 163.432 24.6684V28.6489C163.432 29.0572 163.46 29.424 163.515 29.7495C163.576 30.0695 163.661 30.3481 163.772 30.5854V30.7178H161.728C161.634 30.5026 161.559 30.2295 161.504 29.8985C161.454 29.562 161.43 29.2365 161.43 28.922ZM161.719 25.2725L161.736 26.5056H160.304C159.935 26.5056 159.609 26.5414 159.328 26.6131C159.046 26.6793 158.812 26.7786 158.624 26.9111C158.437 27.0435 158.296 27.2035 158.202 27.391C158.108 27.5786 158.062 27.791 158.062 28.0282C158.062 28.2655 158.117 28.4834 158.227 28.682C158.337 28.8751 158.497 29.0268 158.707 29.1372C158.922 29.2475 159.181 29.3027 159.485 29.3027C159.893 29.3027 160.249 29.2199 160.552 29.0544C160.861 28.8834 161.104 28.6765 161.281 28.4337C161.457 28.1855 161.551 27.951 161.562 27.7303L162.208 28.6158C162.141 28.842 162.028 29.0847 161.868 29.344C161.708 29.6033 161.499 29.8516 161.239 30.0888C160.986 30.3206 160.679 30.5109 160.321 30.6598C159.968 30.8088 159.559 30.8833 159.096 30.8833C158.511 30.8833 157.99 30.7674 157.532 30.5357C157.074 30.2985 156.715 29.9813 156.456 29.584C156.197 29.1813 156.067 28.7261 156.067 28.2186C156.067 27.7441 156.155 27.3248 156.332 26.9607C156.514 26.5911 156.779 26.2821 157.126 26.0339C157.479 25.7856 157.91 25.598 158.417 25.4711C158.925 25.3387 159.504 25.2725 160.155 25.2725H161.719ZM167.52 23.485V34.1604H165.526V21.7637H167.363L167.52 23.485ZM173.355 26.158V26.3318C173.355 26.9828 173.277 27.5869 173.123 28.1441C172.974 28.6958 172.75 29.1785 172.453 29.5923C172.16 30.0006 171.799 30.3178 171.368 30.544C170.938 30.7702 170.442 30.8833 169.879 30.8833C169.322 30.8833 168.833 30.7812 168.414 30.5771C168 30.3674 167.65 30.0723 167.363 29.6916C167.076 29.3109 166.845 28.8641 166.668 28.351C166.497 27.8324 166.376 27.2641 166.304 26.6462V25.9759C166.376 25.3194 166.497 24.7236 166.668 24.1884C166.845 23.6533 167.076 23.1926 167.363 22.8064C167.65 22.4202 168 22.1223 168.414 21.9127C168.828 21.703 169.311 21.5982 169.862 21.5982C170.425 21.5982 170.924 21.7085 171.36 21.9292C171.796 22.1444 172.163 22.4533 172.461 22.8561C172.759 23.2533 172.982 23.7333 173.131 24.296C173.28 24.8532 173.355 25.4739 173.355 26.158ZM171.36 26.3318V26.158C171.36 25.7442 171.322 25.3608 171.244 25.0077C171.167 24.6491 171.046 24.3346 170.88 24.0643C170.715 23.794 170.502 23.5843 170.243 23.4354C169.989 23.2809 169.683 23.2036 169.324 23.2036C168.971 23.2036 168.668 23.2643 168.414 23.3857C168.16 23.5016 167.948 23.6643 167.777 23.874C167.606 24.0836 167.473 24.3291 167.38 24.6105C167.286 24.8863 167.22 25.187 167.181 25.5125V27.1179C167.247 27.5152 167.36 27.8793 167.52 28.2103C167.68 28.5413 167.907 28.8061 168.199 29.0048C168.497 29.1978 168.878 29.2944 169.341 29.2944C169.7 29.2944 170.006 29.2172 170.26 29.0627C170.513 28.9082 170.72 28.6958 170.88 28.4255C171.046 28.1496 171.167 27.8324 171.244 27.4738C171.322 27.1152 171.36 26.7345 171.36 26.3318ZM181.87 29.7413L184.303 21.7637H186.438L182.847 32.0832C182.764 32.3039 182.656 32.5439 182.524 32.8032C182.391 33.0625 182.218 33.308 182.002 33.5397C181.793 33.7769 181.531 33.9673 181.216 34.1107C180.902 34.2597 180.521 34.3342 180.074 34.3342C179.898 34.3342 179.727 34.3176 179.561 34.2845C179.401 34.2569 179.249 34.2266 179.106 34.1935L179.098 32.6708C179.153 32.6763 179.219 32.6818 179.296 32.6873C179.379 32.6929 179.445 32.6956 179.495 32.6956C179.826 32.6956 180.102 32.6542 180.323 32.5715C180.543 32.4942 180.723 32.3674 180.86 32.1908C181.004 32.0143 181.125 31.777 181.225 31.4791L181.87 29.7413ZM180.496 21.7637L182.623 28.4668L182.979 30.5688L181.597 30.9247L178.345 21.7637H180.496ZM183.715 18.2135H185.197C185.197 18.6714 185.086 19.0769 184.866 19.43C184.651 19.7776 184.342 20.0507 183.939 20.2493C183.542 20.4479 183.067 20.5472 182.516 20.5472C181.682 20.5472 181.023 20.3321 180.538 19.9017C180.058 19.4659 179.818 18.9032 179.818 18.2135H181.299C181.299 18.5225 181.39 18.7956 181.572 19.0328C181.76 19.2645 182.074 19.3804 182.516 19.3804C182.951 19.3804 183.26 19.2645 183.442 19.0328C183.624 18.7956 183.715 18.5225 183.715 18.2135ZM191.288 26.4394H189.566V25.4297H190.957C191.31 25.4297 191.591 25.3829 191.801 25.2891C192.016 25.1953 192.167 25.0656 192.256 24.9001C192.35 24.7291 192.396 24.5305 192.396 24.3043C192.396 24.1057 192.35 23.9181 192.256 23.7416C192.167 23.5595 192.016 23.4105 191.801 23.2947C191.585 23.1788 191.293 23.1209 190.923 23.1209C190.62 23.1209 190.347 23.1705 190.104 23.2698C189.867 23.3692 189.679 23.5071 189.541 23.6836C189.403 23.8602 189.335 24.0643 189.335 24.296H187.34C187.34 23.7388 187.497 23.2588 187.812 22.8561C188.132 22.4533 188.559 22.1444 189.095 21.9292C189.63 21.7141 190.217 21.6065 190.857 21.6065C191.403 21.6065 191.894 21.6644 192.33 21.7803C192.766 21.8906 193.136 22.0561 193.439 22.2768C193.748 22.492 193.983 22.7623 194.143 23.0878C194.308 23.4078 194.391 23.7802 194.391 24.205C194.391 24.5084 194.319 24.7953 194.176 25.0656C194.032 25.336 193.825 25.5759 193.555 25.7856C193.285 25.9897 192.956 26.1497 192.57 26.2656C192.19 26.3814 191.762 26.4394 191.288 26.4394ZM189.566 25.8601H191.288C191.817 25.8601 192.286 25.9125 192.694 26.0173C193.103 26.1166 193.445 26.2656 193.721 26.4642C193.996 26.6628 194.203 26.9083 194.341 27.2007C194.485 27.4876 194.556 27.8186 194.556 28.1938C194.556 28.613 194.465 28.991 194.283 29.3275C194.107 29.6585 193.853 29.9399 193.522 30.1716C193.196 30.4033 192.807 30.5798 192.355 30.7012C191.903 30.8226 191.403 30.8833 190.857 30.8833C190.261 30.8833 189.682 30.784 189.119 30.5854C188.562 30.3868 188.101 30.0806 187.737 29.6668C187.379 29.2475 187.199 28.7151 187.199 28.0696H189.194C189.194 28.2958 189.263 28.5082 189.401 28.7068C189.539 28.9054 189.737 29.0682 189.997 29.1951C190.256 29.3165 190.568 29.3771 190.932 29.3771C191.307 29.3771 191.613 29.3192 191.85 29.2034C192.088 29.082 192.264 28.9248 192.38 28.7317C192.496 28.533 192.554 28.3234 192.554 28.1027C192.554 27.8048 192.496 27.5648 192.38 27.3828C192.264 27.2007 192.088 27.0683 191.85 26.9855C191.613 26.8973 191.315 26.8531 190.957 26.8531H189.566V25.8601ZM202.211 21.7637V23.3526H198.305V30.7178H196.311V21.7637H202.211ZM208.418 28.922V24.6519C208.418 24.3319 208.36 24.056 208.244 23.8243C208.128 23.5926 207.952 23.4133 207.714 23.2864C207.483 23.1595 207.19 23.0961 206.837 23.0961C206.512 23.0961 206.23 23.1512 205.993 23.2616C205.756 23.3719 205.571 23.5209 205.439 23.7084C205.306 23.896 205.24 24.1084 205.24 24.3457H203.254C203.254 23.9926 203.339 23.6505 203.51 23.3195C203.681 22.9885 203.93 22.6933 204.255 22.434C204.581 22.1747 204.97 21.9706 205.422 21.8216C205.874 21.6727 206.382 21.5982 206.945 21.5982C207.618 21.5982 208.214 21.7113 208.732 21.9375C209.256 22.1637 209.667 22.5057 209.965 22.9637C210.269 23.416 210.42 23.9843 210.42 24.6684V28.6489C210.42 29.0572 210.448 29.424 210.503 29.7495C210.564 30.0695 210.649 30.3481 210.76 30.5854V30.7178H208.716C208.622 30.5026 208.547 30.2295 208.492 29.8985C208.443 29.562 208.418 29.2365 208.418 28.922ZM208.707 25.2725L208.724 26.5056H207.292C206.923 26.5056 206.597 26.5414 206.316 26.6131C206.034 26.6793 205.8 26.7786 205.612 26.9111C205.425 27.0435 205.284 27.2035 205.19 27.391C205.097 27.5786 205.05 27.791 205.05 28.0282C205.05 28.2655 205.105 28.4834 205.215 28.682C205.325 28.8751 205.485 29.0268 205.695 29.1372C205.91 29.2475 206.17 29.3027 206.473 29.3027C206.881 29.3027 207.237 29.2199 207.541 29.0544C207.85 28.8834 208.092 28.6765 208.269 28.4337C208.445 28.1855 208.539 27.951 208.55 27.7303L209.196 28.6158C209.129 28.842 209.016 29.0847 208.856 29.344C208.696 29.6033 208.487 29.8516 208.227 30.0888C207.974 30.3206 207.667 30.5109 207.309 30.6598C206.956 30.8088 206.548 30.8833 206.084 30.8833C205.499 30.8833 204.978 30.7674 204.52 30.5357C204.062 30.2985 203.704 29.9813 203.444 29.584C203.185 29.1813 203.055 28.7261 203.055 28.2186C203.055 27.7441 203.144 27.3248 203.32 26.9607C203.502 26.5911 203.767 26.2821 204.115 26.0339C204.468 25.7856 204.898 25.598 205.405 25.4711C205.913 25.3387 206.492 25.2725 207.143 25.2725H208.707ZM214.509 23.485V34.1604H212.514V21.7637H214.351L214.509 23.485ZM220.343 26.158V26.3318C220.343 26.9828 220.265 27.5869 220.111 28.1441C219.962 28.6958 219.739 29.1785 219.441 29.5923C219.148 30.0006 218.787 30.3178 218.357 30.544C217.926 30.7702 217.43 30.8833 216.867 30.8833C216.31 30.8833 215.822 30.7812 215.402 30.5771C214.988 30.3674 214.638 30.0723 214.351 29.6916C214.064 29.3109 213.833 28.8641 213.656 28.351C213.485 27.8324 213.364 27.2641 213.292 26.6462V25.9759C213.364 25.3194 213.485 24.7236 213.656 24.1884C213.833 23.6533 214.064 23.1926 214.351 22.8064C214.638 22.4202 214.988 22.1223 215.402 21.9127C215.816 21.703 216.299 21.5982 216.85 21.5982C217.413 21.5982 217.912 21.7085 218.348 21.9292C218.784 22.1444 219.151 22.4533 219.449 22.8561C219.747 23.2533 219.97 23.7333 220.119 24.296C220.268 24.8532 220.343 25.4739 220.343 26.158ZM218.348 26.3318V26.158C218.348 25.7442 218.31 25.3608 218.232 25.0077C218.155 24.6491 218.034 24.3346 217.868 24.0643C217.703 23.794 217.49 23.5843 217.231 23.4354C216.977 23.2809 216.671 23.2036 216.313 23.2036C215.959 23.2036 215.656 23.2643 215.402 23.3857C215.148 23.5016 214.936 23.6643 214.765 23.874C214.594 24.0836 214.462 24.3291 214.368 24.6105C214.274 24.8863 214.208 25.187 214.169 25.5125V27.1179C214.235 27.5152 214.349 27.8793 214.509 28.2103C214.669 28.5413 214.895 28.8061 215.187 29.0048C215.485 29.1978 215.866 29.2944 216.329 29.2944C216.688 29.2944 216.994 29.2172 217.248 29.0627C217.501 28.9082 217.708 28.6958 217.868 28.4255C218.034 28.1496 218.155 27.8324 218.232 27.4738C218.31 27.1152 218.348 26.7345 218.348 26.3318ZM224.1 27.8048L227.617 21.7637H229.611V30.7178H227.617V24.6684L224.1 30.7178H222.105V21.7637H224.1V27.8048ZM231.788 21.7637H233.782V29.1289H236.621V21.7637H238.632V29.1289H241.462V21.7637H243.456V30.7178H231.788V21.7637ZM247.668 27.8048L251.185 21.7637H253.18V30.7178H251.185V24.6684L247.668 30.7178H245.674V21.7637H247.668V27.8048Z" fill="#638BBA"/>
<path d="M25.8938 50.3958V73.4502H20.9411V56.0289L15.5929 57.6587V53.8294L25.4032 50.3958H25.8938ZM37.9036 59.8264H40.4194C41.1368 59.8264 41.7275 59.6998 42.1916 59.4467C42.6663 59.1935 43.0145 58.8348 43.236 58.3707C43.4681 57.9065 43.5841 57.3633 43.5841 56.7409C43.5841 56.2029 43.4786 55.7229 43.2676 55.301C43.0566 54.879 42.7349 54.5468 42.3024 54.3041C41.8805 54.051 41.3319 53.9244 40.6568 53.9244C40.1716 53.9244 39.7074 54.0246 39.2644 54.225C38.8319 54.4149 38.4785 54.6944 38.2042 55.0636C37.9299 55.4223 37.7928 55.8548 37.7928 56.3612H32.8401C32.8401 55.0742 33.1883 53.9613 33.8845 53.0225C34.5912 52.0836 35.5248 51.361 36.6852 50.8547C37.8561 50.3378 39.1325 50.0793 40.5144 50.0793C42.1073 50.0793 43.505 50.3325 44.7075 50.8389C45.9206 51.3347 46.8595 52.0731 47.5241 53.0541C48.1992 54.0246 48.5367 55.2272 48.5367 56.6618C48.5367 57.4108 48.3574 58.1333 47.9988 58.8296C47.6506 59.5152 47.1496 60.1271 46.4956 60.6651C45.8521 61.1925 45.082 61.6144 44.1854 61.9309C43.2993 62.2368 42.313 62.3898 41.2264 62.3898H37.9036V59.8264ZM37.9036 63.5449V61.029H41.2264C42.429 61.029 43.505 61.1661 44.4544 61.4404C45.4038 61.7147 46.2107 62.1102 46.8753 62.6271C47.5399 63.144 48.0462 63.7717 48.3943 64.5101C48.7424 65.2485 48.9165 66.0713 48.9165 66.9785C48.9165 68.0545 48.7055 69.0144 48.2836 69.8583C47.8616 70.7022 47.2709 71.4143 46.5114 71.9945C45.7519 72.5746 44.8605 73.0177 43.8373 73.3236C42.814 73.619 41.7064 73.7667 40.5144 73.7667C39.5544 73.7667 38.5998 73.6348 37.6504 73.3711C36.701 73.1074 35.8413 72.7065 35.0712 72.1685C34.3011 71.62 33.684 70.929 33.2199 70.0957C32.7558 69.2518 32.5237 68.2496 32.5237 67.0893H37.4763C37.4763 67.6273 37.6135 68.1125 37.8877 68.545C38.1726 68.967 38.5576 69.3045 39.0428 69.5577C39.5386 69.8003 40.0766 69.9216 40.6568 69.9216C41.353 69.9216 41.9437 69.795 42.429 69.5419C42.9248 69.2781 43.2993 68.9195 43.5524 68.4659C43.8162 68.0123 43.948 67.4901 43.948 66.8994C43.948 66.0977 43.8056 65.4542 43.5208 64.969C43.2465 64.4732 42.8457 64.1145 42.3182 63.893C41.7908 63.6609 41.1579 63.5449 40.4194 63.5449H37.9036ZM56.2585 63.0702L52.3343 62.1366L53.6793 50.4116H66.8758V54.32H57.73L57.1762 59.1777C57.461 59.0089 57.9093 58.8243 58.5212 58.6239C59.133 58.4129 59.8187 58.3074 60.5782 58.3074C61.7069 58.3074 62.709 58.4815 63.5846 58.8296C64.4601 59.1777 65.1986 59.684 65.7998 60.3486C66.4117 61.0026 66.8705 61.8096 67.1765 62.7695C67.4929 63.7295 67.6512 64.8213 67.6512 66.0449C67.6512 67.0576 67.4929 68.0281 67.1765 68.9564C66.86 69.8742 66.3748 70.697 65.7207 71.4248C65.0773 72.1421 64.2597 72.7118 63.2681 73.1337C62.2765 73.5557 61.1109 73.7667 59.7712 73.7667C58.7585 73.7667 57.7775 73.6137 56.8281 73.3078C55.8787 73.0019 55.0243 72.5588 54.2647 71.9786C53.5158 71.3879 52.9198 70.6706 52.4767 69.8267C52.0442 68.9828 51.8227 68.0334 51.8121 66.9785H56.749C56.8017 67.5903 56.9547 68.1178 57.2079 68.5608C57.461 68.9933 57.8039 69.3309 58.2364 69.5735C58.6689 69.8056 59.1699 69.9216 59.7396 69.9216C60.2881 69.9216 60.7522 69.8161 61.132 69.6052C61.5118 69.3836 61.8124 69.083 62.0339 68.7032C62.266 68.3235 62.4348 67.8804 62.5403 67.3741C62.6458 66.8677 62.6985 66.3245 62.6985 65.7443C62.6985 65.143 62.6299 64.605 62.4928 64.1303C62.3557 63.6451 62.1447 63.2337 61.8599 62.8961C61.5751 62.548 61.2111 62.2843 60.7681 62.105C60.3356 61.9151 59.8134 61.8202 59.2016 61.8202C58.3999 61.8202 57.7722 61.952 57.3186 62.2157C56.865 62.4795 56.5116 62.7643 56.2585 63.0702ZM87.9048 56.3295V73.4502H82.9364V56.3295H87.9048ZM93.3638 56.3295V60.1429H77.5723V56.3295H93.3638ZM106.339 56.3295V60.1745H97.8893V56.3295H106.339ZM109.836 56.3295V73.4502H104.899V56.3295H109.836ZM96.6392 56.3295H101.481L101.006 65.0481C100.943 66.2823 100.806 67.3635 100.595 68.2918C100.395 69.2201 100.12 70.0113 99.7722 70.6653C99.4347 71.3193 99.0285 71.8521 98.5538 72.2635C98.0791 72.6749 97.5359 72.9755 96.9241 73.1654C96.3228 73.3553 95.6635 73.4502 94.9462 73.4502H93.443L93.3638 69.6052L93.9493 69.5419C94.2658 69.5102 94.54 69.4153 94.7721 69.2571C95.0147 69.0988 95.2204 68.872 95.3892 68.5767C95.5685 68.2813 95.7215 67.9015 95.8481 67.4374C95.9747 66.9732 96.0749 66.43 96.1487 65.8076C96.2331 65.1747 96.2911 64.4468 96.3228 63.624L96.6392 56.3295ZM118.016 59.6207V80.0326H113.08V56.3295H117.684L118.016 59.6207ZM128.697 64.7V65.0323C128.697 66.277 128.555 67.4321 128.27 68.4975C127.985 69.5524 127.558 70.4754 126.988 71.2666C126.429 72.0578 125.738 72.6749 124.915 73.1179C124.092 73.5504 123.138 73.7667 122.051 73.7667C121.017 73.7667 120.121 73.5504 119.361 73.1179C118.612 72.6749 117.979 72.063 117.463 71.2824C116.956 70.4913 116.545 69.5893 116.228 68.5767C115.922 67.5534 115.685 66.4616 115.516 65.3013V64.6525C115.685 63.4183 115.928 62.2737 116.244 61.2189C116.561 60.164 116.972 59.2515 117.478 58.4815C117.985 57.7008 118.612 57.0943 119.361 56.6618C120.11 56.2293 121.002 56.013 122.035 56.013C123.111 56.013 124.066 56.2187 124.899 56.6301C125.733 57.0415 126.429 57.6323 126.988 58.4023C127.558 59.1619 127.985 60.0743 128.27 61.1398C128.555 62.2052 128.697 63.3919 128.697 64.7ZM123.744 65.0323V64.7C123.744 64.0038 123.692 63.3655 123.586 62.7854C123.481 62.1946 123.312 61.683 123.08 61.2505C122.848 60.8075 122.542 60.4646 122.162 60.222C121.782 59.9794 121.318 59.8581 120.77 59.8581C120.179 59.8581 119.678 59.953 119.266 60.1429C118.855 60.3328 118.523 60.6123 118.27 60.9815C118.016 61.3402 117.832 61.7832 117.716 62.3107C117.61 62.8381 117.552 63.4394 117.542 64.1145V65.8551C117.552 66.6462 117.663 67.353 117.874 67.9754C118.095 68.5872 118.438 69.0672 118.902 69.4153C119.377 69.7528 120.01 69.9216 120.801 69.9216C121.36 69.9216 121.824 69.8003 122.194 69.5577C122.573 69.3045 122.874 68.9511 123.096 68.4975C123.328 68.0439 123.491 67.5218 123.586 66.931C123.692 66.3403 123.744 65.7074 123.744 65.0323ZM143.096 63.1335V66.9469H134.472V63.1335H143.096ZM136.197 56.3295V73.4502H131.26V56.3295H136.197ZM146.356 56.3295V73.4502H141.387V56.3295H146.356Z" fill="#003C82"/>
<path d="M64.603 222.629V224.078H57.7317V222.838L61.028 219.277C61.3718 218.886 61.6436 218.547 61.8433 218.259C62.0431 217.971 62.1848 217.711 62.2684 217.479C62.3567 217.242 62.4008 217.016 62.4008 216.803C62.4008 216.491 62.3451 216.22 62.2336 215.987C62.1221 215.75 61.9595 215.567 61.7458 215.437C61.5367 215.307 61.2789 215.242 60.9722 215.242C60.6331 215.242 60.3427 215.321 60.1011 215.479C59.8642 215.632 59.683 215.846 59.5576 216.12C59.4368 216.394 59.3764 216.707 59.3764 217.061H57.5296C57.5296 216.461 57.669 215.915 57.9478 215.423C58.2265 214.926 58.6261 214.529 59.1464 214.231C59.6667 213.934 60.2846 213.785 61.0001 213.785C61.697 213.785 62.287 213.901 62.7702 214.134C63.2534 214.361 63.6204 214.686 63.8713 215.109C64.1221 215.532 64.2476 216.036 64.2476 216.621C64.2476 216.947 64.1941 217.267 64.0873 217.583C63.9804 217.899 63.8294 218.213 63.6343 218.524C63.4438 218.831 63.2162 219.142 62.9514 219.458C62.6866 219.774 62.3915 220.097 62.0663 220.426L60.0872 222.629H64.603ZM72.6032 218.134V219.841C72.6032 220.622 72.5242 221.288 72.3662 221.841C72.2083 222.394 71.9806 222.847 71.6833 223.2C71.386 223.548 71.0306 223.806 70.6171 223.974C70.2036 224.136 69.7436 224.218 69.2372 224.218C68.8331 224.218 68.4567 224.166 68.1083 224.064C67.7599 223.957 67.4463 223.795 67.1675 223.576C66.8934 223.353 66.6565 223.07 66.4567 222.726C66.2616 222.382 66.1106 221.971 66.0037 221.493C65.9015 221.014 65.8504 220.464 65.8504 219.841V218.134C65.8504 217.353 65.9294 216.689 66.0873 216.141C66.2499 215.592 66.4799 215.144 66.7773 214.796C67.0746 214.447 67.43 214.194 67.8435 214.036C68.257 213.873 68.7169 213.792 69.2233 213.792C69.6321 213.792 70.0085 213.843 70.3523 213.945C70.7007 214.048 71.012 214.208 71.2861 214.426C71.5648 214.64 71.8018 214.919 71.9969 215.263C72.192 215.602 72.3407 216.011 72.4429 216.489C72.5498 216.963 72.6032 217.511 72.6032 218.134ZM70.7634 220.092V217.876C70.7634 217.486 70.7402 217.146 70.6937 216.858C70.6519 216.566 70.5892 216.317 70.5056 216.113C70.4219 215.908 70.3174 215.743 70.192 215.618C70.0665 215.488 69.9225 215.393 69.7599 215.332C69.5973 215.272 69.4184 215.242 69.2233 215.242C68.9817 215.242 68.7657 215.29 68.5752 215.388C68.3847 215.481 68.2244 215.63 68.0944 215.834C67.9643 216.038 67.8644 216.31 67.7947 216.649C67.7297 216.984 67.6971 217.393 67.6971 217.876V220.092C67.6971 220.482 67.718 220.824 67.7599 221.116C67.8063 221.409 67.8714 221.66 67.955 221.869C68.0433 222.078 68.1478 222.25 68.2686 222.385C68.394 222.515 68.538 222.612 68.7006 222.677C68.8633 222.738 69.0421 222.768 69.2372 222.768C69.4835 222.768 69.6995 222.719 69.8853 222.622C70.0758 222.524 70.2361 222.371 70.3662 222.162C70.4963 221.948 70.5938 221.672 70.6589 221.332C70.7286 220.989 70.7634 220.575 70.7634 220.092ZM80.91 222.629V224.078H74.0388V222.838L77.335 219.277C77.6788 218.886 77.9506 218.547 78.1504 218.259C78.3501 217.971 78.4918 217.711 78.5755 217.479C78.6637 217.242 78.7079 217.016 78.7079 216.803C78.7079 216.491 78.6521 216.22 78.5406 215.987C78.4291 215.75 78.2665 215.567 78.0528 215.437C77.8437 215.307 77.5859 215.242 77.2793 215.242C76.9401 215.242 76.6497 215.321 76.4082 215.479C76.1712 215.632 75.99 215.846 75.8646 216.12C75.7438 216.394 75.6834 216.707 75.6834 217.061H73.8367C73.8367 216.461 73.976 215.915 74.2548 215.423C74.5335 214.926 74.9331 214.529 75.4534 214.231C75.9738 213.934 76.5917 213.785 77.3071 213.785C78.004 213.785 78.594 213.901 79.0772 214.134C79.5604 214.361 79.9274 214.686 80.1783 215.109C80.4292 215.532 80.5546 216.036 80.5546 216.621C80.5546 216.947 80.5012 217.267 80.3943 217.583C80.2875 217.899 80.1365 218.213 79.9413 218.524C79.7509 218.831 79.5232 219.142 79.2584 219.458C78.9936 219.774 78.6986 220.097 78.3734 220.426L76.3942 222.629H80.91ZM88.9102 218.134V219.841C88.9102 220.622 88.8312 221.288 88.6733 221.841C88.5153 222.394 88.2877 222.847 87.9903 223.2C87.693 223.548 87.3376 223.806 86.9241 223.974C86.5106 224.136 86.0507 224.218 85.5443 224.218C85.1401 224.218 84.7638 224.166 84.4153 224.064C84.0669 223.957 83.7533 223.795 83.4745 223.576C83.2004 223.353 82.9635 223.07 82.7637 222.726C82.5686 222.382 82.4176 221.971 82.3107 221.493C82.2085 221.014 82.1574 220.464 82.1574 219.841V218.134C82.1574 217.353 82.2364 216.689 82.3944 216.141C82.557 215.592 82.7869 215.144 83.0843 214.796C83.3816 214.447 83.737 214.194 84.1505 214.036C84.564 213.873 85.0239 213.792 85.5303 213.792C85.9392 213.792 86.3155 213.843 86.6593 213.945C87.0077 214.048 87.319 214.208 87.5931 214.426C87.8719 214.64 88.1088 214.919 88.3039 215.263C88.4991 215.602 88.6477 216.011 88.7499 216.489C88.8568 216.963 88.9102 217.511 88.9102 218.134ZM87.0704 220.092V217.876C87.0704 217.486 87.0472 217.146 87.0008 216.858C86.9589 216.566 86.8962 216.317 86.8126 216.113C86.729 215.908 86.6244 215.743 86.499 215.618C86.3736 215.488 86.2295 215.393 86.0669 215.332C85.9043 215.272 85.7255 215.242 85.5303 215.242C85.2888 215.242 85.0727 215.29 84.8822 215.388C84.6918 215.481 84.5315 215.63 84.4014 215.834C84.2713 216.038 84.1714 216.31 84.1017 216.649C84.0367 216.984 84.0042 217.393 84.0042 217.876V220.092C84.0042 220.482 84.0251 220.824 84.0669 221.116C84.1133 221.409 84.1784 221.66 84.262 221.869C84.3503 222.078 84.4548 222.25 84.5756 222.385C84.7011 222.515 84.8451 222.612 85.0077 222.677C85.1703 222.738 85.3492 222.768 85.5443 222.768C85.7905 222.768 86.0065 222.719 86.1924 222.622C86.3829 222.524 86.5431 222.371 86.6732 222.162C86.8033 221.948 86.9009 221.672 86.9659 221.332C87.0356 220.989 87.0704 220.575 87.0704 220.092Z" fill="#507EB2"/>
<path d="M131.603 222.629V224.078H124.732V222.838L128.028 219.277C128.372 218.886 128.644 218.547 128.843 218.259C129.043 217.971 129.185 217.711 129.268 217.479C129.357 217.242 129.401 217.016 129.401 216.803C129.401 216.491 129.345 216.22 129.234 215.987C129.122 215.75 128.959 215.567 128.746 215.437C128.537 215.307 128.279 215.242 127.972 215.242C127.633 215.242 127.343 215.321 127.101 215.479C126.864 215.632 126.683 215.846 126.558 216.12C126.437 216.394 126.376 216.707 126.376 217.061H124.53C124.53 216.461 124.669 215.915 124.948 215.423C125.227 214.926 125.626 214.529 126.146 214.231C126.667 213.934 127.285 213.785 128 213.785C128.697 213.785 129.287 213.901 129.77 214.134C130.253 214.361 130.62 214.686 130.871 215.109C131.122 215.532 131.248 216.036 131.248 216.621C131.248 216.947 131.194 217.267 131.087 217.583C130.98 217.899 130.829 218.213 130.634 218.524C130.444 218.831 130.216 219.142 129.951 219.458C129.687 219.774 129.392 220.097 129.066 220.426L127.087 222.629H131.603ZM139.603 218.134V219.841C139.603 220.622 139.524 221.288 139.366 221.841C139.208 222.394 138.981 222.847 138.683 223.2C138.386 223.548 138.031 223.806 137.617 223.974C137.204 224.136 136.744 224.218 136.237 224.218C135.833 224.218 135.457 224.166 135.108 224.064C134.76 223.957 134.446 223.795 134.168 223.576C133.893 223.353 133.656 223.07 133.457 222.726C133.262 222.382 133.111 221.971 133.004 221.493C132.902 221.014 132.85 220.464 132.85 219.841V218.134C132.85 217.353 132.929 216.689 133.087 216.141C133.25 215.592 133.48 215.144 133.777 214.796C134.075 214.447 134.43 214.194 134.843 214.036C135.257 213.873 135.717 213.792 136.223 213.792C136.632 213.792 137.008 213.843 137.352 213.945C137.701 214.048 138.012 214.208 138.286 214.426C138.565 214.64 138.802 214.919 138.997 215.263C139.192 215.602 139.341 216.011 139.443 216.489C139.55 216.963 139.603 217.511 139.603 218.134ZM137.763 220.092V217.876C137.763 217.486 137.74 217.146 137.694 216.858C137.652 216.566 137.589 216.317 137.506 216.113C137.422 215.908 137.317 215.743 137.192 215.618C137.067 215.488 136.923 215.393 136.76 215.332C136.597 215.272 136.418 215.242 136.223 215.242C135.982 215.242 135.766 215.29 135.575 215.388C135.385 215.481 135.224 215.63 135.094 215.834C134.964 216.038 134.864 216.31 134.795 216.649C134.73 216.984 134.697 217.393 134.697 217.876V220.092C134.697 220.482 134.718 220.824 134.76 221.116C134.806 221.409 134.871 221.66 134.955 221.869C135.043 222.078 135.148 222.25 135.269 222.385C135.394 222.515 135.538 222.612 135.701 222.677C135.863 222.738 136.042 222.768 136.237 222.768C136.483 222.768 136.7 222.719 136.885 222.622C137.076 222.524 137.236 222.371 137.366 222.162C137.496 221.948 137.594 221.672 137.659 221.332C137.729 220.989 137.763 220.575 137.763 220.092ZM147.91 222.629V224.078H141.039V222.838L144.335 219.277C144.679 218.886 144.951 218.547 145.15 218.259C145.35 217.971 145.492 217.711 145.575 217.479C145.664 217.242 145.708 217.016 145.708 216.803C145.708 216.491 145.652 216.22 145.541 215.987C145.429 215.75 145.267 215.567 145.053 215.437C144.844 215.307 144.586 215.242 144.279 215.242C143.94 215.242 143.65 215.321 143.408 215.479C143.171 215.632 142.99 215.846 142.865 216.12C142.744 216.394 142.683 216.707 142.683 217.061H140.837C140.837 216.461 140.976 215.915 141.255 215.423C141.534 214.926 141.933 214.529 142.453 214.231C142.974 213.934 143.592 213.785 144.307 213.785C145.004 213.785 145.594 213.901 146.077 214.134C146.56 214.361 146.927 214.686 147.178 215.109C147.429 215.532 147.555 216.036 147.555 216.621C147.555 216.947 147.501 217.267 147.394 217.583C147.287 217.899 147.136 218.213 146.941 218.524C146.751 218.831 146.523 219.142 146.258 219.458C145.994 219.774 145.699 220.097 145.373 220.426L143.394 222.629H147.91ZM153.931 213.904V224.078H152.084V216.057L149.638 216.865V215.374L153.722 213.904H153.931Z" fill="#507EB2"/>
<path d="M198.603 222.629V224.078H191.732V222.838L195.028 219.277C195.372 218.886 195.644 218.547 195.843 218.259C196.043 217.971 196.185 217.711 196.268 217.479C196.357 217.242 196.401 217.016 196.401 216.803C196.401 216.491 196.345 216.22 196.234 215.987C196.122 215.75 195.959 215.567 195.746 215.437C195.537 215.307 195.279 215.242 194.972 215.242C194.633 215.242 194.343 215.321 194.101 215.479C193.864 215.632 193.683 215.846 193.558 216.12C193.437 216.394 193.376 216.707 193.376 217.061H191.53C191.53 216.461 191.669 215.915 191.948 215.423C192.227 214.926 192.626 214.529 193.146 214.231C193.667 213.934 194.285 213.785 195 213.785C195.697 213.785 196.287 213.901 196.77 214.134C197.253 214.361 197.62 214.686 197.871 215.109C198.122 215.532 198.248 216.036 198.248 216.621C198.248 216.947 198.194 217.267 198.087 217.583C197.98 217.899 197.829 218.213 197.634 218.524C197.444 218.831 197.216 219.142 196.951 219.458C196.687 219.774 196.392 220.097 196.066 220.426L194.087 222.629H198.603ZM206.603 218.134V219.841C206.603 220.622 206.524 221.288 206.366 221.841C206.208 222.394 205.981 222.847 205.683 223.2C205.386 223.548 205.031 223.806 204.617 223.974C204.204 224.136 203.744 224.218 203.237 224.218C202.833 224.218 202.457 224.166 202.108 224.064C201.76 223.957 201.446 223.795 201.168 223.576C200.893 223.353 200.656 223.07 200.457 222.726C200.262 222.382 200.111 221.971 200.004 221.493C199.902 221.014 199.85 220.464 199.85 219.841V218.134C199.85 217.353 199.929 216.689 200.087 216.141C200.25 215.592 200.48 215.144 200.777 214.796C201.075 214.447 201.43 214.194 201.843 214.036C202.257 213.873 202.717 213.792 203.223 213.792C203.632 213.792 204.008 213.843 204.352 213.945C204.701 214.048 205.012 214.208 205.286 214.426C205.565 214.64 205.802 214.919 205.997 215.263C206.192 215.602 206.341 216.011 206.443 216.489C206.55 216.963 206.603 217.511 206.603 218.134ZM204.763 220.092V217.876C204.763 217.486 204.74 217.146 204.694 216.858C204.652 216.566 204.589 216.317 204.506 216.113C204.422 215.908 204.317 215.743 204.192 215.618C204.067 215.488 203.923 215.393 203.76 215.332C203.597 215.272 203.418 215.242 203.223 215.242C202.982 215.242 202.766 215.29 202.575 215.388C202.385 215.481 202.224 215.63 202.094 215.834C201.964 216.038 201.864 216.31 201.795 216.649C201.73 216.984 201.697 217.393 201.697 217.876V220.092C201.697 220.482 201.718 220.824 201.76 221.116C201.806 221.409 201.871 221.66 201.955 221.869C202.043 222.078 202.148 222.25 202.269 222.385C202.394 222.515 202.538 222.612 202.701 222.677C202.863 222.738 203.042 222.768 203.237 222.768C203.483 222.768 203.7 222.719 203.885 222.622C204.076 222.524 204.236 222.371 204.366 222.162C204.496 221.948 204.594 221.672 204.659 221.332C204.729 220.989 204.763 220.575 204.763 220.092ZM214.91 222.629V224.078H208.039V222.838L211.335 219.277C211.679 218.886 211.951 218.547 212.15 218.259C212.35 217.971 212.492 217.711 212.575 217.479C212.664 217.242 212.708 217.016 212.708 216.803C212.708 216.491 212.652 216.22 212.541 215.987C212.429 215.75 212.267 215.567 212.053 215.437C211.844 215.307 211.586 215.242 211.279 215.242C210.94 215.242 210.65 215.321 210.408 215.479C210.171 215.632 209.99 215.846 209.865 216.12C209.744 216.394 209.683 216.707 209.683 217.061H207.837C207.837 216.461 207.976 215.915 208.255 215.423C208.534 214.926 208.933 214.529 209.453 214.231C209.974 213.934 210.592 213.785 211.307 213.785C212.004 213.785 212.594 213.901 213.077 214.134C213.56 214.361 213.927 214.686 214.178 215.109C214.429 215.532 214.555 216.036 214.555 216.621C214.555 216.947 214.501 217.267 214.394 217.583C214.287 217.899 214.136 218.213 213.941 218.524C213.751 218.831 213.523 219.142 213.258 219.458C212.994 219.774 212.699 220.097 212.373 220.426L210.394 222.629H214.91ZM223.064 222.629V224.078H216.192V222.838L219.489 219.277C219.832 218.886 220.104 218.547 220.304 218.259C220.504 217.971 220.645 217.711 220.729 217.479C220.817 217.242 220.861 217.016 220.861 216.803C220.861 216.491 220.806 216.22 220.694 215.987C220.583 215.75 220.42 215.567 220.206 215.437C219.997 215.307 219.739 215.242 219.433 215.242C219.094 215.242 218.803 215.321 218.562 215.479C218.325 215.632 218.144 215.846 218.018 216.12C217.897 216.394 217.837 216.707 217.837 217.061H215.99C215.99 216.461 216.13 215.915 216.408 215.423C216.687 214.926 217.087 214.529 217.607 214.231C218.127 213.934 218.745 213.785 219.461 213.785C220.158 213.785 220.748 213.901 221.231 214.134C221.714 214.361 222.081 214.686 222.332 215.109C222.583 215.532 222.708 216.036 222.708 216.621C222.708 216.947 222.655 217.267 222.548 217.583C222.441 217.899 222.29 218.213 222.095 218.524C221.904 218.831 221.677 219.142 221.412 219.458C221.147 219.774 220.852 220.097 220.527 220.426L218.548 222.629H223.064Z" fill="#507EB2"/>
<path d="M98.8125 191.717H98.9238C99.3926 191.717 99.7949 191.66 100.131 191.547C100.471 191.43 100.75 191.262 100.969 191.043C101.188 190.824 101.35 190.557 101.455 190.24C101.561 189.92 101.613 189.557 101.613 189.15V187.533C101.613 187.225 101.582 186.953 101.52 186.719C101.461 186.484 101.375 186.291 101.262 186.139C101.152 185.982 101.023 185.865 100.875 185.787C100.73 185.709 100.57 185.67 100.395 185.67C100.207 185.67 100.041 185.717 99.8965 185.811C99.752 185.9 99.6289 186.023 99.5273 186.18C99.4297 186.336 99.3535 186.516 99.2988 186.719C99.248 186.918 99.2227 187.127 99.2227 187.346C99.2227 187.564 99.248 187.773 99.2988 187.973C99.3496 188.168 99.4258 188.342 99.5273 188.494C99.6289 188.643 99.7559 188.762 99.9082 188.852C100.061 188.938 100.24 188.98 100.447 188.98C100.646 188.98 100.824 188.943 100.98 188.869C101.141 188.791 101.275 188.689 101.385 188.564C101.498 188.439 101.584 188.301 101.643 188.148C101.705 187.996 101.736 187.842 101.736 187.686L102.293 187.99C102.293 188.264 102.234 188.533 102.117 188.799C102 189.064 101.836 189.307 101.625 189.525C101.418 189.74 101.178 189.912 100.904 190.041C100.631 190.17 100.338 190.234 100.025 190.234C99.627 190.234 99.2734 190.162 98.9648 190.018C98.6562 189.869 98.3945 189.666 98.1797 189.408C97.9688 189.146 97.8086 188.842 97.6992 188.494C97.5898 188.146 97.5352 187.77 97.5352 187.363C97.5352 186.949 97.6016 186.561 97.7344 186.197C97.8711 185.834 98.0645 185.514 98.3145 185.236C98.5684 184.959 98.8711 184.742 99.2227 184.586C99.5781 184.426 99.9727 184.346 100.406 184.346C100.84 184.346 101.234 184.43 101.59 184.598C101.945 184.766 102.25 185.004 102.504 185.312C102.758 185.617 102.953 185.982 103.09 186.408C103.23 186.834 103.301 187.307 103.301 187.826V188.412C103.301 188.967 103.24 189.482 103.119 189.959C103.002 190.436 102.824 190.867 102.586 191.254C102.352 191.637 102.059 191.965 101.707 192.238C101.359 192.512 100.955 192.721 100.494 192.865C100.033 193.01 99.5176 193.082 98.9473 193.082H98.8125V191.717ZM110.484 189.812V191.137H104.338L104.256 190.111L107.812 184.469H109.154L107.701 186.9L105.932 189.812H110.484ZM109.518 184.469V193H107.83V184.469H109.518ZM117.686 186.66V193H115.992V186.66H117.686ZM119.725 186.66V187.967H113.982V186.66H119.725ZM124.535 186.66V187.984H121.418V186.66H124.535ZM125.771 186.66V193H124.084V186.66H125.771ZM120.996 186.66H122.654L122.484 189.859C122.461 190.316 122.412 190.719 122.338 191.066C122.264 191.414 122.164 191.711 122.039 191.957C121.918 192.203 121.771 192.404 121.6 192.561C121.432 192.713 121.234 192.824 121.008 192.895C120.785 192.965 120.539 193 120.27 193H119.754L119.736 191.67L119.953 191.646C120.078 191.635 120.188 191.6 120.281 191.541C120.379 191.479 120.461 191.391 120.527 191.277C120.598 191.16 120.656 191.014 120.703 190.838C120.75 190.658 120.787 190.447 120.814 190.205C120.846 189.963 120.867 189.684 120.879 189.367L120.996 186.66ZM128.766 187.879V195.438H127.078V186.66H128.643L128.766 187.879ZM132.779 189.76V189.883C132.779 190.344 132.725 190.771 132.615 191.166C132.51 191.561 132.354 191.904 132.146 192.197C131.939 192.486 131.682 192.713 131.373 192.877C131.068 193.037 130.717 193.117 130.318 193.117C129.932 193.117 129.596 193.039 129.311 192.883C129.025 192.727 128.785 192.508 128.59 192.227C128.398 191.941 128.244 191.611 128.127 191.236C128.01 190.861 127.92 190.459 127.857 190.029V189.707C127.92 189.246 128.01 188.824 128.127 188.441C128.244 188.055 128.398 187.721 128.59 187.439C128.785 187.154 129.023 186.934 129.305 186.777C129.59 186.621 129.924 186.543 130.307 186.543C130.709 186.543 131.062 186.619 131.367 186.771C131.676 186.924 131.934 187.143 132.141 187.428C132.352 187.713 132.51 188.053 132.615 188.447C132.725 188.842 132.779 189.279 132.779 189.76ZM131.086 189.883V189.76C131.086 189.49 131.062 189.242 131.016 189.016C130.973 188.785 130.902 188.584 130.805 188.412C130.711 188.24 130.586 188.107 130.43 188.014C130.277 187.916 130.092 187.867 129.873 187.867C129.643 187.867 129.445 187.904 129.281 187.979C129.121 188.053 128.99 188.16 128.889 188.301C128.787 188.441 128.711 188.609 128.66 188.805C128.609 189 128.578 189.221 128.566 189.467V190.281C128.586 190.57 128.641 190.83 128.73 191.061C128.82 191.287 128.959 191.467 129.146 191.6C129.334 191.732 129.58 191.799 129.885 191.799C130.107 191.799 130.295 191.75 130.447 191.652C130.6 191.551 130.723 191.412 130.816 191.236C130.914 191.061 130.982 190.857 131.021 190.627C131.064 190.396 131.086 190.148 131.086 189.883ZM138.17 189.221V190.533H134.947V189.221H138.17ZM135.51 186.66V193H133.822V186.66H135.51ZM139.312 186.66V193H137.619V186.66H139.312Z" fill="#1A60B1"/>
<path d="M64.7852 123.451V132H63.0977V125.396L61.0703 126.041V124.711L64.6035 123.451H64.7852ZM71.6758 123.451V132H69.9883V125.396L67.9609 126.041V124.711L71.4941 123.451H71.6758ZM78.8066 123.381H79.0527V124.729H78.9531C78.5078 124.729 78.1113 124.795 77.7637 124.928C77.416 125.061 77.1211 125.25 76.8789 125.496C76.6406 125.738 76.457 126.031 76.3281 126.375C76.2031 126.719 76.1406 127.104 76.1406 127.529V128.947C76.1406 129.252 76.1699 129.521 76.2285 129.756C76.291 129.986 76.3789 130.18 76.4922 130.336C76.6094 130.488 76.7461 130.604 76.9023 130.682C77.0586 130.756 77.2344 130.793 77.4297 130.793C77.6133 130.793 77.7793 130.754 77.9277 130.676C78.0801 130.598 78.209 130.488 78.3145 130.348C78.4238 130.203 78.5059 130.035 78.5605 129.844C78.6191 129.648 78.6484 129.436 78.6484 129.205C78.6484 128.975 78.6191 128.762 78.5605 128.566C78.5059 128.371 78.4238 128.203 78.3145 128.062C78.2051 127.918 78.0723 127.807 77.916 127.729C77.7598 127.65 77.584 127.611 77.3887 127.611C77.123 127.611 76.8887 127.674 76.6855 127.799C76.4863 127.92 76.3301 128.076 76.2168 128.268C76.1035 128.459 76.043 128.66 76.0352 128.871L75.5254 128.543C75.5371 128.242 75.5996 127.957 75.7129 127.688C75.8301 127.418 75.9902 127.18 76.1934 126.973C76.4004 126.762 76.6484 126.598 76.9375 126.48C77.2266 126.359 77.5527 126.299 77.916 126.299C78.3145 126.299 78.6641 126.375 78.9648 126.527C79.2695 126.68 79.5234 126.889 79.7266 127.154C79.9297 127.42 80.082 127.727 80.1836 128.074C80.2852 128.422 80.3359 128.793 80.3359 129.188C80.3359 129.602 80.2676 129.986 80.1309 130.342C79.998 130.697 79.8047 131.008 79.5508 131.273C79.3008 131.539 79 131.746 78.6484 131.895C78.2969 132.043 77.9023 132.117 77.4648 132.117C77.0117 132.117 76.5996 132.035 76.2285 131.871C75.8613 131.703 75.5449 131.469 75.2793 131.168C75.0137 130.867 74.8086 130.51 74.6641 130.096C74.5234 129.682 74.4531 129.229 74.4531 128.736V128.08C74.4531 127.393 74.5527 126.764 74.752 126.193C74.9551 125.619 75.2461 125.123 75.625 124.705C76.0039 124.283 76.4609 123.957 76.9961 123.727C77.5312 123.496 78.1348 123.381 78.8066 123.381ZM87.6309 125.66V132H85.9375V125.66H87.6309ZM89.6699 125.66V126.967H83.9277V125.66H89.6699ZM94.4805 125.66V126.984H91.3633V125.66H94.4805ZM95.7168 125.66V132H94.0293V125.66H95.7168ZM90.9414 125.66H92.5996L92.4297 128.859C92.4062 129.316 92.3574 129.719 92.2832 130.066C92.209 130.414 92.1094 130.711 91.9844 130.957C91.8633 131.203 91.7168 131.404 91.5449 131.561C91.377 131.713 91.1797 131.824 90.9531 131.895C90.7305 131.965 90.4844 132 90.2148 132H89.6992L89.6816 130.67L89.8984 130.646C90.0234 130.635 90.1328 130.6 90.2266 130.541C90.3242 130.479 90.4062 130.391 90.4727 130.277C90.543 130.16 90.6016 130.014 90.6484 129.838C90.6953 129.658 90.7324 129.447 90.7598 129.205C90.791 128.963 90.8125 128.684 90.8242 128.367L90.9414 125.66ZM98.7109 126.879V134.438H97.0234V125.66H98.5879L98.7109 126.879ZM102.725 128.76V128.883C102.725 129.344 102.67 129.771 102.561 130.166C102.455 130.561 102.299 130.904 102.092 131.197C101.885 131.486 101.627 131.713 101.318 131.877C101.014 132.037 100.662 132.117 100.264 132.117C99.877 132.117 99.541 132.039 99.2559 131.883C98.9707 131.727 98.7305 131.508 98.5352 131.227C98.3438 130.941 98.1895 130.611 98.0723 130.236C97.9551 129.861 97.8652 129.459 97.8027 129.029V128.707C97.8652 128.246 97.9551 127.824 98.0723 127.441C98.1895 127.055 98.3438 126.721 98.5352 126.439C98.7305 126.154 98.9688 125.934 99.25 125.777C99.5352 125.621 99.8691 125.543 100.252 125.543C100.654 125.543 101.008 125.619 101.312 125.771C101.621 125.924 101.879 126.143 102.086 126.428C102.297 126.713 102.455 127.053 102.561 127.447C102.67 127.842 102.725 128.279 102.725 128.76ZM101.031 128.883V128.76C101.031 128.49 101.008 128.242 100.961 128.016C100.918 127.785 100.848 127.584 100.75 127.412C100.656 127.24 100.531 127.107 100.375 127.014C100.223 126.916 100.037 126.867 99.8184 126.867C99.5879 126.867 99.3906 126.904 99.2266 126.979C99.0664 127.053 98.9355 127.16 98.834 127.301C98.7324 127.441 98.6562 127.609 98.6055 127.805C98.5547 128 98.5234 128.221 98.5117 128.467V129.281C98.5312 129.57 98.5859 129.83 98.6758 130.061C98.7656 130.287 98.9043 130.467 99.0918 130.6C99.2793 130.732 99.5254 130.799 99.8301 130.799C100.053 130.799 100.24 130.75 100.393 130.652C100.545 130.551 100.668 130.412 100.762 130.236C100.859 130.061 100.928 129.857 100.967 129.627C101.01 129.396 101.031 129.148 101.031 128.883ZM108.115 128.221V129.533H104.893V128.221H108.115ZM105.455 125.66V132H103.768V125.66H105.455ZM109.258 125.66V132H107.564V125.66H109.258Z" fill="#1A60B1"/>
<path d="M190.785 117.451V126H189.098V119.396L187.07 120.041V118.711L190.604 117.451H190.785ZM195.291 121.002H196.193C196.482 121.002 196.721 120.953 196.908 120.855C197.096 120.754 197.234 120.613 197.324 120.434C197.418 120.25 197.465 120.037 197.465 119.795C197.465 119.576 197.422 119.383 197.336 119.215C197.254 119.043 197.127 118.91 196.955 118.816C196.783 118.719 196.566 118.67 196.305 118.67C196.098 118.67 195.906 118.711 195.73 118.793C195.555 118.875 195.414 118.99 195.309 119.139C195.203 119.287 195.15 119.467 195.15 119.678H193.457C193.457 119.209 193.582 118.801 193.832 118.453C194.086 118.105 194.426 117.834 194.852 117.639C195.277 117.443 195.746 117.346 196.258 117.346C196.836 117.346 197.342 117.439 197.775 117.627C198.209 117.811 198.547 118.082 198.789 118.441C199.031 118.801 199.152 119.246 199.152 119.777C199.152 120.047 199.09 120.309 198.965 120.562C198.84 120.812 198.66 121.039 198.426 121.242C198.195 121.441 197.914 121.602 197.582 121.723C197.25 121.84 196.877 121.898 196.463 121.898H195.291V121.002ZM195.291 122.285V121.412H196.463C196.928 121.412 197.336 121.465 197.688 121.57C198.039 121.676 198.334 121.828 198.572 122.027C198.811 122.223 198.99 122.455 199.111 122.725C199.232 122.99 199.293 123.285 199.293 123.609C199.293 124.008 199.217 124.363 199.064 124.676C198.912 124.984 198.697 125.246 198.42 125.461C198.146 125.676 197.826 125.84 197.459 125.953C197.092 126.062 196.691 126.117 196.258 126.117C195.898 126.117 195.545 126.068 195.197 125.971C194.854 125.869 194.541 125.719 194.26 125.52C193.982 125.316 193.76 125.062 193.592 124.758C193.428 124.449 193.346 124.084 193.346 123.662H195.039C195.039 123.881 195.094 124.076 195.203 124.248C195.312 124.42 195.463 124.555 195.654 124.652C195.85 124.75 196.066 124.799 196.305 124.799C196.574 124.799 196.805 124.75 196.996 124.652C197.191 124.551 197.34 124.41 197.441 124.23C197.547 124.047 197.6 123.834 197.6 123.592C197.6 123.279 197.543 123.029 197.43 122.842C197.316 122.65 197.154 122.51 196.943 122.42C196.732 122.33 196.482 122.285 196.193 122.285H195.291ZM202.041 122.115L200.693 121.793L201.18 117.469H205.973V118.834H202.568L202.357 120.727C202.471 120.66 202.643 120.59 202.873 120.516C203.104 120.438 203.361 120.398 203.646 120.398C204.061 120.398 204.428 120.463 204.748 120.592C205.068 120.721 205.34 120.908 205.562 121.154C205.789 121.4 205.961 121.701 206.078 122.057C206.195 122.412 206.254 122.814 206.254 123.264C206.254 123.643 206.195 124.004 206.078 124.348C205.961 124.688 205.783 124.992 205.545 125.262C205.307 125.527 205.008 125.736 204.648 125.889C204.289 126.041 203.863 126.117 203.371 126.117C203.004 126.117 202.648 126.062 202.305 125.953C201.965 125.844 201.658 125.682 201.385 125.467C201.115 125.252 200.898 124.992 200.734 124.688C200.574 124.379 200.49 124.027 200.482 123.633H202.158C202.182 123.875 202.244 124.084 202.346 124.26C202.451 124.432 202.59 124.564 202.762 124.658C202.934 124.752 203.135 124.799 203.365 124.799C203.58 124.799 203.764 124.758 203.916 124.676C204.068 124.594 204.191 124.48 204.285 124.336C204.379 124.188 204.447 124.016 204.49 123.82C204.537 123.621 204.561 123.406 204.561 123.176C204.561 122.945 204.533 122.736 204.479 122.549C204.424 122.361 204.34 122.199 204.227 122.062C204.113 121.926 203.969 121.82 203.793 121.746C203.621 121.672 203.42 121.635 203.189 121.635C202.877 121.635 202.635 121.684 202.463 121.781C202.295 121.879 202.154 121.99 202.041 122.115ZM213.631 119.66V126H211.938V119.66H213.631ZM215.67 119.66V120.967H209.928V119.66H215.67ZM220.48 119.66V120.984H217.363V119.66H220.48ZM221.717 119.66V126H220.029V119.66H221.717ZM216.941 119.66H218.6L218.43 122.859C218.406 123.316 218.357 123.719 218.283 124.066C218.209 124.414 218.109 124.711 217.984 124.957C217.863 125.203 217.717 125.404 217.545 125.561C217.377 125.713 217.18 125.824 216.953 125.895C216.73 125.965 216.484 126 216.215 126H215.699L215.682 124.67L215.898 124.646C216.023 124.635 216.133 124.6 216.227 124.541C216.324 124.479 216.406 124.391 216.473 124.277C216.543 124.16 216.602 124.014 216.648 123.838C216.695 123.658 216.732 123.447 216.76 123.205C216.791 122.963 216.812 122.684 216.824 122.367L216.941 119.66ZM224.711 120.879V128.438H223.023V119.66H224.588L224.711 120.879ZM228.725 122.76V122.883C228.725 123.344 228.67 123.771 228.561 124.166C228.455 124.561 228.299 124.904 228.092 125.197C227.885 125.486 227.627 125.713 227.318 125.877C227.014 126.037 226.662 126.117 226.264 126.117C225.877 126.117 225.541 126.039 225.256 125.883C224.971 125.727 224.73 125.508 224.535 125.227C224.344 124.941 224.189 124.611 224.072 124.236C223.955 123.861 223.865 123.459 223.803 123.029V122.707C223.865 122.246 223.955 121.824 224.072 121.441C224.189 121.055 224.344 120.721 224.535 120.439C224.73 120.154 224.969 119.934 225.25 119.777C225.535 119.621 225.869 119.543 226.252 119.543C226.654 119.543 227.008 119.619 227.312 119.771C227.621 119.924 227.879 120.143 228.086 120.428C228.297 120.713 228.455 121.053 228.561 121.447C228.67 121.842 228.725 122.279 228.725 122.76ZM227.031 122.883V122.76C227.031 122.49 227.008 122.242 226.961 122.016C226.918 121.785 226.848 121.584 226.75 121.412C226.656 121.24 226.531 121.107 226.375 121.014C226.223 120.916 226.037 120.867 225.818 120.867C225.588 120.867 225.391 120.904 225.227 120.979C225.066 121.053 224.936 121.16 224.834 121.301C224.732 121.441 224.656 121.609 224.605 121.805C224.555 122 224.523 122.221 224.512 122.467V123.281C224.531 123.57 224.586 123.83 224.676 124.061C224.766 124.287 224.904 124.467 225.092 124.6C225.279 124.732 225.525 124.799 225.83 124.799C226.053 124.799 226.24 124.75 226.393 124.652C226.545 124.551 226.668 124.412 226.762 124.236C226.859 124.061 226.928 123.857 226.967 123.627C227.01 123.396 227.031 123.148 227.031 122.883ZM234.115 122.221V123.533H230.893V122.221H234.115ZM231.455 119.66V126H229.768V119.66H231.455ZM235.258 119.66V126H233.564V119.66H235.258Z" fill="#1A60B1"/>
<path d="M24.0635 207.948L75.5002 189.5L137.5 129L205 96.4473H252.5" stroke="#31CC82" stroke-width="2.23002" stroke-linecap="square"/>
</g>
<defs>
<clipPath id="clip0_116_2803">
<rect width="277" height="242" fill="white"/>
</clipPath>
</defs>
</svg>
