<svg width="461" height="436" viewBox="0 0 461 436" fill="none" xmlns="http://www.w3.org/2000/svg">
<path fill-rule="evenodd" clip-rule="evenodd" d="M230.678 406.489C249.5 406.509 268.215 403.66 286.178 398.041L277.491 374.235C246.964 383.532 214.362 383.532 183.836 374.235L175.148 398.041C193.121 403.663 211.847 406.512 230.678 406.489ZM159.433 392.299C124.499 377.709 94.8482 352.806 74.4412 320.919L96.3963 308.278C113.789 335.04 138.759 356.016 168.121 368.53L159.433 392.317V392.299ZM66.0735 306.433C48.704 272.836 41.9971 234.739 46.8482 197.23L71.7974 201.65C67.9344 233.298 73.5895 265.379 88.0409 293.799L66.0735 306.433ZM49.7439 180.759C57.9995 143.774 77.4056 110.213 105.342 84.6074L121.635 103.993C98.2228 125.744 81.8661 154.012 74.6748 185.148L49.7439 180.728V180.759ZM118.167 73.8604L134.453 93.2456C159.884 74.0544 190.486 62.9327 222.305 61.3182V36C184.532 37.6485 148.179 50.8652 118.167 73.8604ZM301.893 392.299C336.827 377.709 366.478 352.806 386.885 320.919L364.93 308.278C347.538 335.039 322.571 356.014 293.212 368.53L301.893 392.317V392.299ZM395.253 306.433C408.93 280.085 416.05 250.827 416.009 221.14C416.01 213.143 415.499 205.155 414.478 197.223L389.529 201.644C390.314 208.113 390.708 214.623 390.709 221.14C390.752 246.396 384.79 271.3 373.316 293.799L395.253 306.433ZM411.582 180.753C403.326 143.77 383.919 110.211 355.984 84.6074L339.692 103.993C363.103 125.744 379.46 154.012 386.651 185.148L411.582 180.728V180.753ZM343.19 73.8604L326.897 93.2456C301.467 74.0544 270.864 62.9327 239.046 61.3182V36C276.821 37.6473 313.177 50.8641 343.19 73.8604Z" fill="#ECF7FC"/>
<path fill-rule="evenodd" clip-rule="evenodd" d="M454.903 430.715H367.648L320.694 367.156L321.512 366.547L368.158 429.701H454.903V430.715Z" fill="#0D397F"/>
<path fill-rule="evenodd" clip-rule="evenodd" d="M326.191 366.848C326.193 367.856 325.895 368.841 325.336 369.679C324.777 370.517 323.982 371.17 323.052 371.556C322.121 371.942 321.097 372.044 320.109 371.848C319.121 371.651 318.213 371.166 317.501 370.454C316.789 369.742 316.304 368.834 316.108 367.846C315.911 366.858 316.013 365.834 316.399 364.903C316.785 363.973 317.438 363.178 318.276 362.619C319.114 362.06 320.099 361.762 321.107 361.764C322.455 361.765 323.747 362.302 324.7 363.255C325.654 364.208 326.19 365.5 326.191 366.848Z" fill="#0D397F"/>
<path fill-rule="evenodd" clip-rule="evenodd" d="M459.994 430.205C459.994 429.198 459.695 428.214 459.136 427.377C458.576 426.54 457.781 425.887 456.851 425.502C455.921 425.116 454.897 425.016 453.91 425.212C452.922 425.408 452.015 425.893 451.303 426.605C450.591 427.317 450.106 428.224 449.91 429.212C449.714 430.199 449.814 431.223 450.2 432.153C450.585 433.083 451.238 433.878 452.075 434.438C452.912 434.997 453.896 435.296 454.903 435.296C456.253 435.296 457.548 434.759 458.503 433.805C459.457 432.85 459.994 431.555 459.994 430.205Z" fill="#0D397F"/>
<path fill-rule="evenodd" clip-rule="evenodd" d="M455.856 291.594H416.262L416.139 291.52L393.385 277.336L393.926 276.476L416.557 290.579H455.856V291.594Z" fill="#0D397F"/>
<path fill-rule="evenodd" clip-rule="evenodd" d="M398.74 276.907C398.74 277.912 398.441 278.895 397.883 279.732C397.324 280.568 396.53 281.219 395.601 281.604C394.672 281.989 393.649 282.09 392.663 281.894C391.677 281.697 390.771 281.213 390.06 280.502C389.349 279.791 388.864 278.885 388.668 277.899C388.472 276.912 388.573 275.89 388.958 274.961C389.342 274.032 389.994 273.238 390.83 272.679C391.666 272.12 392.649 271.822 393.655 271.822C395.003 271.824 396.295 272.36 397.249 273.313C398.202 274.266 398.738 275.559 398.74 276.907Z" fill="#0D397F"/>
<path fill-rule="evenodd" clip-rule="evenodd" d="M460.947 291.016C460.947 292.023 460.648 293.008 460.089 293.845C459.529 294.682 458.734 295.334 457.804 295.72C456.874 296.105 455.85 296.206 454.863 296.009C453.875 295.813 452.968 295.328 452.256 294.616C451.544 293.904 451.06 292.997 450.863 292.01C450.667 291.022 450.768 289.999 451.153 289.068C451.538 288.138 452.191 287.343 453.028 286.784C453.865 286.224 454.849 285.926 455.856 285.926C457.206 285.926 458.501 286.462 459.456 287.417C460.41 288.372 460.947 289.666 460.947 291.016Z" fill="#0D397F"/>
<path fill-rule="evenodd" clip-rule="evenodd" d="M314.436 69.719L313.624 69.1164L360.572 5.55664H447.833V6.57109H361.088L314.436 69.719Z" fill="#0D397F"/>
<path fill-rule="evenodd" clip-rule="evenodd" d="M452.924 6.0611C452.925 7.0682 452.627 8.05304 452.069 8.891C451.51 9.72897 450.715 10.3824 449.785 10.7687C448.855 11.1549 447.831 11.2566 446.844 11.0609C445.856 10.8651 444.948 10.3808 444.235 9.66908C443.523 8.95738 443.037 8.05032 442.84 7.06265C442.644 6.07499 442.744 5.05111 443.129 4.12055C443.514 3.18999 444.167 2.39457 445.004 1.83492C445.841 1.27528 446.826 0.976563 447.833 0.976563C449.182 0.976562 450.476 1.51205 451.43 2.46541C452.385 3.41877 452.922 4.71203 452.924 6.0611Z" fill="#0D397F"/>
<path fill-rule="evenodd" clip-rule="evenodd" d="M319.114 70.2662C319.114 71.2718 318.816 72.2548 318.257 73.091C317.699 73.9271 316.905 74.5788 315.976 74.9637C315.047 75.3485 314.024 75.4492 313.038 75.253C312.052 75.0568 311.146 74.5726 310.435 73.8615C309.723 73.1504 309.239 72.2444 309.043 71.2581C308.847 70.2718 308.948 69.2495 309.332 68.3204C309.717 67.3913 310.369 66.5972 311.205 66.0385C312.041 65.4798 313.024 65.1816 314.03 65.1816C315.378 65.1816 316.672 65.7173 317.625 66.6709C318.579 67.6244 319.114 68.9177 319.114 70.2662Z" fill="#0D397F"/>
<path fill-rule="evenodd" clip-rule="evenodd" d="M392.604 162.053L392.161 161.13L415.137 150.101H454.583V151.121H415.248L392.604 162.053Z" fill="#0D397F"/>
<path fill-rule="evenodd" clip-rule="evenodd" d="M459.674 150.684C459.674 151.691 459.376 152.676 458.816 153.513C458.257 154.35 457.462 155.002 456.532 155.388C455.601 155.773 454.578 155.874 453.59 155.677C452.603 155.481 451.696 154.996 450.984 154.284C450.272 153.572 449.787 152.665 449.591 151.678C449.394 150.69 449.495 149.667 449.88 148.736C450.266 147.806 450.918 147.011 451.755 146.452C452.592 145.892 453.577 145.594 454.583 145.594C455.934 145.594 457.228 146.13 458.183 147.085C459.138 148.039 459.674 149.334 459.674 150.684Z" fill="#0D397F"/>
<path fill-rule="evenodd" clip-rule="evenodd" d="M397.467 162.594C397.467 163.601 397.168 164.585 396.608 165.422C396.049 166.26 395.253 166.912 394.323 167.297C393.392 167.682 392.368 167.783 391.38 167.586C390.393 167.389 389.486 166.904 388.774 166.191C388.062 165.479 387.578 164.571 387.382 163.583C387.186 162.595 387.288 161.571 387.674 160.641C388.061 159.711 388.714 158.917 389.552 158.358C390.39 157.799 391.375 157.502 392.382 157.503C393.731 157.505 395.024 158.042 395.978 158.996C396.931 159.951 397.467 161.245 397.467 162.594Z" fill="#0D397F"/>
<path fill-rule="evenodd" clip-rule="evenodd" d="M6.18518 430.715H93.44L140.394 367.156L139.576 366.547L92.9297 429.701H6.18518V430.715Z" fill="#0D397F"/>
<path fill-rule="evenodd" clip-rule="evenodd" d="M134.897 366.848C134.896 367.856 135.193 368.841 135.752 369.679C136.311 370.517 137.106 371.17 138.037 371.556C138.967 371.942 139.991 372.044 140.979 371.848C141.967 371.651 142.875 371.166 143.587 370.454C144.3 369.742 144.785 368.834 144.981 367.846C145.177 366.858 145.076 365.834 144.69 364.903C144.304 363.973 143.65 363.178 142.812 362.619C141.974 362.06 140.989 361.762 139.981 361.764C138.633 361.765 137.341 362.302 136.388 363.255C135.435 364.208 134.899 365.5 134.897 366.848Z" fill="#0D397F"/>
<path fill-rule="evenodd" clip-rule="evenodd" d="M1.09473 430.205C1.09473 429.198 1.39329 428.214 1.95266 427.377C2.51203 426.54 3.30709 425.887 4.2373 425.502C5.1675 425.116 6.19106 425.016 7.17856 425.212C8.16606 425.408 9.07312 425.893 9.78507 426.605C10.497 427.317 10.9819 428.224 11.1783 429.212C11.3747 430.199 11.2739 431.223 10.8886 432.153C10.5033 433.083 9.85081 433.878 9.01365 434.438C8.17649 434.997 7.19225 435.296 6.18541 435.296C4.83528 435.296 3.54044 434.759 2.58575 433.805C1.63106 432.85 1.09473 431.555 1.09473 430.205Z" fill="#0D397F"/>
<path fill-rule="evenodd" clip-rule="evenodd" d="M5.09058 291.594H44.6848L44.8078 291.52L67.5621 277.336L67.0211 276.476L44.3897 290.579H5.09058V291.594Z" fill="#0D397F"/>
<path fill-rule="evenodd" clip-rule="evenodd" d="M62.2011 276.907C62.1998 277.914 62.4974 278.899 63.056 279.737C63.6146 280.575 64.4093 281.228 65.3394 281.614C66.2695 282.001 67.2932 282.102 68.2811 281.907C69.269 281.711 70.1766 281.226 70.8892 280.515C71.6018 279.803 72.0872 278.896 72.2842 277.908C72.4811 276.921 72.3806 275.897 71.9955 274.966C71.6104 274.036 70.9579 273.24 70.1206 272.681C69.2833 272.121 68.2988 271.822 67.2917 271.822C65.9427 271.822 64.6488 272.358 63.6942 273.311C62.7397 274.264 62.2027 275.558 62.2011 276.907Z" fill="#0D397F"/>
<path fill-rule="evenodd" clip-rule="evenodd" d="M3.71742e-06 291.016C4.45191e-06 292.024 0.298726 293.008 0.85837 293.845C1.41801 294.683 2.21343 295.335 3.14399 295.72C4.07455 296.105 5.09843 296.206 6.0861 296.009C7.07376 295.812 7.98082 295.327 8.69252 294.614C9.40422 293.901 9.88857 292.994 10.0843 292.006C10.28 291.018 10.1783 289.994 9.7921 289.064C9.40586 288.134 8.75242 287.339 7.91445 286.781C7.07648 286.222 6.09165 285.925 5.08454 285.926C4.41631 285.926 3.75463 286.058 3.13735 286.313C2.52006 286.569 1.95928 286.944 1.48705 287.417C1.01483 287.89 0.640438 288.451 0.385278 289.069C0.130117 289.686 -0.000804298 290.348 3.71742e-06 291.016Z" fill="#0D397F"/>
<path fill-rule="evenodd" clip-rule="evenodd" d="M146.653 69.719L147.47 69.1164L100.523 5.55664H13.262V6.57109H100.007L146.653 69.719Z" fill="#0D397F"/>
<path fill-rule="evenodd" clip-rule="evenodd" d="M8.17725 6.0611C8.17725 7.06672 8.47544 8.04977 9.03414 8.88592C9.59284 9.72206 10.3869 10.3738 11.316 10.7586C12.2451 11.1434 13.2674 11.2441 14.2537 11.0479C15.24 10.8517 16.146 10.3675 16.8571 9.65641C17.5682 8.94532 18.0524 8.03934 18.2486 7.05304C18.4448 6.06674 18.3441 5.04441 17.9593 4.11533C17.5744 3.18625 16.9227 2.39216 16.0866 1.83346C15.2505 1.27476 14.2674 0.976562 13.2618 0.976562C11.9138 0.97819 10.6214 1.5144 9.66826 2.46758C8.71508 3.42077 8.17887 4.71309 8.17725 6.0611Z" fill="#0D397F"/>
<path fill-rule="evenodd" clip-rule="evenodd" d="M141.955 70.2662C141.955 71.2718 142.253 72.2548 142.812 73.091C143.371 73.9271 144.165 74.5788 145.094 74.9637C146.023 75.3485 147.045 75.4492 148.031 75.253C149.018 75.0568 149.924 74.5726 150.635 73.8615C151.346 73.1504 151.83 72.2444 152.026 71.2581C152.223 70.2718 152.122 69.2495 151.737 68.3204C151.352 67.3913 150.7 66.5972 149.864 66.0385C149.028 65.4798 148.045 65.1816 147.039 65.1816C145.691 65.1816 144.398 65.7173 143.444 66.6709C142.491 67.6244 141.955 68.9177 141.955 70.2662Z" fill="#0D397F"/>
<path fill-rule="evenodd" clip-rule="evenodd" d="M68.4167 162.053L68.8594 161.13L45.8837 150.101H6.43701V151.121H45.773L68.4167 162.053Z" fill="#0D397F"/>
<path fill-rule="evenodd" clip-rule="evenodd" d="M1.34644 150.684C1.34644 151.691 1.645 152.676 2.20437 153.513C2.76374 154.35 3.55879 155.002 4.489 155.388C5.4192 155.773 6.44276 155.874 7.43026 155.677C8.41776 155.481 9.32483 154.996 10.0368 154.284C10.7487 153.572 11.2336 152.665 11.43 151.678C11.6264 150.69 11.5256 149.667 11.1403 148.736C10.755 147.806 10.1025 147.011 9.26535 146.452C8.42819 145.892 7.44396 145.594 6.43712 145.594C5.08699 145.594 3.79215 146.13 2.83746 147.085C1.88277 148.039 1.34644 149.334 1.34644 150.684Z" fill="#0D397F"/>
<path fill-rule="evenodd" clip-rule="evenodd" d="M63.5536 162.594C63.5537 163.601 63.8524 164.585 64.412 165.422C64.9717 166.26 65.7671 166.912 66.6976 167.297C67.6282 167.682 68.6521 167.783 69.6397 167.586C70.6274 167.389 71.5345 166.904 72.2462 166.191C72.9579 165.479 73.4422 164.571 73.6379 163.583C73.8337 162.595 73.732 161.571 73.3457 160.641C72.9595 159.711 72.3061 158.917 71.4681 158.358C70.6301 157.799 69.6453 157.502 68.6382 157.503C67.2891 157.505 65.9959 158.042 65.0425 158.996C64.0891 159.951 63.5536 161.245 63.5536 162.594Z" fill="#0D397F"/>
</svg>
