<svg width="371" height="371" viewBox="0 0 371 371" fill="none" xmlns="http://www.w3.org/2000/svg">
<path fill-rule="evenodd" clip-rule="evenodd" d="M185.366 370.489C204.187 370.509 222.902 367.66 240.865 362.041L232.178 338.235C201.651 347.532 169.049 347.532 138.523 338.235L129.835 362.041C147.808 367.663 166.534 370.512 185.366 370.489ZM114.121 356.299C79.1862 341.709 49.5352 316.806 29.1282 284.919L51.0833 272.278C68.4759 299.04 93.4456 320.016 122.808 332.53L114.121 356.317V356.299ZM20.7606 270.433C3.39112 236.836 -3.31581 198.739 1.53523 161.23L26.4845 165.65C22.6215 197.298 28.2766 229.379 42.728 257.799L20.7606 270.433ZM4.43102 144.759C12.6866 107.774 32.0927 74.2125 60.0289 48.6074L76.3216 67.9926C52.9099 89.7439 36.5532 118.012 29.3619 149.148L4.43102 144.728V144.759ZM72.854 37.8604L89.1405 57.2456C114.571 38.0544 145.173 26.9327 176.992 25.3182V0C139.219 1.64852 102.866 14.8652 72.854 37.8604ZM256.58 356.299C291.514 341.709 321.165 316.806 341.572 284.919L319.617 272.278C302.225 299.039 277.258 320.014 247.899 332.53L256.58 356.317V356.299ZM349.94 270.433C363.617 244.085 370.737 214.827 370.696 185.14C370.697 177.143 370.186 169.155 369.165 161.223L344.216 165.644C345.001 172.113 345.395 178.623 345.396 185.14C345.439 210.396 339.477 235.3 328.003 257.799L349.94 270.433ZM366.269 144.753C358.013 107.77 338.607 74.2109 310.671 48.6074L294.379 67.9926C317.79 89.7439 334.147 118.012 341.339 149.148L366.269 144.728V144.753ZM297.877 37.8604L281.584 57.2456C256.154 38.0544 225.551 26.9327 193.733 25.3182V0C231.508 1.64728 267.864 14.8641 297.877 37.8604Z" fill="#ECF7FC"/>
</svg>
