<svg width="73" height="23" viewBox="0 0 73 23" fill="none" xmlns="http://www.w3.org/2000/svg">
<path fill-rule="evenodd" clip-rule="evenodd" d="M67.1037 17.0526L67.5464 16.1304L44.5707 5.10059H5.12402V6.12118H44.46L67.1037 17.0526Z" fill="#0D397F"/>
<path fill-rule="evenodd" clip-rule="evenodd" d="M0.0334473 5.68443C0.0334473 6.69128 0.332011 7.67551 0.891382 8.51267C1.45075 9.34983 2.24581 10.0023 3.17601 10.3876C4.10621 10.7729 5.12977 10.8737 6.11727 10.6773C7.10477 10.4809 8.01184 9.99603 8.72379 9.28408C9.43573 8.57214 9.92057 7.66508 10.117 6.67758C10.3134 5.69009 10.2126 4.66652 9.82731 3.73632C9.44201 2.80612 8.78952 2.01105 7.95236 1.45168C7.1152 0.892304 6.13097 0.59375 5.12413 0.59375C3.774 0.59375 2.47916 1.13008 1.52447 2.08477C0.569786 3.03946 0.0334473 4.3343 0.0334473 5.68443Z" fill="#0D397F"/>
<path fill-rule="evenodd" clip-rule="evenodd" d="M62.2407 17.5936C62.2407 18.6007 62.5394 19.5852 63.099 20.4225C63.6587 21.2598 64.4541 21.9123 65.3846 22.2974C66.3152 22.6825 67.3391 22.783 68.3267 22.586C69.3144 22.3891 70.2215 21.9037 70.9332 21.1911C71.6449 20.4785 72.1292 19.5709 72.325 18.583C72.5207 17.5951 72.419 16.5713 72.0328 15.6412C71.6465 14.7111 70.9931 13.9165 70.1551 13.3579C69.3171 12.7992 68.3323 12.5017 67.3252 12.5029C65.9761 12.5046 64.6829 13.0416 63.7295 13.9961C62.7761 14.9506 62.2407 16.2445 62.2407 17.5936Z" fill="#0D397F"/>
</svg>
