<svg width="145" height="75" viewBox="0 0 145 75" fill="none" xmlns="http://www.w3.org/2000/svg">
<path fill-rule="evenodd" clip-rule="evenodd" d="M139.59 69.7153H52.335L5.38135 6.15554L6.19906 5.54688L52.8452 68.7009H139.59V69.7153Z" fill="#0D397F"/>
<path fill-rule="evenodd" clip-rule="evenodd" d="M10.8784 5.84822C10.8796 6.85559 10.5819 7.84067 10.023 8.67877C9.46412 9.51687 8.66912 10.1703 7.73866 10.5564C6.80821 10.9424 5.78414 11.0438 4.79607 10.8476C3.808 10.6513 2.90036 10.1664 2.18805 9.45405C1.47573 8.74173 0.990771 7.83406 0.794542 6.84599C0.598313 5.85792 0.699638 4.83385 1.0857 3.90339C1.47177 2.97294 2.12523 2.17797 2.96333 1.61907C3.80143 1.06016 4.78651 0.76246 5.79387 0.763676C7.14187 0.765303 8.4342 1.30153 9.38738 2.25471C10.3406 3.2079 10.8768 4.50022 10.8784 5.84822Z" fill="#0D397F"/>
<path fill-rule="evenodd" clip-rule="evenodd" d="M144.681 69.2049C144.681 68.1981 144.382 67.2139 143.823 66.3767C143.263 65.5396 142.468 64.8871 141.538 64.5018C140.608 64.1165 139.584 64.0156 138.597 64.2121C137.609 64.4085 136.702 64.8933 135.99 65.6053C135.278 66.3172 134.794 67.2243 134.597 68.2118C134.401 69.1993 134.501 70.2229 134.887 71.1531C135.272 72.0833 135.925 72.8783 136.762 73.4377C137.599 73.9971 138.583 74.2957 139.59 74.2957C140.94 74.2957 142.235 73.7593 143.19 72.8046C144.144 71.8499 144.681 70.5551 144.681 69.2049Z" fill="#0D397F"/>
</svg>
