<svg width="73" height="26" viewBox="0 0 73 26" fill="none" xmlns="http://www.w3.org/2000/svg">
<path fill-rule="evenodd" clip-rule="evenodd" d="M67.5433 20.5939H27.9491L27.8262 20.5201L5.07178 6.33631L5.61282 5.47559L28.2442 19.5795H67.5433V20.5939Z" fill="#0D397F"/>
<path fill-rule="evenodd" clip-rule="evenodd" d="M10.4266 5.90682C10.4266 6.91244 10.1284 7.89547 9.56972 8.73162C9.01103 9.56777 8.21695 10.2195 7.28788 10.6043C6.3588 10.9891 5.33646 11.0898 4.35016 10.8936C3.36385 10.6975 2.45788 10.2132 1.74679 9.50213C1.03571 8.79104 0.551461 7.88507 0.355273 6.89876C0.159085 5.91246 0.259758 4.89012 0.644595 3.96105C1.02943 3.03197 1.68112 2.23786 2.51727 1.67916C3.35341 1.12046 4.33648 0.822266 5.34211 0.822266C6.69011 0.823893 7.98244 1.36012 8.93562 2.3133C9.8888 3.26649 10.425 4.55881 10.4266 5.90682Z" fill="#0D397F"/>
<path fill-rule="evenodd" clip-rule="evenodd" d="M72.6338 20.0164C72.6338 21.0233 72.3352 22.0075 71.7758 22.8447C71.2165 23.6819 70.4214 24.3343 69.4912 24.7196C68.561 25.1049 67.5374 25.2057 66.5499 25.0093C65.5624 24.8129 64.6554 24.3281 63.9434 23.6161C63.2315 22.9042 62.7466 21.9971 62.5502 21.0096C62.3538 20.0221 62.4546 18.9986 62.8399 18.0684C63.2252 17.1381 63.8777 16.3431 64.7149 15.7837C65.552 15.2244 66.5362 14.9258 67.5431 14.9258C68.8932 14.9258 70.1881 15.4621 71.1428 16.4168C72.0974 17.3715 72.6338 18.6663 72.6338 20.0164Z" fill="#0D397F"/>
</svg>
