<svg width="11" height="47" viewBox="0 0 11 47" fill="none" xmlns="http://www.w3.org/2000/svg">
<path fill-rule="evenodd" clip-rule="evenodd" d="M10.2478 5.55946C10.2478 6.56656 9.94905 7.55102 9.38941 8.38831C8.82977 9.22561 8.03433 9.87811 7.10377 10.2632C6.17321 10.6484 5.14933 10.7488 4.16166 10.5519C3.174 10.355 2.26696 9.86951 1.55526 9.15695C0.843557 8.44439 0.359205 7.53672 0.163475 6.54882C-0.0322558 5.56091 0.0694405 4.53718 0.455685 3.60708C0.84193 2.67699 1.49534 1.88233 2.33331 1.3237C3.17128 0.765064 4.15611 0.467537 5.16322 0.468754C5.83145 0.468753 6.49313 0.600485 7.11041 0.856392C7.7277 1.1123 8.28848 1.48737 8.76071 1.96017C9.23293 2.43296 9.60733 2.99422 9.86249 3.61181C10.1177 4.22941 10.2486 4.89123 10.2478 5.55946Z" fill="#0D397F"/>
<path d="M5.67378 5.55957H4.6532V41.1944H5.67378V5.55957Z" fill="#0D397F"/>
<path fill-rule="evenodd" clip-rule="evenodd" d="M10.2478 41.1939C10.249 42.2013 9.95131 43.1864 9.39241 44.0245C8.83351 44.8626 8.0385 45.516 7.10805 45.9021C6.1776 46.2881 5.15352 46.3894 4.16545 46.1932C3.17738 45.997 2.26975 45.512 1.55743 44.7997C0.845119 44.0874 0.360156 43.1798 0.163927 42.1917C-0.0323026 41.2036 0.0690228 40.1795 0.455087 39.2491C0.84115 38.3186 1.49457 37.5236 2.33267 36.9647C3.17077 36.4058 4.15585 36.1082 5.16322 36.1094C6.51172 36.1094 7.805 36.6451 8.75853 37.5986C9.71207 38.5521 10.2478 39.8454 10.2478 41.1939Z" fill="#0D397F"/>
</svg>
