<svg width="145" height="76" viewBox="0 0 145 76" fill="none" xmlns="http://www.w3.org/2000/svg">
<path fill-rule="evenodd" clip-rule="evenodd" d="M139.34 69.719L140.157 69.1164L93.2098 5.55664H5.94885V6.57109H92.6934L139.34 69.719Z" fill="#0D397F"/>
<path fill-rule="evenodd" clip-rule="evenodd" d="M0.864136 6.0611C0.864136 7.06672 1.16233 8.04977 1.72103 8.88592C2.27973 9.72206 3.07383 10.3738 4.00291 10.7586C4.93198 11.1434 5.95431 11.2441 6.94061 11.0479C7.92692 10.8517 8.83289 10.3675 9.54398 9.65641C10.2551 8.94532 10.7393 8.03934 10.9355 7.05304C11.1317 6.06674 11.031 5.04441 10.6462 4.11533C10.2613 3.18625 9.60964 2.39216 8.77349 1.83346C7.93734 1.27476 6.95429 0.976562 5.94867 0.976562C4.60066 0.97819 3.30834 1.5144 2.35515 2.46758C1.40197 3.42077 0.865763 4.71309 0.864136 6.0611Z" fill="#0D397F"/>
<path fill-rule="evenodd" clip-rule="evenodd" d="M134.642 70.2662C134.642 71.2718 134.94 72.2548 135.499 73.091C136.057 73.9271 136.852 74.5788 137.781 74.9637C138.71 75.3485 139.732 75.4492 140.718 75.253C141.705 75.0568 142.611 74.5726 143.322 73.8615C144.033 73.1504 144.517 72.2444 144.713 71.2581C144.909 70.2718 144.809 69.2495 144.424 68.3204C144.039 67.3913 143.387 66.5972 142.551 66.0385C141.715 65.4798 140.732 65.1816 139.726 65.1816C138.378 65.1816 137.085 65.7173 136.131 66.6709C135.178 67.6244 134.642 68.9177 134.642 70.2662Z" fill="#0D397F"/>
</svg>
