<svg width="74" height="26" viewBox="0 0 74 26" fill="none" xmlns="http://www.w3.org/2000/svg">
<path fill-rule="evenodd" clip-rule="evenodd" d="M5.77759 20.5939H45.3718L45.4948 20.5201L68.2492 6.33631L67.7081 5.47559L45.0767 19.5795H5.77759V20.5939Z" fill="#0D397F"/>
<path fill-rule="evenodd" clip-rule="evenodd" d="M62.8881 5.90681C62.8868 6.91392 63.1844 7.89875 63.743 8.73672C64.3016 9.57469 65.0963 10.2281 66.0264 10.6143C66.9565 11.0006 67.9802 11.1023 68.9681 10.9066C69.956 10.7108 70.8637 10.2265 71.5762 9.51477C72.2888 8.80307 72.7743 7.89603 72.9712 6.90837C73.1681 5.92071 73.0676 4.89682 72.6825 3.96626C72.2974 3.0357 71.6449 2.24027 70.8076 1.68062C69.9703 1.12098 68.9859 0.822266 67.9787 0.822266C66.6297 0.822265 65.3358 1.35777 64.3813 2.31113C63.4267 3.26448 62.8897 4.55775 62.8881 5.90681Z" fill="#0D397F"/>
<path fill-rule="evenodd" clip-rule="evenodd" d="M0.687015 20.0165C0.687016 21.0236 0.985738 22.0081 1.54538 22.8453C2.10503 23.6826 2.90044 24.3351 3.831 24.7202C4.76156 25.1054 5.78545 25.2058 6.77311 25.0089C7.76077 24.812 8.66783 24.3265 9.37953 23.6139C10.0912 22.9014 10.5756 21.9937 10.7713 21.0058C10.967 20.0179 10.8654 18.9942 10.4791 18.0641C10.0929 17.134 9.43943 16.3394 8.60146 15.7807C7.76349 15.2221 6.77866 14.9246 5.77155 14.9258C5.10333 14.9258 4.44164 15.0575 3.82436 15.3134C3.20707 15.5693 2.64629 15.9444 2.17406 16.4172C1.70184 16.89 1.32745 17.4512 1.07229 18.0688C0.817129 18.6864 0.686207 19.3482 0.687015 20.0165Z" fill="#0D397F"/>
</svg>
