<svg width="145" height="75" viewBox="0 0 145 75" fill="none" xmlns="http://www.w3.org/2000/svg">
<path fill-rule="evenodd" clip-rule="evenodd" d="M5.87207 69.7153H93.1269L140.08 6.15554L139.263 5.54688L92.6166 68.7009H5.87207V69.7153Z" fill="#0D397F"/>
<path fill-rule="evenodd" clip-rule="evenodd" d="M134.584 5.84822C134.583 6.85559 134.88 7.84067 135.439 8.67877C135.998 9.51687 136.793 10.1703 137.724 10.5564C138.654 10.9424 139.678 11.0438 140.666 10.8476C141.654 10.6513 142.562 10.1664 143.274 9.45405C143.986 8.74173 144.471 7.83406 144.668 6.84599C144.864 5.85792 144.763 4.83385 144.377 3.90339C143.99 2.97294 143.337 2.17797 142.499 1.61907C141.661 1.06016 140.676 0.76246 139.668 0.763676C138.32 0.765303 137.028 1.30153 136.075 2.25471C135.122 3.2079 134.585 4.50022 134.584 5.84822Z" fill="#0D397F"/>
<path fill-rule="evenodd" clip-rule="evenodd" d="M0.781616 69.2049C0.781616 68.1981 1.08018 67.2139 1.63955 66.3767C2.19892 65.5396 2.99398 64.8871 3.92419 64.5018C4.85439 64.1165 5.87795 64.0156 6.86545 64.2121C7.85295 64.4085 8.76001 64.8933 9.47196 65.6053C10.1839 66.3172 10.6687 67.2243 10.8652 68.2118C11.0616 69.1993 10.9608 70.2229 10.5755 71.1531C10.1902 72.0833 9.5377 72.8783 8.70054 73.4377C7.86338 73.9971 6.87914 74.2957 5.8723 74.2957C4.52217 74.2957 3.22733 73.7593 2.27264 72.8046C1.31795 71.8499 0.781616 70.5551 0.781616 69.2049Z" fill="#0D397F"/>
</svg>
