<svg width="145" height="76" viewBox="0 0 145 76" fill="none" xmlns="http://www.w3.org/2000/svg">
<path fill-rule="evenodd" clip-rule="evenodd" d="M6.12284 69.719L5.31128 69.1164L52.2587 5.55664H139.52V6.57109H52.7752L6.12284 69.719Z" fill="#0D397F"/>
<path fill-rule="evenodd" clip-rule="evenodd" d="M144.611 6.0611C144.612 7.0682 144.314 8.05304 143.756 8.891C143.197 9.72897 142.402 10.3824 141.472 10.7687C140.542 11.1549 139.518 11.2566 138.531 11.0609C137.543 10.8651 136.635 10.3808 135.922 9.66908C135.21 8.95738 134.724 8.05032 134.527 7.06265C134.331 6.07499 134.431 5.05111 134.816 4.12055C135.201 3.18999 135.854 2.39457 136.691 1.83492C137.528 1.27528 138.513 0.976563 139.52 0.976563C140.869 0.976562 142.163 1.51205 143.117 2.46541C144.072 3.41877 144.609 4.71203 144.611 6.0611Z" fill="#0D397F"/>
<path fill-rule="evenodd" clip-rule="evenodd" d="M10.8014 70.2662C10.8014 71.2718 10.5032 72.2548 9.94448 73.091C9.38578 73.9271 8.59171 74.5788 7.66263 74.9637C6.73355 75.3485 5.71122 75.4492 4.72491 75.253C3.73861 75.0568 2.83263 74.5726 2.12155 73.8615C1.41046 73.1504 0.926217 72.2444 0.730029 71.2581C0.533841 70.2718 0.634514 69.2495 1.01935 68.3204C1.40419 67.3913 2.05591 66.5972 2.89206 66.0385C3.72821 65.4798 4.71124 65.1816 5.71686 65.1816C7.06537 65.1816 8.35864 65.7173 9.31218 66.6709C10.2657 67.6244 10.8014 68.9177 10.8014 70.2662Z" fill="#0D397F"/>
</svg>
