<svg width="74" height="23" viewBox="0 0 74 23" fill="none" xmlns="http://www.w3.org/2000/svg">
<path fill-rule="evenodd" clip-rule="evenodd" d="M6.29079 17.0526L5.84814 16.1304L28.8239 5.10059H68.2705V6.12118H28.9345L6.29079 17.0526Z" fill="#0D397F"/>
<path fill-rule="evenodd" clip-rule="evenodd" d="M73.3612 5.68443C73.3612 6.69128 73.0626 7.67551 72.5033 8.51267C71.9439 9.34983 71.1488 10.0023 70.2186 10.3876C69.2884 10.7729 68.2648 10.8737 67.2774 10.6773C66.2899 10.4809 65.3828 9.99603 64.6708 9.28408C63.9589 8.57214 63.4741 7.66508 63.2776 6.67758C63.0812 5.69009 63.182 4.66652 63.5673 3.73632C63.9526 2.80612 64.6051 2.01105 65.4423 1.45168C66.2794 0.892304 67.2637 0.59375 68.2705 0.59375C69.6206 0.59375 70.9155 1.13008 71.8702 2.08477C72.8249 3.03946 73.3612 4.3343 73.3612 5.68443Z" fill="#0D397F"/>
<path fill-rule="evenodd" clip-rule="evenodd" d="M11.1536 17.5936C11.1536 18.6007 10.8548 19.5852 10.2952 20.4225C9.73553 21.2598 8.94013 21.9123 8.00957 22.2974C7.07901 22.6825 6.05512 22.783 5.06746 22.586C4.0798 22.3891 3.17272 21.9037 2.46102 21.1911C1.74932 20.4785 1.26497 19.5709 1.06924 18.583C0.873506 17.5951 0.975202 16.5713 1.36145 15.6412C1.74769 14.7111 2.40114 13.9165 3.23911 13.3579C4.07708 12.7992 5.06191 12.5017 6.06902 12.5029C7.41808 12.5046 8.71135 13.0416 9.66471 13.9961C10.6181 14.9506 11.1536 16.2445 11.1536 17.5936Z" fill="#0D397F"/>
</svg>
