<svg width="496" height="90" viewBox="0 0 496 90" fill="none" xmlns="http://www.w3.org/2000/svg">
<path d="M117.355 23.6387C115.64 25.2374 113.382 26.1266 111.035 26.1266C108.689 26.1266 106.431 25.2374 104.716 23.6387C103.898 22.8762 103.245 21.954 102.799 20.9291C102.353 19.9043 102.123 18.7989 102.123 17.6815C102.123 16.5641 102.353 15.4586 102.799 14.4338C103.245 13.409 103.898 12.4867 104.716 11.7243C106.431 10.1256 108.689 9.23633 111.035 9.23633C113.382 9.23633 115.64 10.1256 117.355 11.7243C118.174 12.4862 118.827 13.4083 119.274 14.4332C119.721 15.458 119.951 16.5638 119.951 17.6815C119.951 18.7992 119.721 19.9049 119.274 20.9298C118.827 21.9547 118.174 22.8768 117.355 23.6387ZM107.859 20.9465C108.706 21.7827 109.848 22.2517 111.039 22.2517C112.23 22.2517 113.372 21.7827 114.218 20.9465C114.64 20.5159 114.971 20.0049 115.191 19.4439C115.411 18.8829 115.515 18.2836 115.498 17.6815C115.516 17.0803 115.412 16.4818 115.192 15.9219C114.972 15.362 114.641 14.8522 114.218 14.4233C113.371 13.5897 112.229 13.1223 111.039 13.1223C109.849 13.1223 108.707 13.5897 107.859 14.4233C107.436 14.8516 107.104 15.3611 106.883 15.9211C106.663 16.4812 106.558 17.08 106.576 17.6815C106.56 18.2838 106.665 18.8833 106.885 19.4443C107.105 20.0053 107.437 20.5162 107.859 20.9465Z" fill="#27366C"/>
<path d="M125.83 13.5812V9.69141H138.279V13.5812L131.2 21.7922H138.524V25.6716H125.484V21.7922L132.573 13.5812H125.83Z" fill="#27366C"/>
<path d="M141.304 25.6716V9.69141H148.504C150.15 9.69141 151.475 10.1113 152.48 10.9512C152.941 11.2976 153.317 11.745 153.578 12.259C153.838 12.773 153.978 13.3399 153.984 13.916C153.989 14.3484 153.918 14.7783 153.773 15.1861C153.66 15.5313 153.487 15.8538 153.262 16.1387C153.077 16.3585 152.877 16.565 152.663 16.7565C152.508 16.9031 152.333 17.0285 152.145 17.1293L151.93 17.2432C152.006 17.2708 152.107 17.3157 152.238 17.3709C152.477 17.486 152.708 17.6162 152.93 17.7609C153.247 17.9556 153.539 18.1873 153.801 18.4512C154.092 18.7641 154.326 19.125 154.493 19.5177C154.7 19.9849 154.805 20.4909 154.8 21.0018C154.8 22.2512 154.255 23.343 153.165 24.2772C152.074 25.2114 150.676 25.6797 148.97 25.682L141.304 25.6716ZM145.647 13.1152V15.8453H148.047C148.443 15.8654 148.831 15.7318 149.129 15.4726C149.387 15.2068 149.531 14.8516 149.531 14.482C149.531 14.1124 149.387 13.7572 149.129 13.4915C148.832 13.2297 148.443 13.0947 148.047 13.1152H145.647ZM148.614 22.2443C148.841 22.253 149.068 22.2169 149.281 22.1381C149.494 22.0593 149.689 21.9394 149.856 21.7853C150.008 21.6362 150.128 21.4584 150.211 21.2623C150.293 21.0661 150.336 20.8556 150.336 20.6429C150.336 20.4302 150.293 20.2196 150.211 20.0234C150.128 19.8273 150.008 19.6495 149.856 19.5004C149.519 19.1903 149.072 19.0265 148.614 19.0448H145.647V22.2443H148.614Z" fill="#27366C"/>
<path d="M170.04 22.0165V25.6716H157.467V9.69141H169.815V13.3465H161.81V15.8522H167.982V19.3037H161.81V22.0338L170.04 22.0165Z" fill="#27366C"/>
<path d="M177.045 21.5609V25.6716H172.716V9.69141H177.045V15.8522L182.301 9.69141H187.34L181.634 16.3113L187.81 25.6716H182.775L178.774 19.6212L177.045 21.5609Z" fill="#27366C"/>
<path d="M189.335 9.69141H193.678V25.6716H189.335V9.69141Z" fill="#27366C"/>
<path d="M203.481 20.0186C203.159 19.7792 202.798 19.5981 202.413 19.4836C201.977 19.3421 201.493 19.1902 200.964 19.0314C200.421 18.868 199.89 18.665 199.377 18.424C198.865 18.1874 198.382 17.892 197.938 17.5439C197.479 17.1727 197.114 16.7 196.87 16.1633C196.585 15.5313 196.444 14.844 196.458 14.1511C196.458 12.8464 197.025 11.696 198.16 10.6996C199.294 9.70332 200.747 9.21206 202.52 9.22587C203.219 9.22104 203.915 9.30101 204.595 9.46402C205.147 9.58821 205.681 9.78068 206.185 10.037C206.557 10.2375 206.917 10.4587 207.264 10.6996C207.512 10.8572 207.73 11.0556 207.911 11.2864L208.125 11.5073L205.601 14.1511C205.492 14.0299 205.377 13.9147 205.255 13.8059C204.981 13.585 204.681 13.3974 204.363 13.2468C203.937 13.0213 203.462 12.9028 202.98 12.9017C202.534 12.8853 202.098 13.0313 201.752 13.3124C201.602 13.4221 201.478 13.5646 201.392 13.7291C201.305 13.8936 201.257 14.0757 201.251 14.2615C201.255 14.411 201.294 14.5574 201.366 14.6883C201.439 14.8193 201.541 14.931 201.666 15.014C201.989 15.2501 202.349 15.4309 202.731 15.5489C203.167 15.6939 203.647 15.8458 204.169 16.0045C204.712 16.1703 205.242 16.3733 205.757 16.612C206.273 16.8476 206.761 17.143 207.209 17.4921C207.666 17.8637 208.031 18.3363 208.274 18.8727C208.56 19.5031 208.701 20.1895 208.685 20.8814C208.693 21.5945 208.54 22.3002 208.237 22.9461C207.934 23.592 207.489 24.1616 206.936 24.6124C205.772 25.6226 204.222 26.1276 202.288 26.1276C201.519 26.1305 200.752 26.0354 200.006 25.8446C199.376 25.6944 198.768 25.4623 198.198 25.1543C197.763 24.9128 197.344 24.6454 196.942 24.3536C196.652 24.1505 196.382 23.9192 196.137 23.6633L195.891 23.3837L198.405 20.7641C198.452 20.8291 198.505 20.8892 198.564 20.9435C198.644 21.0195 198.796 21.1541 199.024 21.3543C199.246 21.5543 199.487 21.7324 199.743 21.8858C200.043 22.057 200.36 22.1936 200.691 22.2931C201.06 22.4087 201.445 22.4681 201.832 22.4691C202.374 22.4948 202.907 22.3176 203.326 21.9721C203.505 21.827 203.65 21.6434 203.75 21.4349C203.849 21.2264 203.9 20.9984 203.9 20.7675C203.894 20.6185 203.853 20.473 203.781 20.3428C203.708 20.2126 203.605 20.1015 203.481 20.0186Z" fill="#27366C"/>
<path d="M222.569 9.69141V13.5812H218.105V25.6613H213.761V13.5812H209.304V9.69141H222.569Z" fill="#27366C"/>
<path d="M238.181 23.6387C236.467 25.2374 234.208 26.1266 231.862 26.1266C229.516 26.1266 227.257 25.2374 225.543 23.6387C224.723 22.8768 224.07 21.9547 223.623 20.9298C223.176 19.9049 222.946 18.7992 222.946 17.6815C222.946 16.5638 223.176 15.458 223.623 14.4332C224.07 13.4083 224.723 12.4862 225.543 11.7243C227.257 10.1256 229.516 9.23633 231.862 9.23633C234.208 9.23633 236.467 10.1256 238.181 11.7243C239 12.4867 239.652 13.409 240.098 14.4338C240.545 15.4586 240.775 16.5641 240.775 17.6815C240.775 18.7989 240.545 19.9043 240.098 20.9291C239.652 21.954 239 22.8762 238.181 23.6387ZM228.686 20.9465C229.531 21.7825 230.673 22.2514 231.864 22.2514C233.054 22.2514 234.196 21.7825 235.041 20.9465C235.463 20.5159 235.794 20.0049 236.014 19.4439C236.234 18.8829 236.338 18.2836 236.321 17.6815C236.34 17.0802 236.236 16.4815 236.016 15.9214C235.796 15.3614 235.464 14.8517 235.041 14.4233C234.194 13.5899 233.053 13.1226 231.864 13.1226C230.674 13.1226 229.533 13.5899 228.686 14.4233C228.261 14.8509 227.928 15.3603 227.707 15.9204C227.486 16.4805 227.381 17.0797 227.399 17.6815C227.382 18.2842 227.487 18.8842 227.708 19.4454C227.929 20.0065 228.262 20.5172 228.686 20.9465Z" fill="#27366C"/>
<path d="M258.424 9.69141V25.6716H254.672L247.794 16.7669V25.6716H243.437V9.69141H247.241L254.095 18.5961V9.69141H258.424Z" fill="#27366C"/>
<path d="M266.747 9.6921H274.296C275.063 9.66496 275.827 9.79045 276.545 10.0612C277.263 10.3321 277.919 10.7428 278.476 11.2694C279.013 11.7688 279.438 12.3761 279.722 13.0514C280.007 13.7267 280.144 14.4545 280.126 15.1868C280.13 15.7957 280.033 16.401 279.839 16.9781C279.682 17.4611 279.449 17.9156 279.147 18.3242C278.913 18.6364 278.65 18.9264 278.362 19.1905C278.154 19.381 277.921 19.5434 277.671 19.6737L277.37 19.8428L280.686 25.6585H276.122L273.372 20.6332H271.101V25.6723H266.747V9.6921ZM275.302 14.034C274.964 13.7252 274.518 13.5626 274.061 13.5819H271.101V16.7676H274.071C274.529 16.7859 274.975 16.6221 275.312 16.312C275.464 16.1669 275.584 15.9921 275.665 15.7984C275.746 15.6048 275.786 15.3966 275.783 15.1868C275.79 14.9715 275.751 14.7571 275.668 14.5582C275.585 14.3593 275.46 14.1805 275.302 14.034Z" fill="#27366C"/>
<path d="M295.707 22.0165V25.6716H283.134V9.69141H295.482V13.3465H287.477V15.8522H293.653V19.3037H287.477V22.0338L295.707 22.0165Z" fill="#27366C"/>
<path d="M304.605 20.0186C304.283 19.7792 303.921 19.5981 303.536 19.4836C303.1 19.3421 302.616 19.1902 302.084 19.0314C301.539 18.8655 301.008 18.6601 300.493 18.4171C299.981 18.1805 299.498 17.8851 299.055 17.537C298.596 17.1658 298.23 16.6931 297.986 16.1564C297.705 15.526 297.566 14.8412 297.582 14.1511C297.582 12.8464 298.149 11.696 299.283 10.6996C300.417 9.70332 301.871 9.21206 303.643 9.22587C304.342 9.22104 305.039 9.30101 305.718 9.46402C306.27 9.5888 306.804 9.78124 307.309 10.037C307.681 10.2375 308.041 10.4587 308.388 10.6996C308.635 10.8572 308.854 11.0556 309.034 11.2864L309.249 11.5073L306.717 14.1511C306.614 14.0304 306.504 13.9152 306.389 13.8059C306.111 13.5829 305.806 13.394 305.483 13.2434C305.057 13.0178 304.582 12.8993 304.1 12.8982C303.654 12.8818 303.218 13.0278 302.872 13.3089C302.722 13.4208 302.6 13.5654 302.515 13.7317C302.43 13.8981 302.384 14.0817 302.381 14.2684C302.385 14.4179 302.424 14.5643 302.497 14.6952C302.569 14.8262 302.672 14.9379 302.796 15.0209C303.119 15.257 303.479 15.4378 303.861 15.5558C304.297 15.7008 304.778 15.8527 305.3 16.0114C305.842 16.1772 306.372 16.3802 306.887 16.6189C307.404 16.8545 307.891 17.1499 308.339 17.499C308.797 17.8706 309.161 18.3432 309.404 18.8796C309.694 19.5068 309.839 20.1908 309.83 20.8814C309.837 21.5949 309.684 22.3009 309.38 22.9469C309.077 23.5929 308.631 24.1622 308.076 24.6124C306.912 25.6226 305.361 26.1276 303.422 26.1276C302.652 26.1305 301.885 26.0354 301.14 25.8446C300.509 25.6944 299.901 25.4623 299.331 25.1543C298.896 24.914 298.476 24.6478 298.073 24.357C297.782 24.1539 297.512 23.9227 297.267 23.6667L297.021 23.3872L299.532 20.7675C299.581 20.8315 299.636 20.8916 299.694 20.947C299.774 21.0229 299.926 21.1575 300.154 21.3577C300.376 21.5578 300.617 21.7358 300.874 21.8892C301.173 22.0604 301.491 22.1971 301.821 22.2965C302.19 22.4122 302.575 22.4715 302.962 22.4725C303.504 22.4964 304.035 22.318 304.453 21.9721C304.632 21.827 304.777 21.6434 304.877 21.4349C304.976 21.2264 305.027 20.9984 305.027 20.7675C305.021 20.6182 304.979 20.4725 304.906 20.3422C304.833 20.212 304.729 20.1011 304.605 20.0186Z" fill="#27366C"/>
<path d="M319.46 9.69141C321.216 9.69141 322.646 10.2206 323.748 11.2791C324.287 11.795 324.712 12.4182 324.995 13.1085C325.278 13.7988 325.413 14.5407 325.39 15.2862C325.411 16.033 325.274 16.7758 324.988 17.4663C324.702 18.1567 324.273 18.7792 323.73 19.2933C323.157 19.8271 322.484 20.2422 321.749 20.5147C321.014 20.7872 320.233 20.9117 319.449 20.881H316.593V25.6716H312.25V9.69141H319.46ZM316.604 13.5812V17.0016H319.225C319.464 17.0068 319.702 16.964 319.925 16.8757C320.148 16.7873 320.351 16.6553 320.521 16.4873C320.69 16.3365 320.825 16.1518 320.917 15.9455C321.009 15.7391 321.057 15.5157 321.057 15.2897C321.057 15.0637 321.009 14.8402 320.917 14.6338C320.825 14.4275 320.69 14.2429 320.521 14.092C320.35 13.9251 320.147 13.794 319.924 13.7063C319.702 13.6186 319.464 13.5761 319.225 13.5812H316.604Z" fill="#27366C"/>
<path d="M337.372 21.3262C337.66 21.0231 337.886 20.6661 338.036 20.2759C338.186 19.8856 338.258 19.4696 338.247 19.0517V9.69141H342.59V19.0517C342.612 19.9898 342.439 20.9222 342.082 21.7901C341.725 22.6581 341.191 23.4426 340.515 24.0943C339.085 25.4016 337.217 26.1268 335.278 26.1268C333.339 26.1268 331.471 25.4016 330.041 24.0943C329.365 23.4426 328.831 22.6581 328.474 21.7901C328.117 20.9222 327.944 19.9898 327.966 19.0517V9.69141H332.306V19.0517C332.295 19.4696 332.367 19.8856 332.517 20.2759C332.667 20.6661 332.892 21.0231 333.181 21.3262C333.446 21.6176 333.769 21.8504 334.13 22.0097C334.49 22.169 334.88 22.2513 335.275 22.2513C335.669 22.2513 336.059 22.169 336.419 22.0097C336.78 21.8504 337.103 21.6176 337.368 21.3262H337.372Z" fill="#27366C"/>
<path d="M346.061 25.6716V9.69141H353.26C354.906 9.69141 356.232 10.1113 357.237 10.9512C357.699 11.2974 358.075 11.7447 358.336 12.2587C358.597 12.7727 358.737 13.3396 358.745 13.916C358.746 14.3428 358.674 14.7667 358.53 15.1689C358.417 15.514 358.244 15.8365 358.018 16.1215C357.835 16.3421 357.635 16.5486 357.42 16.7393C357.265 16.8859 357.09 17.0112 356.902 17.112L356.691 17.2259L356.995 17.3536C357.234 17.4687 357.465 17.599 357.687 17.7436C358.005 17.9366 358.297 18.1685 358.558 18.4339C358.848 18.7469 359.082 19.1077 359.25 19.5004C359.457 19.9677 359.562 20.4736 359.557 20.9845C359.557 22.234 359.012 23.3258 357.922 24.26C356.831 25.1942 355.434 25.6624 353.731 25.6647L346.061 25.6716ZM350.404 13.1152V15.8453H352.804C353.2 15.8661 353.588 15.7324 353.886 15.4726C354.144 15.2068 354.287 14.8516 354.287 14.482C354.287 14.1124 354.144 13.7572 353.886 13.4915C353.589 13.2291 353.2 13.0939 352.804 13.1152H350.404ZM353.375 22.2443C353.832 22.2608 354.277 22.0958 354.612 21.7853C354.764 21.6362 354.885 21.4584 354.968 21.2623C355.05 21.0661 355.093 20.8556 355.093 20.6429C355.093 20.4302 355.05 20.2196 354.968 20.0234C354.885 19.8273 354.764 19.6495 354.612 19.5004C354.276 19.1912 353.831 19.0274 353.375 19.0448H350.404V22.2443H353.375Z" fill="#27366C"/>
<path d="M362.224 25.6716V9.69141H366.567V21.7922H373.655V25.6716H362.224Z" fill="#27366C"/>
<path d="M375.875 9.69141H380.219V25.6716H375.875V9.69141Z" fill="#27366C"/>
<path d="M388.134 21.5609V25.6716H383.791V9.69141H388.134V15.8522L393.39 9.69141H398.428L392.712 16.3113L398.884 25.6716H393.857L389.859 19.6212L388.134 21.5609Z" fill="#27366C"/>
<path d="M404.407 22.2512L403.269 25.6716H398.58L404.642 9.69141H409.445L415.507 25.6716H410.818L409.666 22.2512H404.407ZM407.042 14.1507L405.558 18.8343H408.529L407.042 14.1507Z" fill="#27366C"/>
<path d="M423.474 20.018C423.153 19.778 422.793 19.5968 422.409 19.483C421.973 19.3415 421.489 19.1897 420.956 19.0309C420.414 18.8675 419.885 18.6644 419.373 18.4235C418.86 18.1862 418.376 17.8909 417.931 17.5433C417.472 17.1732 417.107 16.7002 416.866 16.1628C416.578 15.5326 416.436 14.8462 416.451 14.154C416.451 12.8494 417.019 11.6989 418.155 10.7026C419.292 9.70625 420.745 9.21499 422.516 9.2288C423.215 9.22396 423.911 9.30393 424.591 9.46695C425.142 9.59172 425.677 9.78417 426.181 10.0399C426.552 10.24 426.913 10.4601 427.26 10.6991C427.507 10.8577 427.725 11.0559 427.907 11.2859L428.118 11.5068L425.597 14.1506C425.521 14.0643 425.41 13.9504 425.251 13.8054C424.972 13.5832 424.668 13.3944 424.345 13.2428C423.919 13.0173 423.444 12.8988 422.962 12.8977C422.516 12.8813 422.08 13.0273 421.734 13.3084C421.584 13.4202 421.462 13.5649 421.377 13.7312C421.292 13.8976 421.246 14.0812 421.243 14.2679C421.247 14.4169 421.286 14.5629 421.358 14.6937C421.43 14.8246 421.531 14.9365 421.655 15.0203C421.979 15.2558 422.34 15.4365 422.723 15.5553C423.159 15.7003 423.636 15.8521 424.162 16.0109C424.704 16.1767 425.235 16.3796 425.749 16.6183C426.264 16.8548 426.751 17.1501 427.198 17.4985C427.656 17.8701 428.022 18.3426 428.266 18.879C428.551 19.5099 428.691 20.196 428.678 20.8878C428.686 21.6013 428.532 22.3073 428.229 22.9533C427.925 23.5993 427.479 24.1686 426.925 24.6188C425.756 25.6289 424.204 26.134 422.27 26.134C421.501 26.1369 420.734 26.0418 419.988 25.851C419.357 25.7007 418.747 25.4686 418.176 25.1607C417.743 24.9175 417.324 24.6502 416.921 24.3599C416.631 24.1569 416.363 23.9257 416.119 23.6697L415.873 23.3901L418.384 20.7704C418.432 20.8353 418.486 20.8954 418.546 20.9499C418.626 21.0258 418.778 21.1605 419.003 21.3606C419.226 21.5608 419.468 21.7388 419.725 21.8922C420.024 22.064 420.342 22.2006 420.673 22.2994C421.041 22.4148 421.424 22.4741 421.81 22.4755C422.352 22.5003 422.884 22.3218 423.301 21.975C423.481 21.83 423.627 21.6466 423.727 21.4381C423.826 21.2297 423.878 21.0015 423.878 20.7704C423.875 20.622 423.837 20.4765 423.767 20.3457C423.696 20.2149 423.596 20.1026 423.474 20.018Z" fill="#27366C"/>
<path d="M431.13 9.69141H435.473V25.6716H431.13V9.69141Z" fill="#27366C"/>
<path d="M119.502 47.6299C119.268 48.3618 118.917 49.0516 118.465 49.6731C118.084 50.1722 117.665 50.6418 117.213 51.0779C116.885 51.4024 116.529 51.697 116.148 51.958L115.712 52.203C115.817 52.3422 115.932 52.4726 116.058 52.5931C116.401 52.8547 116.784 53.0598 117.192 53.2005C117.852 53.4606 118.557 53.5873 119.267 53.5733H119.834V56.9937H119.032C118.139 57.0027 117.25 56.8866 116.39 56.6485C115.677 56.4582 114.996 56.1627 114.371 55.7718C113.892 55.4621 113.437 55.116 113.012 54.7364C112.705 54.4677 112.425 54.1707 112.175 53.8494L111.953 53.4835H111.037C109.87 53.5084 108.709 53.3008 107.624 52.8729C106.538 52.4451 105.548 51.8055 104.713 50.9916C103.893 50.23 103.24 49.3082 102.793 48.2836C102.347 47.259 102.116 46.1535 102.116 45.0361C102.116 43.9187 102.347 42.8132 102.793 41.7886C103.24 40.764 103.893 39.8422 104.713 39.0806C106.426 37.4797 108.685 36.5889 111.032 36.5889C113.379 36.5889 115.638 37.4797 117.351 39.0806C118.494 40.149 119.305 41.5234 119.687 43.0394C120.068 44.5555 120.004 46.1492 119.502 47.6299ZM107.842 48.2822C108.69 49.1158 109.832 49.5831 111.022 49.5831C112.211 49.5831 113.354 49.1158 114.201 48.2822C115.019 47.3912 115.472 46.2269 115.472 45.0188C115.472 43.8107 115.019 42.6465 114.201 41.7555C113.353 40.9235 112.211 40.4573 111.022 40.4573C109.832 40.4573 108.69 40.9235 107.842 41.7555C107.016 42.642 106.556 43.808 106.556 45.0188C106.556 46.2297 107.016 47.3957 107.842 48.2822Z" fill="#27366C"/>
<path d="M131.906 48.6451C132.487 48.0332 132.801 47.2167 132.781 46.374V37.0137H137.124V46.374C137.147 47.3121 136.974 48.2447 136.617 49.1127C136.26 49.9808 135.726 50.7653 135.049 51.4166C133.62 52.7244 131.752 53.4499 129.814 53.4499C127.875 53.4499 126.007 52.7244 124.578 51.4166C123.902 50.7653 123.368 49.9808 123.01 49.1127C122.653 48.2447 122.481 47.3121 122.504 46.374V37.0137H126.847V46.374C126.836 46.7916 126.909 47.2071 127.059 47.5968C127.21 47.9865 127.436 48.3427 127.725 48.6451C127.99 48.9364 128.313 49.1692 128.674 49.3285C129.035 49.4878 129.425 49.5701 129.819 49.5701C130.213 49.5701 130.603 49.4878 130.964 49.3285C131.324 49.1692 131.647 48.9364 131.913 48.6451H131.906Z" fill="#27366C"/>
<path d="M140.592 37.0132H148.14C148.907 36.9869 149.671 37.1125 150.389 37.3826C151.106 37.6528 151.763 38.0621 152.321 38.587C152.856 39.0855 153.279 39.6914 153.563 40.3647C153.847 41.0381 153.984 41.7638 153.967 42.4941C153.973 43.1016 153.877 43.7058 153.683 44.2819C153.529 44.7668 153.296 45.2228 152.992 45.6314C152.751 45.9477 152.482 46.2423 152.19 46.5116C151.988 46.7047 151.762 46.8716 151.519 47.0086L151.218 47.1742L154.534 52.9934H149.97L147.224 47.975H144.935V53.0037H140.592V37.0132ZM149.143 41.3516C148.807 41.0437 148.362 40.8811 147.905 40.8995H144.935V44.0886H147.905C148.132 44.098 148.358 44.0622 148.571 43.9834C148.783 43.9045 148.978 43.7843 149.143 43.6296C149.295 43.4814 149.416 43.3042 149.499 43.1086C149.582 42.913 149.624 42.7029 149.624 42.4906C149.624 42.2784 149.582 42.0682 149.499 41.8726C149.416 41.677 149.295 41.4999 149.143 41.3516Z" fill="#27366C"/>
<path d="M156.989 37.0137H161.333V52.9939H156.989V37.0137Z" fill="#27366C"/>
<path d="M164.905 52.9939V37.0137H169.248V49.1145H176.354V52.9939H164.905Z" fill="#27366C"/>
<path d="M178.546 37.0137H182.889V52.9939H178.546V37.0137Z" fill="#27366C"/>
<path d="M192.689 47.33C192.367 47.0919 192.007 46.9109 191.624 46.795C191.188 46.6535 190.704 46.5051 190.171 46.3463C189.629 46.1813 189.098 45.9783 188.584 45.7388C188.073 45.5008 187.59 45.2055 187.146 44.8587C186.687 44.4882 186.322 44.0153 186.081 43.4781C185.793 42.8493 185.652 42.1639 185.666 41.4728C185.666 40.1636 186.234 39.0131 187.371 38.0214C188.507 37.0297 189.959 36.5373 191.727 36.5442C192.426 36.5392 193.123 36.6203 193.802 36.7858C194.354 36.9096 194.889 37.1021 195.393 37.3587C195.769 37.5579 196.133 37.7792 196.482 38.0214C196.728 38.1799 196.946 38.3768 197.129 38.6047L197.34 38.829L194.819 41.459C194.711 41.3372 194.595 41.222 194.473 41.1139C194.196 40.8902 193.893 40.7013 193.571 40.5513C193.144 40.3268 192.67 40.2084 192.187 40.2062C191.741 40.1904 191.305 40.3377 190.96 40.6203C190.81 40.7315 190.687 40.8754 190.601 41.0411C190.516 41.2068 190.469 41.3899 190.465 41.5764C190.469 41.7259 190.508 41.8724 190.58 42.0034C190.653 42.1344 190.756 42.246 190.88 42.3288C191.203 42.5656 191.563 42.7464 191.945 42.8638C192.381 43.0087 192.862 43.1606 193.387 43.3228C193.929 43.4886 194.458 43.6916 194.971 43.9303C195.488 44.1659 195.975 44.4613 196.423 44.8104C196.882 45.1805 197.247 45.6535 197.488 46.191C197.775 46.82 197.917 47.5053 197.903 48.1963C197.911 48.9102 197.758 49.6168 197.454 50.2634C197.151 50.9099 196.705 51.4798 196.15 51.9307C194.981 52.9432 193.43 53.4482 191.496 53.4459C190.725 53.449 189.957 53.3539 189.21 53.1629C188.58 53.0121 187.972 52.78 187.402 52.4726C186.968 52.2303 186.549 51.9629 186.146 51.6719C185.856 51.4679 185.587 51.2368 185.341 50.9816L185.095 50.7055L187.609 48.0858C187.657 48.1507 187.712 48.2108 187.772 48.2653C187.848 48.3378 188 48.4758 188.228 48.676C188.452 48.8731 188.692 49.0499 188.947 49.2041C189.246 49.3781 189.566 49.5149 189.898 49.6114C190.266 49.7298 190.65 49.7903 191.036 49.7908C191.578 49.8134 192.108 49.6351 192.526 49.2904C192.706 49.1453 192.851 48.9617 192.95 48.7532C193.05 48.5447 193.101 48.3167 193.1 48.0858C193.096 47.9363 193.057 47.7899 192.986 47.6585C192.914 47.5271 192.812 47.4145 192.689 47.33Z" fill="#27366C"/>
<path d="M214.858 52.9939H210.518V46.8296H204.688V52.9939H200.345V37.0137H204.688V42.9502H210.518V37.0137H214.858V52.9939Z" fill="#27366C"/>
<path d="M221.576 37.0137H226.265L229.703 47.9755L233.133 37.024H237.822L232.106 53.0042H227.292L221.576 37.0137Z" fill="#27366C"/>
<path d="M241.971 49.57L240.833 52.9939H236.144L242.206 37.0137H247.006L253.067 52.9939H248.379L247.241 49.57H241.971ZM244.606 41.4695L243.123 46.1497H246.089L244.606 41.4695Z" fill="#27366C"/>
<path d="M269.569 48.6343C269.857 48.3318 270.083 47.9754 270.233 47.5858C270.383 47.1961 270.455 46.7806 270.444 46.3633V37.0029H274.787V46.3633C274.809 47.3013 274.636 48.2337 274.279 49.1016C273.922 49.9696 273.388 50.7542 272.712 51.4058C271.282 52.7131 269.414 53.4383 267.475 53.4383C265.536 53.4383 263.668 52.7131 262.238 51.4058C261.562 50.754 261.028 49.9694 260.671 49.1015C260.314 48.2336 260.141 47.3013 260.163 46.3633V37.0029H264.506V46.3633C264.496 46.7808 264.568 47.1964 264.719 47.586C264.87 47.9757 265.096 48.3319 265.385 48.6343C265.65 48.9257 265.973 49.1584 266.334 49.3177C266.694 49.477 267.084 49.5593 267.478 49.5593C267.873 49.5593 268.263 49.477 268.623 49.3177C268.984 49.1584 269.307 48.9257 269.572 48.6343H269.569Z" fill="#27366C"/>
<path d="M292.194 37.0029L286.485 47.2848V52.99H282.142V47.2848L276.426 37.0029H281.129L284.334 43.1638L287.526 37.0029H292.194Z" fill="#27366C"/>
<path d="M300.361 47.9542H292.021V44.5234H300.361V47.9542Z" fill="#27366C"/>
<path d="M310.919 37.0029V47.4988C310.919 49.2659 310.377 50.6983 309.293 51.7959C308.742 52.3439 308.084 52.7726 307.359 53.0553C306.634 53.338 305.859 53.4685 305.082 53.4387C304.518 53.441 303.956 53.3678 303.411 53.2213C302.951 53.1053 302.506 52.9338 302.087 52.7105C301.768 52.5296 301.458 52.3314 301.16 52.1168C300.95 51.9689 300.756 51.8001 300.579 51.6129L300.403 51.3886L303.028 48.7586C303.224 49.0278 303.486 49.2426 303.788 49.3828C304.091 49.5229 304.424 49.5836 304.757 49.5593C305.002 49.5647 305.246 49.5161 305.47 49.4171C305.695 49.3181 305.895 49.1711 306.057 48.9864C306.413 48.5747 306.599 48.0425 306.575 47.4988V37.0029H310.919Z" fill="#27366C"/>
<path d="M328.71 50.9467C326.996 52.5476 324.737 53.4384 322.39 53.4384C320.044 53.4384 317.784 52.5476 316.071 50.9467C315.252 50.1851 314.599 49.2633 314.152 48.2386C313.705 47.214 313.475 46.1086 313.475 44.9912C313.475 43.8738 313.705 42.7683 314.152 41.7437C314.599 40.7191 315.252 39.7973 316.071 39.0357C317.784 37.4347 320.044 36.5439 322.39 36.5439C324.737 36.5439 326.996 37.4347 328.71 39.0357C329.528 39.7978 330.181 40.7198 330.627 41.7443C331.073 42.7689 331.303 43.8741 331.303 44.9912C331.303 46.1083 331.073 47.2135 330.627 48.238C330.181 49.2625 329.528 50.1845 328.71 50.9467ZM319.214 48.258C320.061 49.0914 321.203 49.5586 322.392 49.5586C323.582 49.5586 324.723 49.0914 325.57 48.258C326.393 47.3696 326.85 46.2043 326.85 44.9946C326.85 43.7849 326.393 42.6197 325.57 41.7313C324.722 40.8995 323.581 40.4334 322.392 40.4334C321.203 40.4334 320.062 40.8995 319.214 41.7313C318.388 42.6178 317.929 43.7837 317.929 44.9946C317.929 46.2055 318.388 47.3715 319.214 48.258Z" fill="#27366C"/>
<path d="M347.009 37.0029L341.296 47.2848V52.99H336.95V47.2848L331.234 37.0029H335.923L339.128 43.1638L342.334 37.0029H347.009Z" fill="#27366C"/>
<path d="M357.846 48.869V52.9831H353.503V37.0029H357.846V43.1638L363.106 37.0029H368.14L362.424 43.6228L368.614 52.9831H363.579L359.565 46.9397L357.846 48.869Z" fill="#27366C"/>
<path d="M383.528 50.9467C381.815 52.5476 379.556 53.4384 377.209 53.4384C374.862 53.4384 372.603 52.5476 370.889 50.9467C370.07 50.1851 369.417 49.2633 368.97 48.2386C368.523 47.214 368.293 46.1086 368.293 44.9912C368.293 43.8738 368.523 42.7683 368.97 41.7437C369.417 40.7191 370.07 39.7973 370.889 39.0357C372.603 37.4347 374.862 36.5439 377.209 36.5439C379.556 36.5439 381.815 37.4347 383.528 39.0357C384.347 39.7973 385.001 40.7191 385.447 41.7437C385.894 42.7683 386.125 43.8738 386.125 44.9912C386.125 46.1086 385.894 47.214 385.447 48.2386C385.001 49.2633 384.347 50.1851 383.528 50.9467ZM374.033 48.258C374.88 49.0916 376.022 49.5589 377.212 49.5589C378.402 49.5589 379.544 49.0916 380.392 48.258C381.209 47.367 381.663 46.2027 381.663 44.9946C381.663 43.7865 381.209 42.6222 380.392 41.7313C379.543 40.8993 378.401 40.4331 377.212 40.4331C376.023 40.4331 374.881 40.8993 374.033 41.7313C373.208 42.6185 372.749 43.7842 372.749 44.9946C372.749 46.205 373.208 47.3707 374.033 48.258Z" fill="#27366C"/>
<path d="M393.144 43.5089V52.9831H388.801V37.0029H392.684L397.598 43.288L402.522 37.0029H406.406V52.9831H402.062V43.5089L397.598 49.1037L393.144 43.5089Z" fill="#27366C"/>
<path d="M414.331 43.5089V52.9831H409.988V37.0029H413.874L418.785 43.288L423.709 37.0029H427.595V52.9831H423.249V43.5089L418.781 49.1037L414.331 43.5089Z" fill="#27366C"/>
<path d="M440.469 48.6343C440.758 48.3319 440.984 47.9757 441.135 47.586C441.285 47.1964 441.358 46.7808 441.347 46.3633V37.0029H445.691V46.3633C445.713 47.3013 445.54 48.2336 445.182 49.1015C444.825 49.9694 444.292 50.754 443.616 51.4058C442.186 52.7131 440.318 53.4383 438.379 53.4383C436.44 53.4383 434.571 52.7131 433.142 51.4058C432.465 50.7542 431.932 49.9696 431.575 49.1016C431.218 48.2337 431.045 47.3013 431.067 46.3633V37.0029H435.41V46.3633C435.399 46.7806 435.471 47.1961 435.621 47.5858C435.771 47.9754 435.997 48.3318 436.285 48.6343C436.55 48.9257 436.873 49.1584 437.234 49.3177C437.594 49.477 437.984 49.5593 438.379 49.5593C438.773 49.5593 439.163 49.477 439.524 49.3177C439.884 49.1584 440.207 48.9257 440.473 48.6343H440.469Z" fill="#27366C"/>
<path d="M464.132 37.0029V52.9831H460.38L453.502 44.0784V52.9831H449.159V37.0029H452.932L459.789 45.9042V37.0029H464.132Z" fill="#27366C"/>
<path d="M471.718 49.5593L470.581 52.9831H465.892L471.953 37.0029H476.753L482.818 52.9831H478.129L476.978 49.5593H471.718ZM474.353 41.4588L472.87 46.1389H475.84L474.353 41.4588Z" fill="#27366C"/>
<path d="M484.568 52.9831V37.0029H488.912V49.1037H496V52.9831H484.568Z" fill="#27366C"/>
<path d="M106.905 80.3259H102.102L107.361 71.9907L102.562 64.3457H107.361L110.107 69.0293L112.856 64.3492H117.656L112.856 71.9941L118.112 80.3294H113.312L110.107 74.9693L106.905 80.3259Z" fill="#27366C"/>
<path d="M133.389 78.293C131.675 79.8916 129.416 80.7809 127.07 80.7809C124.724 80.7809 122.465 79.8916 120.75 78.293C119.931 77.5311 119.278 76.609 118.831 75.5841C118.384 74.5592 118.154 73.4534 118.154 72.3358C118.154 71.2181 118.384 70.1123 118.831 69.0874C119.278 68.0625 119.931 67.1404 120.75 66.3786C122.465 64.7799 124.724 63.8906 127.07 63.8906C129.416 63.8906 131.675 64.7799 133.389 66.3786C134.208 67.1404 134.862 68.0625 135.309 69.0874C135.755 70.1123 135.986 71.2181 135.986 72.3358C135.986 73.4534 135.755 74.5592 135.309 75.5841C134.862 76.609 134.208 77.5311 133.389 78.293ZM123.894 75.587C124.74 76.4231 125.883 76.8922 127.073 76.8922C128.264 76.8922 129.407 76.4231 130.253 75.587C131.073 74.6981 131.528 73.5338 131.528 72.3254C131.528 71.117 131.073 69.9527 130.253 69.0638C129.404 68.2318 128.263 67.7656 127.073 67.7656C125.884 67.7656 124.742 68.2318 123.894 69.0638C123.069 69.9505 122.611 71.1156 122.611 72.3254C122.611 73.5352 123.069 74.7003 123.894 75.587Z" fill="#27366C"/>
<path d="M149.444 64.3457V74.845C149.444 76.6122 148.902 78.0434 147.819 79.1386C147.268 79.6874 146.609 80.1167 145.883 80.3994C145.158 80.6821 144.382 80.8122 143.604 80.7815C143.04 80.7831 142.479 80.7112 141.934 80.5675C141.474 80.4499 141.031 80.2772 140.613 80.0533C140.292 79.8755 139.982 79.6784 139.686 79.4631C139.473 79.317 139.278 79.1467 139.105 78.9557L138.925 78.7313L141.55 76.1013C141.746 76.3705 142.008 76.5854 142.31 76.7261C142.613 76.8668 142.946 76.9285 143.279 76.9055C143.524 76.9104 143.768 76.8616 143.992 76.7627C144.217 76.6637 144.417 76.5169 144.579 76.3326C144.935 75.9206 145.12 75.3887 145.098 74.845V64.3457H149.444Z" fill="#27366C"/>
<path d="M156.453 76.9055L155.312 80.3259H150.623L156.689 64.3457H161.485L167.546 80.3259H162.868L161.716 76.9055H156.453ZM159.088 68.805L157.601 73.4851H160.572L159.088 68.805Z" fill="#27366C"/>
<path d="M169.3 80.3259V64.3457H173.643V76.4499H180.731V80.3259H169.3Z" fill="#27366C"/>
<path d="M182.941 64.3457H187.284V80.3259H182.941V64.3457Z" fill="#27366C"/>
<path d="M192.547 78.2926C191.728 77.5307 191.075 76.6086 190.628 75.5837C190.181 74.5588 189.95 73.4531 189.95 72.3354C189.95 71.2177 190.181 70.112 190.628 69.0871C191.075 68.0622 191.728 67.1401 192.547 66.3782C193.701 65.2985 195.114 64.5333 196.65 64.1562C198.185 63.779 199.792 63.8025 201.316 64.2245C201.988 64.4035 202.633 64.6729 203.232 65.0252C203.692 65.3072 204.132 65.6197 204.55 65.9606C204.848 66.1981 205.12 66.4678 205.359 66.7648L205.615 67.0857L202.98 69.8296C202.935 69.7675 202.876 69.6916 202.8 69.5984C202.64 69.4239 202.469 69.2602 202.288 69.1083C202.026 68.8799 201.746 68.6722 201.451 68.487C201.093 68.2741 200.708 68.1082 200.307 67.9935C199.841 67.8525 199.358 67.7804 198.872 67.7795C197.659 67.7795 196.497 68.2602 195.639 69.1159C194.782 69.9716 194.3 71.1322 194.3 72.3423C194.3 73.5524 194.782 74.713 195.639 75.5687C196.497 76.4244 197.659 76.9051 198.872 76.9051C199.385 76.9117 199.896 76.8264 200.379 76.6532C200.732 76.5455 201.058 76.3656 201.337 76.1251L201.607 75.88V74.1543H199.093V71.4104H205.96V77.5747C205.871 77.6984 205.77 77.8139 205.66 77.9198C205.517 78.0648 205.223 78.3202 204.778 78.6861C204.329 79.0565 203.846 79.3835 203.336 79.6628C202.708 79.9897 202.046 80.2455 201.361 80.4256C200.552 80.6552 199.714 80.7714 198.872 80.7707C197.705 80.7976 196.546 80.5923 195.46 80.1668C194.374 79.7413 193.384 79.1042 192.547 78.2926Z" fill="#27366C"/>
<path d="M209.308 64.3457H213.651V80.3259H209.308V64.3457Z" fill="#27366C"/>
<path d="M220.356 64.3457H225.045L228.503 75.3006L231.929 64.3457H236.618L230.902 80.3259H226.072L220.356 64.3457Z" fill="#27366C"/>
<path d="M240.751 76.9055L239.613 80.3259H234.924L240.986 64.3457H245.785L251.85 80.3259H247.162L246.01 76.9055H240.751ZM243.385 68.805L241.902 73.4851H244.872L243.385 68.805Z" fill="#27366C"/>
<path d="M253.14 68.2355V64.3457H265.589V68.2355L258.497 76.4499H265.82V80.3259H252.794V76.4499L259.883 68.2355H253.14Z" fill="#27366C"/>
<path d="M268.615 64.3457H272.958V80.3259H268.615V64.3457Z" fill="#27366C"/>
<path d="M276.536 64.3454H284.085C284.852 64.3183 285.616 64.4438 286.334 64.7146C287.052 64.9854 287.709 65.3961 288.266 65.9227C288.801 66.4212 289.224 67.0271 289.508 67.7004C289.791 68.3738 289.929 69.0995 289.912 69.8298C289.917 70.4373 289.821 71.0415 289.628 71.6176C289.473 72.1012 289.239 72.5559 288.936 72.9637C288.697 73.2826 288.429 73.5784 288.134 73.8473C287.933 74.0403 287.708 74.2062 287.463 74.3408L287.163 74.5099L290.479 80.3256H285.914L283.148 75.3003H280.859V80.3256H276.536V64.3454ZM285.091 68.6839C284.754 68.3751 284.307 68.2125 283.85 68.2318H280.88V71.4174H283.85C284.308 71.4358 284.754 71.2719 285.091 70.9619C285.247 70.8155 285.37 70.6382 285.452 70.4414C285.534 70.2445 285.574 70.0326 285.568 69.8194C285.574 69.6072 285.534 69.3962 285.452 69.2005C285.37 69.0047 285.247 68.8286 285.091 68.6839Z" fill="#27366C"/>
<path d="M292.924 80.3259V64.3457H297.267V76.4499H304.359V80.3259H292.924Z" fill="#27366C"/>
<path d="M306.565 64.3457H310.908V80.3259H306.565V64.3457Z" fill="#27366C"/>
<path d="M316.171 78.2926C315.352 77.5307 314.698 76.6086 314.252 75.5837C313.805 74.5588 313.574 73.4531 313.574 72.3354C313.574 71.2177 313.805 70.112 314.252 69.0871C314.698 68.0622 315.352 67.1401 316.171 66.3782C317.325 65.2985 318.738 64.5333 320.273 64.1562C321.809 63.779 323.416 63.8025 324.94 64.2245C325.612 64.4035 326.257 64.6729 326.856 65.0252C327.316 65.3072 327.756 65.6197 328.174 65.9606C328.472 66.1981 328.743 66.4678 328.983 66.7648L329.239 67.0857L326.604 69.8296C326.559 69.7675 326.5 69.6916 326.424 69.5984C326.264 69.4239 326.093 69.2602 325.912 69.1083C325.65 68.8799 325.37 68.6722 325.075 68.487C324.717 68.2741 324.332 68.1082 323.931 67.9935C323.465 67.8525 322.982 67.7804 322.496 67.7795C321.283 67.7795 320.12 68.2602 319.263 69.1159C318.406 69.9716 317.924 71.1322 317.924 72.3423C317.924 73.5524 318.406 74.713 319.263 75.5687C320.12 76.4244 321.283 76.9051 322.496 76.9051C323.009 76.9117 323.52 76.8264 324.003 76.6532C324.356 76.5455 324.682 76.3656 324.961 76.1251L325.231 75.88V74.1543H322.72V71.4104H329.584V77.5747C329.495 77.6984 329.394 77.8139 329.284 77.9198C329.141 78.0648 328.847 78.3202 328.402 78.6861C327.953 79.0565 327.47 79.3835 326.96 79.6628C326.332 79.9897 325.67 80.2455 324.985 80.4256C324.175 80.6552 323.338 80.7714 322.496 80.7707C321.329 80.7976 320.169 80.5923 319.084 80.1668C317.998 79.7413 317.008 79.1042 316.171 78.2926Z" fill="#27366C"/>
<path d="M332.932 64.3457H337.275V80.3259H332.932V64.3457Z" fill="#27366C"/>
<path d="M138.863 65.3493C138.786 65.3156 138.706 65.2879 138.624 65.2665C138.947 64.4655 139.566 63.8192 140.353 63.4614L139.427 62.0566C138.167 62.652 137.179 63.6996 136.66 64.9904C135.893 66.7575 136.155 68.076 137.431 68.6282C138.389 69.0424 139.361 68.6765 139.821 67.6135C139.916 67.4032 139.967 67.1755 139.97 66.9447C139.973 66.7139 139.928 66.485 139.838 66.2724C139.748 66.0598 139.615 65.868 139.447 65.7092C139.279 65.5503 139.08 65.4278 138.863 65.3493Z" fill="#27366C"/>
<path d="M122.811 10.6784C122.733 10.6462 122.654 10.6186 122.573 10.5956C122.896 9.79553 123.515 9.15031 124.302 8.79393L123.375 7.38574C122.116 7.98356 121.129 9.03202 120.609 10.3229C119.841 12.0901 120.104 13.4085 121.38 13.9608C122.338 14.3749 123.306 14.0056 123.769 12.9253C123.861 12.7158 123.909 12.4898 123.91 12.2611C123.912 12.0324 123.866 11.8059 123.776 11.5955C123.687 11.385 123.555 11.1951 123.389 11.0374C123.223 10.8797 123.026 10.7576 122.811 10.6784Z" fill="#27366C"/>
<path d="M45.0843 0L0 45L45.0843 90L90.1687 45L45.0843 0ZM9.55769 45L45.0843 9.53981L80.611 45L45.0843 80.4602L9.55769 45Z" fill="#263469"/>
<path d="M45.0843 14.1514L14.1775 45.0004L18.9563 49.7703L45.0843 23.6946L71.2124 49.7703L75.9912 45.0004L45.0843 14.1514Z" fill="#263469"/>
<path d="M45.0844 29.0195L21.6259 52.4342L26.6433 57.4422L31.5916 52.5032V62.3812L38.3449 69.1219V45.7625L41.6299 42.4871V72.3974L45.0844 75.8488L48.5423 72.3974V42.4871L51.8238 45.7625V69.1219L58.5771 62.3812V52.5032L63.5254 57.4422L68.5428 52.4342L45.0844 29.0195Z" fill="#263469"/>
</svg>
