<svg width="91" height="90" viewBox="0 0 91 90" fill="none" xmlns="http://www.w3.org/2000/svg">
<path d="M45.0843 0L0 45L45.0843 90L90.1687 45L45.0843 0ZM9.55769 45L45.0843 9.53981L80.611 45L45.0843 80.4602L9.55769 45Z" fill="#263469"/>
<path d="M45.0843 14.1509L14.1775 45L18.9563 49.7699L45.0843 23.6942L71.2124 49.7699L75.9912 45L45.0843 14.1509Z" fill="#263469"/>
<path d="M45.0842 29.0198L21.6257 52.4344L26.6432 57.4425L31.5914 52.5034V62.3815L38.3448 69.1222V45.7628L41.6298 42.4873V72.3976L45.0842 75.849L48.5421 72.3976V42.4873L51.8237 45.7628V69.1222L58.577 62.3815V52.5034L63.5253 57.4425L68.5427 52.4344L45.0842 29.0198Z" fill="#263469"/>
</svg>
